<?xml version="1.0" encoding="UTF-8" standalone="no"?>
<svg
   width="196.97569"
   height="134.3054"
   version="1.1"
   id="svg186"
   sodipodi:docname="step-1.svg"
   inkscape:version="1.1.2 (0a00cf5339, 2022-02-04)"
   xmlns:inkscape="http://www.inkscape.org/namespaces/inkscape"
   xmlns:sodipodi="http://sodipodi.sourceforge.net/DTD/sodipodi-0.dtd"
   xmlns="http://www.w3.org/2000/svg"
   xmlns:svg="http://www.w3.org/2000/svg">
  <defs
     id="defs190" />
  <sodipodi:namedview
     id="namedview188"
     pagecolor="#ffffff"
     bordercolor="#666666"
     borderopacity="1.0"
     inkscape:pageshadow="2"
     inkscape:pageopacity="0.0"
     inkscape:pagecheckerboard="0"
     showgrid="false"
     inkscape:zoom="5.2100307"
     inkscape:cx="89.730758"
     inkscape:cy="63.627265"
     inkscape:window-width="1550"
     inkscape:window-height="1080"
     inkscape:window-x="1280"
     inkscape:window-y="20"
     inkscape:window-maximized="0"
     inkscape:current-layer="svg186" />
  <g
     fill="none"
     stroke="#191919"
     stroke-linecap="butt"
     stroke-linejoin="miter"
     stroke-width="0.4px"
     transform="matrix(1,0,0,-1,98.4879,77.3589)"
     id="g6">
    <path
       d="M -95.8026,-30.6186 V -41.2331"
       id="path2" />
    <path
       d="M 95.8026,51.8476 V 42.668"
       id="path4" />
  </g>
  <g
     fill="none"
     stroke="#191919"
     stroke-linecap="round"
     stroke-linejoin="round"
     stroke-width="0.4px"
     transform="matrix(1,0,0,-1,98.4879,77.3589)"
     id="g184">
    <path
       d="m -31.537,-25.883 a 3.4,1.96299 -180 0 0 -5.8041,1.3881"
       id="path8" />
    <path
       d="m -37.3411,-24.4949 a 3.4,1.96299 -180 0 0 0.9958,1.388"
       id="path10" />
    <path
       d="m -66.8923,-5.47054 a 3.4,1.96299 -180 0 0 -5.8042,1.38804"
       id="path12" />
    <path
       d="m -72.6965,-4.0825 a 3.4,1.96299 -180 0 0 0.9959,1.38804"
       id="path14" />
    <path
       d="m 36.3453,54.1337 a 3.4,1.96299 -180 0 0 -5.8042,1.3881"
       id="path16" />
    <path
       d="m 30.5411,55.5218 a 3.4,1.96299 -180 0 0 0.9959,1.388"
       id="path18" />
    <path
       d="m 71.7006,33.7213 a 3.4,1.96299 -180 0 0 -5.8041,1.3881"
       id="path20" />
    <path
       d="m 65.8965,35.1094 a 3.4,1.96299 -180 0 0 0.9958,1.388"
       id="path22" />
    <path
       d="M 98.2878,26.5362 -36.0625,-51.031"
       id="path24" />
    <path
       d="m -36.0625,-51.031 v -5.7155"
       id="path26" />
    <path
       d="M -36.0625,-56.7465 98.2878,20.8207"
       id="path28" />
    <path
       d="m 98.2878,20.8207 v 5.7155"
       id="path30" />
    <path
       d="m -98.2878,-15.1052 v -5.7155"
       id="path32" />
    <path
       d="m -94.0452,-12.6557 -4.2426,-2.4495"
       id="path34" />
    <path
       d="M 98.2878,41.2331 36.0624,77.1589"
       id="path36" />
    <path
       d="m 98.2878,31.4351 v 9.798"
       id="path38" />
    <path
       d="m 94.0452,28.9857 4.2426,-2.4495"
       id="path40" />
    <path
       d="M 36.0624,77.1589 31.8198,74.7094"
       id="path42" />
    <path
       d="M 94.0452,38.7836 31.8198,74.7094"
       id="path44" />
    <path
       d="M 98.2878,41.2331 94.0452,38.7836"
       id="path46" />
    <path
       d="M 31.8198,74.7094 V 69.8105"
       id="path48" />
    <path
       d="M 94.0452,33.8846 31.8198,69.8105"
       id="path50" />
    <path
       d="m 94.0452,38.7836 v -4.899"
       id="path52" />
    <path
       d="m -36.3453,-23.1069 a 3.4,1.96299 -180 0 0 5.8042,-1.388"
       id="path54" />
    <path
       d="M -30.5411,-24.4949 A 3.4,1.96299 -180 0 0 -31.537,-25.883"
       id="path56" />
    <path
       d="m -71.7006,-2.69446 a 3.4,1.96299 -180 0 0 5.8041,-1.38804"
       id="path58" />
    <path
       d="m -65.8965,-4.0825 a 3.4,1.96299 -180 0 0 -0.9958,-1.38804"
       id="path60" />
    <path
       d="m 31.537,56.9098 a 3.4,1.96299 -180 0 0 5.8041,-1.388"
       id="path62" />
    <path
       d="M 37.3411,55.5218 A 3.4,1.96299 -180 0 0 36.3453,54.1337"
       id="path64" />
    <path
       d="m 66.8923,36.4974 a 3.4,1.96299 -180 0 0 5.8042,-1.388"
       id="path66" />
    <path
       d="M 72.6965,35.1094 A 3.4,1.96299 -180 0 0 71.7006,33.7213"
       id="path68" />
    <path
       d="M 31.8198,69.8105 -89.8026,-0.40827"
       id="path70" />
    <path
       d="M 94.0452,33.8846 -31.8198,-38.7836"
       id="path72" />
    <path
       d="M -31.8198,-33.8846 -94.0452,2.04122"
       id="path74" />
    <path
       d="m -31.8198,-38.7836 v 4.899"
       id="path76" />
    <path
       d="m -94.0452,2.04122 -4.2427,-2.449491"
       id="path78" />
    <path
       d="M -36.0625,-36.3341 -98.2879,-0.408271"
       id="path80" />
    <path
       d="m -31.8198,-33.8846 -4.2427,-2.4495"
       id="path82" />
    <path
       d="m -36.0625,-56.7465 -13.435,7.7567"
       id="path84" />
    <path
       d="m -41.0122,-48.1733 4.9497,-2.8577"
       id="path86" />
    <path
       d="m -41.0122,-43.2743 v -4.899"
       id="path88" />
    <path
       d="m -36.0625,-46.1321 -4.9497,2.8578"
       id="path90" />
    <path
       d="m -36.0625,-36.3341 v -9.798"
       id="path92" />
    <path
       d="m -98.2879,-0.408271 10e-5,-9.797929"
       id="path94" />
    <path
       d="m -93.3381,-13.064 -4.9497,2.8578"
       id="path96" />
    <path
       d="m -93.3381,-17.9629 v 4.8989"
       id="path98" />
    <path
       d="m -98.2878,-15.1052 4.9497,-2.8577"
       id="path100" />
    <path
       d="m -89.8026,-25.7197 -8.4852,4.899"
       id="path102" />
    <path
       d="m -57.9828,-48.9898 a 6,3.4641 -180 0 0 8.4853,0"
       id="path104" />
    <path
       d="m -67.1751,-54.297 9.1923,5.3072"
       id="path106" />
    <path
       d="m -75.6604,-54.297 a 6,3.4641 2.02881e-5 0 1 8.4853,0"
       id="path108" />
    <path
       d="m -80.2566,-51.6434 4.5962,-2.6536"
       id="path110" />
    <path
       d="m -80.6102,-41.2331 a 6.5,3.75278 -180 0 0 0.3536,0.1895"
       id="path112" />
    <path
       d="m -89.449,-46.3362 8.8388,5.1031"
       id="path114" />
    <path
       d="m -94.0452,-43.6826 4.5962,-2.6536"
       id="path116" />
    <path
       d="m -95.8026,-41.2331 a 6,3.4641 2.02881e-5 0 1 1.7574,-2.4495"
       id="path118" />
    <path
       d="M 98.2878,31.4351 -36.0625,-46.1321"
       id="path120" />
    <path
       d="m -36.7696,-45.7238 -4.2426,-2.4495"
       id="path122" />
    <path
       d="m -94.0452,-28.1692 a 6,3.4641 2.02881e-5 0 1 -1.7574,-2.4494"
       id="path124" />
    <path
       d="m -95.8026,-30.6186 a 6,3.4641 2.02881e-5 0 1 1.7574,-2.4495"
       id="path126" />
    <path
       d="M -89.449,-35.7217 V -46.3362"
       id="path128" />
    <path
       d="m -94.0452,-33.0681 4.5962,-2.6536"
       id="path130" />
    <path
       d="m -89.449,-35.7217 8.8388,5.1031"
       id="path132" />
    <path
       d="m -80.6102,-30.6186 a 6.5,3.75278 -180 0 0 11.0962,-2.6537"
       id="path134" />
    <path
       d="m -69.514,-33.2723 a 6.5,3.75278 -180 0 0 -1.9038,-2.6536"
       id="path136" />
    <path
       d="M -80.2566,-41.029 V -51.6434"
       id="path138" />
    <path
       d="m -71.4178,-35.9259 -8.8388,-5.1031"
       id="path140" />
    <path
       d="m -80.2566,-41.029 4.5962,-2.6536"
       id="path142" />
    <path
       d="m -75.6604,-43.6826 a 6,3.4641 2.02881e-5 0 1 8.4852,0"
       id="path144" />
    <path
       d="m -67.1752,-43.6826 9.1924,5.3072"
       id="path146" />
    <path
       d="m -57.9828,-38.3754 a 6,3.4641 -180 0 0 5.433,0.9458"
       id="path148" />
    <path
       d="m -49.4975,-37.5589 c -0.402,0.0426 -0.8614,0.0515 -1.3692,0.0574 -0.5069,0.008 -1.079,0.0037 -1.6831,0.0719"
       id="path150" />
    <path
       d="m -83.2147,-19.7252 c -0.1217,0.3508 -0.3366,0.8095 -0.6136,1.2541 -0.2758,0.4458 -0.6229,0.9036 -1.0245,1.3247"
       id="path152" />
    <path
       d="m -83.2147,-19.7252 a 6,3.4641 -180 0 0 0.1192,-0.6872"
       id="path154" />
    <path
       d="m -83.0955,-20.4124 a 6,3.4641 -180 0 0 -1.7573,-2.4495"
       id="path156" />
    <path
       d="m -84.8528,-22.8619 -9.1924,-5.3073"
       id="path158" />
    <path
       d="m 94.0452,49.3981 a 6,3.4641 2.02881e-5 0 1 1.7574,2.4495"
       id="path160" />
    <path
       d="M 95.8026,51.8476 A 6,3.4641 2.02881e-5 0 1 94.0452,54.297"
       id="path162" />
    <path
       d="M 94.0452,54.297 89.449,56.9507"
       id="path164" />
    <path
       d="M 89.449,56.9507 80.6102,51.8476"
       id="path166" />
    <path
       d="M 80.6102,51.8476 A 6.5,3.75278 -180 0 0 80.243,51.6513"
       id="path168" />
    <path
       d="m 71.0778,56.9428 a 6.5,3.75278 -180 0 0 0.34,0.212"
       id="path170" />
    <path
       d="M 80.2566,62.2579 V 51.658"
       id="path172" />
    <path
       d="m 71.4178,57.1548 8.8388,5.1031"
       id="path174" />
    <path
       d="m 80.2566,62.2579 -4.5962,2.6536"
       id="path176" />
    <path
       d="m 75.6604,64.9115 a 6,3.4641 2.02881e-5 0 1 -8.4853,0"
       id="path178" />
    <path
       d="M 67.1751,64.9115 62.2254,62.0538"
       id="path180" />
    <path
       d="m 89.0955,46.5403 4.9497,2.8578"
       id="path182" />
  </g>
</svg>
