<?xml version="1.0" encoding="UTF-8" standalone="no"?>
<svg
   width="196.97569"
   height="153.0849"
   version="1.1"
   id="svg1614"
   sodipodi:docname="step-4.2.svg"
   inkscape:version="1.1.2 (0a00cf5339, 2022-02-04)"
   xmlns:inkscape="http://www.inkscape.org/namespaces/inkscape"
   xmlns:sodipodi="http://sodipodi.sourceforge.net/DTD/sodipodi-0.dtd"
   xmlns="http://www.w3.org/2000/svg"
   xmlns:svg="http://www.w3.org/2000/svg">
  <defs
     id="defs1618" />
  <sodipodi:namedview
     id="namedview1616"
     pagecolor="#ffffff"
     bordercolor="#666666"
     borderopacity="1.0"
     inkscape:pageshadow="2"
     inkscape:pageopacity="0.0"
     inkscape:pagecheckerboard="0"
     showgrid="false"
     inkscape:zoom="5.0859915"
     inkscape:cx="91.919147"
     inkscape:cy="75.599812"
     inkscape:window-width="1550"
     inkscape:window-height="1080"
     inkscape:window-x="640"
     inkscape:window-y="20"
     inkscape:window-maximized="0"
     inkscape:current-layer="svg1614" />
  <g
     fill="none"
     stroke="#bcbec0"
     stroke-linecap="butt"
     stroke-linejoin="miter"
     stroke-width="0.4px"
     transform="matrix(1,0,0,-1,98.4879,96.1384)"
     id="g6">
    <path
       d="m 41.8411,81.0373 v 0.6124"
       id="path2" />
    <path
       d="m 26.0411,81.0373 v 0.6124"
       id="path4" />
  </g>
  <g
     fill="none"
     stroke="#bcbec0"
     stroke-linecap="round"
     stroke-linejoin="round"
     stroke-width="0.4px"
     transform="matrix(1,0,0,-1,98.4879,96.1384)"
     id="g72">
    <path
       d="m 39.7804,77.9652 a 7.9,4.56107 2.02881e-5 0 1 2.0607,3.0721"
       id="path8" />
    <path
       d="m 39.2449,78.2694 a 7.9,4.56107 2.02881e-5 0 1 2.5962,3.3803"
       id="path10" />
    <path
       d="M 41.8411,81.6497 A 7.9,4.56107 2.02881e-5 0 1 28.6373,85.03"
       id="path12" />
    <path
       d="M 33.2015,80.4215 31.4053,79.482"
       id="path14" />
    <path
       d="m 36.0813,81.2448 0.0496,0.7088"
       id="path16" />
    <path
       d="M 37.9271,82.8931 36.1309,81.9536"
       id="path18" />
    <path
       d="m 31.8743,79.7274 -0.123,1.6183"
       id="path20" />
    <path
       d="m 29.9551,80.4063 1.7962,0.9394"
       id="path22" />
    <path
       d="m 34.6807,82.8778 1.7963,0.9395"
       id="path24" />
    <path
       d="M 34.6807,82.8778 34.5028,80.3629"
       id="path26" />
    <path
       d="M 36.477,83.8173 35.0786,79.996"
       id="path28" />
    <path
       d="m 33.5773,80.3665 -0.1626,2.5474"
       id="path30" />
    <path
       d="m 31.7875,83.951 1.6272,-1.0371"
       id="path32" />
    <path
       d="m 31.7875,83.951 1.186,-3.6488"
       id="path34" />
    <path
       d="m 31.8139,82.0767 -1.6272,1.037"
       id="path36" />
    <path
       d="m 31.8139,82.0767 0.1468,-2.3041"
       id="path38" />
    <path
       d="m 36.0947,79.3483 -1.6272,1.0371"
       id="path40" />
    <path
       d="m 36.0684,81.2227 1.6272,-1.0371"
       id="path42" />
    <path
       d="M 36.0684,81.2227 35.9453,79.4436"
       id="path44" />
    <path
       d="M 28.6373,85.03 A 7.9,4.56107 2.02881e-5 0 1 26.0411,81.6497"
       id="path46" />
    <path
       d="M 26.0411,81.6497 A 7.9,4.56107 2.02881e-5 0 1 39.2449,78.2694"
       id="path48" />
    <path
       d="m 33.2015,80.4215 a 2.25216,1.30029 2.02881e-5 0 1 1.266,-0.0361"
       id="path50" />
    <path
       d="m 31.4053,79.482 -1.4502,0.9243"
       id="path52" />
    <path
       d="M 31.8139,82.0767 A 2.25216,1.30029 2.02881e-5 0 1 31.6917,81.5854"
       id="path54" />
    <path
       d="m 31.6917,81.5854 a 2.25216,1.30029 2.02881e-5 0 1 0.0596,-0.2397"
       id="path56" />
    <path
       d="m 30.1867,83.1137 1.6008,0.8373"
       id="path58" />
    <path
       d="m 34.6807,82.8778 a 2.25216,1.30029 2.02881e-5 0 1 -1.266,0.0361"
       id="path60" />
    <path
       d="m 36.477,83.8173 1.4501,-0.9242"
       id="path62" />
    <path
       d="m 36.0684,81.2227 a 2.25216,1.30029 2.02881e-5 0 1 0.1221,0.3627"
       id="path64" />
    <path
       d="m 36.1905,81.5854 a 2.25216,1.30029 2.02881e-5 0 1 -0.0596,0.3682"
       id="path66" />
    <path
       d="M 37.6956,80.1856 36.0947,79.3483"
       id="path68" />
    <path
       d="m 26.0411,81.0373 a 7.9,4.56107 2.02881e-5 0 1 2.0607,-3.0721"
       id="path70" />
  </g>
  <g
     fill="none"
     stroke="#191919"
     stroke-linecap="butt"
     stroke-linejoin="miter"
     stroke-width="0.4px"
     transform="matrix(1,0,0,-1,98.4879,96.1384)"
     id="g146">
    <path
       d="M 60.4437,0.763524 60.6041,0.670948"
       id="path74" />
    <path
       d="M 61.2878,0.276178 61.4482,0.183602"
       id="path76" />
    <path
       d="m 62.1319,-0.211168 0.1604,-0.092576"
       id="path78" />
    <path
       d="M 62.976,-0.698515 63.1364,-0.79109"
       id="path80" />
    <path
       d="m 63.8202,-1.18586 0.1603,-0.09258"
       id="path82" />
    <path
       d="m 64.6643,-1.67321 0.1603,-0.09257"
       id="path84" />
    <path
       d="m 65.5084,-2.16055 0.1603,-0.09258"
       id="path86" />
    <path
       d="m 66.3525,-2.6479 0.1603,-0.09258"
       id="path88" />
    <path
       d="m 67.1966,-3.13525 0.1603,-0.09257"
       id="path90" />
    <path
       d="M 68.0407,-3.62259 68.201,-3.71517"
       id="path92" />
    <path
       d="m 68.8848,-4.10994 0.1604,-0.09257"
       id="path94" />
    <path
       d="m 69.7289,-4.59728 0.1604,-0.09258"
       id="path96" />
    <path
       d="m 70.573,-5.08463 0.1604,-0.09258"
       id="path98" />
    <path
       d="m 71.4171,-5.57198 0.1604,-0.09257"
       id="path100" />
    <path
       d="M 72.2612,-6.05932 72.4216,-6.1519"
       id="path102" />
    <path
       d="m 73.1054,-6.54667 0.1603,-0.09258"
       id="path104" />
    <path
       d="m 72.9057,-7.30591 2.3435,1.35302"
       id="path106" />
    <path
       d="M 79.1992,-5.56161 79.7295,-5.8678"
       id="path108" />
    <path
       d="m 71.2992,-19.2448 0.5303,-0.3062"
       id="path110" />
    <path
       d="m 69.663,-12.9223 v -2.7061"
       id="path112" />
    <path
       d="m 69.1054,-13.4749 0.1603,-0.0925"
       id="path114" />
    <path
       d="m 68.2612,-12.9875 0.1604,-0.0926"
       id="path116" />
    <path
       d="m 67.4171,-12.5002 0.1604,-0.0926"
       id="path118" />
    <path
       d="m 66.573,-12.0128 0.1604,-0.0926"
       id="path120" />
    <path
       d="m 65.7289,-11.5255 0.1604,-0.0926"
       id="path122" />
    <path
       d="m 64.8848,-11.0381 0.1604,-0.0926"
       id="path124" />
    <path
       d="m 64.0407,-10.5508 0.1603,-0.0926"
       id="path126" />
    <path
       d="m 63.1966,-10.0634 0.1603,-0.0926"
       id="path128" />
    <path
       d="m 62.3525,-9.5761 0.1603,-0.09258"
       id="path130" />
    <path
       d="m 61.5084,-9.08876 0.1603,-0.09257"
       id="path132" />
    <path
       d="m 60.6643,-8.60141 0.1603,-0.09258"
       id="path134" />
    <path
       d="m 59.8202,-8.11406 0.1603,-0.09258"
       id="path136" />
    <path
       d="m 58.976,-7.62672 0.1604,-0.09257"
       id="path138" />
    <path
       d="m 58.1319,-7.13937 0.1604,-0.09258"
       id="path140" />
    <path
       d="M 57.2878,-6.65203 57.4482,-6.7446"
       id="path142" />
    <path
       d="m 56.4437,-6.16468 0.1604,-0.09258"
       id="path144" />
  </g>
  <g
     fill="none"
     stroke="#191919"
     stroke-linecap="round"
     stroke-linejoin="round"
     stroke-width="0.4px"
     transform="matrix(1,0,0,-1,98.4879,96.1384)"
     id="g544">
    <path
       d="M 60.5223,0.714452 A 4,2.3094 -120 0 1 60.4437,0.763524"
       id="path148" />
    <path
       d="M 60.4437,0.763524 A 4,2.3094 -120 0 1 58.4607,0.575135"
       id="path150" />
    <path
       d="M 58.4607,0.575135 A 4,2.3094 -120 0 1 55.6153,-4.31397"
       id="path152" />
    <path
       d="M 58.621,0.48256 A 4,2.3094 -120 0 1 55.7757,-4.40655"
       id="path154" />
    <path
       d="M 60.9165,0.422576 A 4,2.3094 -120 0 1 60.6041,0.670948"
       id="path156" />
    <path
       d="M 60.6041,0.670948 A 4,2.3094 -120 0 1 58.621,0.48256"
       id="path158" />
    <path
       d="M 61.3664,0.227106 A 4,2.3094 -120 0 1 61.2878,0.276178"
       id="path160" />
    <path
       d="M 61.2878,0.276178 A 4,2.3094 -120 0 1 59.3048,0.0877892"
       id="path162" />
    <path
       d="M 59.3048,0.0877892 A 4,2.3094 -120 0 1 56.4595,-4.80132"
       id="path164" />
    <path
       d="M 59.4651,-0.00478655 A 4,2.3094 -120 0 1 56.6198,-4.89389"
       id="path166" />
    <path
       d="M 61.7606,-0.06477 A 4,2.3094 -120 0 1 61.4482,0.183602"
       id="path168" />
    <path
       d="M 61.4482,0.183602 A 4,2.3094 -120 0 1 59.4651,-0.00478655"
       id="path170" />
    <path
       d="m 62.2105,-0.260241 a 4,2.3094 -120 0 1 -0.0786,0.049073"
       id="path172" />
    <path
       d="m 62.1319,-0.211168 a 4,2.3094 -120 0 1 -1.983,-0.188389"
       id="path174" />
    <path
       d="M 60.1489,-0.399557 A 4,2.3094 -120 0 1 57.3036,-5.28866"
       id="path176" />
    <path
       d="M 60.3092,-0.492133 A 4,2.3094 -120 0 1 57.4639,-5.38124"
       id="path178" />
    <path
       d="m 62.6047,-0.552116 a 4,2.3094 -120 0 1 -0.3124,0.248372"
       id="path180" />
    <path
       d="M 62.2923,-0.303744 A 4,2.3094 -120 0 1 60.3092,-0.492133"
       id="path182" />
    <path
       d="M 63.0546,-0.747587 A 4,2.3094 -120 0 1 62.976,-0.698515"
       id="path184" />
    <path
       d="M 62.976,-0.698515 A 4,2.3094 -120 0 1 60.993,-0.886903"
       id="path186" />
    <path
       d="M 60.993,-0.886903 A 4,2.3094 -120 0 1 58.1477,-5.77601"
       id="path188" />
    <path
       d="M 61.1533,-0.979479 A 4,2.3094 -120 0 1 58.308,-5.86859"
       id="path190" />
    <path
       d="m 63.4488,-1.03946 a 4,2.3094 -120 0 1 -0.3124,0.24837"
       id="path192" />
    <path
       d="M 63.1364,-0.79109 A 4,2.3094 -120 0 1 61.1533,-0.979479"
       id="path194" />
    <path
       d="m 63.8987,-1.23493 a 4,2.3094 -120 0 1 -0.0785,0.04907"
       id="path196" />
    <path
       d="M 63.8202,-1.18586 A 4,2.3094 -120 0 1 61.8371,-1.37425"
       id="path198" />
    <path
       d="M 61.8371,-1.37425 A 4,2.3094 -120 0 1 58.9918,-6.26336"
       id="path200" />
    <path
       d="m 61.9975,-1.46683 a 4,2.3094 -120 0 1 -2.8454,-4.8891"
       id="path202" />
    <path
       d="m 64.2929,-1.52681 a 4,2.3094 -120 0 1 -0.3124,0.24837"
       id="path204" />
    <path
       d="m 63.9805,-1.27844 a 4,2.3094 -120 0 1 -1.983,-0.18839"
       id="path206" />
    <path
       d="m 64.7428,-1.72228 a 4,2.3094 -120 0 1 -0.0785,0.04907"
       id="path208" />
    <path
       d="M 64.6643,-1.67321 A 4,2.3094 -120 0 1 62.6812,-1.8616"
       id="path210" />
    <path
       d="M 62.6812,-1.8616 A 4,2.3094 -120 0 1 59.8359,-6.7507"
       id="path212" />
    <path
       d="M 62.8416,-1.95417 A 4,2.3094 -120 0 1 59.9962,-6.84328"
       id="path214" />
    <path
       d="m 65.1371,-2.01416 a 4,2.3094 -120 0 1 -0.3125,0.24838"
       id="path216" />
    <path
       d="m 64.8246,-1.76578 a 4,2.3094 -120 0 1 -1.983,-0.18839"
       id="path218" />
    <path
       d="m 65.5869,-2.20963 a 4,2.3094 -120 0 1 -0.0785,0.04908"
       id="path220" />
    <path
       d="M 65.5084,-2.16055 A 4,2.3094 -120 0 1 63.5253,-2.34894"
       id="path222" />
    <path
       d="M 63.5253,-2.34894 A 4,2.3094 -120 0 1 60.68,-7.23805"
       id="path224" />
    <path
       d="m 63.6857,-2.44152 a 4,2.3094 -120 0 1 -2.8454,-4.8891"
       id="path226" />
    <path
       d="m 65.9812,-2.5015 a 4,2.3094 -120 0 1 -0.3125,0.24837"
       id="path228" />
    <path
       d="m 65.6687,-2.25313 a 4,2.3094 -120 0 1 -1.983,-0.18839"
       id="path230" />
    <path
       d="M 66.431,-2.69697 A 4,2.3094 -120 0 1 66.3525,-2.6479"
       id="path232" />
    <path
       d="M 66.3525,-2.6479 A 4,2.3094 -120 0 1 64.3694,-2.83629"
       id="path234" />
    <path
       d="m 64.3694,-2.83629 a 4,2.3094 -120 0 1 -2.8453,-4.8891"
       id="path236" />
    <path
       d="M 64.5298,-2.92886 A 4,2.3094 -120 0 1 61.6845,-7.81797"
       id="path238" />
    <path
       d="m 66.8253,-2.98885 a 4,2.3094 -120 0 1 -0.3125,0.24837"
       id="path240" />
    <path
       d="m 66.5128,-2.74048 a 4,2.3094 -120 0 1 -1.983,-0.18838"
       id="path242" />
    <path
       d="m 67.2752,-3.18432 a 4,2.3094 -120 0 1 -0.0786,0.04907"
       id="path244" />
    <path
       d="M 67.1966,-3.13525 A 4,2.3094 -120 0 1 65.2135,-3.32363"
       id="path246" />
    <path
       d="M 65.2135,-3.32363 A 4,2.3094 -120 0 1 62.3682,-8.21274"
       id="path248" />
    <path
       d="M 65.3739,-3.41621 A 4,2.3094 -120 0 1 62.5286,-8.30532"
       id="path250" />
    <path
       d="m 67.6694,-3.47619 a 4,2.3094 -120 0 1 -0.3125,0.24837"
       id="path252" />
    <path
       d="m 67.3569,-3.22782 a 4,2.3094 -120 0 1 -1.983,-0.18839"
       id="path254" />
    <path
       d="m 68.1193,-3.67166 a 4,2.3094 -120 0 1 -0.0786,0.04907"
       id="path256" />
    <path
       d="M 68.0407,-3.62259 A 4,2.3094 -120 0 1 66.0576,-3.81098"
       id="path258" />
    <path
       d="M 66.0576,-3.81098 A 4,2.3094 -120 0 1 63.2123,-8.70009"
       id="path260" />
    <path
       d="m 66.218,-3.90356 a 4,2.3094 -120 0 1 -2.8453,-4.8891"
       id="path262" />
    <path
       d="M 68.5135,-3.96354 A 4,2.3094 -120 0 1 68.201,-3.71517"
       id="path264" />
    <path
       d="M 68.201,-3.71517 A 4,2.3094 -120 0 1 66.218,-3.90356"
       id="path266" />
    <path
       d="m 68.9634,-4.15901 a 4,2.3094 -120 0 1 -0.0786,0.04907"
       id="path268" />
    <path
       d="m 68.8848,-4.10994 a 4,2.3094 -120 0 1 -1.983,-0.18839"
       id="path270" />
    <path
       d="m 66.9018,-4.29833 a 4,2.3094 -120 0 1 -2.8454,-4.8891"
       id="path272" />
    <path
       d="M 67.0621,-4.3909 A 4,2.3094 -120 0 1 64.2168,-9.28001"
       id="path274" />
    <path
       d="m 69.3576,-4.45089 a 4,2.3094 -120 0 1 -0.3124,0.24838"
       id="path276" />
    <path
       d="M 69.0452,-4.20251 A 4,2.3094 -120 0 1 67.0621,-4.3909"
       id="path278" />
    <path
       d="m 69.8075,-4.64636 a 4,2.3094 -120 0 1 -0.0786,0.04908"
       id="path280" />
    <path
       d="m 69.7289,-4.59728 a 4,2.3094 -120 0 1 -1.983,-0.18839"
       id="path282" />
    <path
       d="M 67.7459,-4.78567 A 4,2.3094 -120 0 1 64.9005,-9.67478"
       id="path284" />
    <path
       d="M 67.9062,-4.87825 A 4,2.3094 -120 0 1 65.0609,-9.76736"
       id="path286" />
    <path
       d="m 70.2017,-4.93823 a 4,2.3094 -120 0 1 -0.3124,0.24837"
       id="path288" />
    <path
       d="M 69.8893,-4.68986 A 4,2.3094 -120 0 1 67.9062,-4.87825"
       id="path290" />
    <path
       d="M 70.6516,-5.1337 A 4,2.3094 -120 0 1 70.573,-5.08463"
       id="path292" />
    <path
       d="M 70.573,-5.08463 A 4,2.3094 -120 0 1 68.59,-5.27302"
       id="path294" />
    <path
       d="M 68.59,-5.27302 A 4,2.3094 -120 0 1 65.7447,-10.1621"
       id="path296" />
    <path
       d="M 68.7503,-5.3656 A 4,2.3094 -120 0 1 65.905,-10.2547"
       id="path298" />
    <path
       d="m 71.0458,-5.42558 a 4,2.3094 -120 0 1 -0.3124,0.24837"
       id="path300" />
    <path
       d="M 70.7334,-5.17721 A 4,2.3094 -120 0 1 68.7503,-5.3656"
       id="path302" />
    <path
       d="m 71.4957,-5.62105 a 4,2.3094 -120 0 1 -0.0786,0.04907"
       id="path304" />
    <path
       d="m 71.4171,-5.57198 a 4,2.3094 -120 0 1 -1.983,-0.18839"
       id="path306" />
    <path
       d="M 69.4341,-5.76037 A 4,2.3094 -120 0 1 66.5888,-10.6495"
       id="path308" />
    <path
       d="M 69.5944,-5.85294 A 4,2.3094 -120 0 1 66.7491,-10.742"
       id="path310" />
    <path
       d="m 71.8899,-5.91293 a 4,2.3094 -120 0 1 -0.3124,0.24838"
       id="path312" />
    <path
       d="M 71.5775,-5.66455 A 4,2.3094 -120 0 1 69.5944,-5.85294"
       id="path314" />
    <path
       d="m 72.3398,-6.1084 a 4,2.3094 -120 0 1 -0.0786,0.04908"
       id="path316" />
    <path
       d="m 72.2612,-6.05932 a 4,2.3094 -120 0 1 -1.983,-0.18839"
       id="path318" />
    <path
       d="M 70.2782,-6.24771 A 4,2.3094 -120 0 1 67.4329,-11.1368"
       id="path320" />
    <path
       d="M 70.4385,-6.34029 A 4,2.3094 -120 0 1 67.5932,-11.2294"
       id="path322" />
    <path
       d="M 72.734,-6.40027 A 4,2.3094 -120 0 1 72.4216,-6.1519"
       id="path324" />
    <path
       d="M 72.4216,-6.1519 A 4,2.3094 -120 0 1 70.4385,-6.34029"
       id="path326" />
    <path
       d="m 73.1839,-6.59574 a 4,2.3094 -120 0 1 -0.0785,0.04907"
       id="path328" />
    <path
       d="M 73.1054,-6.54667 A 4,2.3094 -120 0 1 71.1223,-6.73506"
       id="path330" />
    <path
       d="M 71.1223,-6.73506 A 4,2.3094 -120 0 1 68.277,-11.6242"
       id="path332" />
    <path
       d="M 71.2826,-6.82763 A 4,2.3094 -120 0 1 68.4373,-11.7167"
       id="path334" />
    <path
       d="m 73.577,-6.88639 a 4,2.3094 -120 0 1 -0.3113,0.24714"
       id="path336" />
    <path
       d="M 73.2657,-6.63925 A 4,2.3094 -120 0 1 71.2826,-6.82763"
       id="path338" />
    <path
       d="M 72.9096,-7.30367"
       id="path340" />
    <path
       d="m 69.1204,-12.1119 a 4.00096,2.30996 -120 0 1 0.5426,-1.6302"
       id="path342" />
    <path
       d="m 79.1992,-5.56161 a 7.9,4.56107 -120 0 1 -3.95,-0.39128"
       id="path344" />
    <path
       d="M 75.2492,-5.95289 A 7.9,4.56107 -120 0 1 69.6631,-15.5897"
       id="path346" />
    <path
       d="M 81.3656,-9.52294 A 7.9,4.56107 -120 0 1 79.7295,-5.8678"
       id="path348" />
    <path
       d="m 79.7295,-5.8678 a 7.9,4.56107 -120 0 1 -9.536,-10.028"
       id="path350" />
    <path
       d="m 76.5348,-13.8922 -0.0103,-1.9849"
       id="path352" />
    <path
       d="m 76.5348,-13.8922 -2.094,1.4059"
       id="path354" />
    <path
       d="m 76.5245,-15.8771 -2.5884,2.998"
       id="path356" />
    <path
       d="m 75.0325,-9.92036 1.519,-0.73494"
       id="path358" />
    <path
       d="m 76.5618,-8.6705 -0.0103,-1.9848"
       id="path360" />
    <path
       d="m 72.9978,-13.4143 2.0097,-1.3492"
       id="path362" />
    <path
       d="m 74.9972,-16.7483 0.0103,1.9848"
       id="path364" />
    <path
       d="m 75.0242,-11.5265 0.0103,1.98477"
       id="path366" />
    <path
       d="m 72.6729,-13.5997 1.7137,0.9776"
       id="path368" />
    <path
       d="m 74.3775,-14.391 -1.7138,-0.9776"
       id="path370" />
    <path
       d="m 74.3775,-14.391 -1.4128,0.9578"
       id="path372" />
    <path
       d="m 74.9023,-11.6811 2.2701,-1.1156"
       id="path374" />
    <path
       d="m 78.8861,-11.8191 -1.7137,-0.9776"
       id="path376" />
    <path
       d="m 78.8861,-11.8191 -3.8595,0.7545"
       id="path378" />
    <path
       d="m 77.1815,-11.0278 1.7138,0.9776"
       id="path380" />
    <path
       d="m 77.1815,-11.0278 -2.1492,1.05634"
       id="path382" />
    <path
       d="m 70.1935,-15.8958 a 7.9,4.56107 -120 0 1 1.636,-3.6552"
       id="path384" />
    <path
       d="m 71.8295,-19.551 a 7.9,4.56107 -120 0 1 9.5361,10.02806"
       id="path386" />
    <path
       d="m 76.5348,-13.8922 a 2.25216,1.30029 -120 0 1 0.6376,1.0955"
       id="path388" />
    <path
       d="m 76.5245,-15.8771 -1.5273,-0.8712"
       id="path390" />
    <path
       d="m 74.3775,-14.391 a 2.25216,1.30029 -120 0 1 0.2216,-0.2343"
       id="path392" />
    <path
       d="m 74.5991,-14.6253 a 2.25216,1.30029 -120 0 1 0.4084,-0.1382"
       id="path394" />
    <path
       d="m 72.6637,-15.3686 0.0092,1.7689"
       id="path396" />
    <path
       d="m 75.0242,-11.5265 a 2.25216,1.30029 -120 0 1 -0.6376,-1.0956"
       id="path398" />
    <path
       d="m 75.0345,-9.54173 1.5273,0.87123"
       id="path400" />
    <path
       d="m 77.1815,-11.0278 a 2.25216,1.30029 -120 0 1 -0.333,0.2986"
       id="path402" />
    <path
       d="m 76.8485,-10.7292 a 2.25216,1.30029 -120 0 1 -0.297,0.0739"
       id="path404" />
    <path
       d="m 78.8953,-10.0502 -0.0092,-1.7689"
       id="path406" />
    <path
       d="m 69.6631,-15.5897 a 7.9,4.56107 -120 0 1 -1e-4,-0.0387"
       id="path408" />
    <path
       d="m 69.663,-15.6284 a 7.9,4.56107 -120 0 1 1.6362,-3.6164"
       id="path410" />
    <path
       d="M 73.6156,-6.89602 A 4.00096,2.30996 -120 0 1 69.1204,-12.1119"
       id="path412" />
    <path
       d="M 69.663,-12.9268"
       id="path414" />
    <path
       d="m 68.4373,-11.7167 a 4,2.3094 -120 0 1 0.8284,-1.8507"
       id="path416" />
    <path
       d="m 69.2657,-13.5674 a 4,2.3094 -120 0 1 0.3697,-0.1461"
       id="path418" />
    <path
       d="m 68.277,-11.6242 a 4,2.3094 -120 0 1 0.8284,-1.8507"
       id="path420" />
    <path
       d="m 69.1054,-13.4749 a 4,2.3094 -120 0 1 0.0817,-0.0435"
       id="path422" />
    <path
       d="m 67.5932,-11.2294 a 4,2.3094 -120 0 1 0.8284,-1.8507"
       id="path424" />
    <path
       d="m 68.4216,-13.0801 a 4,2.3094 -120 0 1 0.3713,-0.1464"
       id="path426" />
    <path
       d="m 67.4329,-11.1368 a 4,2.3094 -120 0 1 0.8283,-1.8507"
       id="path428" />
    <path
       d="M 68.2612,-12.9875 A 4,2.3094 -120 0 1 68.343,-13.031"
       id="path430" />
    <path
       d="m 66.7491,-10.742 a 4,2.3094 -120 0 1 0.8284,-1.8508"
       id="path432" />
    <path
       d="m 67.5775,-12.5928 a 4,2.3094 -120 0 1 0.3713,-0.1464"
       id="path434" />
    <path
       d="m 66.5888,-10.6495 a 4,2.3094 -120 0 1 0.8283,-1.8507"
       id="path436" />
    <path
       d="m 67.4171,-12.5002 a 4,2.3094 -120 0 1 0.0818,-0.0435"
       id="path438" />
    <path
       d="m 65.905,-10.2547 a 4,2.3094 -120 0 1 0.8284,-1.8507"
       id="path440" />
    <path
       d="m 66.7334,-12.1054 a 4,2.3094 -120 0 1 0.3713,-0.1464"
       id="path442" />
    <path
       d="m 65.7447,-10.1621 a 4,2.3094 -120 0 1 0.8283,-1.8507"
       id="path444" />
    <path
       d="m 66.573,-12.0128 a 4,2.3094 -120 0 1 0.0818,-0.0435"
       id="path446" />
    <path
       d="m 65.0609,-9.76736 a 4,2.3094 -120 0 1 0.8284,-1.85074"
       id="path448" />
    <path
       d="m 65.8893,-11.6181 a 4,2.3094 -120 0 1 0.3713,-0.1464"
       id="path450" />
    <path
       d="m 64.9005,-9.67478 a 4,2.3094 -120 0 1 0.8284,-1.85072"
       id="path452" />
    <path
       d="m 65.7289,-11.5255 a 4,2.3094 -120 0 1 0.0818,-0.0435"
       id="path454" />
    <path
       d="m 64.2168,-9.28001 a 4,2.3094 -120 0 1 0.8284,-1.85069"
       id="path456" />
    <path
       d="m 65.0452,-11.1307 a 4,2.3094 -120 0 1 0.3713,-0.1464"
       id="path458" />
    <path
       d="m 64.0564,-9.18743 a 4,2.3094 -120 0 1 0.8284,-1.85067"
       id="path460" />
    <path
       d="m 64.8848,-11.0381 a 4,2.3094 -120 0 1 0.0818,-0.0435"
       id="path462" />
    <path
       d="M 63.3727,-8.79266 A 4,2.3094 -120 0 1 64.201,-10.6434"
       id="path464" />
    <path
       d="m 64.201,-10.6434 a 4,2.3094 -120 0 1 0.3714,-0.1464"
       id="path466" />
    <path
       d="m 63.2123,-8.70009 a 4,2.3094 -120 0 1 0.8284,-1.85071"
       id="path468" />
    <path
       d="m 64.0407,-10.5508 a 4,2.3094 -120 0 1 0.0818,-0.0435"
       id="path470" />
    <path
       d="M 62.5286,-8.30532 A 4,2.3094 -120 0 1 63.3569,-10.156"
       id="path472" />
    <path
       d="m 63.3569,-10.156 a 4,2.3094 -120 0 1 0.3714,-0.1464"
       id="path474" />
    <path
       d="m 62.3682,-8.21274 a 4,2.3094 -120 0 1 0.8284,-1.85066"
       id="path476" />
    <path
       d="m 63.1966,-10.0634 a 4,2.3094 -120 0 1 0.0818,-0.0436"
       id="path478" />
    <path
       d="m 61.6845,-7.81797 a 4,2.3094 -120 0 1 0.8283,-1.85071"
       id="path480" />
    <path
       d="m 62.5128,-9.66868 a 4,2.3094 -120 0 1 0.3713,-0.1464"
       id="path482" />
    <path
       d="M 61.5241,-7.72539 A 4,2.3094 -120 0 1 62.3525,-9.5761"
       id="path484" />
    <path
       d="m 62.3525,-9.5761 a 4,2.3094 -120 0 1 0.0818,-0.04351"
       id="path486" />
    <path
       d="m 60.8403,-7.33062 a 4,2.3094 -120 0 1 0.8284,-1.85071"
       id="path488" />
    <path
       d="M 61.6687,-9.18133 A 4,2.3094 -120 0 1 62.04,-9.32773"
       id="path490" />
    <path
       d="m 60.68,-7.23805 a 4,2.3094 -120 0 1 0.8284,-1.85071"
       id="path492" />
    <path
       d="m 61.5084,-9.08876 a 4,2.3094 -120 0 1 0.0818,-0.0435"
       id="path494" />
    <path
       d="m 59.9962,-6.84328 a 4,2.3094 -120 0 1 0.8284,-1.85071"
       id="path496" />
    <path
       d="m 60.8246,-8.69399 a 4,2.3094 -120 0 1 0.3713,-0.14639"
       id="path498" />
    <path
       d="m 59.8359,-6.7507 a 4,2.3094 -120 0 1 0.8284,-1.85071"
       id="path500" />
    <path
       d="m 60.6643,-8.60141 a 4,2.3094 -120 0 1 0.0817,-0.0435"
       id="path502" />
    <path
       d="m 59.1521,-6.35593 a 4,2.3094 -120 0 1 0.8284,-1.85071"
       id="path504" />
    <path
       d="m 59.9805,-8.20664 a 4,2.3094 -120 0 1 0.3713,-0.1464"
       id="path506" />
    <path
       d="m 58.9918,-6.26336 a 4,2.3094 -120 0 1 0.8284,-1.8507"
       id="path508" />
    <path
       d="m 59.8202,-8.11406 a 4,2.3094 -120 0 1 0.0817,-0.04351"
       id="path510" />
    <path
       d="m 58.308,-5.86859 a 4,2.3094 -120 0 1 0.8284,-1.8507"
       id="path512" />
    <path
       d="m 59.1364,-7.71929 a 4,2.3094 -120 0 1 0.3713,-0.1464"
       id="path514" />
    <path
       d="M 58.1477,-5.77601 A 4,2.3094 -120 0 1 58.976,-7.62672"
       id="path516" />
    <path
       d="m 58.976,-7.62672 a 4,2.3094 -120 0 1 0.0818,-0.0435"
       id="path518" />
    <path
       d="m 57.4639,-5.38124 a 4,2.3094 -120 0 1 0.8284,-1.85071"
       id="path520" />
    <path
       d="m 58.2923,-7.23195 a 4,2.3094 -120 0 1 0.3713,-0.1464"
       id="path522" />
    <path
       d="m 57.3036,-5.28866 a 4,2.3094 -120 0 1 0.8283,-1.85071"
       id="path524" />
    <path
       d="m 58.1319,-7.13937 a 4,2.3094 -120 0 1 0.0818,-0.04351"
       id="path526" />
    <path
       d="M 56.6198,-4.89389 A 4,2.3094 -120 0 1 57.4482,-6.7446"
       id="path528" />
    <path
       d="M 57.4482,-6.7446 A 4,2.3094 -120 0 1 57.8195,-6.891"
       id="path530" />
    <path
       d="m 56.4595,-4.80132 a 4,2.3094 -120 0 1 0.8283,-1.85071"
       id="path532" />
    <path
       d="m 57.2878,-6.65203 a 4,2.3094 -120 0 1 0.0818,-0.0435"
       id="path534" />
    <path
       d="m 55.7757,-4.40655 a 4,2.3094 -120 0 1 0.8284,-1.85071"
       id="path536" />
    <path
       d="m 56.6041,-6.25726 a 4,2.3094 -120 0 1 0.3713,-0.14639"
       id="path538" />
    <path
       d="m 55.6153,-4.31397 a 4,2.3094 -120 0 1 0.8284,-1.85071"
       id="path540" />
    <path
       d="m 56.4437,-6.16468 a 4,2.3094 -120 0 1 0.0818,-0.0435"
       id="path542" />
  </g>
  <g
     fill="none"
     stroke="#bcbec0"
     stroke-linecap="butt"
     stroke-linejoin="miter"
     stroke-width="0.4px"
     transform="matrix(1,0,0,-1,98.4879,96.1384)"
     id="g550">
    <path
       d="m -61.3965,21.433 v 0.6124"
       id="path546" />
    <path
       d="m -77.1965,21.433 v 0.6124"
       id="path548" />
  </g>
  <g
     fill="none"
     stroke="#bcbec0"
     stroke-linecap="round"
     stroke-linejoin="round"
     stroke-width="0.4px"
     transform="matrix(1,0,0,-1,98.4879,96.1384)"
     id="g618">
    <path
       d="m -63.2557,18.4937 a 7.9,4.56107 2.02881e-5 0 1 1.8592,2.9393"
       id="path552" />
    <path
       d="m -63.2557,19.1061 a 7.9,4.56107 2.02881e-5 0 1 1.8592,2.9393"
       id="path554" />
    <path
       d="m -61.3965,22.0454 a 7.9,4.56107 2.02881e-5 0 1 -13.9408,2.9393"
       id="path556" />
    <path
       d="m -69.7443,20.7711 -1.5619,-1.07"
       id="path558" />
    <path
       d="m -67.3339,20.275 0.1369,2.2411"
       id="path560" />
    <path
       d="M -65.6351,23.586 -67.197,22.5161"
       id="path562" />
    <path
       d="m -71.2728,19.724 -0.1231,1.8507"
       id="path564" />
    <path
       d="m -72.9578,20.5047 1.5619,1.07"
       id="path566" />
    <path
       d="m -68.8487,23.3197 1.5619,1.07"
       id="path568" />
    <path
       d="M -68.8487,23.3197 -69.0056,20.756"
       id="path570" />
    <path
       d="m -67.2868,24.3897 -1.1144,-3.5954"
       id="path572" />
    <path
       d="m -69.921,20.65 -0.1907,2.6075"
       id="path574" />
    <path
       d="m -71.965,24.1593 1.8533,-0.9018"
       id="path576" />
    <path
       d="m -71.965,24.1593 1.4818,-3.8945"
       id="path578" />
    <path
       d="m -71.5037,22.3039 -1.8533,0.9018"
       id="path580" />
    <path
       d="m -71.5037,22.3039 0.045,-0.6223"
       id="path582" />
    <path
       d="m -66.628,19.9315 -1.8533,0.9018"
       id="path584" />
    <path
       d="m -67.0893,21.7869 1.8533,-0.9018"
       id="path586" />
    <path
       d="m -67.0893,21.7869 -0.1229,-1.5711"
       id="path588" />
    <path
       d="m -75.3373,24.9847 a 7.9,4.56107 2.02881e-5 0 1 -1.8592,-2.9393"
       id="path590" />
    <path
       d="m -77.1965,22.0454 a 7.9,4.56107 2.02881e-5 0 1 13.9408,-2.9393"
       id="path592" />
    <path
       d="m -69.7443,20.7711 a 2.25216,1.30029 2.02881e-5 0 1 1.263,0.0622"
       id="path594" />
    <path
       d="m -71.3062,19.7011 -1.6516,0.8036"
       id="path596" />
    <path
       d="m -71.5037,22.3039 a 2.25216,1.30029 2.02881e-5 0 1 -0.0422,-0.3228"
       id="path598" />
    <path
       d="m -71.5459,21.9811 a 2.25216,1.30029 2.02881e-5 0 1 0.15,-0.4064"
       id="path600" />
    <path
       d="m -73.357,23.2057 1.392,0.9536"
       id="path602" />
    <path
       d="m -68.8487,23.3197 a 2.25216,1.30029 2.02881e-5 0 1 -1.263,-0.0622"
       id="path604" />
    <path
       d="m -67.2868,24.3897 1.6517,-0.8037"
       id="path606" />
    <path
       d="m -67.0893,21.7869 a 2.25216,1.30029 2.02881e-5 0 1 0.0422,0.1942"
       id="path608" />
    <path
       d="m -67.0471,21.9811 a 2.25216,1.30029 2.02881e-5 0 1 -0.1499,0.535"
       id="path610" />
    <path
       d="m -65.236,20.8851 -1.392,-0.9536"
       id="path612" />
    <path
       d="m -77.1965,21.433 a 7.9,4.56107 2.02881e-5 0 1 2.0607,-3.0721"
       id="path614" />
    <path
       d="m -63.4572,18.361 a 7.9,4.56107 2.02881e-5 0 1 0.2015,0.1327"
       id="path616" />
  </g>
  <g
     fill="none"
     stroke="#ed2124"
     stroke-linecap="round"
     stroke-linejoin="round"
     stroke-width="0.4px"
     transform="matrix(1,0,0,-1,98.4879,96.1384)"
     id="g622">
    <path
       d="M 56.4437,-15.4263 42.9321,-7.62536"
       id="path620" />
  </g>
  <g
     fill="none"
     stroke="#bcbec0"
     stroke-linecap="butt"
     stroke-linejoin="miter"
     stroke-width="0.4px"
     transform="matrix(1,0,0,-1,98.4879,96.1384)"
     id="g628">
    <path
       d="M -95.8026,-30.6186 V -41.2331"
       id="path624" />
    <path
       d="M 95.8026,51.8476 V 42.668"
       id="path626" />
  </g>
  <g
     fill="none"
     stroke="#bcbec0"
     stroke-linecap="round"
     stroke-linejoin="round"
     stroke-width="0.4px"
     transform="matrix(1,0,0,-1,98.4879,96.1384)"
     id="g764">
    <path
       d="M 98.2878,26.5362 64.3597,6.94776"
       id="path630" />
    <path
       d="M 24.0547,-16.3224 -36.0625,-51.031"
       id="path632" />
    <path
       d="m -36.0625,-51.031 v -5.7155"
       id="path634" />
    <path
       d="m -36.0625,-56.7465 60.1172,34.7086"
       id="path636" />
    <path
       d="m 50.5712,-6.72856 1.3668,0.78915"
       id="path638" />
    <path
       d="M 64.3597,1.23228 98.2878,20.8207"
       id="path640" />
    <path
       d="m 98.2878,20.8207 v 5.7155"
       id="path642" />
    <path
       d="m -98.2878,-15.1052 v -5.7155"
       id="path644" />
    <path
       d="m -94.0452,-12.6557 -4.2426,-2.4495"
       id="path646" />
    <path
       d="m 98.2878,41.2331 -4.2426,2.4495"
       id="path648" />
    <path
       d="m 98.2878,31.4351 v 9.798"
       id="path650" />
    <path
       d="m 94.0452,28.9857 4.2426,-2.4495"
       id="path652" />
    <path
       d="M 98.2878,41.2331 94.0452,38.7836"
       id="path654" />
    <path
       d="m 94.0452,38.7836 v -4.899"
       id="path656" />
    <path
       d="M 9.19239,56.7465 5.66988,54.7128"
       id="path658" />
    <path
       d="M 94.0452,33.8846 64.3597,16.7457"
       id="path660" />
    <path
       d="M 51.5426,9.34575 47.7427,7.15188"
       id="path662" />
    <path
       d="M 43.1901,4.52339 41.8215,3.73326"
       id="path664" />
    <path
       d="M 24.0547,-6.52445 -31.8198,-38.7836"
       id="path666" />
    <path
       d="M -31.8198,-33.8846 -94.0452,2.04122"
       id="path668" />
    <path
       d="m -31.8198,-38.7836 v 4.899"
       id="path670" />
    <path
       d="m -94.0452,2.04122 -4.2427,-2.449491"
       id="path672" />
    <path
       d="M -36.0625,-36.3341 -98.2879,-0.408271"
       id="path674" />
    <path
       d="m -31.8198,-33.8846 -4.2427,-2.4495"
       id="path676" />
    <path
       d="m -36.0625,-56.7465 -13.435,7.7567"
       id="path678" />
    <path
       d="m -41.0122,-48.1733 4.9497,-2.8577"
       id="path680" />
    <path
       d="m -41.0122,-43.2743 v -4.899"
       id="path682" />
    <path
       d="m -36.0625,-46.1321 -4.9497,2.8578"
       id="path684" />
    <path
       d="m -36.0625,-36.3341 v -9.798"
       id="path686" />
    <path
       d="m -98.2879,-0.408271 10e-5,-9.797929"
       id="path688" />
    <path
       d="m -93.3381,-13.064 -4.9497,2.8578"
       id="path690" />
    <path
       d="m -93.3381,-17.9629 v 4.8989"
       id="path692" />
    <path
       d="m -98.2878,-15.1052 4.9497,-2.8577"
       id="path694" />
    <path
       d="m -89.8026,-25.7197 -8.4852,4.899"
       id="path696" />
    <path
       d="m -57.9828,-48.9898 a 6,3.4641 -180 0 0 8.4853,0"
       id="path698" />
    <path
       d="m -67.1751,-54.297 9.1923,5.3072"
       id="path700" />
    <path
       d="m -75.6604,-54.297 a 6,3.4641 2.02881e-5 0 1 8.4853,0"
       id="path702" />
    <path
       d="m -80.2566,-51.6434 4.5962,-2.6536"
       id="path704" />
    <path
       d="m -80.6102,-41.2331 a 6.5,3.75278 -180 0 0 0.3536,0.1895"
       id="path706" />
    <path
       d="m -89.449,-46.3362 8.8388,5.1031"
       id="path708" />
    <path
       d="m -94.0452,-43.6826 4.5962,-2.6536"
       id="path710" />
    <path
       d="m -95.8026,-41.2331 a 6,3.4641 2.02881e-5 0 1 1.7574,-2.4495"
       id="path712" />
    <path
       d="M 98.2878,31.4351 64.3597,11.8467"
       id="path714" />
    <path
       d="M 24.0547,-11.4234 -36.0625,-46.1321"
       id="path716" />
    <path
       d="m -36.7696,-45.7238 -4.2426,-2.4495"
       id="path718" />
    <path
       d="m -94.0452,-28.1692 a 6,3.4641 2.02881e-5 0 1 -1.7574,-2.4494"
       id="path720" />
    <path
       d="m -95.8026,-30.6186 a 6,3.4641 2.02881e-5 0 1 1.7574,-2.4495"
       id="path722" />
    <path
       d="M -89.449,-35.7217 V -46.3362"
       id="path724" />
    <path
       d="m -94.0452,-33.0681 4.5962,-2.6536"
       id="path726" />
    <path
       d="m -89.449,-35.7217 8.8388,5.1031"
       id="path728" />
    <path
       d="m -80.6102,-30.6186 a 6.5,3.75278 -180 0 0 11.0962,-2.6537"
       id="path730" />
    <path
       d="m -69.514,-33.2723 a 6.5,3.75278 -180 0 0 -1.9038,-2.6536"
       id="path732" />
    <path
       d="M -80.2566,-41.029 V -51.6434"
       id="path734" />
    <path
       d="m -71.4178,-35.9259 -8.8388,-5.1031"
       id="path736" />
    <path
       d="m -80.2566,-41.029 4.5962,-2.6536"
       id="path738" />
    <path
       d="m -75.6604,-43.6826 a 6,3.4641 2.02881e-5 0 1 8.4852,0"
       id="path740" />
    <path
       d="m -67.1752,-43.6826 9.1924,5.3072"
       id="path742" />
    <path
       d="m -57.9828,-38.3754 a 6,3.4641 -180 0 0 5.433,0.9458"
       id="path744" />
    <path
       d="m -49.4975,-37.5589 c -0.402,0.0426 -0.8614,0.0515 -1.3692,0.0574 -0.5069,0.008 -1.079,0.0037 -1.6831,0.0719"
       id="path746" />
    <path
       d="m -83.2147,-19.7252 c -0.1217,0.3508 -0.3366,0.8095 -0.6136,1.2541 -0.2758,0.4458 -0.6229,0.9036 -1.0245,1.3247"
       id="path748" />
    <path
       d="m -83.2147,-19.7252 a 6,3.4641 -180 0 0 0.1192,-0.6872"
       id="path750" />
    <path
       d="m -83.0955,-20.4124 a 6,3.4641 -180 0 0 -1.7573,-2.4495"
       id="path752" />
    <path
       d="m -84.8528,-22.8619 -9.1924,-5.3073"
       id="path754" />
    <path
       d="m 94.0452,49.3981 a 6,3.4641 2.02881e-5 0 1 1.7574,2.4495"
       id="path756" />
    <path
       d="M 95.8026,51.8476 A 6,3.4641 2.02881e-5 0 1 94.0452,54.297"
       id="path758" />
    <path
       d="m 94.0452,54.297 v 1e-4"
       id="path760" />
    <path
       d="m 94.0452,49.3981 v 0"
       id="path762" />
  </g>
  <g
     fill="none"
     stroke="#191919"
     stroke-linecap="butt"
     stroke-linejoin="miter"
     stroke-width="0.4px"
     transform="matrix(1,0,0,-1,98.4879,96.1384)"
     id="g770">
    <path
       d="m 41.3788,1.02815 v 0"
       id="path766" />
    <path
       d="m 41.3788,-12.8523 v 0"
       id="path768" />
  </g>
  <g
     fill="none"
     stroke="#191919"
     stroke-linecap="round"
     stroke-linejoin="round"
     stroke-width="0.4px"
     transform="matrix(1,0,0,-1,98.4879,96.1384)"
     id="g844">
    <path
       d="m 41.3788,-12.8523 a 7.5,4.33013 -120 0 1 10.6066,6.12374"
       id="path772" />
    <path
       d="m 41.3788,-12.8523 v 0"
       id="path774" />
    <path
       d="m 41.5158,-11.3902 a 4.5,2.59808 -120 0 1 0.795,-1.0726"
       id="path776" />
    <path
       d="m 42.3108,-12.4628 a 4.5,2.59808 -120 0 1 5.4319,5.73424"
       id="path778" />
    <path
       d="m 41.6822,-10.6354 a 4.5,2.59808 -120 0 1 3.2321,5.53983"
       id="path780" />
    <path
       d="M 41.3788,1.02815 A 7.5,4.33013 -120 0 1 51.9854,7.15188"
       id="path782" />
    <path
       d="m 41.3788,1.02816 v -1e-5"
       id="path784" />
    <path
       d="M 41.5158,2.4902 A 4.5,2.59808 -120 0 1 42.3107,1.41765"
       id="path786" />
    <path
       d="m 42.3107,1.41765 a 4.5,2.59808 -120 0 1 5.432,5.73423"
       id="path788" />
    <path
       d="m 41.6822,3.24504 a 4.5,2.59808 -120 0 1 3.2321,5.53983"
       id="path790" />
    <path
       d="m 19.812,-30.2028 v 4.8989"
       id="path792" />
    <path
       d="M 24.0547,-22.8544 19.812,-25.3039"
       id="path794" />
    <path
       d="m 19.812,-25.3039 4.2427,-2.4495"
       id="path796" />
    <path
       d="m 44.9143,-5.09557 a 4.5,2.59808 -120 0 1 -4e-4,0.05764"
       id="path798" />
    <path
       d="m 44.9143,8.78487 a 4.5,2.59808 -120 0 1 -4e-4,0.05764"
       id="path800" />
    <path
       d="M 24.0547,-27.7534 24.0546,3.27351"
       id="path802" />
    <path
       d="M 59.41,23.6859 24.0546,3.27351"
       id="path804" />
    <path
       d="M 24.0546,3.27351 29.0044,0.415776"
       id="path806" />
    <path
       d="M 64.3597,20.8282 29.0044,0.415776"
       id="path808" />
    <path
       d="m 59.41,23.6859 4.9497,-2.8577"
       id="path810" />
    <path
       d="M 51.9854,-6.72856 A 7.5,4.33013 -120 0 1 46.6821,-3.6667"
       id="path812" />
    <path
       d="m 46.6821,-3.6667 a 7.5,4.33013 -120 0 1 -5.3033,-9.1856"
       id="path814" />
    <path
       d="M 41.3788,-12.8523"
       id="path816" />
    <path
       d="M 51.9854,7.15188 A 7.5,4.33013 -120 0 1 46.6821,10.2137"
       id="path818" />
    <path
       d="M 46.6821,10.2137 A 7.5,4.33013 -120 0 1 41.3788,1.02815"
       id="path820" />
    <path
       d="M 41.3788,1.02815"
       id="path822" />
    <path
       d="M 29.0044,0.415776 V -35.5101"
       id="path824" />
    <path
       d="m 64.3597,-15.0976 -0.2513,-0.1452"
       id="path826" />
    <path
       d="M 56.1634,-19.8298 29.0044,-35.5101"
       id="path828" />
    <path
       d="M 64.3597,20.8282 V -1.54427"
       id="path830" />
    <path
       d="m 64.3597,-10.7215 v -4.3761"
       id="path832" />
    <path
       d="m 29.0044,-35.5101 -9.1924,5.3073"
       id="path834" />
    <path
       d="m 47.7427,7.15188 a 4.5,2.59808 -120 0 1 -0.932,2.05999"
       id="path836" />
    <path
       d="M 46.8107,9.21187 A 4.5,2.59808 -120 0 1 45.4844,9.36406"
       id="path838" />
    <path
       d="m 47.7427,-6.72856 a 4.5,2.59808 -120 0 1 -0.9319,2.05999"
       id="path840" />
    <path
       d="m 46.8108,-4.66857 a 4.5,2.59808 -120 0 1 -1.3264,0.15219"
       id="path842" />
  </g>
  <g
     fill="none"
     stroke="#bcbec0"
     stroke-linecap="butt"
     stroke-linejoin="miter"
     stroke-width="0.4px"
     transform="matrix(1,0,0,-1,98.4879,96.1384)"
     id="g850">
    <path
       d="m -40.0576,-1.89837 v 0"
       id="path846" />
    <path
       d="m -75.413,18.514 v 0"
       id="path848" />
  </g>
  <g
     fill="none"
     stroke="#bcbec0"
     stroke-linecap="round"
     stroke-linejoin="round"
     stroke-width="0.4px"
     transform="matrix(1,0,0,-1,98.4879,96.1384)"
     id="g896">
    <path
       d="m -66.5388,-5.67467 a 5.1,2.94449 120 0 1 6.1563,-6.49883"
       id="path852" />
    <path
       d="m -60.3825,-12.1735 a 5.1,2.94449 120 0 1 1.0562,2.3347"
       id="path854" />
    <path
       d="m -75.413,18.514 v 0"
       id="path856" />
    <path
       d="M -63.18,25.5767 A 8.6500213,4.9940923 2.02881e-5 0 1 -75.413,18.514"
       id="path858" />
    <path
       d="m -40.0576,-1.89837 v 0"
       id="path860" />
    <path
       d="m -27.8247,5.16433 a 8.65,4.99408 2.02881e-5 0 1 -12.2329,-7.0627"
       id="path862" />
    <path
       d="m -9.1924,-25.7196 -22.6274,-13.064"
       id="path864" />
    <path
       d="m -59.3263,-9.8388 a 5.1,2.94449 120 0 1 -6.1562,6.49879"
       id="path866" />
    <path
       d="m -65.4825,-3.34001 a 5.1,2.94449 120 0 1 -1.0563,-2.33466"
       id="path868" />
    <path
       d="m -31.8198,-38.7836 v 26.1279"
       id="path870" />
    <path
       d="m -94.0452,23.2701 62.2254,-35.9258"
       id="path872" />
    <path
       d="M -94.0452,2.04122 V 23.2701"
       id="path874" />
    <path
       d="M -75.413,18.514"
       id="path876" />
    <path
       d="m -75.413,18.514 a 8.65,4.99408 2.02881e-5 0 1 12.233,0"
       id="path878" />
    <path
       d="m -63.18,18.514 a 8.65,4.99408 2.02881e-5 0 1 0,7.0627"
       id="path880" />
    <path
       d="M -40.0576,-1.89837"
       id="path882" />
    <path
       d="m -40.0576,-1.89837 a 8.65,4.99408 2.02881e-5 0 1 12.2329,10e-6"
       id="path884" />
    <path
       d="m -27.8247,-1.89836 a 8.65,4.99408 2.02881e-5 0 1 0,7.06269"
       id="path886" />
    <path
       d="M -31.8198,-12.6557 -9.19241,0.408242"
       id="path888" />
    <path
       d="M -71.4178,36.3341 -9.19241,0.408242"
       id="path890" />
    <path
       d="m -94.0452,23.2701 22.6274,13.064"
       id="path892" />
    <path
       d="m -9.19241,0.408242 1e-5,-26.127842"
       id="path894" />
  </g>
  <g
     fill="none"
     stroke="#bcbec0"
     stroke-linecap="butt"
     stroke-linejoin="miter"
     stroke-width="0.4px"
     transform="matrix(1,0,0,-1,98.4879,96.1384)"
     id="g902">
    <path
       d="M -26.0411,1.02061 V 1.63298"
       id="path898" />
    <path
       d="M -41.8411,1.02061 V 1.63298"
       id="path900" />
  </g>
  <g
     fill="none"
     stroke="#bcbec0"
     stroke-linecap="round"
     stroke-linejoin="round"
     stroke-width="0.4px"
     transform="matrix(1,0,0,-1,98.4879,96.1384)"
     id="g970">
    <path
       d="m -27.9431,-1.94776 a 7.9,4.56107 2.02881e-5 0 1 1.902,2.96837"
       id="path904" />
    <path
       d="m -27.9431,-1.33539 a 7.9,4.56107 2.02881e-5 0 1 1.902,2.96837"
       id="path906" />
    <path
       d="M -26.0411,1.63298 A 7.9,4.56107 2.02881e-5 0 1 -39.9392,4.60135"
       id="path908" />
    <path
       d="m -34.4074,0.360859 -1.5773,-1.06242"
       id="path910" />
    <path
       d="M -31.9741,-0.161743 -31.835,2.0935"
       id="path912" />
    <path
       d="M -30.2576,3.15592 -31.835,2.0935"
       id="path914" />
    <path
       d="M -35.9242,-0.660791 -36.0473,1.17246"
       id="path916" />
    <path
       d="m -37.6247,0.110043 1.5774,1.062417"
       id="path918" />
    <path
       d="m -33.4749,2.9051 1.5773,1.06242"
       id="path920" />
    <path
       d="M -33.4749,2.9051 -33.6332,0.344905"
       id="path922" />
    <path
       d="M -31.8976,3.96752 -33.0285,0.360058"
       id="path924" />
    <path
       d="M -34.5512,0.264007 -34.7388,2.84899"
       id="path926" />
    <path
       d="m -36.5789,3.75967 1.8401,-0.91068"
       id="path928" />
    <path
       d="m -36.5789,3.75967 1.4619,-3.876797"
       id="path930" />
    <path
       d="m -36.1445,1.90215 -1.8402,0.91068"
       id="path932" />
    <path
       d="m -36.1445,1.90215 0.0461,-0.64259"
       id="path934" />
    <path
       d="m -31.3033,-0.493705 -1.8402,0.910681"
       id="path936" />
    <path
       d="m -31.7378,1.36381 1.8402,-0.910678"
       id="path938" />
    <path
       d="m -31.7378,1.36381 -0.1229,-1.581689"
       id="path940" />
    <path
       d="M -39.9392,4.60135 A 7.9,4.56107 2.02881e-5 0 1 -41.8411,1.63298"
       id="path942" />
    <path
       d="m -41.8411,1.63298 a 7.9,4.56107 2.02881e-5 0 1 13.898,-2.96837"
       id="path944" />
    <path
       d="m -34.4074,0.360859 a 2.25216,1.30029 2.02881e-5 0 1 1.2639,0.056117"
       id="path946" />
    <path
       d="m -35.9847,-0.701561 -1.64,0.811604"
       id="path948" />
    <path
       d="M -36.1445,1.90215 A 2.25216,1.30029 2.02881e-5 0 1 -36.1906,1.56869"
       id="path950" />
    <path
       d="m -36.1906,1.56869 a 2.25216,1.30029 2.02881e-5 0 1 0.1433,-0.39623"
       id="path952" />
    <path
       d="m -37.9847,2.81283 1.4058,0.94684"
       id="path954" />
    <path
       d="M -33.4749,2.9051 A 2.25216,1.30029 2.02881e-5 0 1 -34.7388,2.84899"
       id="path956" />
    <path
       d="m -31.8976,3.96752 1.64,-0.8116"
       id="path958" />
    <path
       d="m -31.7378,1.36381 a 2.25216,1.30029 2.02881e-5 0 1 0.0461,0.20488"
       id="path960" />
    <path
       d="M -31.6917,1.56869 A 2.25216,1.30029 2.02881e-5 0 1 -31.835,2.0935"
       id="path962" />
    <path
       d="m -29.8976,0.453132 -1.4057,-0.946837"
       id="path964" />
    <path
       d="m -41.8411,1.02061 a 7.9,4.56107 2.02881e-5 0 1 2.0607,-3.07207"
       id="path966" />
    <path
       d="m -28.1019,-2.05146 a 7.9,4.56107 2.02881e-5 0 1 0.1588,0.1037"
       id="path968" />
  </g>
  <g
     fill="none"
     stroke="#191919"
     stroke-linecap="butt"
     stroke-linejoin="miter"
     stroke-width="0.4px"
     transform="matrix(1,0,0,-1,98.4879,96.1384)"
     id="g1044">
    <path
       d="m 60.4437,-13.1169 0.1604,-0.0926"
       id="path972" />
    <path
       d="m 61.2878,-13.6043 0.1604,-0.0925"
       id="path974" />
    <path
       d="m 62.1319,-14.0916 0.1604,-0.0926"
       id="path976" />
    <path
       d="m 62.9761,-14.579 0.1603,-0.0925"
       id="path978" />
    <path
       d="m 63.8202,-15.0663 0.1603,-0.0926"
       id="path980" />
    <path
       d="m 64.6643,-15.5536 0.1603,-0.0926"
       id="path982" />
    <path
       d="m 65.5084,-16.041 0.1603,-0.0926"
       id="path984" />
    <path
       d="m 66.3525,-16.5283 0.1603,-0.0926"
       id="path986" />
    <path
       d="m 67.1966,-17.0157 0.1603,-0.0926"
       id="path988" />
    <path
       d="m 68.0407,-17.503 0.1604,-0.0926"
       id="path990" />
    <path
       d="m 68.8848,-17.9904 0.1604,-0.0926"
       id="path992" />
    <path
       d="m 69.7289,-18.4777 0.1604,-0.0926"
       id="path994" />
    <path
       d="m 70.573,-18.9651 0.1604,-0.0925"
       id="path996" />
    <path
       d="m 71.4171,-19.4524 0.1604,-0.0926"
       id="path998" />
    <path
       d="m 72.2612,-19.9398 0.1604,-0.0925"
       id="path1000" />
    <path
       d="m 73.1054,-20.4271 0.1603,-0.0926"
       id="path1002" />
    <path
       d="m 72.9057,-21.1864 2.3435,1.3531"
       id="path1004" />
    <path
       d="m 79.1992,-19.4421 0.5303,-0.3061"
       id="path1006" />
    <path
       d="m 71.2992,-33.1253 0.5303,-0.3061"
       id="path1008" />
    <path
       d="m 69.663,-26.8028 v -2.706"
       id="path1010" />
    <path
       d="m 69.1054,-27.3553 0.1603,-0.0926"
       id="path1012" />
    <path
       d="m 68.2613,-26.868 0.1603,-0.0925"
       id="path1014" />
    <path
       d="m 67.4171,-26.3806 0.1604,-0.0926"
       id="path1016" />
    <path
       d="m 66.573,-25.8933 0.1604,-0.0926"
       id="path1018" />
    <path
       d="m 65.7289,-25.4059 0.1604,-0.0926"
       id="path1020" />
    <path
       d="m 64.8848,-24.9186 0.1604,-0.0926"
       id="path1022" />
    <path
       d="m 64.0407,-24.4312 0.1604,-0.0926"
       id="path1024" />
    <path
       d="m 63.1966,-23.9439 0.1603,-0.0926"
       id="path1026" />
    <path
       d="m 62.3525,-23.4565 0.1603,-0.0926"
       id="path1028" />
    <path
       d="m 61.5084,-22.9692 0.1603,-0.0926"
       id="path1030" />
    <path
       d="m 60.6643,-22.4819 0.1603,-0.0925"
       id="path1032" />
    <path
       d="m 59.8202,-21.9945 0.1603,-0.0926"
       id="path1034" />
    <path
       d="m 58.9761,-21.5072 0.1603,-0.0925"
       id="path1036" />
    <path
       d="m 58.1319,-21.0198 0.1604,-0.0926"
       id="path1038" />
    <path
       d="m 57.2878,-20.5325 0.1604,-0.0925"
       id="path1040" />
    <path
       d="m 56.4437,-20.0451 0.1604,-0.0926"
       id="path1042" />
  </g>
  <g
     fill="none"
     stroke="#191919"
     stroke-linecap="round"
     stroke-linejoin="round"
     stroke-width="0.4px"
     transform="matrix(1,0,0,-1,98.4879,96.1384)"
     id="g1442">
    <path
       d="m 60.5223,-13.166 a 4,2.3094 -120 0 1 -0.0786,0.0491"
       id="path1046" />
    <path
       d="m 60.4437,-13.1169 a 4,2.3094 -120 0 1 -1.8651,-0.124"
       id="path1048" />
    <path
       d="m 58.5786,-13.2409 a 4,2.3094 -120 0 1 -2.9601,-4.8156"
       id="path1050" />
    <path
       d="m 58.7389,-13.3335 a 4,2.3094 -120 0 1 -2.96,-4.8155"
       id="path1052" />
    <path
       d="m 60.9165,-13.4579 a 4,2.3094 -120 0 1 -0.3124,0.2484"
       id="path1054" />
    <path
       d="m 60.6041,-13.2095 a 4,2.3094 -120 0 1 -1.8652,-0.124"
       id="path1056" />
    <path
       d="m 61.3664,-13.6533 a 4,2.3094 -120 0 1 -0.0786,0.049"
       id="path1058" />
    <path
       d="m 61.2878,-13.6043 a 4,2.3094 -120 0 1 -1.8651,-0.1239"
       id="path1060" />
    <path
       d="m 59.4227,-13.7282 a 4,2.3094 -120 0 1 -2.9601,-4.8156"
       id="path1062" />
    <path
       d="m 59.583,-13.8208 a 4,2.3094 -120 0 1 -2.96,-4.8156"
       id="path1064" />
    <path
       d="m 61.7606,-13.9452 a 4,2.3094 -120 0 1 -0.3124,0.2484"
       id="path1066" />
    <path
       d="m 61.4482,-13.6968 a 4,2.3094 -120 0 1 -1.8652,-0.124"
       id="path1068" />
    <path
       d="m 62.2105,-14.1407 a 4,2.3094 -120 0 1 -0.0786,0.0491"
       id="path1070" />
    <path
       d="m 62.1319,-14.0916 a 4,2.3094 -120 0 1 -1.8651,-0.124"
       id="path1072" />
    <path
       d="m 60.2668,-14.2156 a 4,2.3094 -120 0 1 -2.9601,-4.8156"
       id="path1074" />
    <path
       d="m 60.4271,-14.3082 a 4,2.3094 -120 0 1 -2.96,-4.8155"
       id="path1076" />
    <path
       d="m 62.6047,-14.4326 a 4,2.3094 -120 0 1 -0.3124,0.2484"
       id="path1078" />
    <path
       d="m 62.2923,-14.1842 a 4,2.3094 -120 0 1 -1.8652,-0.124"
       id="path1080" />
    <path
       d="m 63.0546,-14.628 a 4,2.3094 -120 0 1 -0.0785,0.049"
       id="path1082" />
    <path
       d="m 62.9761,-14.579 a 4,2.3094 -120 0 1 -1.8652,-0.1239"
       id="path1084" />
    <path
       d="m 61.1109,-14.7029 a 4,2.3094 -120 0 1 -2.9601,-4.8156"
       id="path1086" />
    <path
       d="m 61.2712,-14.7955 a 4,2.3094 -120 0 1 -2.96,-4.8156"
       id="path1088" />
    <path
       d="m 63.4488,-14.9199 a 4,2.3094 -120 0 1 -0.3124,0.2484"
       id="path1090" />
    <path
       d="m 63.1364,-14.6715 a 4,2.3094 -120 0 1 -1.8652,-0.124"
       id="path1092" />
    <path
       d="m 63.8987,-15.1154 a 4,2.3094 -120 0 1 -0.0785,0.0491"
       id="path1094" />
    <path
       d="m 63.8202,-15.0663 a 4,2.3094 -120 0 1 -1.8652,-0.124"
       id="path1096" />
    <path
       d="m 61.955,-15.1903 a 4,2.3094 -120 0 1 -2.96,-4.8155"
       id="path1098" />
    <path
       d="m 62.1153,-15.2829 a 4,2.3094 -120 0 1 -2.96,-4.8155"
       id="path1100" />
    <path
       d="m 64.293,-15.4073 a 4,2.3094 -120 0 1 -0.3125,0.2484"
       id="path1102" />
    <path
       d="m 63.9805,-15.1589 a 4,2.3094 -120 0 1 -1.8652,-0.124"
       id="path1104" />
    <path
       d="m 64.7428,-15.6027 a 4,2.3094 -120 0 1 -0.0785,0.0491"
       id="path1106" />
    <path
       d="m 64.6643,-15.5536 a 4,2.3094 -120 0 1 -1.8652,-0.124"
       id="path1108" />
    <path
       d="m 62.7991,-15.6776 a 4,2.3094 -120 0 1 -2.96,-4.8156"
       id="path1110" />
    <path
       d="m 62.9594,-15.7702 a 4,2.3094 -120 0 1 -2.96,-4.8156"
       id="path1112" />
    <path
       d="m 65.1371,-15.8946 a 4,2.3094 -120 0 1 -0.3125,0.2484"
       id="path1114" />
    <path
       d="m 64.8246,-15.6462 a 4,2.3094 -120 0 1 -1.8652,-0.124"
       id="path1116" />
    <path
       d="m 65.5869,-16.0901 a 4,2.3094 -120 0 1 -0.0785,0.0491"
       id="path1118" />
    <path
       d="m 65.5084,-16.041 a 4,2.3094 -120 0 1 -1.8652,-0.124"
       id="path1120" />
    <path
       d="m 63.6432,-16.165 a 4,2.3094 -120 0 1 -2.96,-4.8155"
       id="path1122" />
    <path
       d="m 63.8036,-16.2576 a 4,2.3094 -120 0 1 -2.9601,-4.8155"
       id="path1124" />
    <path
       d="m 65.9812,-16.3819 a 4,2.3094 -120 0 1 -0.3125,0.2483"
       id="path1126" />
    <path
       d="m 65.6687,-16.1336 a 4,2.3094 -120 0 1 -1.8651,-0.124"
       id="path1128" />
    <path
       d="m 66.4311,-16.5774 a 4,2.3094 -120 0 1 -0.0786,0.0491"
       id="path1130" />
    <path
       d="m 66.3525,-16.5283 a 4,2.3094 -120 0 1 -1.8652,-0.124"
       id="path1132" />
    <path
       d="m 64.4873,-16.6523 a 4,2.3094 -120 0 1 -2.96,-4.8156"
       id="path1134" />
    <path
       d="m 64.6477,-16.7449 a 4,2.3094 -120 0 1 -2.9601,-4.8156"
       id="path1136" />
    <path
       d="m 66.8253,-16.8693 a 4,2.3094 -120 0 1 -0.3125,0.2484"
       id="path1138" />
    <path
       d="m 66.5128,-16.6209 a 4,2.3094 -120 0 1 -1.8651,-0.124"
       id="path1140" />
    <path
       d="m 67.2752,-17.0648 a 4,2.3094 -120 0 1 -0.0786,0.0491"
       id="path1142" />
    <path
       d="m 67.1966,-17.0157 a 4,2.3094 -120 0 1 -1.8652,-0.124"
       id="path1144" />
    <path
       d="m 65.3314,-17.1397 a 4,2.3094 -120 0 1 -2.96,-4.8155"
       id="path1146" />
    <path
       d="m 65.4918,-17.2322 a 4,2.3094 -120 0 1 -2.9601,-4.8156"
       id="path1148" />
    <path
       d="m 67.6694,-17.3566 a 4,2.3094 -120 0 1 -0.3125,0.2483"
       id="path1150" />
    <path
       d="m 67.3569,-17.1083 a 4,2.3094 -120 0 1 -1.8651,-0.1239"
       id="path1152" />
    <path
       d="m 68.1193,-17.5521 a 4,2.3094 -120 0 1 -0.0786,0.0491"
       id="path1154" />
    <path
       d="m 68.0407,-17.503 a 4,2.3094 -120 0 1 -1.8652,-0.124"
       id="path1156" />
    <path
       d="m 66.1755,-17.627 a 4,2.3094 -120 0 1 -2.96,-4.8156"
       id="path1158" />
    <path
       d="m 66.3359,-17.7196 a 4,2.3094 -120 0 1 -2.9601,-4.8156"
       id="path1160" />
    <path
       d="m 68.5135,-17.844 a 4,2.3094 -120 0 1 -0.3124,0.2484"
       id="path1162" />
    <path
       d="m 68.2011,-17.5956 a 4,2.3094 -120 0 1 -1.8652,-0.124"
       id="path1164" />
    <path
       d="m 68.9634,-18.0395 a 4,2.3094 -120 0 1 -0.0786,0.0491"
       id="path1166" />
    <path
       d="m 68.8848,-17.9904 a 4,2.3094 -120 0 1 -1.8652,-0.124"
       id="path1168" />
    <path
       d="m 67.0196,-18.1144 a 4,2.3094 -120 0 1 -2.96,-4.8155"
       id="path1170" />
    <path
       d="m 67.18,-18.2069 a 4,2.3094 -120 0 1 -2.9601,-4.8156"
       id="path1172" />
    <path
       d="m 69.3576,-18.3313 a 4,2.3094 -120 0 1 -0.3124,0.2483"
       id="path1174" />
    <path
       d="M 69.0452,-18.083 A 4,2.3094 -120 0 1 67.18,-18.2069"
       id="path1176" />
    <path
       d="m 69.8075,-18.5268 a 4,2.3094 -120 0 1 -0.0786,0.0491"
       id="path1178" />
    <path
       d="m 69.7289,-18.4777 a 4,2.3094 -120 0 1 -1.8651,-0.124"
       id="path1180" />
    <path
       d="m 67.8638,-18.6017 a 4,2.3094 -120 0 1 -2.9601,-4.8156"
       id="path1182" />
    <path
       d="m 68.0241,-18.6943 a 4,2.3094 -120 0 1 -2.96,-4.8155"
       id="path1184" />
    <path
       d="m 70.2017,-18.8187 a 4,2.3094 -120 0 1 -0.3124,0.2484"
       id="path1186" />
    <path
       d="m 69.8893,-18.5703 a 4,2.3094 -120 0 1 -1.8652,-0.124"
       id="path1188" />
    <path
       d="m 70.6516,-19.0141 a 4,2.3094 -120 0 1 -0.0786,0.049"
       id="path1190" />
    <path
       d="m 70.573,-18.9651 a 4,2.3094 -120 0 1 -1.8651,-0.124"
       id="path1192" />
    <path
       d="m 68.7079,-19.0891 a 4,2.3094 -120 0 1 -2.9601,-4.8155"
       id="path1194" />
    <path
       d="m 68.8682,-19.1816 a 4,2.3094 -120 0 1 -2.96,-4.8156"
       id="path1196" />
    <path
       d="m 71.0458,-19.306 a 4,2.3094 -120 0 1 -0.3124,0.2484"
       id="path1198" />
    <path
       d="m 70.7334,-19.0576 a 4,2.3094 -120 0 1 -1.8652,-0.124"
       id="path1200" />
    <path
       d="m 71.4957,-19.5015 a 4,2.3094 -120 0 1 -0.0786,0.0491"
       id="path1202" />
    <path
       d="m 71.4171,-19.4524 a 4,2.3094 -120 0 1 -1.8651,-0.124"
       id="path1204" />
    <path
       d="M 69.552,-19.5764 A 4,2.3094 -120 0 1 66.5919,-24.392"
       id="path1206" />
    <path
       d="m 69.7123,-19.669 a 4,2.3094 -120 0 1 -2.96,-4.8155"
       id="path1208" />
    <path
       d="m 71.8899,-19.7934 a 4,2.3094 -120 0 1 -0.3124,0.2484"
       id="path1210" />
    <path
       d="m 71.5775,-19.545 a 4,2.3094 -120 0 1 -1.8652,-0.124"
       id="path1212" />
    <path
       d="m 72.3398,-19.9888 a 4,2.3094 -120 0 1 -0.0786,0.049"
       id="path1214" />
    <path
       d="m 72.2612,-19.9398 a 4,2.3094 -120 0 1 -1.8651,-0.1239"
       id="path1216" />
    <path
       d="M 70.3961,-20.0637 A 4,2.3094 -120 0 1 67.436,-24.8793"
       id="path1218" />
    <path
       d="m 70.5564,-20.1563 a 4,2.3094 -120 0 1 -2.96,-4.8156"
       id="path1220" />
    <path
       d="m 72.734,-20.2807 a 4,2.3094 -120 0 1 -0.3124,0.2484"
       id="path1222" />
    <path
       d="m 72.4216,-20.0323 a 4,2.3094 -120 0 1 -1.8652,-0.124"
       id="path1224" />
    <path
       d="m 73.1839,-20.4762 a 4,2.3094 -120 0 1 -0.0785,0.0491"
       id="path1226" />
    <path
       d="m 73.1054,-20.4271 a 4,2.3094 -120 0 1 -1.8652,-0.124"
       id="path1228" />
    <path
       d="m 71.2402,-20.5511 a 4,2.3094 -120 0 1 -2.9601,-4.8156"
       id="path1230" />
    <path
       d="m 71.4005,-20.6437 a 4,2.3094 -120 0 1 -2.96,-4.8155"
       id="path1232" />
    <path
       d="m 73.577,-20.7668 a 4,2.3094 -120 0 1 -0.3113,0.2471"
       id="path1234" />
    <path
       d="m 73.2657,-20.5197 a 4,2.3094 -120 0 1 -1.8652,-0.124"
       id="path1236" />
    <path
       d="M 72.9096,-21.1841"
       id="path1238" />
    <path
       d="m 69.1236,-25.8544 a 4.00096,2.30996 -120 0 1 0.5394,-1.7681"
       id="path1240" />
    <path
       d="m 79.1992,-19.4421 a 7.9,4.56107 -120 0 1 -3.95,-0.3912"
       id="path1242" />
    <path
       d="m 75.2492,-19.8333 a 7.9,4.56107 -120 0 1 -5.5798,-9.3644"
       id="path1244" />
    <path
       d="m 81.3593,-23.6758 a 7.9,4.56107 -120 0 1 -1.6298,3.9276"
       id="path1246" />
    <path
       d="m 79.7295,-19.7482 a 7.9,4.56107 -120 0 1 -9.5298,-9.7556"
       id="path1248" />
    <path
       d="M 76.4757,-27.8418 76.394,-29.8656"
       id="path1250" />
    <path
       d="m 76.4757,-27.8418 -2.0858,1.4091"
       id="path1252" />
    <path
       d="m 76.394,-29.8656 -2.6093,3.1168"
       id="path1254" />
    <path
       d="m 75.1439,-23.8373 1.465,-0.7039"
       id="path1256" />
    <path
       d="m 76.6906,-22.5173 -0.0817,-2.0239"
       id="path1258" />
    <path
       d="m 74.3577,-28.239 0.5924,-0.3995"
       id="path1260" />
    <path
       d="m 74.8684,-30.6623 0.0817,2.0238"
       id="path1262" />
    <path
       d="m 75.0833,-25.3379 0.0817,2.0238"
       id="path1264" />
    <path
       d="m 72.7082,-27.311 1.7118,0.894"
       id="path1266" />
    <path
       d="m 74.3472,-28.2207 -1.7118,-0.894"
       id="path1268" />
    <path
       d="m 74.3472,-28.2207 -1.4764,0.9946"
       id="path1270" />
    <path
       d="m 74.8521,-25.6304 2.2869,-1.1323"
       id="path1272" />
    <path
       d="m 78.8508,-25.8687 -1.7118,-0.894"
       id="path1274" />
    <path
       d="M 78.8508,-25.8687 75.094,-25.073"
       id="path1276" />
    <path
       d="m 77.2118,-24.959 1.7119,0.894"
       id="path1278" />
    <path
       d="M 77.2118,-24.959 75.14,-23.933"
       id="path1280" />
    <path
       d="m 70.1997,-29.5038 a 7.9,4.56107 -120 0 1 1.6298,-3.9276"
       id="path1282" />
    <path
       d="m 71.8295,-33.4314 a 7.9,4.56107 -120 0 1 9.5298,9.7556"
       id="path1284" />
    <path
       d="m 76.4757,-27.8418 a 2.25216,1.30029 -120 0 1 0.6633,1.0791"
       id="path1286" />
    <path
       d="m 76.394,-29.8656 -1.5256,-0.7967"
       id="path1288" />
    <path
       d="m 74.3472,-28.2207 a 2.25216,1.30029 -120 0 1 0.2519,-0.285"
       id="path1290" />
    <path
       d="m 74.5991,-28.5057 a 2.25216,1.30029 -120 0 1 0.351,-0.1328"
       id="path1292" />
    <path
       d="m 72.6354,-29.1147 0.0728,1.8037"
       id="path1294" />
    <path
       d="M 75.0833,-25.3379 A 2.25216,1.30029 -120 0 1 74.42,-26.417"
       id="path1296" />
    <path
       d="m 75.165,-23.3141 1.5256,0.7968"
       id="path1298" />
    <path
       d="m 77.2118,-24.959 a 2.25216,1.30029 -120 0 1 -0.3633,0.3494"
       id="path1300" />
    <path
       d="m 76.8485,-24.6096 a 2.25216,1.30029 -120 0 1 -0.2396,0.0684"
       id="path1302" />
    <path
       d="m 78.9237,-24.065 -0.0729,-1.8037"
       id="path1304" />
    <path
       d="M 69.6694,-29.1977 A 7.9,4.56107 -120 0 1 69.663,-29.5088"
       id="path1306" />
    <path
       d="m 69.663,-29.5088 a 7.9,4.56107 -120 0 1 1.6362,-3.6165"
       id="path1308" />
    <path
       d="m 73.6156,-20.7765 a 4.00096,2.30996 -120 0 1 -4.492,-5.0779"
       id="path1310" />
    <path
       d="m 69.663,-26.8072 a 3.3095,1.91074 -120 0 1 0,-10e-5"
       id="path1312" />
    <path
       d="m 68.4405,-25.4592 a 4,2.3094 -120 0 1 0.8252,-1.9887"
       id="path1314" />
    <path
       d="m 69.2657,-27.4479 a 4,2.3094 -120 0 1 0.3697,-0.146"
       id="path1316" />
    <path
       d="m 68.2801,-25.3667 a 4,2.3094 -120 0 1 0.8253,-1.9886"
       id="path1318" />
    <path
       d="m 69.1054,-27.3553 a 4,2.3094 -120 0 1 0.0817,-0.0435"
       id="path1320" />
    <path
       d="m 67.5964,-24.9719 a 4,2.3094 -120 0 1 0.8252,-1.9886"
       id="path1322" />
    <path
       d="m 68.4216,-26.9605 a 4,2.3094 -120 0 1 0.3713,-0.1464"
       id="path1324" />
    <path
       d="m 67.436,-24.8793 a 4,2.3094 -120 0 1 0.8253,-1.9887"
       id="path1326" />
    <path
       d="m 68.2613,-26.868 a 4,2.3094 -120 0 1 0.0817,-0.0435"
       id="path1328" />
    <path
       d="m 66.7523,-24.4845 a 4,2.3094 -120 0 1 0.8252,-1.9887"
       id="path1330" />
    <path
       d="m 67.5775,-26.4732 a 4,2.3094 -120 0 1 0.3713,-0.1464"
       id="path1332" />
    <path
       d="m 66.5919,-24.392 a 4,2.3094 -120 0 1 0.8252,-1.9886"
       id="path1334" />
    <path
       d="m 67.4171,-26.3806 a 4,2.3094 -120 0 1 0.0818,-0.0435"
       id="path1336" />
    <path
       d="m 65.9082,-23.9972 a 4,2.3094 -120 0 1 0.8252,-1.9887"
       id="path1338" />
    <path
       d="m 66.7334,-25.9859 a 4,2.3094 -120 0 1 0.3713,-0.1463"
       id="path1340" />
    <path
       d="m 65.7478,-23.9046 a 4,2.3094 -120 0 1 0.8252,-1.9887"
       id="path1342" />
    <path
       d="m 66.573,-25.8933 a 4,2.3094 -120 0 1 0.0818,-0.0435"
       id="path1344" />
    <path
       d="m 65.0641,-23.5098 a 4,2.3094 -120 0 1 0.8252,-1.9887"
       id="path1346" />
    <path
       d="m 65.8893,-25.4985 a 4,2.3094 -120 0 1 0.3713,-0.1464"
       id="path1348" />
    <path
       d="m 64.9037,-23.4173 a 4,2.3094 -120 0 1 0.8252,-1.9886"
       id="path1350" />
    <path
       d="m 65.7289,-25.4059 a 4,2.3094 -120 0 1 0.0818,-0.0435"
       id="path1352" />
    <path
       d="m 64.2199,-23.0225 a 4,2.3094 -120 0 1 0.8253,-1.9887"
       id="path1354" />
    <path
       d="m 65.0452,-25.0112 a 4,2.3094 -120 0 1 0.3713,-0.1464"
       id="path1356" />
    <path
       d="m 64.0596,-22.9299 a 4,2.3094 -120 0 1 0.8252,-1.9887"
       id="path1358" />
    <path
       d="m 64.8848,-24.9186 a 4,2.3094 -120 0 1 0.0818,-0.0435"
       id="path1360" />
    <path
       d="m 63.3758,-22.5352 a 4,2.3094 -120 0 1 0.8253,-1.9886"
       id="path1362" />
    <path
       d="m 64.2011,-24.5238 a 4,2.3094 -120 0 1 0.3713,-0.1464"
       id="path1364" />
    <path
       d="m 63.2155,-22.4426 a 4,2.3094 -120 0 1 0.8252,-1.9886"
       id="path1366" />
    <path
       d="m 64.0407,-24.4312 a 4,2.3094 -120 0 1 0.0818,-0.0435"
       id="path1368" />
    <path
       d="m 62.5317,-22.0478 a 4,2.3094 -120 0 1 0.8252,-1.9887"
       id="path1370" />
    <path
       d="m 63.3569,-24.0365 a 4,2.3094 -120 0 1 0.3714,-0.1464"
       id="path1372" />
    <path
       d="m 62.3714,-21.9552 a 4,2.3094 -120 0 1 0.8252,-1.9887"
       id="path1374" />
    <path
       d="m 63.1966,-23.9439 a 4,2.3094 -120 0 1 0.0818,-0.0435"
       id="path1376" />
    <path
       d="m 61.6876,-21.5605 a 4,2.3094 -120 0 1 0.8252,-1.9886"
       id="path1378" />
    <path
       d="m 62.5128,-23.5491 a 4,2.3094 -120 0 1 0.3714,-0.1464"
       id="path1380" />
    <path
       d="m 61.5273,-21.4679 a 4,2.3094 -120 0 1 0.8252,-1.9886"
       id="path1382" />
    <path
       d="M 62.3525,-23.4565 A 4,2.3094 -120 0 1 62.4343,-23.5"
       id="path1384" />
    <path
       d="m 60.8435,-21.0731 a 4,2.3094 -120 0 1 0.8252,-1.9887"
       id="path1386" />
    <path
       d="M 61.6687,-23.0618 A 4,2.3094 -120 0 1 62.04,-23.2082"
       id="path1388" />
    <path
       d="m 60.6832,-20.9805 a 4,2.3094 -120 0 1 0.8252,-1.9887"
       id="path1390" />
    <path
       d="m 61.5084,-22.9692 a 4,2.3094 -120 0 1 0.0818,-0.0435"
       id="path1392" />
    <path
       d="m 59.9994,-20.5858 a 4,2.3094 -120 0 1 0.8252,-1.9886"
       id="path1394" />
    <path
       d="m 60.8246,-22.5744 a 4,2.3094 -120 0 1 0.3713,-0.1464"
       id="path1396" />
    <path
       d="m 59.8391,-20.4932 a 4,2.3094 -120 0 1 0.8252,-1.9887"
       id="path1398" />
    <path
       d="m 60.6643,-22.4819 a 4,2.3094 -120 0 1 0.0818,-0.0435"
       id="path1400" />
    <path
       d="m 59.1553,-20.0984 a 4,2.3094 -120 0 1 0.8252,-1.9887"
       id="path1402" />
    <path
       d="m 59.9805,-22.0871 a 4,2.3094 -120 0 1 0.3713,-0.1464"
       id="path1404" />
    <path
       d="m 58.995,-20.0058 a 4,2.3094 -120 0 1 0.8252,-1.9887"
       id="path1406" />
    <path
       d="m 59.8202,-21.9945 a 4,2.3094 -120 0 1 0.0817,-0.0435"
       id="path1408" />
    <path
       d="m 58.3112,-19.6111 a 4,2.3094 -120 0 1 0.8252,-1.9886"
       id="path1410" />
    <path
       d="m 59.1364,-21.5997 a 4,2.3094 -120 0 1 0.3713,-0.1464"
       id="path1412" />
    <path
       d="m 58.1508,-19.5185 a 4,2.3094 -120 0 1 0.8253,-1.9887"
       id="path1414" />
    <path
       d="m 58.9761,-21.5072 a 4,2.3094 -120 0 1 0.0817,-0.0435"
       id="path1416" />
    <path
       d="m 57.4671,-19.1237 a 4,2.3094 -120 0 1 0.8252,-1.9887"
       id="path1418" />
    <path
       d="m 58.2923,-21.1124 a 4,2.3094 -120 0 1 0.3713,-0.1464"
       id="path1420" />
    <path
       d="m 57.3067,-19.0312 a 4,2.3094 -120 0 1 0.8252,-1.9886"
       id="path1422" />
    <path
       d="m 58.1319,-21.0198 a 4,2.3094 -120 0 1 0.0818,-0.0435"
       id="path1424" />
    <path
       d="m 56.623,-18.6364 a 4,2.3094 -120 0 1 0.8252,-1.9886"
       id="path1426" />
    <path
       d="m 57.4482,-20.625 a 4,2.3094 -120 0 1 0.3713,-0.1464"
       id="path1428" />
    <path
       d="m 56.4626,-18.5438 a 4,2.3094 -120 0 1 0.8252,-1.9887"
       id="path1430" />
    <path
       d="m 57.2878,-20.5325 a 4,2.3094 -120 0 1 0.0818,-0.0435"
       id="path1432" />
    <path
       d="m 55.7789,-18.149 a 4,2.3094 -120 0 1 0.8252,-1.9887"
       id="path1434" />
    <path
       d="m 56.6041,-20.1377 a 4,2.3094 -120 0 1 0.3713,-0.1464"
       id="path1436" />
    <path
       d="m 55.6185,-18.0565 a 4,2.3094 -120 0 1 0.8252,-1.9886"
       id="path1438" />
    <path
       d="m 56.4437,-20.0451 a 4,2.3094 -120 0 1 0.0818,-0.0435"
       id="path1440" />
  </g>
  <g
     fill="none"
     stroke="#bcbec0"
     stroke-linecap="butt"
     stroke-linejoin="miter"
     stroke-width="0.4px"
     transform="matrix(1,0,0,-1,98.4879,96.1384)"
     id="g1448">
    <path
       d="m 77.1965,60.6249 v 0.6124"
       id="path1444" />
    <path
       d="m 61.3965,60.6249 v 0.6124"
       id="path1446" />
  </g>
  <g
     fill="none"
     stroke="#bcbec0"
     stroke-linecap="round"
     stroke-linejoin="round"
     stroke-width="0.4px"
     transform="matrix(1,0,0,-1,98.4879,96.1384)"
     id="g1514">
    <path
       d="m 75.1357,57.5528 a 7.9,4.56107 2.02881e-5 0 1 2.0608,3.0721"
       id="path1450" />
    <path
       d="m 74.3661,57.7392 a 7.9,4.56107 2.02881e-5 0 1 2.8304,3.4981"
       id="path1452" />
    <path
       d="m 77.1965,61.2373 a 7.9,4.56107 2.02881e-5 0 1 -12.9697,3.498"
       id="path1454" />
    <path
       d="M 68.4738,60.0268 66.615,59.1288"
       id="path1456" />
    <path
       d="m 71.4608,60.8776 0.0444,0.6137"
       id="path1458" />
    <path
       d="M 73.364,62.3892 71.5052,61.4913"
       id="path1460" />
    <path
       d="m 67.2106,59.4166 -0.1229,1.5666"
       id="path1462" />
    <path
       d="m 65.2289,60.0853 1.8588,0.8979"
       id="path1464" />
    <path
       d="m 70.1191,62.4477 1.8588,0.898"
       id="path1466" />
    <path
       d="m 70.1191,62.4477 -0.192,-2.6172"
       id="path1468" />
    <path
       d="m 71.9779,63.3457 -1.4902,-3.902"
       id="path1470" />
    <path
       d="m 69.0128,59.9473 -0.1563,2.5652"
       id="path1472" />
    <path
       d="m 67.3011,63.5857 1.5554,-1.0732"
       id="path1474" />
    <path
       d="m 67.3011,63.5857 1.1075,-3.5904"
       id="path1476" />
    <path
       d="m 67.1999,61.7122 -1.5553,1.0732"
       id="path1478" />
    <path
       d="m 67.1999,61.7122 0.1359,-2.2351"
       id="path1480" />
    <path
       d="M 71.2918,58.8888 69.7364,59.962"
       id="path1482" />
    <path
       d="m 71.393,60.7623 1.5553,-1.0732"
       id="path1484" />
    <path
       d="M 71.393,60.7623 71.2698,58.904"
       id="path1486" />
    <path
       d="m 64.2268,64.7353 a 7.9,4.56107 2.02881e-5 0 1 -2.8303,-3.498"
       id="path1488" />
    <path
       d="M 61.3965,61.2373 A 7.9,4.56107 2.02881e-5 0 1 74.3661,57.7392"
       id="path1490" />
    <path
       d="M 68.4738,60.0268 A 2.25216,1.30029 2.02881e-5 0 1 69.7364,59.962"
       id="path1492" />
    <path
       d="m 66.615,59.1288 -1.3861,0.9565"
       id="path1494" />
    <path
       d="M 67.1999,61.7122 A 2.25216,1.30029 2.02881e-5 0 1 67.047,61.173"
       id="path1496" />
    <path
       d="m 67.047,61.173 a 2.25216,1.30029 2.02881e-5 0 1 0.0407,-0.1898"
       id="path1498" />
    <path
       d="m 65.6446,62.7854 1.6565,0.8003"
       id="path1500" />
    <path
       d="m 70.1191,62.4477 a 2.25216,1.30029 2.02881e-5 0 1 -1.2626,0.0648"
       id="path1502" />
    <path
       d="M 71.9779,63.3457 73.364,62.3892"
       id="path1504" />
    <path
       d="m 71.393,60.7623 a 2.25216,1.30029 2.02881e-5 0 1 0.1529,0.4107"
       id="path1506" />
    <path
       d="m 71.5459,61.173 a 2.25216,1.30029 2.02881e-5 0 1 -0.0407,0.3183"
       id="path1508" />
    <path
       d="M 72.9483,59.6891 71.2918,58.8888"
       id="path1510" />
    <path
       d="m 61.3965,60.6249 a 7.9,4.56107 2.02881e-5 0 1 2.0607,-3.0721"
       id="path1512" />
  </g>
  <g
     fill="none"
     stroke="#bcbec0"
     stroke-linecap="round"
     stroke-linejoin="round"
     stroke-width="0.4px"
     transform="matrix(1,0,0,-1,98.4879,96.1384)"
     id="g1552">
    <path
       d="m -25.7964,18.9911 a 6.5,3.75278 120 0 1 7.8462,-8.2828"
       id="path1516" />
    <path
       d="m -17.9502,10.7083 a 6.5,3.75278 120 0 1 1.3462,2.9755"
       id="path1518" />
    <path
       d="m 27.5902,12.3366 a 3.4,1.96299 -120 0 1 1.7,5.7206"
       id="path1520" />
    <path
       d="m 29.2902,18.0572 a 3.4,1.96299 -120 0 1 -1.7,-0.1684"
       id="path1522" />
    <path
       d="M 9.91252,-14.6894 24.0547,-6.52445"
       id="path1524" />
    <path
       d="m 41.8215,3.73326 1.3686,0.79013"
       id="path1526" />
    <path
       d="M -9.1924,-3.65918 9.91252,-14.6894"
       id="path1528" />
    <path
       d="m 27.5902,17.8888 a 3.4,1.96299 -120 0 1 -1.7,-5.7206"
       id="path1530" />
    <path
       d="m 25.8902,12.1682 a 3.4,1.96299 -120 0 1 1.7,0.1684"
       id="path1532" />
    <path
       d="M 45.2679,15.521 V 31.8509"
       id="path1534" />
    <path
       d="M 9.91251,11.4385 45.2679,31.8509"
       id="path1536" />
    <path
       d="m 9.91252,-14.6894 -1e-5,26.1279"
       id="path1538" />
    <path
       d="M 45.2679,31.8509 -21.9073,70.6345"
       id="path1540" />
    <path
       d="m -57.2626,50.2221 35.3553,20.4124"
       id="path1542" />
    <path
       d="M 9.91251,11.4385 -57.2626,50.2221"
       id="path1544" />
    <path
       d="M -57.2626,50.2221 V 28.1616"
       id="path1546" />
    <path
       d="m -16.604,13.6838 a 6.5,3.75278 120 0 1 -7.8462,8.2828"
       id="path1548" />
    <path
       d="m -24.4502,21.9666 a 6.5,3.75278 120 0 1 -1.3462,-2.9755"
       id="path1550" />
  </g>
  <g
     fill="none"
     stroke="#ed2124"
     stroke-linecap="round"
     stroke-linejoin="round"
     stroke-width="0.4px"
     transform="matrix(1,0,0,-1,98.4879,96.1384)"
     id="g1558">
    <path
       d="M 56.4437,-1.54588 42.9321,6.25508"
       id="path1554" />
    <path
       d="M 36.0755,10.2137 25.8902,16.0942"
       id="path1556" />
  </g>
  <g
     fill="none"
     stroke="#bcbec0"
     stroke-linecap="round"
     stroke-linejoin="round"
     stroke-width="0.4px"
     transform="matrix(1,0,0,-1,98.4879,96.1384)"
     id="g1612">
    <path
       d="M 63.18,57.7059"
       id="path1560" />
    <path
       d="m 63.18,57.7059 a 8.65,4.99408 2.02881e-5 0 1 12.2329,0"
       id="path1562" />
    <path
       d="m 75.4129,57.7059 a 8.65,4.99408 2.02881e-5 0 1 0,7.0627"
       id="path1564" />
    <path
       d="m 63.18,57.7059 v 0"
       id="path1566" />
    <path
       d="M 27.8246,78.1183"
       id="path1568" />
    <path
       d="m 27.8246,78.1183 a 8.65,4.99408 2.02881e-5 0 1 12.233,0"
       id="path1570" />
    <path
       d="m 40.0576,78.1183 a 8.65,4.99408 2.02881e-5 0 1 0,7.0627"
       id="path1572" />
    <path
       d="m 27.8246,78.1183 v 0"
       id="path1574" />
    <path
       d="M 71.4178,20.8207 94.0452,33.8846"
       id="path1576" />
    <path
       d="M 71.4178,20.8207 9.19239,56.7465"
       id="path1578" />
    <path
       d="M 94.0452,60.0125 31.8198,95.9384"
       id="path1580" />
    <path
       d="M 94.0452,33.8846 V 60.0125"
       id="path1582" />
    <path
       d="M 75.4129,64.7686 A 8.65,4.99408 2.02881e-5 0 1 63.18,57.7059"
       id="path1584" />
    <path
       d="M 40.0576,85.181 A 8.6500213,4.9940923 2.02881e-5 0 1 27.8246,78.1183"
       id="path1586" />
    <path
       d="M 31.8198,95.9384 9.19238,82.8744"
       id="path1588" />
    <path
       d="M 71.4178,46.9486 9.19238,82.8744"
       id="path1590" />
    <path
       d="M 94.0452,60.0125 71.4178,46.9486"
       id="path1592" />
    <path
       d="M 9.19238,82.8744 V 75.1177"
       id="path1594" />
    <path
       d="M 71.4178,39.1919 9.19238,75.1177"
       id="path1596" />
    <path
       d="M 71.4178,46.9486 V 39.1919"
       id="path1598" />
    <path
       d="M 71.4178,39.1919 76.014,36.5382"
       id="path1600" />
    <path
       d="M 13.7886,72.4641 9.19238,64.5032"
       id="path1602" />
    <path
       d="M 71.4178,28.5774 9.19238,64.5032"
       id="path1604" />
    <path
       d="M 76.014,36.5382 71.4178,28.5774"
       id="path1606" />
    <path
       d="m 9.19238,64.5032 10e-6,-7.7567"
       id="path1608" />
    <path
       d="M 71.4178,28.5774 V 20.8207"
       id="path1610" />
  </g>
</svg>
