<?xml version="1.0" encoding="UTF-8" standalone="no"?>
<svg
   width="149.58638"
   height="227.98311"
   version="1.1"
   id="svg34"
   sodipodi:docname="autodoc_sample.svg"
   xmlns:inkscape="http://www.inkscape.org/namespaces/inkscape"
   xmlns:sodipodi="http://sodipodi.sourceforge.net/DTD/sodipodi-0.dtd"
   xmlns="http://www.w3.org/2000/svg"
   xmlns:svg="http://www.w3.org/2000/svg">
  <defs
     id="defs38" />
  <sodipodi:namedview
     id="namedview36"
     pagecolor="#ffffff"
     bordercolor="#666666"
     borderopacity="1.0"
     inkscape:showpageshadow="2"
     inkscape:pageopacity="0.0"
     inkscape:pagecheckerboard="0"
     inkscape:deskcolor="#d1d1d1"
     showgrid="false" />
  <g
     transform="matrix(34.44595,0,0,-34.44595,135.6856,78.835305)"
     stroke-width="0.1"
     fill="none"
     id="g32">
    <!-- hidden lines -->
    <g
       stroke="#0000ff"
       fill="none"
       stroke-dasharray="0.1, 0.1"
       id="g2" />
    <!-- solid lines -->
    <g
       stroke="#000000"
       fill="none"
       id="g30">
      <path
         d="M 0.35355339,-2.2453656 -3.1819805,-4.286607"
         id="path4" />
      <path
         d="M -3.8890873,-3.8783588 -3.1819805,-4.286607"
         id="path6" />
      <path
         d="M -0.35355339,2.2453656 -3.8890873,0.20412415"
         id="path8" />
      <path
         d="M -3.8890873,0.20412415 V -3.8783588"
         id="path10" />
      <path
         d="m -1.767767,-1.428869 0.069309,0.043947 0.068641,0.051387 0.067313,0.058332 0.065336,0.064716 0.06273,0.070476 0.05952,0.075557 0.055736,0.079911 0.051416,0.0834953 0.046601,0.0862754 0.041337,0.0882246 0.035675,0.0893242 0.029669,0.0895635 0.023378,0.0889403 0.016861,0.0874605 0.010182,0.0851385 0.0034,0.0819965"
         id="path12" />
      <path
         d="m -3.1819805,-4.286607 v 4.08248285"
         id="path14" />
      <path
         d="M 0.35355339,1.8371173 -3.1819805,-0.20412415"
         id="path16" />
      <path
         d="M 0.35355339,-2.2453656 V 1.8371173"
         id="path18" />
      <path
         d="m -1.0606602,-1.8371173 -0.069309,-0.036084 -0.068641,-0.027873 -0.067313,-0.019394 -0.032955,-0.00646 -0.032381,-0.00427 -0.031729,-0.00208 -0.031001,1.202e-4 -0.030198,0.00232 -0.029322,0.00451 -0.028375,0.00669 -0.027361,0.00886 -0.02628,0.011004 -0.025136,0.013121"
         id="path20" />
      <path
         d="m -1.5606602,-1.8866461 -0.023931,0.015208 -0.022669,0.017257 -0.021353,0.019266 -0.019984,0.021227 -0.018568,0.023138 -0.017107,0.024993 -0.015604,0.026787 -0.014065,0.028517 -0.012491,0.030179 -0.010887,0.031767 -0.016861,0.067991 -0.010182,0.073381 -0.00341,0.078065 0.00341,0.081997 0.010182,0.085138 0.016861,0.087461 0.023378,0.08894 0.029669,0.0895636 0.035675,0.0893242 0.041337,0.0882246 0.046601,0.0862754 0.051416,0.0834953 0.055736,0.0799111 0.05952,0.0755573 0.06273,0.0704758 0.065336,0.0647157 0.067313,0.0583322 0.068641,0.0513871 0.069309,0.043947 0.0693086,0.0360837 0.0686411,0.0278729 0.0673126,0.0193936 0.0329548,0.006455 0.032381,0.004272 0.031729,0.002078 0.0310007,-1.202e-4 0.0301977,-0.002319 0.029322,-0.004511 0.0283755,-0.006693 0.0273608,-0.008859 0.0262801,-0.0110035 0.0251361,-0.0131215"
         id="path22" />
      <path
         d="m -0.56066017,-0.15459532 0.0354275,-0.0235828 0.032526,-0.0281481 0.0294482,-0.0325608 0.0262108,-0.0367971 0.0228314,-0.040834 0.0193283,-0.0446495 0.0157204,-0.0482232 0.0120273,-0.0515355 0.008269,-0.0545685 0.004466,-0.0573058 6.3877e-4,-0.0597326 -0.003192,-0.0618357 -0.007005,-0.0636037 -0.0107808,-0.065027 -0.0144979,-0.0660979 -0.0181363,-0.0668107 -0.0216765,-0.0671613 -0.0250992,-0.067148 -0.0283859,-0.066771 -0.0315188,-0.066032 -0.0344809,-0.064935 -0.0372561,-0.063486 -0.0398295,-0.061694 -0.0421869,-0.059567 -0.0443158,-0.057117 -0.0462046,-0.054357 -0.0478429,-0.051303 -0.049222,-0.047971 -0.0503343,-0.04438 -0.0511739,-0.040547 -0.0517361,-0.036495 -0.052018,-0.032245"
         id="path24" />
      <path
         d="M 0.35355339,1.8371173 -0.35355339,2.2453656"
         id="path26" />
      <path
         d="m -3.1819805,-0.20412415 -0.7071068,0.4082483"
         id="path28" />
    </g>
  </g>
</svg>
