<?xml version="1.0" encoding="UTF-8" standalone="no"?>
<svg
   width="196.97569"
   height="149.08356"
   version="1.1"
   id="svg1686"
   sodipodi:docname="step-2.svg"
   inkscape:version="1.1.2 (0a00cf5339, 2022-02-04)"
   xmlns:inkscape="http://www.inkscape.org/namespaces/inkscape"
   xmlns:sodipodi="http://sodipodi.sourceforge.net/DTD/sodipodi-0.dtd"
   xmlns="http://www.w3.org/2000/svg"
   xmlns:svg="http://www.w3.org/2000/svg">
  <defs
     id="defs1690" />
  <sodipodi:namedview
     id="namedview1688"
     pagecolor="#ffffff"
     bordercolor="#666666"
     borderopacity="1.0"
     inkscape:pageshadow="2"
     inkscape:pageopacity="0.0"
     inkscape:pagecheckerboard="0"
     showgrid="false"
     inkscape:zoom="5.2100307"
     inkscape:cx="89.730757"
     inkscape:cy="78.406448"
     inkscape:window-width="1550"
     inkscape:window-height="1080"
     inkscape:window-x="640"
     inkscape:window-y="20"
     inkscape:window-maximized="0"
     inkscape:current-layer="svg1686" />
  <g
     fill="none"
     stroke="#191919"
     stroke-linecap="butt"
     stroke-linejoin="miter"
     stroke-width="0.4px"
     transform="matrix(1,0,0,-1,98.4879,92.137058)"
     id="g138">
    <path
       d="m -65.2965,46.9351 v 0.2113"
       id="path2" />
    <path
       d="m -65.2965,47.9359 v 0.2113"
       id="path4" />
    <path
       d="m -65.2965,48.9368 v 0.2113"
       id="path6" />
    <path
       d="M -65.2965,49.9377 V 50.149"
       id="path8" />
    <path
       d="m -65.2965,50.9385 v 0.2114"
       id="path10" />
    <path
       d="m -65.2965,51.9394 v 0.2113"
       id="path12" />
    <path
       d="m -65.2965,52.9403 v 0.2113"
       id="path14" />
    <path
       d="m -65.2965,53.9411 v 0.2114"
       id="path16" />
    <path
       d="m -65.2965,54.942 v 0.2113"
       id="path18" />
    <path
       d="m -65.2965,55.9429 v 0.2113"
       id="path20" />
    <path
       d="m -65.2965,56.9437 v 0.2114"
       id="path22" />
    <path
       d="m -65.2965,57.9446 v 0.2113"
       id="path24" />
    <path
       d="m -65.2965,58.9455 v 0.2113"
       id="path26" />
    <path
       d="m -65.2965,59.9463 v 0.2114"
       id="path28" />
    <path
       d="m -65.2965,60.9472 v 0.2113"
       id="path30" />
    <path
       d="m -65.2965,61.9481 v 0.2113"
       id="path32" />
    <path
       d="m -65.2965,62.9489 v 0.2114"
       id="path34" />
    <path
       d="m -65.2965,63.9498 v 0.2113"
       id="path36" />
    <path
       d="M -65.2965,64.9507 V 65.162"
       id="path38" />
    <path
       d="m -65.2965,65.9515 v 0.2114"
       id="path40" />
    <path
       d="m -65.2965,66.9524 v 0.2113"
       id="path42" />
    <path
       d="m -65.2965,67.9533 v 0.2113"
       id="path44" />
    <path
       d="m -65.2965,68.9541 v 0.2114"
       id="path46" />
    <path
       d="m -65.2965,69.955 v 0.2113"
       id="path48" />
    <path
       d="m -65.2965,70.9559 v 0.2113"
       id="path50" />
    <path
       d="m -65.2965,71.9567 v 0.2114"
       id="path52" />
    <path
       d="m -65.2965,72.9576 v 0.2113"
       id="path54" />
    <path
       d="m -65.2965,73.9585 v 0.2113"
       id="path56" />
    <path
       d="m -65.2965,74.9593 v 0.2114"
       id="path58" />
    <path
       d="m -65.2965,75.9602 v 0.2113"
       id="path60" />
    <path
       d="m -65.2965,76.9611 v 0.2113"
       id="path62" />
    <path
       d="m -65.2965,77.9619 v 4.6499"
       id="path64" />
    <path
       d="m -61.3965,86.7527 v 0.6124"
       id="path66" />
    <path
       d="m -77.1965,86.7527 v 0.6124"
       id="path68" />
    <path
       d="m -66.0539,82.1746 2.3435,1.353"
       id="path70" />
    <path
       d="m -72.5391,82.1746 -2.3435,1.353"
       id="path72" />
    <path
       d="m -73.2965,77.9619 v 4.6499"
       id="path74" />
    <path
       d="m -73.2965,76.9611 v 0.2113"
       id="path76" />
    <path
       d="m -73.2965,75.9602 v 0.2113"
       id="path78" />
    <path
       d="m -73.2965,74.9593 v 0.2113"
       id="path80" />
    <path
       d="m -73.2965,73.9585 v 0.2113"
       id="path82" />
    <path
       d="m -73.2965,72.9576 v 0.2113"
       id="path84" />
    <path
       d="M -73.2965,71.9567 V 72.168"
       id="path86" />
    <path
       d="m -73.2965,70.9559 v 0.2113"
       id="path88" />
    <path
       d="m -73.2965,69.955 v 0.2113"
       id="path90" />
    <path
       d="m -73.2965,68.9541 v 0.2113"
       id="path92" />
    <path
       d="m -73.2965,67.9533 v 0.2113"
       id="path94" />
    <path
       d="m -73.2965,66.9524 v 0.2113"
       id="path96" />
    <path
       d="m -73.2965,65.9515 v 0.2113"
       id="path98" />
    <path
       d="M -73.2965,64.9507 V 65.162"
       id="path100" />
    <path
       d="m -73.2965,63.9498 v 0.2113"
       id="path102" />
    <path
       d="m -73.2965,62.9489 v 0.2113"
       id="path104" />
    <path
       d="m -73.2965,61.9481 v 0.2113"
       id="path106" />
    <path
       d="m -73.2965,60.9472 v 0.2113"
       id="path108" />
    <path
       d="m -73.2965,59.9463 v 0.2113"
       id="path110" />
    <path
       d="m -73.2965,58.9455 v 0.2113"
       id="path112" />
    <path
       d="m -73.2965,57.9446 v 0.2113"
       id="path114" />
    <path
       d="M -73.2965,56.9437 V 57.155"
       id="path116" />
    <path
       d="m -73.2965,55.9429 v 0.2113"
       id="path118" />
    <path
       d="m -73.2965,54.942 v 0.2113"
       id="path120" />
    <path
       d="m -73.2965,53.9411 v 0.2113"
       id="path122" />
    <path
       d="m -73.2965,52.9403 v 0.2113"
       id="path124" />
    <path
       d="m -73.2965,51.9394 v 0.2113"
       id="path126" />
    <path
       d="m -73.2965,50.9385 v 0.2113"
       id="path128" />
    <path
       d="M -73.2965,49.9377 V 50.149"
       id="path130" />
    <path
       d="m -73.2965,48.9368 v 0.2113"
       id="path132" />
    <path
       d="m -73.2965,47.9359 v 0.2113"
       id="path134" />
    <path
       d="m -73.2965,46.9351 v 0.2113"
       id="path136" />
  </g>
  <g
     fill="none"
     stroke="#191919"
     stroke-linecap="round"
     stroke-linejoin="round"
     stroke-width="0.4px"
     transform="matrix(1,0,0,-1,98.4879,92.137058)"
     id="g710">
    <path
       d="m -66.2379,45.4468 a 4,2.3094 2.02881e-5 0 1 0.9414,1.4883"
       id="path140" />
    <path
       d="m -71.8742,45.1692 a 4,2.3094 2.02881e-5 0 1 5.6363,0.2776"
       id="path142" />
    <path
       d="m -66.2379,45.6581 a 4,2.3094 2.02881e-5 0 1 0.9414,1.4883"
       id="path144" />
    <path
       d="m -65.2965,47.1464 a 4,2.3094 2.02881e-5 0 1 -0.0589,0.3948"
       id="path146" />
    <path
       d="m -66.2379,46.4477 a 4,2.3094 2.02881e-5 0 1 0.9414,1.4882"
       id="path148" />
    <path
       d="m -71.8742,46.17 a 4,2.3094 2.02881e-5 0 1 5.6363,0.2777"
       id="path150" />
    <path
       d="m -71.8742,45.3805 a 4,2.3094 2.02881e-5 0 1 5.6363,0.2776"
       id="path152" />
    <path
       d="m -66.2379,46.659 a 4,2.3094 2.02881e-5 0 1 0.9414,1.4882"
       id="path154" />
    <path
       d="m -65.2965,48.1472 a 4,2.3094 2.02881e-5 0 1 -0.0589,0.3948"
       id="path156" />
    <path
       d="m -66.2379,47.4485 a 4,2.3094 2.02881e-5 0 1 0.9414,1.4883"
       id="path158" />
    <path
       d="m -71.8742,47.1709 a 4,2.3094 2.02881e-5 0 1 5.6363,0.2776"
       id="path160" />
    <path
       d="m -71.8742,46.3813 a 4,2.3094 2.02881e-5 0 1 5.6363,0.2777"
       id="path162" />
    <path
       d="m -66.2379,47.6599 a 4,2.3094 2.02881e-5 0 1 0.9414,1.4882"
       id="path164" />
    <path
       d="m -65.2965,49.1481 a 4,2.3094 2.02881e-5 0 1 -0.0589,0.3948"
       id="path166" />
    <path
       d="m -66.2379,48.4494 a 4,2.3094 2.02881e-5 0 1 0.9414,1.4883"
       id="path168" />
    <path
       d="m -71.8742,48.1718 a 4,2.3094 2.02881e-5 0 1 5.6363,0.2776"
       id="path170" />
    <path
       d="m -71.8742,47.3822 a 4,2.3094 2.02881e-5 0 1 5.6363,0.2777"
       id="path172" />
    <path
       d="m -66.2379,48.6607 a 4,2.3094 2.02881e-5 0 1 0.9414,1.4883"
       id="path174" />
    <path
       d="m -65.2965,50.149 a 4,2.3094 2.02881e-5 0 1 -0.0589,0.3948"
       id="path176" />
    <path
       d="m -66.2379,49.4503 a 4,2.3094 2.02881e-5 0 1 0.9414,1.4882"
       id="path178" />
    <path
       d="m -71.8742,49.1726 a 4,2.3094 2.02881e-5 0 1 5.6363,0.2777"
       id="path180" />
    <path
       d="m -71.8742,48.3831 a 4,2.3094 2.02881e-5 0 1 5.6363,0.2776"
       id="path182" />
    <path
       d="m -66.2379,49.6616 a 4,2.3094 2.02881e-5 0 1 0.9414,1.4883"
       id="path184" />
    <path
       d="m -65.2965,51.1499 a 4,2.3094 2.02881e-5 0 1 -0.0589,0.3947"
       id="path186" />
    <path
       d="m -66.2379,50.4511 a 4,2.3094 2.02881e-5 0 1 0.9414,1.4883"
       id="path188" />
    <path
       d="m -71.8742,50.1735 a 4,2.3094 2.02881e-5 0 1 5.6363,0.2776"
       id="path190" />
    <path
       d="m -71.8742,49.3839 a 4,2.3094 2.02881e-5 0 1 5.6363,0.2777"
       id="path192" />
    <path
       d="m -66.2379,50.6625 a 4,2.3094 2.02881e-5 0 1 0.9414,1.4882"
       id="path194" />
    <path
       d="m -65.2965,52.1507 a 4,2.3094 2.02881e-5 0 1 -0.0589,0.3948"
       id="path196" />
    <path
       d="m -66.2379,51.452 a 4,2.3094 2.02881e-5 0 1 0.9414,1.4883"
       id="path198" />
    <path
       d="m -71.8742,51.1744 a 4,2.3094 2.02881e-5 0 1 5.6363,0.2776"
       id="path200" />
    <path
       d="m -71.8742,50.3848 a 4,2.3094 2.02881e-5 0 1 5.6363,0.2777"
       id="path202" />
    <path
       d="m -66.2379,51.6633 a 4,2.3094 2.02881e-5 0 1 0.9414,1.4883"
       id="path204" />
    <path
       d="m -65.2965,53.1516 a 4,2.3094 2.02881e-5 0 1 -0.0589,0.3948"
       id="path206" />
    <path
       d="m -66.2379,52.4529 a 4,2.3094 2.02881e-5 0 1 0.9414,1.4882"
       id="path208" />
    <path
       d="m -71.8742,52.1752 a 4,2.3094 2.02881e-5 0 1 5.6363,0.2777"
       id="path210" />
    <path
       d="m -71.8742,51.3857 a 4,2.3094 2.02881e-5 0 1 5.6363,0.2776"
       id="path212" />
    <path
       d="m -66.2379,52.6642 a 4,2.3094 2.02881e-5 0 1 0.9414,1.4883"
       id="path214" />
    <path
       d="m -65.2965,54.1525 a 4,2.3094 2.02881e-5 0 1 -0.0589,0.3947"
       id="path216" />
    <path
       d="m -66.2379,53.4537 a 4,2.3094 2.02881e-5 0 1 0.9414,1.4883"
       id="path218" />
    <path
       d="m -71.8742,53.1761 a 4,2.3094 2.02881e-5 0 1 5.6363,0.2776"
       id="path220" />
    <path
       d="m -71.8742,52.3865 a 4,2.3094 2.02881e-5 0 1 5.6363,0.2777"
       id="path222" />
    <path
       d="m -66.2379,53.6651 a 4,2.3094 2.02881e-5 0 1 0.9414,1.4882"
       id="path224" />
    <path
       d="m -65.2965,55.1533 a 4,2.3094 2.02881e-5 0 1 -0.0589,0.3948"
       id="path226" />
    <path
       d="m -66.2379,54.4546 a 4,2.3094 2.02881e-5 0 1 0.9414,1.4883"
       id="path228" />
    <path
       d="m -71.8742,54.177 a 4,2.3094 2.02881e-5 0 1 5.6363,0.2776"
       id="path230" />
    <path
       d="m -71.8742,53.3874 a 4,2.3094 2.02881e-5 0 1 5.6363,0.2777"
       id="path232" />
    <path
       d="m -66.2379,54.6659 a 4,2.3094 2.02881e-5 0 1 0.9414,1.4883"
       id="path234" />
    <path
       d="m -65.2965,56.1542 a 4,2.3094 2.02881e-5 0 1 -0.0589,0.3948"
       id="path236" />
    <path
       d="m -66.2379,55.4555 a 4,2.3094 2.02881e-5 0 1 0.9414,1.4882"
       id="path238" />
    <path
       d="m -71.8742,55.1778 a 4,2.3094 2.02881e-5 0 1 5.6363,0.2777"
       id="path240" />
    <path
       d="m -71.8742,54.3883 a 4,2.3094 2.02881e-5 0 1 5.6363,0.2776"
       id="path242" />
    <path
       d="m -66.2379,55.6668 a 4,2.3094 2.02881e-5 0 1 0.9414,1.4883"
       id="path244" />
    <path
       d="m -65.2965,57.1551 a 4,2.3094 2.02881e-5 0 1 -0.0589,0.3947"
       id="path246" />
    <path
       d="m -66.2379,56.4563 a 4,2.3094 2.02881e-5 0 1 0.9414,1.4883"
       id="path248" />
    <path
       d="m -71.8742,56.1787 a 4,2.3094 2.02881e-5 0 1 5.6363,0.2776"
       id="path250" />
    <path
       d="m -71.8742,55.3891 a 4,2.3094 2.02881e-5 0 1 5.6363,0.2777"
       id="path252" />
    <path
       d="m -66.2379,56.6677 a 4,2.3094 2.02881e-5 0 1 0.9414,1.4882"
       id="path254" />
    <path
       d="m -65.2965,58.1559 a 4,2.3094 2.02881e-5 0 1 -0.0589,0.3948"
       id="path256" />
    <path
       d="m -66.2379,57.4572 a 4,2.3094 2.02881e-5 0 1 0.9414,1.4883"
       id="path258" />
    <path
       d="m -71.8742,57.1796 a 4,2.3094 2.02881e-5 0 1 5.6363,0.2776"
       id="path260" />
    <path
       d="m -71.8742,56.39 a 4,2.3094 2.02881e-5 0 1 5.6363,0.2777"
       id="path262" />
    <path
       d="m -66.2379,57.6685 a 4,2.3094 2.02881e-5 0 1 0.9414,1.4883"
       id="path264" />
    <path
       d="m -65.2965,59.1568 a 4,2.3094 2.02881e-5 0 1 -0.0589,0.3948"
       id="path266" />
    <path
       d="m -66.2379,58.4581 a 4,2.3094 2.02881e-5 0 1 0.9414,1.4882"
       id="path268" />
    <path
       d="m -71.8742,58.1804 a 4,2.3094 2.02881e-5 0 1 5.6363,0.2777"
       id="path270" />
    <path
       d="m -71.8742,57.3909 a 4,2.3094 2.02881e-5 0 1 5.6363,0.2776"
       id="path272" />
    <path
       d="m -66.2379,58.6694 a 4,2.3094 2.02881e-5 0 1 0.9414,1.4883"
       id="path274" />
    <path
       d="m -65.2965,60.1577 a 4,2.3094 2.02881e-5 0 1 -0.0589,0.3947"
       id="path276" />
    <path
       d="m -66.2379,59.4589 a 4,2.3094 2.02881e-5 0 1 0.9414,1.4883"
       id="path278" />
    <path
       d="m -71.8742,59.1813 a 4,2.3094 2.02881e-5 0 1 5.6363,0.2776"
       id="path280" />
    <path
       d="m -71.8742,58.3917 a 4,2.3094 2.02881e-5 0 1 5.6363,0.2777"
       id="path282" />
    <path
       d="m -66.2379,59.6703 a 4,2.3094 2.02881e-5 0 1 0.9414,1.4882"
       id="path284" />
    <path
       d="m -65.2965,61.1585 a 4,2.3094 2.02881e-5 0 1 -0.0589,0.3948"
       id="path286" />
    <path
       d="m -66.2379,60.4598 a 4,2.3094 2.02881e-5 0 1 0.9414,1.4883"
       id="path288" />
    <path
       d="m -71.8742,60.1822 a 4,2.3094 2.02881e-5 0 1 5.6363,0.2776"
       id="path290" />
    <path
       d="m -71.8742,59.3926 a 4,2.3094 2.02881e-5 0 1 5.6363,0.2777"
       id="path292" />
    <path
       d="m -66.2379,60.6711 a 4,2.3094 2.02881e-5 0 1 0.9414,1.4883"
       id="path294" />
    <path
       d="m -65.2965,62.1594 a 4,2.3094 2.02881e-5 0 1 -0.0589,0.3948"
       id="path296" />
    <path
       d="m -66.2379,61.4607 a 4,2.3094 2.02881e-5 0 1 0.9414,1.4882"
       id="path298" />
    <path
       d="m -71.8742,61.183 a 4,2.3094 2.02881e-5 0 1 5.6363,0.2777"
       id="path300" />
    <path
       d="m -71.8742,60.3935 a 4,2.3094 2.02881e-5 0 1 5.6363,0.2776"
       id="path302" />
    <path
       d="m -66.2379,61.672 a 4,2.3094 2.02881e-5 0 1 0.9414,1.4883"
       id="path304" />
    <path
       d="m -65.2965,63.1603 a 4,2.3094 2.02881e-5 0 1 -0.0589,0.3947"
       id="path306" />
    <path
       d="m -66.2379,62.4615 a 4,2.3094 2.02881e-5 0 1 0.9414,1.4883"
       id="path308" />
    <path
       d="m -71.8742,62.1839 a 4,2.3094 2.02881e-5 0 1 5.6363,0.2776"
       id="path310" />
    <path
       d="m -71.8742,61.3943 a 4,2.3094 2.02881e-5 0 1 5.6363,0.2777"
       id="path312" />
    <path
       d="m -66.2379,62.6729 a 4,2.3094 2.02881e-5 0 1 0.9414,1.4882"
       id="path314" />
    <path
       d="m -65.2965,64.1611 a 4,2.3094 2.02881e-5 0 1 -0.0589,0.3948"
       id="path316" />
    <path
       d="m -66.2379,63.4624 a 4,2.3094 2.02881e-5 0 1 0.9414,1.4883"
       id="path318" />
    <path
       d="m -71.8742,63.1848 a 4,2.3094 2.02881e-5 0 1 5.6363,0.2776"
       id="path320" />
    <path
       d="m -71.8742,62.3952 a 4,2.3094 2.02881e-5 0 1 5.6363,0.2777"
       id="path322" />
    <path
       d="m -66.2379,63.6737 a 4,2.3094 2.02881e-5 0 1 0.9414,1.4883"
       id="path324" />
    <path
       d="m -65.2965,65.162 a 4,2.3094 2.02881e-5 0 1 -0.0589,0.3948"
       id="path326" />
    <path
       d="m -66.2379,64.4633 a 4,2.3094 2.02881e-5 0 1 0.9414,1.4882"
       id="path328" />
    <path
       d="m -71.8742,64.1856 a 4,2.3094 2.02881e-5 0 1 5.6363,0.2777"
       id="path330" />
    <path
       d="m -71.8742,63.3961 a 4,2.3094 2.02881e-5 0 1 5.6363,0.2776"
       id="path332" />
    <path
       d="m -66.2379,64.6746 a 4,2.3094 2.02881e-5 0 1 0.9414,1.4883"
       id="path334" />
    <path
       d="m -65.2965,66.1629 a 4,2.3094 2.02881e-5 0 1 -0.0589,0.3947"
       id="path336" />
    <path
       d="m -66.2379,65.4641 a 4,2.3094 2.02881e-5 0 1 0.9414,1.4883"
       id="path338" />
    <path
       d="m -71.8742,65.1865 a 4,2.3094 2.02881e-5 0 1 5.6363,0.2776"
       id="path340" />
    <path
       d="m -71.8742,64.3969 a 4,2.3094 2.02881e-5 0 1 5.6363,0.2777"
       id="path342" />
    <path
       d="m -66.2379,65.6755 a 4,2.3094 2.02881e-5 0 1 0.9414,1.4882"
       id="path344" />
    <path
       d="m -65.2965,67.1637 a 4,2.3094 2.02881e-5 0 1 -0.0589,0.3948"
       id="path346" />
    <path
       d="m -66.2379,66.465 a 4,2.3094 2.02881e-5 0 1 0.9414,1.4883"
       id="path348" />
    <path
       d="m -71.8742,66.1874 a 4,2.3094 2.02881e-5 0 1 5.6363,0.2776"
       id="path350" />
    <path
       d="m -71.8742,65.3978 a 4,2.3094 2.02881e-5 0 1 5.6363,0.2777"
       id="path352" />
    <path
       d="m -66.2379,66.6763 a 4,2.3094 2.02881e-5 0 1 0.9414,1.4883"
       id="path354" />
    <path
       d="m -65.2965,68.1646 a 4,2.3094 2.02881e-5 0 1 -0.0589,0.3948"
       id="path356" />
    <path
       d="m -66.2379,67.4659 a 4,2.3094 2.02881e-5 0 1 0.9414,1.4882"
       id="path358" />
    <path
       d="m -71.8742,67.1882 a 4,2.3094 2.02881e-5 0 1 5.6363,0.2777"
       id="path360" />
    <path
       d="m -71.8742,66.3987 a 4,2.3094 2.02881e-5 0 1 5.6363,0.2776"
       id="path362" />
    <path
       d="m -66.2379,67.6772 a 4,2.3094 2.02881e-5 0 1 0.9414,1.4883"
       id="path364" />
    <path
       d="m -65.2965,69.1655 a 4,2.3094 2.02881e-5 0 1 -0.0589,0.3947"
       id="path366" />
    <path
       d="m -66.2379,68.4667 a 4,2.3094 2.02881e-5 0 1 0.9414,1.4883"
       id="path368" />
    <path
       d="m -71.8742,68.1891 a 4,2.3094 2.02881e-5 0 1 5.6363,0.2776"
       id="path370" />
    <path
       d="m -71.8742,67.3995 a 4,2.3094 2.02881e-5 0 1 5.6363,0.2777"
       id="path372" />
    <path
       d="m -66.2379,68.6781 a 4,2.3094 2.02881e-5 0 1 0.9414,1.4882"
       id="path374" />
    <path
       d="m -65.2965,70.1663 a 4,2.3094 2.02881e-5 0 1 -0.0589,0.3948"
       id="path376" />
    <path
       d="m -66.2379,69.4676 a 4,2.3094 2.02881e-5 0 1 0.9414,1.4883"
       id="path378" />
    <path
       d="m -71.8742,69.19 a 4,2.3094 2.02881e-5 0 1 5.6363,0.2776"
       id="path380" />
    <path
       d="m -71.8742,68.4004 a 4,2.3094 2.02881e-5 0 1 5.6363,0.2777"
       id="path382" />
    <path
       d="m -66.2379,69.6789 a 4,2.3094 2.02881e-5 0 1 0.9414,1.4883"
       id="path384" />
    <path
       d="m -65.2965,71.1672 a 4,2.3094 2.02881e-5 0 1 -0.0589,0.3948"
       id="path386" />
    <path
       d="m -66.2379,70.4685 a 4,2.3094 2.02881e-5 0 1 0.9414,1.4882"
       id="path388" />
    <path
       d="m -71.8742,70.1908 a 4,2.3094 2.02881e-5 0 1 5.6363,0.2777"
       id="path390" />
    <path
       d="m -71.8742,69.4013 a 4,2.3094 2.02881e-5 0 1 5.6363,0.2776"
       id="path392" />
    <path
       d="m -66.2379,70.6798 a 4,2.3094 2.02881e-5 0 1 0.9414,1.4883"
       id="path394" />
    <path
       d="m -65.2965,72.1681 a 4,2.3094 2.02881e-5 0 1 -0.0589,0.3947"
       id="path396" />
    <path
       d="m -66.2379,71.4693 a 4,2.3094 2.02881e-5 0 1 0.9414,1.4883"
       id="path398" />
    <path
       d="m -71.8742,71.1917 a 4,2.3094 2.02881e-5 0 1 5.6363,0.2776"
       id="path400" />
    <path
       d="m -71.8742,70.4021 a 4,2.3094 2.02881e-5 0 1 5.6363,0.2777"
       id="path402" />
    <path
       d="m -66.2379,71.6807 a 4,2.3094 2.02881e-5 0 1 0.9414,1.4882"
       id="path404" />
    <path
       d="m -65.2965,73.1689 a 4,2.3094 2.02881e-5 0 1 -0.0589,0.3948"
       id="path406" />
    <path
       d="m -66.2379,72.4702 a 4,2.3094 2.02881e-5 0 1 0.9414,1.4883"
       id="path408" />
    <path
       d="m -71.8742,72.1926 a 4,2.3094 2.02881e-5 0 1 5.6363,0.2776"
       id="path410" />
    <path
       d="m -71.8742,71.403 a 4,2.3094 2.02881e-5 0 1 5.6363,0.2777"
       id="path412" />
    <path
       d="m -66.2379,72.6815 a 4,2.3094 2.02881e-5 0 1 0.9414,1.4883"
       id="path414" />
    <path
       d="m -65.2965,74.1698 a 4,2.3094 2.02881e-5 0 1 -0.0589,0.3948"
       id="path416" />
    <path
       d="m -66.2379,73.4711 a 4,2.3094 2.02881e-5 0 1 0.9414,1.4882"
       id="path418" />
    <path
       d="m -71.8742,73.1934 a 4,2.3094 2.02881e-5 0 1 5.6363,0.2777"
       id="path420" />
    <path
       d="m -71.8742,72.4039 a 4,2.3094 2.02881e-5 0 1 5.6363,0.2776"
       id="path422" />
    <path
       d="m -66.2379,73.6824 a 4,2.3094 2.02881e-5 0 1 0.9414,1.4883"
       id="path424" />
    <path
       d="m -65.2965,75.1707 a 4,2.3094 2.02881e-5 0 1 -0.0589,0.3947"
       id="path426" />
    <path
       d="m -66.2379,74.4719 a 4,2.3094 2.02881e-5 0 1 0.9414,1.4883"
       id="path428" />
    <path
       d="m -71.8743,74.1943 a 4,2.3094 2.02881e-5 0 1 5.6364,0.2776"
       id="path430" />
    <path
       d="m -71.8742,73.4048 a 4,2.3094 2.02881e-5 0 1 5.6363,0.2776"
       id="path432" />
    <path
       d="m -66.2379,74.6833 a 4,2.3094 2.02881e-5 0 1 0.9414,1.4882"
       id="path434" />
    <path
       d="m -65.2965,76.1715 a 4,2.3094 2.02881e-5 0 1 -0.0589,0.3948"
       id="path436" />
    <path
       d="m -66.2379,75.4728 a 4,2.3094 2.02881e-5 0 1 0.9414,1.4883"
       id="path438" />
    <path
       d="m -71.8743,75.1952 a 4,2.3094 2.02881e-5 0 1 5.6364,0.2776"
       id="path440" />
    <path
       d="m -71.8743,74.4056 a 4,2.3094 2.02881e-5 0 1 5.6364,0.2777"
       id="path442" />
    <path
       d="m -66.2379,75.6841 a 4,2.3094 2.02881e-5 0 1 0.9414,1.4883"
       id="path444" />
    <path
       d="m -65.2965,77.1724 a 4,2.3094 2.02881e-5 0 1 -0.0589,0.3948"
       id="path446" />
    <path
       d="m -66.2379,76.4737 a 4,2.3094 2.02881e-5 0 1 0.9414,1.4882"
       id="path448" />
    <path
       d="m -71.8743,76.196 a 4,2.3094 2.02881e-5 0 1 5.6364,0.2777"
       id="path450" />
    <path
       d="m -71.8743,75.4065 a 4,2.3094 2.02881e-5 0 1 5.6364,0.2776"
       id="path452" />
    <path
       d="m -63.2557,83.8134 a 7.9,4.56107 2.02881e-5 0 1 1.8592,2.9393"
       id="path454" />
    <path
       d="m -63.2557,84.4258 a 7.9,4.56107 2.02881e-5 0 1 1.8592,2.9393"
       id="path456" />
    <path
       d="m -61.3965,87.3651 a 7.9,4.56107 2.02881e-5 0 1 -13.9408,2.9393"
       id="path458" />
    <path
       d="m -69.7443,86.0908 -1.5619,-1.07"
       id="path460" />
    <path
       d="m -67.3339,85.5947 0.1368,2.2411"
       id="path462" />
    <path
       d="m -65.6351,88.9058 -1.562,-1.07"
       id="path464" />
    <path
       d="m -71.2728,85.0437 -0.1231,1.8507"
       id="path466" />
    <path
       d="m -72.9579,85.8245 1.562,1.0699"
       id="path468" />
    <path
       d="m -68.8487,88.6394 1.5619,1.07"
       id="path470" />
    <path
       d="m -68.8487,88.6394 -0.1569,-2.5637"
       id="path472" />
    <path
       d="M -67.2868,89.7094 -68.4012,86.114"
       id="path474" />
    <path
       d="m -69.921,85.9697 -0.1907,2.6075"
       id="path476" />
    <path
       d="m -71.965,89.479 1.8533,-0.9018"
       id="path478" />
    <path
       d="m -71.965,89.479 1.4818,-3.8944"
       id="path480" />
    <path
       d="m -71.5037,87.6236 -1.8533,0.9018"
       id="path482" />
    <path
       d="m -71.5037,87.6236 0.045,-0.6222"
       id="path484" />
    <path
       d="m -66.628,85.2512 -1.8533,0.9018"
       id="path486" />
    <path
       d="m -67.0893,87.1066 1.8533,-0.9018"
       id="path488" />
    <path
       d="m -67.0893,87.1066 -0.1229,-1.5711"
       id="path490" />
    <path
       d="m -75.3373,90.3044 a 7.9,4.56107 2.02881e-5 0 1 -1.8592,-2.9393"
       id="path492" />
    <path
       d="m -77.1965,87.3651 a 7.9,4.56107 2.02881e-5 0 1 13.9408,-2.9393"
       id="path494" />
    <path
       d="m -69.7443,86.0908 a 2.25216,1.30029 2.02881e-5 0 1 1.263,0.0622"
       id="path496" />
    <path
       d="m -71.3062,85.0208 -1.6517,0.8037"
       id="path498" />
    <path
       d="m -71.5037,87.6236 a 2.25216,1.30029 2.02881e-5 0 1 -0.0422,-0.3228"
       id="path500" />
    <path
       d="m -71.5459,87.3008 a 2.25216,1.30029 2.02881e-5 0 1 0.15,-0.4064"
       id="path502" />
    <path
       d="m -73.357,88.5254 1.392,0.9536"
       id="path504" />
    <path
       d="m -68.8487,88.6394 a 2.25216,1.30029 2.02881e-5 0 1 -1.263,-0.0622"
       id="path506" />
    <path
       d="m -67.2868,89.7094 1.6517,-0.8036"
       id="path508" />
    <path
       d="m -67.0893,87.1066 a 2.25216,1.30029 2.02881e-5 0 1 0.0422,0.1942"
       id="path510" />
    <path
       d="m -67.0471,87.3008 a 2.25216,1.30029 2.02881e-5 0 1 -0.15,0.535"
       id="path512" />
    <path
       d="m -65.236,86.2048 -1.392,-0.9536"
       id="path514" />
    <path
       d="m -77.1965,86.7527 a 7.9,4.56107 2.02881e-5 0 1 2.3139,-3.2251"
       id="path516" />
    <path
       d="m -74.8826,83.5276 a 7.9,4.56107 2.02881e-5 0 1 11.1722,0"
       id="path518" />
    <path
       d="m -63.7104,83.5276 a 7.9,4.56107 2.02881e-5 0 1 0.4547,0.2858"
       id="path520" />
    <path
       d="m -73.2965,77.9619 a 4,2.3094 2.02881e-5 0 1 1.4222,-1.7659"
       id="path522" />
    <path
       d="m -73.2376,77.5672 a 4,2.3094 2.02881e-5 0 1 -0.0589,-0.3948"
       id="path524" />
    <path
       d="m -73.2965,77.1724 a 4,2.3094 2.02881e-5 0 1 1.4222,-1.7659"
       id="path526" />
    <path
       d="m -73.2965,76.9611 a 4,2.3094 2.02881e-5 0 1 1.4222,-1.7659"
       id="path528" />
    <path
       d="m -73.2376,76.5663 a 4,2.3094 2.02881e-5 0 1 -0.0589,-0.3948"
       id="path530" />
    <path
       d="m -73.2965,76.1715 a 4,2.3094 2.02881e-5 0 1 1.4222,-1.7659"
       id="path532" />
    <path
       d="m -73.2965,75.9602 a 4,2.3094 2.02881e-5 0 1 1.4222,-1.7659"
       id="path534" />
    <path
       d="m -73.2376,75.5654 a 4,2.3094 2.02881e-5 0 1 -0.0589,-0.3948"
       id="path536" />
    <path
       d="m -73.2965,75.1706 a 4,2.3094 2.02881e-5 0 1 1.4223,-1.7658"
       id="path538" />
    <path
       d="m -73.2965,74.9593 a 4,2.3094 2.02881e-5 0 1 1.4223,-1.7659"
       id="path540" />
    <path
       d="m -73.2376,74.5646 a 4,2.3094 2.02881e-5 0 1 -0.0589,-0.3948"
       id="path542" />
    <path
       d="m -73.2965,74.1698 a 4,2.3094 2.02881e-5 0 1 1.4223,-1.7659"
       id="path544" />
    <path
       d="m -73.2965,73.9585 a 4,2.3094 2.02881e-5 0 1 1.4223,-1.7659"
       id="path546" />
    <path
       d="m -73.2376,73.5637 a 4,2.3094 2.02881e-5 0 1 -0.0589,-0.3948"
       id="path548" />
    <path
       d="m -73.2965,73.1689 a 4,2.3094 2.02881e-5 0 1 1.4223,-1.7659"
       id="path550" />
    <path
       d="m -73.2965,72.9576 a 4,2.3094 2.02881e-5 0 1 1.4223,-1.7659"
       id="path552" />
    <path
       d="M -73.2376,72.5628 A 4,2.3094 2.02881e-5 0 1 -73.2965,72.168"
       id="path554" />
    <path
       d="m -73.2965,72.168 a 4,2.3094 2.02881e-5 0 1 1.4223,-1.7659"
       id="path556" />
    <path
       d="m -73.2965,71.9567 a 4,2.3094 2.02881e-5 0 1 1.4223,-1.7659"
       id="path558" />
    <path
       d="m -73.2376,71.562 a 4,2.3094 2.02881e-5 0 1 -0.0589,-0.3948"
       id="path560" />
    <path
       d="m -73.2965,71.1672 a 4,2.3094 2.02881e-5 0 1 1.4223,-1.7659"
       id="path562" />
    <path
       d="M -73.2965,70.9559 A 4,2.3094 2.02881e-5 0 1 -71.8742,69.19"
       id="path564" />
    <path
       d="m -73.2376,70.5611 a 4,2.3094 2.02881e-5 0 1 -0.0589,-0.3948"
       id="path566" />
    <path
       d="m -73.2965,70.1663 a 4,2.3094 2.02881e-5 0 1 1.4223,-1.7659"
       id="path568" />
    <path
       d="m -73.2965,69.955 a 4,2.3094 2.02881e-5 0 1 1.4223,-1.7659"
       id="path570" />
    <path
       d="m -73.2376,69.5602 a 4,2.3094 2.02881e-5 0 1 -0.0589,-0.3948"
       id="path572" />
    <path
       d="m -73.2965,69.1654 a 4,2.3094 2.02881e-5 0 1 1.4223,-1.7659"
       id="path574" />
    <path
       d="m -73.2965,68.9541 a 4,2.3094 2.02881e-5 0 1 1.4223,-1.7659"
       id="path576" />
    <path
       d="m -73.2376,68.5594 a 4,2.3094 2.02881e-5 0 1 -0.0589,-0.3948"
       id="path578" />
    <path
       d="m -73.2965,68.1646 a 4,2.3094 2.02881e-5 0 1 1.4223,-1.7659"
       id="path580" />
    <path
       d="m -73.2965,67.9533 a 4,2.3094 2.02881e-5 0 1 1.4223,-1.7659"
       id="path582" />
    <path
       d="m -73.2376,67.5585 a 4,2.3094 2.02881e-5 0 1 -0.0589,-0.3948"
       id="path584" />
    <path
       d="m -73.2965,67.1637 a 4,2.3094 2.02881e-5 0 1 1.4223,-1.7659"
       id="path586" />
    <path
       d="m -73.2965,66.9524 a 4,2.3094 2.02881e-5 0 1 1.4223,-1.7659"
       id="path588" />
    <path
       d="m -73.2376,66.5576 a 4,2.3094 2.02881e-5 0 1 -0.0589,-0.3948"
       id="path590" />
    <path
       d="m -73.2965,66.1628 a 4,2.3094 2.02881e-5 0 1 1.4223,-1.7659"
       id="path592" />
    <path
       d="m -73.2965,65.9515 a 4,2.3094 2.02881e-5 0 1 1.4223,-1.7659"
       id="path594" />
    <path
       d="M -73.2376,65.5568 A 4,2.3094 2.02881e-5 0 1 -73.2965,65.162"
       id="path596" />
    <path
       d="m -73.2965,65.162 a 4,2.3094 2.02881e-5 0 1 1.4223,-1.7659"
       id="path598" />
    <path
       d="m -73.2965,64.9507 a 4,2.3094 2.02881e-5 0 1 1.4223,-1.7659"
       id="path600" />
    <path
       d="m -73.2376,64.5559 a 4,2.3094 2.02881e-5 0 1 -0.0589,-0.3948"
       id="path602" />
    <path
       d="m -73.2965,64.1611 a 4,2.3094 2.02881e-5 0 1 1.4223,-1.7659"
       id="path604" />
    <path
       d="m -73.2965,63.9498 a 4,2.3094 2.02881e-5 0 1 1.4223,-1.7659"
       id="path606" />
    <path
       d="m -73.2376,63.555 a 4,2.3094 2.02881e-5 0 1 -0.0589,-0.3948"
       id="path608" />
    <path
       d="m -73.2965,63.1602 a 4,2.3094 2.02881e-5 0 1 1.4223,-1.7659"
       id="path610" />
    <path
       d="m -73.2965,62.9489 a 4,2.3094 2.02881e-5 0 1 1.4223,-1.7659"
       id="path612" />
    <path
       d="m -73.2376,62.5542 a 4,2.3094 2.02881e-5 0 1 -0.0589,-0.3948"
       id="path614" />
    <path
       d="m -73.2965,62.1594 a 4,2.3094 2.02881e-5 0 1 1.4223,-1.7659"
       id="path616" />
    <path
       d="m -73.2965,61.9481 a 4,2.3094 2.02881e-5 0 1 1.4223,-1.7659"
       id="path618" />
    <path
       d="m -73.2376,61.5533 a 4,2.3094 2.02881e-5 0 1 -0.0589,-0.3948"
       id="path620" />
    <path
       d="m -73.2965,61.1585 a 4,2.3094 2.02881e-5 0 1 1.4223,-1.7659"
       id="path622" />
    <path
       d="m -73.2965,60.9472 a 4,2.3094 2.02881e-5 0 1 1.4223,-1.7659"
       id="path624" />
    <path
       d="m -73.2376,60.5524 a 4,2.3094 2.02881e-5 0 1 -0.0589,-0.3948"
       id="path626" />
    <path
       d="m -73.2965,60.1576 a 4,2.3094 2.02881e-5 0 1 1.4223,-1.7659"
       id="path628" />
    <path
       d="m -73.2965,59.9463 a 4,2.3094 2.02881e-5 0 1 1.4223,-1.7659"
       id="path630" />
    <path
       d="m -73.2376,59.5516 a 4,2.3094 2.02881e-5 0 1 -0.0589,-0.3948"
       id="path632" />
    <path
       d="m -73.2965,59.1568 a 4,2.3094 2.02881e-5 0 1 1.4223,-1.7659"
       id="path634" />
    <path
       d="m -73.2965,58.9455 a 4,2.3094 2.02881e-5 0 1 1.4223,-1.7659"
       id="path636" />
    <path
       d="m -73.2376,58.5507 a 4,2.3094 2.02881e-5 0 1 -0.0589,-0.3948"
       id="path638" />
    <path
       d="M -73.2965,58.1559 A 4,2.3094 2.02881e-5 0 1 -71.8742,56.39"
       id="path640" />
    <path
       d="m -73.2965,57.9446 a 4,2.3094 2.02881e-5 0 1 1.4223,-1.7659"
       id="path642" />
    <path
       d="M -73.2376,57.5498 A 4,2.3094 2.02881e-5 0 1 -73.2965,57.155"
       id="path644" />
    <path
       d="m -73.2965,57.155 a 4,2.3094 2.02881e-5 0 1 1.4223,-1.7659"
       id="path646" />
    <path
       d="m -73.2965,56.9437 a 4,2.3094 2.02881e-5 0 1 1.4223,-1.7659"
       id="path648" />
    <path
       d="m -73.2376,56.549 a 4,2.3094 2.02881e-5 0 1 -0.0589,-0.3948"
       id="path650" />
    <path
       d="m -73.2965,56.1542 a 4,2.3094 2.02881e-5 0 1 1.4223,-1.7659"
       id="path652" />
    <path
       d="m -73.2965,55.9429 a 4,2.3094 2.02881e-5 0 1 1.4223,-1.7659"
       id="path654" />
    <path
       d="m -73.2376,55.5481 a 4,2.3094 2.02881e-5 0 1 -0.0589,-0.3948"
       id="path656" />
    <path
       d="m -73.2965,55.1533 a 4,2.3094 2.02881e-5 0 1 1.4223,-1.7659"
       id="path658" />
    <path
       d="m -73.2965,54.942 a 4,2.3094 2.02881e-5 0 1 1.4223,-1.7659"
       id="path660" />
    <path
       d="m -73.2376,54.5472 a 4,2.3094 2.02881e-5 0 1 -0.0589,-0.3948"
       id="path662" />
    <path
       d="m -73.2965,54.1524 a 4,2.3094 2.02881e-5 0 1 1.4223,-1.7659"
       id="path664" />
    <path
       d="m -73.2965,53.9411 a 4,2.3094 2.02881e-5 0 1 1.4223,-1.7659"
       id="path666" />
    <path
       d="m -73.2376,53.5464 a 4,2.3094 2.02881e-5 0 1 -0.0589,-0.3948"
       id="path668" />
    <path
       d="m -73.2965,53.1516 a 4,2.3094 2.02881e-5 0 1 1.4223,-1.7659"
       id="path670" />
    <path
       d="m -73.2965,52.9403 a 4,2.3094 2.02881e-5 0 1 1.4223,-1.7659"
       id="path672" />
    <path
       d="m -73.2376,52.5455 a 4,2.3094 2.02881e-5 0 1 -0.0589,-0.3948"
       id="path674" />
    <path
       d="m -73.2965,52.1507 a 4,2.3094 2.02881e-5 0 1 1.4223,-1.7659"
       id="path676" />
    <path
       d="m -73.2965,51.9394 a 4,2.3094 2.02881e-5 0 1 1.4223,-1.7659"
       id="path678" />
    <path
       d="m -73.2376,51.5446 a 4,2.3094 2.02881e-5 0 1 -0.0589,-0.3948"
       id="path680" />
    <path
       d="m -73.2965,51.1498 a 4,2.3094 2.02881e-5 0 1 1.4223,-1.7659"
       id="path682" />
    <path
       d="m -73.2965,50.9385 a 4,2.3094 2.02881e-5 0 1 1.4223,-1.7659"
       id="path684" />
    <path
       d="M -73.2376,50.5438 A 4,2.3094 2.02881e-5 0 1 -73.2965,50.149"
       id="path686" />
    <path
       d="m -73.2965,50.149 a 4,2.3094 2.02881e-5 0 1 1.4223,-1.7659"
       id="path688" />
    <path
       d="m -73.2965,49.9377 a 4,2.3094 2.02881e-5 0 1 1.4223,-1.7659"
       id="path690" />
    <path
       d="m -73.2376,49.5429 a 4,2.3094 2.02881e-5 0 1 -0.0589,-0.3948"
       id="path692" />
    <path
       d="m -73.2965,49.1481 a 4,2.3094 2.02881e-5 0 1 1.4223,-1.7659"
       id="path694" />
    <path
       d="m -73.2965,48.9368 a 4,2.3094 2.02881e-5 0 1 1.4223,-1.7659"
       id="path696" />
    <path
       d="m -73.2376,48.542 a 4,2.3094 2.02881e-5 0 1 -0.0589,-0.3948"
       id="path698" />
    <path
       d="m -73.2965,48.1472 a 4,2.3094 2.02881e-5 0 1 1.4223,-1.7659"
       id="path700" />
    <path
       d="M -73.2965,47.9359 A 4,2.3094 2.02881e-5 0 1 -71.8742,46.17"
       id="path702" />
    <path
       d="m -73.2376,47.5412 a 4,2.3094 2.02881e-5 0 1 -0.0589,-0.3948"
       id="path704" />
    <path
       d="m -73.2965,47.1464 a 4,2.3094 2.02881e-5 0 1 1.4223,-1.7659"
       id="path706" />
    <path
       d="m -73.2965,46.9351 a 4,2.3094 2.02881e-5 0 1 1.4223,-1.7659"
       id="path708" />
  </g>
  <g
     fill="none"
     stroke="#bcbec0"
     stroke-linecap="butt"
     stroke-linejoin="miter"
     stroke-width="0.4px"
     transform="matrix(1,0,0,-1,98.4879,92.137058)"
     id="g716">
    <path
       d="M -95.8026,-30.6186 V -41.2331"
       id="path712" />
    <path
       d="M 95.8026,51.8476 V 42.668"
       id="path714" />
  </g>
  <g
     fill="none"
     stroke="#bcbec0"
     stroke-linecap="round"
     stroke-linejoin="round"
     stroke-width="0.4px"
     transform="matrix(1,0,0,-1,98.4879,92.137058)"
     id="g896">
    <path
       d="m -31.537,-25.883 a 3.4,1.96299 -180 0 0 -5.8041,1.3881"
       id="path718" />
    <path
       d="m -37.3411,-24.4949 a 3.4,1.96299 -180 0 0 0.9958,1.388"
       id="path720" />
    <path
       d="m -66.8923,-5.47054 a 3.4,1.96299 -180 0 0 -5.8042,1.38804"
       id="path722" />
    <path
       d="m -72.6965,-4.0825 a 3.4,1.96299 -180 0 0 0.9959,1.38804"
       id="path724" />
    <path
       d="m 36.3453,54.1337 a 3.4,1.96299 -180 0 0 -5.8042,1.3881"
       id="path726" />
    <path
       d="m 30.5411,55.5218 a 3.4,1.96299 -180 0 0 0.9959,1.388"
       id="path728" />
    <path
       d="m 71.7006,33.7213 a 3.4,1.96299 -180 0 0 -5.8041,1.3881"
       id="path730" />
    <path
       d="m 65.8965,35.1094 a 3.4,1.96299 -180 0 0 0.9958,1.388"
       id="path732" />
    <path
       d="M 98.2878,26.5362 -36.0625,-51.031"
       id="path734" />
    <path
       d="m -36.0625,-51.031 v -5.7155"
       id="path736" />
    <path
       d="M -36.0625,-56.7465 98.2878,20.8207"
       id="path738" />
    <path
       d="m 98.2878,20.8207 v 5.7155"
       id="path740" />
    <path
       d="m -98.2878,-15.1052 v -5.7155"
       id="path742" />
    <path
       d="m -94.0452,-12.6557 -4.2426,-2.4495"
       id="path744" />
    <path
       d="M 98.2878,41.2331 36.0624,77.1589"
       id="path746" />
    <path
       d="m 98.2878,31.4351 v 9.798"
       id="path748" />
    <path
       d="m 94.0452,28.9857 4.2426,-2.4495"
       id="path750" />
    <path
       d="M 36.0624,77.1589 31.8198,74.7094"
       id="path752" />
    <path
       d="M 94.0452,38.7836 31.8198,74.7094"
       id="path754" />
    <path
       d="M 98.2878,41.2331 94.0452,38.7836"
       id="path756" />
    <path
       d="M 31.8198,74.7094 V 69.8105"
       id="path758" />
    <path
       d="M 94.0452,33.8846 31.8198,69.8105"
       id="path760" />
    <path
       d="m 94.0452,38.7836 v -4.899"
       id="path762" />
    <path
       d="m -36.3453,-23.1069 a 3.4,1.96299 -180 0 0 5.8042,-1.388"
       id="path764" />
    <path
       d="M -30.5411,-24.4949 A 3.4,1.96299 -180 0 0 -31.537,-25.883"
       id="path766" />
    <path
       d="m -71.7006,-2.69446 a 3.4,1.96299 -180 0 0 5.8041,-1.38804"
       id="path768" />
    <path
       d="m -65.8965,-4.0825 a 3.4,1.96299 -180 0 0 -0.9958,-1.38804"
       id="path770" />
    <path
       d="m 31.537,56.9098 a 3.4,1.96299 -180 0 0 5.8041,-1.388"
       id="path772" />
    <path
       d="M 37.3411,55.5218 A 3.4,1.96299 -180 0 0 36.3453,54.1337"
       id="path774" />
    <path
       d="m 66.8923,36.4974 a 3.4,1.96299 -180 0 0 5.8042,-1.388"
       id="path776" />
    <path
       d="M 72.6965,35.1094 A 3.4,1.96299 -180 0 0 71.7006,33.7213"
       id="path778" />
    <path
       d="M 31.8198,69.8105 -29.996,34.1211"
       id="path780" />
    <path
       d="m -79.9031,5.30721 -9.8995,-5.71548"
       id="path782" />
    <path
       d="M 94.0452,33.8846 -31.8198,-38.7836"
       id="path784" />
    <path
       d="M -31.8198,-33.8846 -94.0452,2.04122"
       id="path786" />
    <path
       d="m -31.8198,-38.7836 v 4.899"
       id="path788" />
    <path
       d="m -94.0452,2.04122 -4.2427,-2.449491"
       id="path790" />
    <path
       d="M -36.0625,-36.3341 -98.2879,-0.408271"
       id="path792" />
    <path
       d="m -31.8198,-33.8846 -4.2427,-2.4495"
       id="path794" />
    <path
       d="m -36.0625,-56.7465 -13.435,7.7567"
       id="path796" />
    <path
       d="m -41.0122,-48.1733 4.9497,-2.8577"
       id="path798" />
    <path
       d="m -41.0122,-43.2743 v -4.899"
       id="path800" />
    <path
       d="m -36.0625,-46.1321 -4.9497,2.8578"
       id="path802" />
    <path
       d="m -36.0625,-36.3341 v -9.798"
       id="path804" />
    <path
       d="m -98.2879,-0.408271 10e-5,-9.797929"
       id="path806" />
    <path
       d="m -93.3381,-13.064 -4.9497,2.8578"
       id="path808" />
    <path
       d="m -93.3381,-17.9629 v 4.8989"
       id="path810" />
    <path
       d="m -98.2878,-15.1052 4.9497,-2.8577"
       id="path812" />
    <path
       d="m -89.8026,-25.7197 -8.4852,4.899"
       id="path814" />
    <path
       d="m -57.9828,-48.9898 a 6,3.4641 -180 0 0 8.4853,0"
       id="path816" />
    <path
       d="m -67.1751,-54.297 9.1923,5.3072"
       id="path818" />
    <path
       d="m -75.6604,-54.297 a 6,3.4641 2.02881e-5 0 1 8.4853,0"
       id="path820" />
    <path
       d="m -80.2566,-51.6434 4.5962,-2.6536"
       id="path822" />
    <path
       d="m -80.6102,-41.2331 a 6.5,3.75278 -180 0 0 0.3536,0.1895"
       id="path824" />
    <path
       d="m -89.449,-46.3362 8.8388,5.1031"
       id="path826" />
    <path
       d="m -94.0452,-43.6826 4.5962,-2.6536"
       id="path828" />
    <path
       d="m -95.8026,-41.2331 a 6,3.4641 2.02881e-5 0 1 1.7574,-2.4495"
       id="path830" />
    <path
       d="M 98.2878,31.4351 -36.0625,-46.1321"
       id="path832" />
    <path
       d="m -36.7696,-45.7238 -4.2426,-2.4495"
       id="path834" />
    <path
       d="m -94.0452,-28.1692 a 6,3.4641 2.02881e-5 0 1 -1.7574,-2.4494"
       id="path836" />
    <path
       d="m -95.8026,-30.6186 a 6,3.4641 2.02881e-5 0 1 1.7574,-2.4495"
       id="path838" />
    <path
       d="M -89.449,-35.7217 V -46.3362"
       id="path840" />
    <path
       d="m -94.0452,-33.0681 4.5962,-2.6536"
       id="path842" />
    <path
       d="m -89.449,-35.7217 8.8388,5.1031"
       id="path844" />
    <path
       d="m -80.6102,-30.6186 a 6.5,3.75278 -180 0 0 11.0962,-2.6537"
       id="path846" />
    <path
       d="m -69.514,-33.2723 a 6.5,3.75278 -180 0 0 -1.9038,-2.6536"
       id="path848" />
    <path
       d="M -80.2566,-41.029 V -51.6434"
       id="path850" />
    <path
       d="m -71.4178,-35.9259 -8.8388,-5.1031"
       id="path852" />
    <path
       d="m -80.2566,-41.029 4.5962,-2.6536"
       id="path854" />
    <path
       d="m -75.6604,-43.6826 a 6,3.4641 2.02881e-5 0 1 8.4852,0"
       id="path856" />
    <path
       d="m -67.1752,-43.6826 9.1924,5.3072"
       id="path858" />
    <path
       d="m -57.9828,-38.3754 a 6,3.4641 -180 0 0 5.433,0.9458"
       id="path860" />
    <path
       d="m -49.4975,-37.5589 c -0.402,0.0426 -0.8614,0.0515 -1.3692,0.0574 -0.5069,0.008 -1.079,0.0037 -1.6831,0.0719"
       id="path862" />
    <path
       d="m -83.2147,-19.7252 c -0.1217,0.3508 -0.3366,0.8095 -0.6136,1.2541 -0.2758,0.4458 -0.6229,0.9036 -1.0245,1.3247"
       id="path864" />
    <path
       d="m -83.2147,-19.7252 a 6,3.4641 -180 0 0 0.1192,-0.6872"
       id="path866" />
    <path
       d="m -83.0955,-20.4124 a 6,3.4641 -180 0 0 -1.7573,-2.4495"
       id="path868" />
    <path
       d="m -84.8528,-22.8619 -9.1924,-5.3073"
       id="path870" />
    <path
       d="m 94.0452,49.3981 a 6,3.4641 2.02881e-5 0 1 1.7574,2.4495"
       id="path872" />
    <path
       d="M 95.8026,51.8476 A 6,3.4641 2.02881e-5 0 1 94.0452,54.297"
       id="path874" />
    <path
       d="M 94.0452,54.297 89.449,56.9507"
       id="path876" />
    <path
       d="M 89.449,56.9507 80.6102,51.8476"
       id="path878" />
    <path
       d="M 80.6102,51.8476 A 6.5,3.75278 -180 0 0 80.243,51.6513"
       id="path880" />
    <path
       d="m 71.0778,56.9428 a 6.5,3.75278 -180 0 0 0.34,0.212"
       id="path882" />
    <path
       d="M 80.2566,62.2579 V 51.658"
       id="path884" />
    <path
       d="m 71.4178,57.1548 8.8388,5.1031"
       id="path886" />
    <path
       d="m 80.2566,62.2579 -4.5962,2.6536"
       id="path888" />
    <path
       d="m 75.6604,64.9115 a 6,3.4641 2.02881e-5 0 1 -8.4853,0"
       id="path890" />
    <path
       d="M 67.1751,64.9115 62.2254,62.0538"
       id="path892" />
    <path
       d="m 89.0955,46.5403 4.9497,2.8578"
       id="path894" />
  </g>
  <g
     fill="none"
     stroke="#ed2124"
     stroke-linecap="round"
     stroke-linejoin="round"
     stroke-width="0.4px"
     transform="matrix(1,0,0,-1,98.4879,92.137058)"
     id="g902">
    <path
       d="M -69.2965,44.6257 V 33.3812"
       id="path898" />
    <path
       d="M -69.2965,-0.816518 V -6.04549"
       id="path900" />
  </g>
  <g
     fill="none"
     stroke="#ed2124"
     stroke-linecap="round"
     stroke-linejoin="round"
     stroke-width="0.4px"
     transform="matrix(1,0,0,-1,98.4879,92.137058)"
     id="g908">
    <path
       d="m -33.9412,24.2132 1e-4,-11.2444"
       id="path904" />
    <path
       d="m -33.9411,-21.2289 v -5.229"
       id="path906" />
  </g>
  <g
     fill="none"
     stroke="#191919"
     stroke-linecap="round"
     stroke-linejoin="round"
     stroke-width="0.4px"
     transform="matrix(1,0,0,-1,98.4879,92.137058)"
     id="g974">
    <path
       d="m -66.5388,10.6553 a 5.1,2.94449 120 0 1 6.1563,-6.49883"
       id="path910" />
    <path
       d="m -60.3825,4.15647 a 5.1,2.94449 120 0 1 1.0562,2.33466"
       id="path912" />
    <path
       d="m -75.413,34.844 v 0"
       id="path914" />
    <path
       d="M -63.18,41.9067 A 8.6500213,4.9940923 2.02881e-5 0 1 -75.413,34.844"
       id="path916" />
    <path
       d="m -66.1145,36.824 a 4.5,2.59808 2.02881e-5 0 1 -7.682,-1.8371"
       id="path918" />
    <path
       d="m -73.7965,34.9869 a 4.5,2.59808 2.02881e-5 0 1 0.3395,-0.99"
       id="path920" />
    <path
       d="m -40.0576,14.4316 v 0"
       id="path922" />
    <path
       d="M -27.8247,21.4943 A 8.65,4.99408 2.02881e-5 0 1 -40.0576,14.4316"
       id="path924" />
    <path
       d="m -30.7592,16.4116 a 4.5,2.59808 2.02881e-5 0 1 -7.6819,-1.8371"
       id="path926" />
    <path
       d="m -38.4411,14.5745 a 4.5,2.59808 2.02881e-5 0 1 0.3395,-0.9901"
       id="path928" />
    <path
       d="M -9.1924,-9.38972 -31.8198,-22.4537"
       id="path930" />
    <path
       d="m -94.0452,13.4722 62.2254,-35.9259"
       id="path932" />
    <path
       d="m -59.3263,6.49113 a 5.1,2.94449 120 0 1 -6.1562,6.49877"
       id="path934" />
    <path
       d="m -65.4825,12.9899 a 5.1,2.94449 120 0 1 -1.0563,-2.3346"
       id="path936" />
    <path
       d="M -31.8198,-22.4537 V 3.67422"
       id="path938" />
    <path
       d="M -94.0452,39.6001 -31.8198,3.67422"
       id="path940" />
    <path
       d="M -94.0452,13.4722 V 39.6001"
       id="path942" />
    <path
       d="M -75.413,34.844"
       id="path944" />
    <path
       d="m -75.413,34.844 a 8.65,4.99408 2.02881e-5 0 1 12.233,0"
       id="path946" />
    <path
       d="m -63.18,34.844 a 8.65,4.99408 2.02881e-5 0 1 0,7.0627"
       id="path948" />
    <path
       d="M -40.0576,14.4316"
       id="path950" />
    <path
       d="m -40.0576,14.4316 a 8.65,4.99408 2.02881e-5 0 1 12.2329,0"
       id="path952" />
    <path
       d="m -27.8247,14.4316 a 8.65,4.99408 2.02881e-5 0 1 0,7.0627"
       id="path954" />
    <path
       d="M -31.8198,3.67422 -9.19241,16.7382"
       id="path956" />
    <path
       d="M -65.2965,49.1299 -37.9259,33.3275"
       id="path958" />
    <path
       d="M -29.9412,28.7175 -9.19241,16.7382"
       id="path960" />
    <path
       d="M -94.0452,39.6001 -73.254,51.6039"
       id="path962" />
    <path
       d="m -9.19241,16.7382 1e-5,-26.12792"
       id="path964" />
    <path
       d="m -29.7807,13.5845 a 4.5,2.59808 2.02881e-5 0 1 0.3396,0.99"
       id="path966" />
    <path
       d="m -29.4411,14.5745 a 4.5,2.59808 2.02881e-5 0 1 -1.3181,1.8371"
       id="path968" />
    <path
       d="m -65.136,33.9969 a 4.5,2.59808 2.02881e-5 0 1 0.3395,0.99"
       id="path970" />
    <path
       d="m -64.7965,34.9869 a 4.5,2.59808 2.02881e-5 0 1 -1.318,1.8371"
       id="path972" />
  </g>
  <g
     fill="none"
     stroke="#191919"
     stroke-linecap="butt"
     stroke-linejoin="miter"
     stroke-width="0.4px"
     transform="matrix(1,0,0,-1,98.4879,92.137058)"
     id="g1112">
    <path
       d="M -29.9412,26.5226 V 26.734"
       id="path976" />
    <path
       d="m -29.9412,27.5235 v 0.2113"
       id="path978" />
    <path
       d="m -29.9412,28.5244 v 0.2113"
       id="path980" />
    <path
       d="m -29.9412,29.5252 v 0.2114"
       id="path982" />
    <path
       d="m -29.9412,30.5261 v 0.2113"
       id="path984" />
    <path
       d="m -29.9412,31.527 v 0.2113"
       id="path986" />
    <path
       d="m -29.9412,32.5278 v 0.2114"
       id="path988" />
    <path
       d="M -29.9412,33.5287 V 33.74"
       id="path990" />
    <path
       d="m -29.9412,34.5296 v 0.2113"
       id="path992" />
    <path
       d="m -29.9412,35.5304 v 0.2114"
       id="path994" />
    <path
       d="m -29.9412,36.5313 v 0.2113"
       id="path996" />
    <path
       d="m -29.9412,37.5322 v 0.2113"
       id="path998" />
    <path
       d="m -29.9412,38.533 v 0.2114"
       id="path1000" />
    <path
       d="m -29.9412,39.5339 v 0.2113"
       id="path1002" />
    <path
       d="m -29.9412,40.5348 v 0.2113"
       id="path1004" />
    <path
       d="M -29.9412,41.5357 V 41.747"
       id="path1006" />
    <path
       d="m -29.9412,42.5365 v 0.2113"
       id="path1008" />
    <path
       d="m -29.9412,43.5374 v 0.2113"
       id="path1010" />
    <path
       d="m -29.9412,44.5383 v 0.2113"
       id="path1012" />
    <path
       d="m -29.9412,45.5391 v 0.2113"
       id="path1014" />
    <path
       d="m -29.9412,46.54 v 0.2113"
       id="path1016" />
    <path
       d="m -29.9412,47.5409 v 0.2113"
       id="path1018" />
    <path
       d="M -29.9412,48.5417 V 48.753"
       id="path1020" />
    <path
       d="m -29.9412,49.5426 v 0.2113"
       id="path1022" />
    <path
       d="m -29.9412,50.5435 v 0.2113"
       id="path1024" />
    <path
       d="m -29.9412,51.5443 v 0.2113"
       id="path1026" />
    <path
       d="m -29.9412,52.5452 v 0.2113"
       id="path1028" />
    <path
       d="m -29.9412,53.5461 v 0.2113"
       id="path1030" />
    <path
       d="m -29.9412,54.5469 v 0.2113"
       id="path1032" />
    <path
       d="m -29.9412,55.5478 v 0.2113"
       id="path1034" />
    <path
       d="M -29.9412,56.5487 V 56.76"
       id="path1036" />
    <path
       d="m -29.9412,57.5495 v 4.6499"
       id="path1038" />
    <path
       d="m -26.0412,66.3403 v 0.6124"
       id="path1040" />
    <path
       d="m -41.8412,66.3403 v 0.6124"
       id="path1042" />
    <path
       d="m -30.6985,61.7622 2.3435,1.353"
       id="path1044" />
    <path
       d="m -37.1838,61.7621 -2.3435,1.3531"
       id="path1046" />
    <path
       d="m -37.9412,57.5495 v 4.6499"
       id="path1048" />
    <path
       d="M -37.9412,56.5486 V 56.76"
       id="path1050" />
    <path
       d="m -37.9412,55.5478 v 0.2113"
       id="path1052" />
    <path
       d="m -37.9412,54.5469 v 0.2113"
       id="path1054" />
    <path
       d="m -37.9412,53.546 v 0.2114"
       id="path1056" />
    <path
       d="m -37.9412,52.5452 v 0.2113"
       id="path1058" />
    <path
       d="m -37.9412,51.5443 v 0.2113"
       id="path1060" />
    <path
       d="m -37.9412,50.5434 v 0.2114"
       id="path1062" />
    <path
       d="m -37.9412,49.5426 v 0.2113"
       id="path1064" />
    <path
       d="M -37.9412,48.5417 V 48.753"
       id="path1066" />
    <path
       d="m -37.9412,47.5408 v 0.2114"
       id="path1068" />
    <path
       d="m -37.9412,46.54 v 0.2113"
       id="path1070" />
    <path
       d="m -37.9412,45.5391 v 0.2113"
       id="path1072" />
    <path
       d="m -37.9412,44.5382 v 0.2114"
       id="path1074" />
    <path
       d="m -37.9412,43.5374 v 0.2113"
       id="path1076" />
    <path
       d="m -37.9412,42.5365 v 0.2113"
       id="path1078" />
    <path
       d="M -37.9412,41.5356 V 41.747"
       id="path1080" />
    <path
       d="m -37.9412,40.5348 v 0.2113"
       id="path1082" />
    <path
       d="m -37.9412,39.5339 v 0.2113"
       id="path1084" />
    <path
       d="m -37.9412,38.533 v 0.2114"
       id="path1086" />
    <path
       d="m -37.9412,37.5322 v 0.2113"
       id="path1088" />
    <path
       d="m -37.9412,36.5313 v 0.2113"
       id="path1090" />
    <path
       d="m -37.9412,35.5304 v 0.2114"
       id="path1092" />
    <path
       d="m -37.9412,34.5296 v 0.2113"
       id="path1094" />
    <path
       d="M -37.9412,33.5287 V 33.74"
       id="path1096" />
    <path
       d="m -37.9412,32.5278 v 0.2114"
       id="path1098" />
    <path
       d="m -37.9412,31.527 v 0.2113"
       id="path1100" />
    <path
       d="m -37.9412,30.5261 v 0.2113"
       id="path1102" />
    <path
       d="m -37.9412,29.5252 v 0.2114"
       id="path1104" />
    <path
       d="m -37.9412,28.5244 v 0.2113"
       id="path1106" />
    <path
       d="m -37.9412,27.5235 v 0.2113"
       id="path1108" />
    <path
       d="M -37.9412,26.5226 V 26.734"
       id="path1110" />
  </g>
  <g
     fill="none"
     stroke="#191919"
     stroke-linecap="round"
     stroke-linejoin="round"
     stroke-width="0.4px"
     transform="matrix(1,0,0,-1,98.4879,92.137058)"
     id="g1684">
    <path
       d="m -30.9042,25.0197 a 4,2.3094 2.02881e-5 0 1 0.963,1.5029"
       id="path1114" />
    <path
       d="m -36.5444,24.7692 a 4,2.3094 2.02881e-5 0 1 5.6402,0.2505"
       id="path1116" />
    <path
       d="m -30.9042,25.231 a 4,2.3094 2.02881e-5 0 1 0.963,1.503"
       id="path1118" />
    <path
       d="M -29.9412,26.734 A 4,2.3094 2.02881e-5 0 1 -30,27.1287"
       id="path1120" />
    <path
       d="m -30.9042,26.0205 a 4,2.3094 2.02881e-5 0 1 0.963,1.503"
       id="path1122" />
    <path
       d="m -36.5444,25.7701 a 4,2.3094 2.02881e-5 0 1 5.6402,0.2504"
       id="path1124" />
    <path
       d="m -36.5444,24.9806 a 4,2.3094 2.02881e-5 0 1 5.6402,0.2504"
       id="path1126" />
    <path
       d="m -30.9042,26.2319 a 4,2.3094 2.02881e-5 0 1 0.963,1.5029"
       id="path1128" />
    <path
       d="M -29.9412,27.7348 A 4,2.3094 2.02881e-5 0 1 -30,28.1296"
       id="path1130" />
    <path
       d="m -30.9042,27.0214 a 4,2.3094 2.02881e-5 0 1 0.963,1.503"
       id="path1132" />
    <path
       d="m -36.5444,26.771 a 4,2.3094 2.02881e-5 0 1 5.6402,0.2504"
       id="path1134" />
    <path
       d="m -36.5444,25.9814 a 4,2.3094 2.02881e-5 0 1 5.6402,0.2505"
       id="path1136" />
    <path
       d="m -30.9042,27.2327 a 4,2.3094 2.02881e-5 0 1 0.963,1.503"
       id="path1138" />
    <path
       d="M -29.9412,28.7357 A 4,2.3094 2.02881e-5 0 1 -30,29.1305"
       id="path1140" />
    <path
       d="m -30.9042,28.0223 a 4,2.3094 2.02881e-5 0 1 0.963,1.5029"
       id="path1142" />
    <path
       d="m -36.5444,27.7718 a 4,2.3094 2.02881e-5 0 1 5.6402,0.2505"
       id="path1144" />
    <path
       d="m -36.5444,26.9823 a 4,2.3094 2.02881e-5 0 1 5.6402,0.2504"
       id="path1146" />
    <path
       d="m -30.9042,28.2336 a 4,2.3094 2.02881e-5 0 1 0.963,1.503"
       id="path1148" />
    <path
       d="M -29.9412,29.7366 A 4,2.3094 2.02881e-5 0 1 -30,30.1313"
       id="path1150" />
    <path
       d="m -30.9042,29.0231 a 4,2.3094 2.02881e-5 0 1 0.963,1.503"
       id="path1152" />
    <path
       d="m -36.5444,28.7727 a 4,2.3094 2.02881e-5 0 1 5.6402,0.2504"
       id="path1154" />
    <path
       d="m -36.5444,27.9832 a 4,2.3094 2.02881e-5 0 1 5.6402,0.2504"
       id="path1156" />
    <path
       d="m -30.9042,29.2345 a 4,2.3094 2.02881e-5 0 1 0.963,1.5029"
       id="path1158" />
    <path
       d="M -29.9412,30.7374 A 4,2.3094 2.02881e-5 0 1 -30,31.1322"
       id="path1160" />
    <path
       d="m -30.9042,30.024 a 4,2.3094 2.02881e-5 0 1 0.963,1.503"
       id="path1162" />
    <path
       d="m -36.5444,29.7736 a 4,2.3094 2.02881e-5 0 1 5.6402,0.2504"
       id="path1164" />
    <path
       d="m -36.5444,28.984 a 4,2.3094 2.02881e-5 0 1 5.6402,0.2505"
       id="path1166" />
    <path
       d="m -30.9042,30.2353 a 4,2.3094 2.02881e-5 0 1 0.963,1.503"
       id="path1168" />
    <path
       d="M -29.9412,31.7383 A 4,2.3094 2.02881e-5 0 1 -30,32.1331"
       id="path1170" />
    <path
       d="m -30.9042,31.0249 a 4,2.3094 2.02881e-5 0 1 0.963,1.5029"
       id="path1172" />
    <path
       d="m -36.5444,30.7744 a 4,2.3094 2.02881e-5 0 1 5.6402,0.2505"
       id="path1174" />
    <path
       d="m -36.5444,29.9849 a 4,2.3094 2.02881e-5 0 1 5.6402,0.2504"
       id="path1176" />
    <path
       d="m -30.9042,31.2362 a 4,2.3094 2.02881e-5 0 1 0.963,1.503"
       id="path1178" />
    <path
       d="M -29.9412,32.7392 A 4,2.3094 2.02881e-5 0 1 -30,33.1339"
       id="path1180" />
    <path
       d="m -30.9042,32.0257 a 4,2.3094 2.02881e-5 0 1 0.963,1.503"
       id="path1182" />
    <path
       d="m -36.5444,31.7753 a 4,2.3094 2.02881e-5 0 1 5.6402,0.2504"
       id="path1184" />
    <path
       d="m -36.5444,30.9858 a 4,2.3094 2.02881e-5 0 1 5.6402,0.2504"
       id="path1186" />
    <path
       d="m -30.9042,32.2371 a 4,2.3094 2.02881e-5 0 1 0.963,1.5029"
       id="path1188" />
    <path
       d="M -29.9412,33.74 A 4,2.3094 2.02881e-5 0 1 -30,34.1348"
       id="path1190" />
    <path
       d="m -30.9042,33.0266 a 4,2.3094 2.02881e-5 0 1 0.963,1.503"
       id="path1192" />
    <path
       d="m -36.5444,32.7762 a 4,2.3094 2.02881e-5 0 1 5.6402,0.2504"
       id="path1194" />
    <path
       d="m -36.5444,31.9866 a 4,2.3094 2.02881e-5 0 1 5.6402,0.2505"
       id="path1196" />
    <path
       d="m -30.9042,33.2379 a 4,2.3094 2.02881e-5 0 1 0.963,1.503"
       id="path1198" />
    <path
       d="M -29.9412,34.7409 A 4,2.3094 2.02881e-5 0 1 -30,35.1357"
       id="path1200" />
    <path
       d="m -30.9042,34.0275 a 4,2.3094 2.02881e-5 0 1 0.963,1.5029"
       id="path1202" />
    <path
       d="m -36.5444,33.777 a 4,2.3094 2.02881e-5 0 1 5.6402,0.2505"
       id="path1204" />
    <path
       d="m -36.5444,32.9875 a 4,2.3094 2.02881e-5 0 1 5.6402,0.2504"
       id="path1206" />
    <path
       d="m -30.9042,34.2388 a 4,2.3094 2.02881e-5 0 1 0.963,1.503"
       id="path1208" />
    <path
       d="M -29.9412,35.7418 A 4,2.3094 2.02881e-5 0 1 -30,36.1365"
       id="path1210" />
    <path
       d="m -30.9042,35.0283 a 4,2.3094 2.02881e-5 0 1 0.963,1.503"
       id="path1212" />
    <path
       d="m -36.5444,34.7779 a 4,2.3094 2.02881e-5 0 1 5.6402,0.2504"
       id="path1214" />
    <path
       d="m -36.5444,33.9884 a 4,2.3094 2.02881e-5 0 1 5.6402,0.2504"
       id="path1216" />
    <path
       d="m -30.9042,35.2397 a 4,2.3094 2.02881e-5 0 1 0.963,1.5029"
       id="path1218" />
    <path
       d="M -29.9412,36.7426 A 4,2.3094 2.02881e-5 0 1 -30,37.1374"
       id="path1220" />
    <path
       d="m -30.9042,36.0292 a 4,2.3094 2.02881e-5 0 1 0.963,1.503"
       id="path1222" />
    <path
       d="m -36.5444,35.7788 a 4,2.3094 2.02881e-5 0 1 5.6402,0.2504"
       id="path1224" />
    <path
       d="m -36.5444,34.9892 a 4,2.3094 2.02881e-5 0 1 5.6402,0.2505"
       id="path1226" />
    <path
       d="m -30.9042,36.2405 a 4,2.3094 2.02881e-5 0 1 0.963,1.503"
       id="path1228" />
    <path
       d="M -29.9412,37.7435 A 4,2.3094 2.02881e-5 0 1 -30,38.1383"
       id="path1230" />
    <path
       d="m -30.9042,37.0301 a 4,2.3094 2.02881e-5 0 1 0.963,1.5029"
       id="path1232" />
    <path
       d="m -36.5444,36.7796 a 4,2.3094 2.02881e-5 0 1 5.6402,0.2505"
       id="path1234" />
    <path
       d="m -36.5444,35.9901 a 4,2.3094 2.02881e-5 0 1 5.6402,0.2504"
       id="path1236" />
    <path
       d="m -30.9042,37.2414 a 4,2.3094 2.02881e-5 0 1 0.963,1.503"
       id="path1238" />
    <path
       d="M -29.9412,38.7444 A 4,2.3094 2.02881e-5 0 1 -30,39.1391"
       id="path1240" />
    <path
       d="m -30.9042,38.0309 a 4,2.3094 2.02881e-5 0 1 0.963,1.503"
       id="path1242" />
    <path
       d="m -36.5444,37.7805 a 4,2.3094 2.02881e-5 0 1 5.6402,0.2504"
       id="path1244" />
    <path
       d="m -36.5444,36.991 a 4,2.3094 2.02881e-5 0 1 5.6402,0.2504"
       id="path1246" />
    <path
       d="m -30.9042,38.2423 a 4,2.3094 2.02881e-5 0 1 0.963,1.5029"
       id="path1248" />
    <path
       d="M -29.9412,39.7452 A 4,2.3094 2.02881e-5 0 1 -30,40.14"
       id="path1250" />
    <path
       d="m -30.9042,39.0318 a 4,2.3094 2.02881e-5 0 1 0.963,1.503"
       id="path1252" />
    <path
       d="m -36.5444,38.7814 a 4,2.3094 2.02881e-5 0 1 5.6402,0.2504"
       id="path1254" />
    <path
       d="m -36.5444,37.9918 a 4,2.3094 2.02881e-5 0 1 5.6402,0.2505"
       id="path1256" />
    <path
       d="m -30.9042,39.2431 a 4,2.3094 2.02881e-5 0 1 0.963,1.503"
       id="path1258" />
    <path
       d="M -29.9412,40.7461 A 4,2.3094 2.02881e-5 0 1 -30,41.1409"
       id="path1260" />
    <path
       d="m -30.9042,40.0327 a 4,2.3094 2.02881e-5 0 1 0.963,1.503"
       id="path1262" />
    <path
       d="m -36.5444,39.7822 a 4,2.3094 2.02881e-5 0 1 5.6402,0.2505"
       id="path1264" />
    <path
       d="m -36.5444,38.9927 a 4,2.3094 2.02881e-5 0 1 5.6402,0.2504"
       id="path1266" />
    <path
       d="m -30.9042,40.244 a 4,2.3094 2.02881e-5 0 1 0.963,1.503"
       id="path1268" />
    <path
       d="M -29.9412,41.747 A 4,2.3094 2.02881e-5 0 1 -30,42.1417"
       id="path1270" />
    <path
       d="m -30.9042,41.0335 a 4,2.3094 2.02881e-5 0 1 0.963,1.503"
       id="path1272" />
    <path
       d="m -36.5444,40.7831 a 4,2.3094 2.02881e-5 0 1 5.6402,0.2504"
       id="path1274" />
    <path
       d="m -36.5444,39.9936 a 4,2.3094 2.02881e-5 0 1 5.6402,0.2504"
       id="path1276" />
    <path
       d="m -30.9042,41.2449 a 4,2.3094 2.02881e-5 0 1 0.963,1.5029"
       id="path1278" />
    <path
       d="M -29.9412,42.7478 A 4,2.3094 2.02881e-5 0 1 -30,43.1426"
       id="path1280" />
    <path
       d="m -30.9042,42.0344 a 4,2.3094 2.02881e-5 0 1 0.963,1.503"
       id="path1282" />
    <path
       d="m -36.5444,41.784 a 4,2.3094 2.02881e-5 0 1 5.6402,0.2504"
       id="path1284" />
    <path
       d="m -36.5444,40.9944 a 4,2.3094 2.02881e-5 0 1 5.6402,0.2505"
       id="path1286" />
    <path
       d="m -30.9042,42.2457 a 4,2.3094 2.02881e-5 0 1 0.963,1.503"
       id="path1288" />
    <path
       d="M -29.9412,43.7487 A 4,2.3094 2.02881e-5 0 1 -30,44.1435"
       id="path1290" />
    <path
       d="m -30.9042,43.0353 a 4,2.3094 2.02881e-5 0 1 0.963,1.503"
       id="path1292" />
    <path
       d="m -36.5444,42.7848 a 4,2.3094 2.02881e-5 0 1 5.6402,0.2505"
       id="path1294" />
    <path
       d="m -36.5444,41.9953 a 4,2.3094 2.02881e-5 0 1 5.6402,0.2504"
       id="path1296" />
    <path
       d="m -30.9042,43.2466 a 4,2.3094 2.02881e-5 0 1 0.963,1.503"
       id="path1298" />
    <path
       d="M -29.9412,44.7496 A 4,2.3094 2.02881e-5 0 1 -30,45.1443"
       id="path1300" />
    <path
       d="m -30.9042,44.0361 a 4,2.3094 2.02881e-5 0 1 0.963,1.503"
       id="path1302" />
    <path
       d="m -36.5444,43.7857 a 4,2.3094 2.02881e-5 0 1 5.6402,0.2504"
       id="path1304" />
    <path
       d="m -36.5444,42.9962 a 4,2.3094 2.02881e-5 0 1 5.6402,0.2504"
       id="path1306" />
    <path
       d="m -30.9042,44.2475 a 4,2.3094 2.02881e-5 0 1 0.963,1.5029"
       id="path1308" />
    <path
       d="M -29.9412,45.7504 A 4,2.3094 2.02881e-5 0 1 -30,46.1452"
       id="path1310" />
    <path
       d="m -30.9042,45.037 a 4,2.3094 2.02881e-5 0 1 0.963,1.503"
       id="path1312" />
    <path
       d="m -36.5444,44.7866 a 4,2.3094 2.02881e-5 0 1 5.6402,0.2504"
       id="path1314" />
    <path
       d="m -36.5444,43.997 a 4,2.3094 2.02881e-5 0 1 5.6402,0.2505"
       id="path1316" />
    <path
       d="m -30.9042,45.2483 a 4,2.3094 2.02881e-5 0 1 0.963,1.503"
       id="path1318" />
    <path
       d="M -29.9412,46.7513 A 4,2.3094 2.02881e-5 0 1 -30,47.1461"
       id="path1320" />
    <path
       d="m -30.9042,46.0379 a 4,2.3094 2.02881e-5 0 1 0.963,1.503"
       id="path1322" />
    <path
       d="m -36.5444,45.7874 a 4,2.3094 2.02881e-5 0 1 5.6402,0.2505"
       id="path1324" />
    <path
       d="m -36.5444,44.9979 a 4,2.3094 2.02881e-5 0 1 5.6402,0.2504"
       id="path1326" />
    <path
       d="m -30.9042,46.2492 a 4,2.3094 2.02881e-5 0 1 0.963,1.503"
       id="path1328" />
    <path
       d="M -29.9412,47.7522 A 4,2.3094 2.02881e-5 0 1 -30,48.1469"
       id="path1330" />
    <path
       d="m -30.9042,47.0387 a 4,2.3094 2.02881e-5 0 1 0.963,1.503"
       id="path1332" />
    <path
       d="m -36.5444,46.7883 a 4,2.3094 2.02881e-5 0 1 5.6402,0.2504"
       id="path1334" />
    <path
       d="m -36.5444,45.9988 a 4,2.3094 2.02881e-5 0 1 5.6402,0.2504"
       id="path1336" />
    <path
       d="m -30.9042,47.2501 a 4,2.3094 2.02881e-5 0 1 0.963,1.5029"
       id="path1338" />
    <path
       d="M -29.9412,48.753 A 4,2.3094 2.02881e-5 0 1 -30,49.1478"
       id="path1340" />
    <path
       d="m -30.9042,48.0396 a 4,2.3094 2.02881e-5 0 1 0.963,1.503"
       id="path1342" />
    <path
       d="m -36.5444,47.7892 a 4,2.3094 2.02881e-5 0 1 5.6402,0.2504"
       id="path1344" />
    <path
       d="m -36.5444,46.9996 a 4,2.3094 2.02881e-5 0 1 5.6402,0.2505"
       id="path1346" />
    <path
       d="m -30.9042,48.2509 a 4,2.3094 2.02881e-5 0 1 0.963,1.503"
       id="path1348" />
    <path
       d="M -29.9412,49.7539 A 4,2.3094 2.02881e-5 0 1 -30,50.1487"
       id="path1350" />
    <path
       d="m -30.9042,49.0405 a 4,2.3094 2.02881e-5 0 1 0.963,1.503"
       id="path1352" />
    <path
       d="m -36.5444,48.79 a 4,2.3094 2.02881e-5 0 1 5.6402,0.2505"
       id="path1354" />
    <path
       d="m -36.5444,48.0005 a 4,2.3094 2.02881e-5 0 1 5.6402,0.2504"
       id="path1356" />
    <path
       d="m -30.9042,49.2518 a 4,2.3094 2.02881e-5 0 1 0.963,1.503"
       id="path1358" />
    <path
       d="M -29.9412,50.7548 A 4,2.3094 2.02881e-5 0 1 -30,51.1495"
       id="path1360" />
    <path
       d="m -30.9042,50.0413 a 4,2.3094 2.02881e-5 0 1 0.963,1.503"
       id="path1362" />
    <path
       d="m -36.5444,49.7909 a 4,2.3094 2.02881e-5 0 1 5.6402,0.2504"
       id="path1364" />
    <path
       d="m -36.5444,49.0014 a 4,2.3094 2.02881e-5 0 1 5.6402,0.2504"
       id="path1366" />
    <path
       d="m -30.9042,50.2527 a 4,2.3094 2.02881e-5 0 1 0.963,1.5029"
       id="path1368" />
    <path
       d="M -29.9412,51.7556 A 4,2.3094 2.02881e-5 0 1 -30,52.1504"
       id="path1370" />
    <path
       d="m -30.9042,51.0422 a 4,2.3094 2.02881e-5 0 1 0.963,1.503"
       id="path1372" />
    <path
       d="m -36.5444,50.7918 a 4,2.3094 2.02881e-5 0 1 5.6402,0.2504"
       id="path1374" />
    <path
       d="m -36.5444,50.0022 a 4,2.3094 2.02881e-5 0 1 5.6402,0.2505"
       id="path1376" />
    <path
       d="m -30.9042,51.2535 a 4,2.3094 2.02881e-5 0 1 0.963,1.503"
       id="path1378" />
    <path
       d="M -29.9412,52.7565 A 4,2.3094 2.02881e-5 0 1 -30,53.1513"
       id="path1380" />
    <path
       d="m -30.9042,52.0431 a 4,2.3094 2.02881e-5 0 1 0.963,1.503"
       id="path1382" />
    <path
       d="m -36.5444,51.7926 a 4,2.3094 2.02881e-5 0 1 5.6402,0.2505"
       id="path1384" />
    <path
       d="m -36.5444,51.0031 a 4,2.3094 2.02881e-5 0 1 5.6402,0.2504"
       id="path1386" />
    <path
       d="m -30.9042,52.2544 a 4,2.3094 2.02881e-5 0 1 0.963,1.503"
       id="path1388" />
    <path
       d="M -29.9412,53.7574 A 4,2.3094 2.02881e-5 0 1 -30,54.1521"
       id="path1390" />
    <path
       d="m -30.9042,53.0439 a 4,2.3094 2.02881e-5 0 1 0.963,1.503"
       id="path1392" />
    <path
       d="m -36.5444,52.7935 a 4,2.3094 2.02881e-5 0 1 5.6402,0.2504"
       id="path1394" />
    <path
       d="m -36.5444,52.004 a 4,2.3094 2.02881e-5 0 1 5.6402,0.2504"
       id="path1396" />
    <path
       d="m -30.9042,53.2553 a 4,2.3094 2.02881e-5 0 1 0.963,1.5029"
       id="path1398" />
    <path
       d="M -29.9412,54.7582 A 4,2.3094 2.02881e-5 0 1 -30,55.153"
       id="path1400" />
    <path
       d="m -30.9042,54.0448 a 4,2.3094 2.02881e-5 0 1 0.963,1.503"
       id="path1402" />
    <path
       d="m -36.5444,53.7944 a 4,2.3094 2.02881e-5 0 1 5.6402,0.2504"
       id="path1404" />
    <path
       d="m -36.5444,53.0048 a 4,2.3094 2.02881e-5 0 1 5.6402,0.2505"
       id="path1406" />
    <path
       d="m -30.9042,54.2561 a 4,2.3094 2.02881e-5 0 1 0.963,1.503"
       id="path1408" />
    <path
       d="M -29.9412,55.7591 A 4,2.3094 2.02881e-5 0 1 -30,56.1539"
       id="path1410" />
    <path
       d="m -30.9042,55.0457 a 4,2.3094 2.02881e-5 0 1 0.963,1.503"
       id="path1412" />
    <path
       d="m -36.5444,54.7952 a 4,2.3094 2.02881e-5 0 1 5.6402,0.2505"
       id="path1414" />
    <path
       d="m -36.5444,54.0057 a 4,2.3094 2.02881e-5 0 1 5.6402,0.2504"
       id="path1416" />
    <path
       d="m -30.9042,55.257 a 4,2.3094 2.02881e-5 0 1 0.963,1.503"
       id="path1418" />
    <path
       d="M -29.9412,56.76 A 4,2.3094 2.02881e-5 0 1 -30,57.1547"
       id="path1420" />
    <path
       d="m -30.9042,56.0465 a 4,2.3094 2.02881e-5 0 1 0.963,1.503"
       id="path1422" />
    <path
       d="m -36.5444,55.7961 a 4,2.3094 2.02881e-5 0 1 5.6402,0.2504"
       id="path1424" />
    <path
       d="m -36.5444,55.0066 a 4,2.3094 2.02881e-5 0 1 5.6402,0.2504"
       id="path1426" />
    <path
       d="m -27.9431,63.372 a 7.9,4.56107 2.02881e-5 0 1 1.9019,2.9683"
       id="path1428" />
    <path
       d="m -27.9431,63.9843 a 7.9,4.56107 2.02881e-5 0 1 1.9019,2.9684"
       id="path1430" />
    <path
       d="m -26.0412,66.9527 a 7.9,4.56107 2.02881e-5 0 1 -13.898,2.9684"
       id="path1432" />
    <path
       d="m -34.4074,65.6806 -1.5773,-1.0624"
       id="path1434" />
    <path
       d="m -31.9741,65.158 0.1391,2.2552"
       id="path1436" />
    <path
       d="M -30.2576,68.4756 -31.835,67.4132"
       id="path1438" />
    <path
       d="m -35.9242,64.6589 -0.1232,1.8333"
       id="path1440" />
    <path
       d="m -37.6247,65.4298 1.5773,1.0624"
       id="path1442" />
    <path
       d="m -33.475,68.2248 1.5774,1.0624"
       id="path1444" />
    <path
       d="m -33.475,68.2248 -0.1582,-2.5602"
       id="path1446" />
    <path
       d="m -31.8976,69.2872 -1.1309,-3.6074"
       id="path1448" />
    <path
       d="m -34.5512,65.5837 -0.1876,2.585"
       id="path1450" />
    <path
       d="m -36.579,69.0794 1.8402,-0.9107"
       id="path1452" />
    <path
       d="m -36.579,69.0794 1.462,-3.8768"
       id="path1454" />
    <path
       d="m -36.1445,67.2219 -1.8402,0.9107"
       id="path1456" />
    <path
       d="m -36.1445,67.2219 0.046,-0.6426"
       id="path1458" />
    <path
       d="m -31.3034,64.826 -1.8401,0.9107"
       id="path1460" />
    <path
       d="m -31.7378,66.6835 1.8402,-0.9106"
       id="path1462" />
    <path
       d="m -31.7378,66.6835 -0.1229,-1.5817"
       id="path1464" />
    <path
       d="m -39.9392,69.9211 a 7.9,4.56107 2.02881e-5 0 1 -1.902,-2.9684"
       id="path1466" />
    <path
       d="m -41.8412,66.9527 a 7.9,4.56107 2.02881e-5 0 1 13.8981,-2.9684"
       id="path1468" />
    <path
       d="m -34.4074,65.6806 a 2.25216,1.30029 2.02881e-5 0 1 1.2639,0.0561"
       id="path1470" />
    <path
       d="m -35.9847,64.6182 -1.64,0.8116"
       id="path1472" />
    <path
       d="m -36.1445,67.2219 a 2.25216,1.30029 2.02881e-5 0 1 -0.0461,-0.3335"
       id="path1474" />
    <path
       d="m -36.1906,66.8884 a 2.25216,1.30029 2.02881e-5 0 1 0.1432,-0.3962"
       id="path1476" />
    <path
       d="m -37.9847,68.1326 1.4057,0.9468"
       id="path1478" />
    <path
       d="m -33.475,68.2248 a 2.25216,1.30029 2.02881e-5 0 1 -1.2638,-0.0561"
       id="path1480" />
    <path
       d="m -31.8976,69.2872 1.64,-0.8116"
       id="path1482" />
    <path
       d="m -31.7378,66.6835 a 2.25216,1.30029 2.02881e-5 0 1 0.046,0.2049"
       id="path1484" />
    <path
       d="m -31.6918,66.8884 a 2.25216,1.30029 2.02881e-5 0 1 -0.1432,0.5248"
       id="path1486" />
    <path
       d="M -29.8976,65.7729 -31.3034,64.826"
       id="path1488" />
    <path
       d="m -41.8412,66.3403 a 7.9,4.56107 2.02881e-5 0 1 2.3139,-3.2251"
       id="path1490" />
    <path
       d="m -39.5273,63.1152 a 7.9,4.56107 2.02881e-5 0 1 11.1723,0"
       id="path1492" />
    <path
       d="m -28.355,63.1152 a 7.9,4.56107 2.02881e-5 0 1 0.4119,0.2568"
       id="path1494" />
    <path
       d="m -37.9412,57.5495 a 4,2.3094 2.02881e-5 0 1 1.3968,-1.7534"
       id="path1496" />
    <path
       d="M -37.8823,57.1547 A 4,2.3094 2.02881e-5 0 1 -37.9412,56.76"
       id="path1498" />
    <path
       d="m -37.9412,56.76 a 4,2.3094 2.02881e-5 0 1 1.3968,-1.7534"
       id="path1500" />
    <path
       d="m -37.9412,56.5486 a 4,2.3094 2.02881e-5 0 1 1.3968,-1.7534"
       id="path1502" />
    <path
       d="m -37.8823,56.1539 a 4,2.3094 2.02881e-5 0 1 -0.0589,-0.3948"
       id="path1504" />
    <path
       d="m -37.9412,55.7591 a 4,2.3094 2.02881e-5 0 1 1.3968,-1.7534"
       id="path1506" />
    <path
       d="m -37.9412,55.5478 a 4,2.3094 2.02881e-5 0 1 1.3968,-1.7534"
       id="path1508" />
    <path
       d="m -37.8823,55.153 a 4,2.3094 2.02881e-5 0 1 -0.0589,-0.3948"
       id="path1510" />
    <path
       d="m -37.9412,54.7582 a 4,2.3094 2.02881e-5 0 1 1.3968,-1.7534"
       id="path1512" />
    <path
       d="m -37.9412,54.5469 a 4,2.3094 2.02881e-5 0 1 1.3968,-1.7534"
       id="path1514" />
    <path
       d="m -37.8823,54.1521 a 4,2.3094 2.02881e-5 0 1 -0.0589,-0.3947"
       id="path1516" />
    <path
       d="m -37.9412,53.7574 a 4,2.3094 2.02881e-5 0 1 1.3968,-1.7534"
       id="path1518" />
    <path
       d="m -37.9412,53.546 a 4,2.3094 2.02881e-5 0 1 1.3968,-1.7534"
       id="path1520" />
    <path
       d="m -37.8823,53.1513 a 4,2.3094 2.02881e-5 0 1 -0.0589,-0.3948"
       id="path1522" />
    <path
       d="m -37.9412,52.7565 a 4,2.3094 2.02881e-5 0 1 1.3968,-1.7534"
       id="path1524" />
    <path
       d="m -37.9412,52.5452 a 4,2.3094 2.02881e-5 0 1 1.3968,-1.7534"
       id="path1526" />
    <path
       d="m -37.8823,52.1504 a 4,2.3094 2.02881e-5 0 1 -0.0589,-0.3948"
       id="path1528" />
    <path
       d="m -37.9412,51.7556 a 4,2.3094 2.02881e-5 0 1 1.3968,-1.7534"
       id="path1530" />
    <path
       d="m -37.9412,51.5443 a 4,2.3094 2.02881e-5 0 1 1.3968,-1.7534"
       id="path1532" />
    <path
       d="m -37.8823,51.1495 a 4,2.3094 2.02881e-5 0 1 -0.0589,-0.3947"
       id="path1534" />
    <path
       d="m -37.9412,50.7548 a 4,2.3094 2.02881e-5 0 1 1.3968,-1.7534"
       id="path1536" />
    <path
       d="M -37.9412,50.5434 A 4,2.3094 2.02881e-5 0 1 -36.5444,48.79"
       id="path1538" />
    <path
       d="m -37.8823,50.1487 a 4,2.3094 2.02881e-5 0 1 -0.0589,-0.3948"
       id="path1540" />
    <path
       d="m -37.9412,49.7539 a 4,2.3094 2.02881e-5 0 1 1.3968,-1.7534"
       id="path1542" />
    <path
       d="m -37.9412,49.5426 a 4,2.3094 2.02881e-5 0 1 1.3968,-1.7534"
       id="path1544" />
    <path
       d="M -37.8823,49.1478 A 4,2.3094 2.02881e-5 0 1 -37.9412,48.753"
       id="path1546" />
    <path
       d="m -37.9412,48.753 a 4,2.3094 2.02881e-5 0 1 1.3968,-1.7534"
       id="path1548" />
    <path
       d="m -37.9412,48.5417 a 4,2.3094 2.02881e-5 0 1 1.3968,-1.7534"
       id="path1550" />
    <path
       d="m -37.8823,48.1469 a 4,2.3094 2.02881e-5 0 1 -0.0589,-0.3947"
       id="path1552" />
    <path
       d="m -37.9412,47.7522 a 4,2.3094 2.02881e-5 0 1 1.3968,-1.7534"
       id="path1554" />
    <path
       d="m -37.9412,47.5408 a 4,2.3094 2.02881e-5 0 1 1.3968,-1.7534"
       id="path1556" />
    <path
       d="m -37.8823,47.1461 a 4,2.3094 2.02881e-5 0 1 -0.0589,-0.3948"
       id="path1558" />
    <path
       d="m -37.9412,46.7513 a 4,2.3094 2.02881e-5 0 1 1.3968,-1.7534"
       id="path1560" />
    <path
       d="m -37.9412,46.54 a 4,2.3094 2.02881e-5 0 1 1.3968,-1.7534"
       id="path1562" />
    <path
       d="m -37.8823,46.1452 a 4,2.3094 2.02881e-5 0 1 -0.0589,-0.3948"
       id="path1564" />
    <path
       d="m -37.9412,45.7504 a 4,2.3094 2.02881e-5 0 1 1.3968,-1.7534"
       id="path1566" />
    <path
       d="m -37.9412,45.5391 a 4,2.3094 2.02881e-5 0 1 1.3968,-1.7534"
       id="path1568" />
    <path
       d="m -37.8823,45.1443 a 4,2.3094 2.02881e-5 0 1 -0.0589,-0.3947"
       id="path1570" />
    <path
       d="m -37.9412,44.7496 a 4,2.3094 2.02881e-5 0 1 1.3968,-1.7534"
       id="path1572" />
    <path
       d="m -37.9412,44.5382 a 4,2.3094 2.02881e-5 0 1 1.3968,-1.7534"
       id="path1574" />
    <path
       d="m -37.8823,44.1435 a 4,2.3094 2.02881e-5 0 1 -0.0589,-0.3948"
       id="path1576" />
    <path
       d="m -37.9412,43.7487 a 4,2.3094 2.02881e-5 0 1 1.3968,-1.7534"
       id="path1578" />
    <path
       d="m -37.9412,43.5374 a 4,2.3094 2.02881e-5 0 1 1.3968,-1.7534"
       id="path1580" />
    <path
       d="m -37.8823,43.1426 a 4,2.3094 2.02881e-5 0 1 -0.0589,-0.3948"
       id="path1582" />
    <path
       d="m -37.9412,42.7478 a 4,2.3094 2.02881e-5 0 1 1.3968,-1.7534"
       id="path1584" />
    <path
       d="m -37.9412,42.5365 a 4,2.3094 2.02881e-5 0 1 1.3968,-1.7534"
       id="path1586" />
    <path
       d="M -37.8823,42.1417 A 4,2.3094 2.02881e-5 0 1 -37.9412,41.747"
       id="path1588" />
    <path
       d="m -37.9412,41.747 a 4,2.3094 2.02881e-5 0 1 1.3968,-1.7534"
       id="path1590" />
    <path
       d="m -37.9412,41.5356 a 4,2.3094 2.02881e-5 0 1 1.3968,-1.7534"
       id="path1592" />
    <path
       d="m -37.8823,41.1409 a 4,2.3094 2.02881e-5 0 1 -0.0589,-0.3948"
       id="path1594" />
    <path
       d="m -37.9412,40.7461 a 4,2.3094 2.02881e-5 0 1 1.3968,-1.7534"
       id="path1596" />
    <path
       d="m -37.9412,40.5348 a 4,2.3094 2.02881e-5 0 1 1.3968,-1.7534"
       id="path1598" />
    <path
       d="m -37.8823,40.14 a 4,2.3094 2.02881e-5 0 1 -0.0589,-0.3948"
       id="path1600" />
    <path
       d="m -37.9412,39.7452 a 4,2.3094 2.02881e-5 0 1 1.3968,-1.7534"
       id="path1602" />
    <path
       d="m -37.9412,39.5339 a 4,2.3094 2.02881e-5 0 1 1.3968,-1.7534"
       id="path1604" />
    <path
       d="m -37.8823,39.1391 a 4,2.3094 2.02881e-5 0 1 -0.0589,-0.3947"
       id="path1606" />
    <path
       d="m -37.9412,38.7444 a 4,2.3094 2.02881e-5 0 1 1.3968,-1.7534"
       id="path1608" />
    <path
       d="m -37.9412,38.533 a 4,2.3094 2.02881e-5 0 1 1.3968,-1.7534"
       id="path1610" />
    <path
       d="m -37.8823,38.1383 a 4,2.3094 2.02881e-5 0 1 -0.0589,-0.3948"
       id="path1612" />
    <path
       d="m -37.9412,37.7435 a 4,2.3094 2.02881e-5 0 1 1.3968,-1.7534"
       id="path1614" />
    <path
       d="m -37.9412,37.5322 a 4,2.3094 2.02881e-5 0 1 1.3968,-1.7534"
       id="path1616" />
    <path
       d="m -37.8823,37.1374 a 4,2.3094 2.02881e-5 0 1 -0.0589,-0.3948"
       id="path1618" />
    <path
       d="m -37.9412,36.7426 a 4,2.3094 2.02881e-5 0 1 1.3968,-1.7534"
       id="path1620" />
    <path
       d="m -37.9412,36.5313 a 4,2.3094 2.02881e-5 0 1 1.3968,-1.7534"
       id="path1622" />
    <path
       d="m -37.8823,36.1365 a 4,2.3094 2.02881e-5 0 1 -0.0589,-0.3947"
       id="path1624" />
    <path
       d="m -37.9412,35.7418 a 4,2.3094 2.02881e-5 0 1 1.3968,-1.7534"
       id="path1626" />
    <path
       d="m -37.9412,35.5304 a 4,2.3094 2.02881e-5 0 1 1.3968,-1.7534"
       id="path1628" />
    <path
       d="m -37.8823,35.1357 a 4,2.3094 2.02881e-5 0 1 -0.0589,-0.3948"
       id="path1630" />
    <path
       d="m -37.9412,34.7409 a 4,2.3094 2.02881e-5 0 1 1.3968,-1.7534"
       id="path1632" />
    <path
       d="m -37.9412,34.5296 a 4,2.3094 2.02881e-5 0 1 1.3968,-1.7534"
       id="path1634" />
    <path
       d="M -37.8823,34.1348 A 4,2.3094 2.02881e-5 0 1 -37.9412,33.74"
       id="path1636" />
    <path
       d="m -37.9412,33.74 a 4,2.3094 2.02881e-5 0 1 1.3968,-1.7534"
       id="path1638" />
    <path
       d="m -37.9412,33.5287 a 4,2.3094 2.02881e-5 0 1 1.3968,-1.7534"
       id="path1640" />
    <path
       d="m -37.8823,33.1339 a 4,2.3094 2.02881e-5 0 1 -0.0589,-0.3947"
       id="path1642" />
    <path
       d="m -37.9412,32.7392 a 4,2.3094 2.02881e-5 0 1 1.3968,-1.7534"
       id="path1644" />
    <path
       d="m -37.9412,32.5278 a 4,2.3094 2.02881e-5 0 1 1.3968,-1.7534"
       id="path1646" />
    <path
       d="m -37.8823,32.1331 a 4,2.3094 2.02881e-5 0 1 -0.0589,-0.3948"
       id="path1648" />
    <path
       d="m -37.9412,31.7383 a 4,2.3094 2.02881e-5 0 1 1.3968,-1.7534"
       id="path1650" />
    <path
       d="m -37.9412,31.527 a 4,2.3094 2.02881e-5 0 1 1.3968,-1.7534"
       id="path1652" />
    <path
       d="m -37.8823,31.1322 a 4,2.3094 2.02881e-5 0 1 -0.0589,-0.3948"
       id="path1654" />
    <path
       d="m -37.9412,30.7374 a 4,2.3094 2.02881e-5 0 1 1.3968,-1.7534"
       id="path1656" />
    <path
       d="m -37.9412,30.5261 a 4,2.3094 2.02881e-5 0 1 1.3968,-1.7534"
       id="path1658" />
    <path
       d="m -37.8823,30.1313 a 4,2.3094 2.02881e-5 0 1 -0.0589,-0.3947"
       id="path1660" />
    <path
       d="m -37.9412,29.7366 a 4,2.3094 2.02881e-5 0 1 1.3968,-1.7534"
       id="path1662" />
    <path
       d="m -37.9412,29.5252 a 4,2.3094 2.02881e-5 0 1 1.3968,-1.7534"
       id="path1664" />
    <path
       d="m -37.8823,29.1305 a 4,2.3094 2.02881e-5 0 1 -0.0589,-0.3948"
       id="path1666" />
    <path
       d="m -37.9412,28.7357 a 4,2.3094 2.02881e-5 0 1 1.3968,-1.7534"
       id="path1668" />
    <path
       d="m -37.9412,28.5244 a 4,2.3094 2.02881e-5 0 1 1.3968,-1.7534"
       id="path1670" />
    <path
       d="m -37.8823,28.1296 a 4,2.3094 2.02881e-5 0 1 -0.0589,-0.3948"
       id="path1672" />
    <path
       d="m -37.9412,27.7348 a 4,2.3094 2.02881e-5 0 1 1.3968,-1.7534"
       id="path1674" />
    <path
       d="m -37.9412,27.5235 a 4,2.3094 2.02881e-5 0 1 1.3968,-1.7534"
       id="path1676" />
    <path
       d="M -37.8823,27.1287 A 4,2.3094 2.02881e-5 0 1 -37.9412,26.734"
       id="path1678" />
    <path
       d="m -37.9412,26.734 a 4,2.3094 2.02881e-5 0 1 1.3968,-1.7534"
       id="path1680" />
    <path
       d="m -37.9412,26.5226 a 4,2.3094 2.02881e-5 0 1 1.3968,-1.7534"
       id="path1682" />
  </g>
</svg>
