<svg
       width="87.56912393250616"
       height="64.88172354546286"
	xmlns="http://www.w3.org/2000/svg" version="1.1"
	xmlns:freecad="http://www.freecadweb.org/wiki/index.php?title=Svg_Namespace">
<g   fill="none"
   stroke="#bcbec0"
   stroke-linecap="butt"
   stroke-linejoin="miter"
   stroke-width="0.4px"
   transform="scale(1,-1) translate(60.51536651372161, -58.24860929400392)"
  >
<path d=" M 9.71932 51.9029 L 9.71932 51.9475 " />
<path d=" M 25.5193 51.9029 L 25.5193 51.9475 " />
</g>
<g   fill="none"
   stroke="#bcbec0"
   stroke-linecap="round"
   stroke-linejoin="round"
   stroke-width="0.4px"
   transform="scale(1,-1) translate(60.51536651372161, -58.24860929400392)"
  >
<path d="M25.5189 51.9486 A7.9 0.100069 2.47779e-05 0 1 9.71932 51.9475" />
<path d="M9.71932 51.9475 A7.9 0.100069 2.47779e-05 0 1 9.71979 51.9464" />
<path d=" M 18.7208 51.9226 L 18.7473 51.8919 " />
<path d="M18.7208,51.9226 L18.7208,51.8919 " /><path d="M18.6777,51.8919 L18.6777,51.9727 " /><path d=" M 18.6512 52.0034 L 18.6777 51.9727 " />
<path d=" M 18.6512 52.0034 L 18.6518 51.8919 " />
<path d=" M 16.5874 51.8916 L 16.561 51.9223 " />
<path d=" M 16.5178 51.9724 L 16.4913 52.0031 " />
<path d="M15.6335,51.9335 L15.6313,51.9609 " /><path d=" M 13.2078 51.9606 L 15.6313 51.9609 " />
<path d=" M 15.6549 51.9335 L 13.2314 51.9332 " />
<path d=" M 22.0309 51.9344 L 19.6073 51.9341 " />
<path d=" M 19.5837 51.9615 L 22.0073 51.9618 " />
<path d=" M 22.0073 51.9618 L 21.9936 51.9344 " />
<path d="M9.71979 51.9464 A7.9 0.100069 2.47779e-05 0 1 25.5193 51.9475" />
<path d="M25.5193 51.9475 A7.9 0.100069 2.47779e-05 0 1 25.5189 51.9486" />
<path d="M18.7208 51.9226 A2.25216 0.028528 2.47779e-05 0 1 19.6073 51.9341" />
<path d=" M 18.7473 51.8919 L 16.5874 51.8916 " />
<path d="M15.6549 51.9335 A2.25216 0.028528 2.47779e-05 0 1 16.561 51.9223" />
<path d=" M 13.2314 51.9332 L 13.2078 51.9606 " />
<path d="M16.5178 51.9724 A2.25216 0.028528 2.47779e-05 0 1 15.6313 51.9609" />
<path d=" M 16.4913 52.0031 L 18.6512 52.0034 " />
<path d="M19.5837 51.9615 A2.25216 0.028528 2.47779e-05 0 1 18.6777 51.9727" />
<path d=" M 22.0073 51.9618 L 22.0309 51.9344 " />
</g>
<g   fill="none"
   stroke="#bcbec0"
   stroke-linecap="round"
   stroke-linejoin="round"
   stroke-width="0.4px"
   transform="scale(1,-1) translate(60.51536651372161, -58.24860929400392)"
  >
<path d="M3.77261 33.869 A5.1 5.07433 -97.226 0 1 8.20585 28.8159" />
<path d="M8.20585 28.8159 A5.1 5.07433 -97.226 0 1 13.9221 33.8818" />
<path d="M6.64817 29.2768 A5.1 5.07433 -97.226 0 1 10.741 34.2852" />
<path d="M-18.4792 50.1533 A8.65 0.109569 2.47779e-05 0 1 -26.2687 50.0429" />
<path d="M-26.2687 50.0429 A8.65 0.109569 2.47779e-05 0 1 -16.7595 49.9353" />
<path d="M31.2731 50.2163 A8.65 0.109569 2.47779e-05 0 1 23.4837 50.1059" />
<path d="M23.4837 50.1059 A8.65 0.109569 2.47779e-05 0 1 32.9929 49.9983" />
<path d=" M -38.1158 18.2246 L -34.9347 17.8213 " />
<path d="M13.9221 33.8818 A5.1 5.07433 -97.226 0 1 9.48884 38.9349" />
<path d="M9.48884 38.9349 A5.1 5.07433 -97.226 0 1 3.77261 33.869" />
<path d=" M 52.6294 23.9317 L 52.6294 49.9296 " />
<path d=" M -34.9347 49.8187 L 52.6294 49.9296 " />
<path d=" M -34.9347 17.8213 L -34.9347 49.8187 " />
<path d="M-16.7595 49.9353 A8.65 0.109569 2.47779e-05 0 1 -8.97006 50.0429" />
<path d="M-8.97006 50.0429 A8.65 0.109569 2.47779e-05 0 1 -18.4792 50.1533" />
<path d="M32.9929 49.9983 A8.65 0.109569 2.47779e-05 0 1 40.7823 50.1059" />
<path d="M40.7823 50.1059 A8.65 0.109569 2.47779e-05 0 1 31.2731 50.2163" />
<path d=" M 52.6294 49.9296 L 49.4483 50.3329 " />
<path d=" M -38.1158 50.222 L 49.4483 50.3329 " />
<path d=" M -34.9347 49.8187 L -38.1158 50.222 " />
<path d="M10.741 34.2852 A5.1 5.07433 -97.226 0 1 7.86545 38.8774" />
<path d=" M -38.1158 50.222 L -38.1158 18.2246 " />
</g>
<g   fill="none"
   stroke="#bcbec0"
   stroke-linecap="butt"
   stroke-linejoin="miter"
   stroke-width="0.4px"
   transform="scale(1,-1) translate(60.51536651372161, -58.24860929400392)"
  >
<path d=" M 30.2682 11.5785 L 30.2682 -1.42049 " />
</g>
<g   fill="none"
   stroke="#bcbec0"
   stroke-linecap="round"
   stroke-linejoin="round"
   stroke-width="0.4px"
   transform="scale(1,-1) translate(60.51536651372161, -58.24860929400392)"
  >
<path d=" M 46.2605 6.74061 L 53.2259 5.85747 " />
<path d=" M 53.2259 5.85747 L 53.2259 -1.14197 " />
<path d=" M -34.3382 5.74662 L -34.3382 -1.25282 " />
<path d=" M -53.2259 8.14141 L -52.7374 8.07947 " />
<path d=" M -40.8016 6.56612 L -34.3382 5.74662 " />
<path d=" M -53.2259 1.14197 L -53.2259 8.14141 " />
<path d=" M -34.3382 -1.25282 L -53.2259 1.14197 " />
<path d=" M -53.2259 8.14141 L -52.7374 8.14203 " />
<path d=" M -53.2259 14.1409 L -53.2259 26.14 " />
<path d=" M -52.7374 26.1406 L -53.2259 26.14 " />
<path d=" M -53.2259 26.14 L -52.7374 26.078 " />
<path d=" M -40.8016 18.5652 L -34.9347 17.8213 " />
<path d=" M -34.9347 17.8213 L -34.9347 23.8208 " />
<path d=" M 52.6294 23.9317 L -34.9347 23.8208 " />
<path d=" M -34.9347 23.8208 L -34.3383 23.7452 " />
<path d=" M 53.2259 23.856 L -34.3383 23.7452 " />
<path d=" M 52.6294 23.9317 L 53.2259 23.856 " />
<path d=" M 53.2259 -1.14197 L 34.32 -1.1659 " />
<path d=" M 46.2605 5.84865 L 53.2259 5.85747 " />
<path d=" M 46.2605 11.8482 L 46.2605 5.84865 " />
<path d=" M 53.2259 11.857 L 46.2605 11.8482 " />
<path d=" M 53.2259 23.856 L 53.2259 11.857 " />
<path d=" M -34.3383 23.7452 L -34.3382 11.7461 " />
<path d=" M -27.3729 11.755 L -34.3382 11.7461 " />
<path d=" M -27.3729 5.75544 L -27.3729 11.755 " />
<path d=" M -34.3382 5.74662 L -27.3729 5.75544 " />
<path d=" M -15.4324 -1.22888 L -34.3382 -1.25282 " />
<path d="M30.2682 -1.19347 A6 0.0760015 -180 0 0 34.32 -1.1659" />
<path d="M24.8646 -1.49612 A6 0.0760015 2.47779e-05 0 1 30.2682 -1.42049" />
<path d=" M 18.3968 -1.50431 L 24.8646 -1.49612 " />
<path d=" M 17.1542 -1.34676 L 18.3968 -1.50431 " />
<path d="M5.46122 -1.30597 A6.5 0.082335 -180 0 0 17.1542 -1.34676" />
<path d=" M -1.00658 -1.52887 L 5.46122 -1.52068 " />
<path d="M-7.57331 -1.4608 A6 0.0760015 2.47779e-05 0 1 -1.00658 -1.52887" />
<path d=" M -8.86562 -1.29695 L -7.57331 -1.4608 " />
<path d="M-15.4324 -1.22888 A6 0.0760015 -180 0 0 -8.86562 -1.29695" />
<path d=" M -53.2259 14.1409 L -52.7374 14.079 " />
<path d=" M -40.8016 12.5656 L -34.3382 11.7461 " />
<path d=" M -34.8314 6.7011 L -27.3729 5.75544 " />
<path d="M-7.57332 11.5382 A6 0.0760015 2.47779e-05 0 1 -1.00659 11.4701" />
<path d=" M 5.46122 11.4783 L 5.46122 -1.52068 " />
<path d=" M -1.00659 11.4701 L 5.46122 11.4783 " />
<path d=" M 5.46122 11.4783 L 4.21861 11.6358 " />
<path d="M4.21861 11.6358 A6.5 0.082335 -180 0 0 4.18641 11.644" />
<path d="M4.18641 11.644 A6.5 0.082335 -180 0 0 17.1542 11.6522" />
<path d=" M 18.3968 11.4946 L 18.3968 -1.50431 " />
<path d=" M 17.1542 11.6522 L 18.3968 11.4946 " />
<path d=" M 18.3968 11.4946 L 24.8646 11.5028 " />
<path d="M24.8646 11.5028 A6 0.0760015 2.47779e-05 0 1 30.2682 11.5785" />
<path d="M30.2682 11.5785 A6 0.0760015 2.47779e-05 0 1 30.2385 11.586" />
<path d=" M 30.2385 11.586 L 28.9461 11.7499 " />
<path d="M28.9461 11.7499 A6 0.0760015 -180 0 0 28.9164 11.7574" />
<path d="M28.9164 11.7574 A6 0.0760015 -180 0 0 31.1192 11.8163" />
<path d="M34.32,12.833 C33.7543,12.6002 33.1959,12.365 32.66,12.1736  C32.1246,11.9848 31.5959,11.8237 31.1192,11.8163 " /><path d="M-12.0328,11.7616 C-12.5773,11.7678 -13.1562,11.9275 -13.7239,12.1149  C-14.2903,12.3044 -14.8671,12.5391 -15.4324,12.77 " /><path d="M-12.0328 11.7616 A6 0.0760015 -180 0 0 -8.86563 11.702" />
<path d=" M -8.86563 11.702 L -7.57332 11.5382 " />
</g>
<g   fill="none"
   stroke="#bcbec0"
   stroke-linecap="butt"
   stroke-linejoin="miter"
   stroke-width="0.4px"
   transform="scale(1,-1) translate(60.51536651372161, -58.24860929400392)"
  >
<path d=" M 24.233 50.0627 L 24.233 50.1073 " />
<path d=" M 40.033 50.0627 L 40.033 50.1073 " />
</g>
<g   fill="none"
   stroke="#bcbec0"
   stroke-linecap="round"
   stroke-linejoin="round"
   stroke-width="0.4px"
   transform="scale(1,-1) translate(60.51536651372161, -58.24860929400392)"
  >
<path d="M39.9105 50.1249 A7.9 0.100069 2.47779e-05 0 1 24.233 50.1073" />
<path d="M24.233 50.1073 A7.9 0.100069 2.47779e-05 0 1 24.3555 50.0897" />
<path d=" M 33.5429 50.0851 L 33.968 50.0548 " />
<path d="M33.5429,50.0851 L33.5425,50.0539 " /><path d="M32.8507,50.0523 L32.8495,50.1343 " /><path d=" M 32.4244 50.1646 L 32.8495 50.1343 " />
<path d=" M 32.4244 50.1646 L 32.4342 50.0514 " />
<path d=" M 31.8415 50.05 L 31.4164 50.0803 " />
<path d=" M 30.723 50.1295 L 30.2979 50.1598 " />
<path d="M30,50.0886 L29.9978,50.1164 " /><path d=" M 27.6117 50.111 L 29.9978 50.1164 " />
<path d=" M 30.3767 50.0894 L 27.9906 50.0841 " />
<path d=" M 36.6542 50.1036 L 34.2681 50.0982 " />
<path d=" M 33.8892 50.1252 L 36.2753 50.1305 " />
<path d="M33.8892,50.1252 L33.8841,50.0608 " /><path d=" M 36.2753 50.1305 L 36.2617 50.1027 " />
<path d="M24.3555 50.0897 A7.9 0.100069 2.47779e-05 0 1 40.033 50.1073" />
<path d="M40.033 50.1073 A7.9 0.100069 2.47779e-05 0 1 39.9105 50.1249" />
<path d="M33.5429 50.0851 A2.25216 0.028528 2.47779e-05 0 1 34.2681 50.0982" />
<path d=" M 33.968 50.0548 L 31.8415 50.05 " />
<path d="M30.3767 50.0894 A2.25216 0.028528 2.47779e-05 0 1 31.4164 50.0803" />
<path d=" M 27.9906 50.0841 L 27.6117 50.111 " />
<path d="M30.723 50.1295 A2.25216 0.028528 2.47779e-05 0 1 29.9978 50.1164" />
<path d=" M 30.2979 50.1598 L 32.4244 50.1646 " />
<path d="M33.8892 50.1252 A2.25216 0.028528 2.47779e-05 0 1 32.8495 50.1343" />
<path d=" M 36.2753 50.1305 L 36.6542 50.1036 " />
</g>
<g   fill="none"
   stroke="#191919"
   stroke-linecap="round"
   stroke-linejoin="round"
   stroke-width="0.4px"
   transform="scale(1,-1) translate(60.51536651372161, -58.24860929400392)"
  >
<path d="M6.66074 29.2793 A6.5 6.46728 -97.226 0 1 9.44821 34.6275" />
<path d="M5.12633 30.4032 A6.5 6.46728 -97.226 0 1 6.963 34.9426" />
<path d=" M -34.8314 6.57368 L -34.8314 11.8087 " />
<path d=" M -40.8016 12.5656 L -40.8016 18.5652 " />
<path d=" M -40.8016 18.5652 L -38.1158 18.5686 " />
<path d=" M 46.7625 50.6734 L 41.792 51.3036 " />
<path d=" M 46.7625 50.3295 L 46.7625 50.6734 " />
<path d=" M 41.792 51.3036 L -52.7374 51.184 " />
<path d=" M -47.767 50.5538 L -52.7374 51.184 " />
<path d=" M 46.7625 50.6734 L -47.767 50.5538 " />
<path d=" M -52.7374 51.184 L -52.7374 7.18751 " />
<path d=" M -47.767 6.55731 L -52.7374 7.18751 " />
<path d=" M -47.767 50.5538 L -47.767 6.55731 " />
<path d=" M -47.767 6.55731 L -34.8314 6.57368 " />
<path d="M9.44821 34.6275 A6.5 6.46728 -97.226 0 1 7.87699 38.8718" />
<path d="M6.963 34.9426 A6.5 6.46728 -97.226 0 1 6.11064 38.1665" />
</g>
<g   fill="none"
   stroke="#bcbec0"
   stroke-linecap="round"
   stroke-linejoin="round"
   stroke-width="0.4px"
   transform="scale(1,-1) translate(60.51536651372161, -58.24860929400392)"
  >
<path d="M18.4792 51.8385 A8.65 0.109569 2.47779e-05 0 1 26.2686 51.9461" />
<path d="M26.2686 51.9461 A8.65 0.109569 2.47779e-05 0 1 16.7594 52.0565" />
<path d="M-31.2731 51.7755 A8.65 0.109569 2.47779e-05 0 1 -23.4837 51.8831" />
<path d="M-23.4837 51.8831 A8.65 0.109569 2.47779e-05 0 1 -32.9929 51.9935" />
<path d=" M -52.6294 51.1841 L -52.6294 52.0623 " />
<path d=" M 34.9347 52.1731 L -52.6294 52.0623 " />
<path d="M16.7594 52.0565 A8.65 0.109569 2.47779e-05 0 1 8.97002 51.9461" />
<path d="M8.97002 51.9461 A8.65 0.109569 2.47779e-05 0 1 18.4792 51.8385" />
<path d="M-32.9929 51.9935 A8.65 0.109569 2.47779e-05 0 1 -40.7823 51.8831" />
<path d="M-40.7823 51.8831 A8.65 0.109569 2.47779e-05 0 1 -31.2731 51.7755" />
<path d=" M -52.6294 52.0623 L -49.4484 51.6589 " />
<path d=" M 38.1157 51.7698 L -49.4484 51.6589 " />
<path d=" M 34.9347 52.1731 L 38.1157 51.7698 " />
<path d=" M -49.4484 51.6589 L -49.4484 51.1881 " />
<path d=" M 38.1157 51.7698 L 38.1157 51.299 " />
</g>
<g   fill="none"
   stroke="#bcbec0"
   stroke-linecap="butt"
   stroke-linejoin="miter"
   stroke-width="0.4px"
   transform="scale(1,-1) translate(60.51536651372161, -58.24860929400392)"
  >
<path d=" M -40.033 51.8399 L -40.033 51.8845 " />
<path d=" M -24.233 51.8399 L -24.233 51.8845 " />
</g>
<g   fill="none"
   stroke="#bcbec0"
   stroke-linecap="round"
   stroke-linejoin="round"
   stroke-width="0.4px"
   transform="scale(1,-1) translate(60.51536651372161, -58.24860929400392)"
  >
<path d="M-24.243 51.8895 A7.9 0.100069 2.47779e-05 0 1 -40.033 51.8845" />
<path d="M-40.033 51.8845 A7.9 0.100069 2.47779e-05 0 1 -40.023 51.8795" />
<path d=" M -30.9551 51.8602 L -30.8335 51.8295 " />
<path d="M-30.9551,51.8602 L-30.9553,51.8295 " /><path d="M-31.1533,51.8293 L-31.1536,51.9102 " /><path d=" M -31.2753 51.9409 L -31.1536 51.9102 " />
<path d=" M -31.2753 51.9409 L -31.2725 51.8293 " />
<path d=" M -32.9907 51.8282 L -33.1124 51.8588 " />
<path d=" M -33.3109 51.9088 L -33.4326 51.9395 " />
<path d="M-34.1589,51.8695 L-34.1611,51.8969 " /><path d=" M -36.5817 51.8954 L -34.1611 51.8969 " />
<path d=" M -34.0526 51.8696 L -36.4732 51.8681 " />
<path d=" M -27.6843 51.8737 L -30.105 51.8721 " />
<path d=" M -30.2134 51.8994 L -27.7928 51.901 " />
<path d=" M -27.7928 51.901 L -27.8064 51.8736 " />
<path d="M-40.023 51.8795 A7.9 0.100069 2.47779e-05 0 1 -24.233 51.8845" />
<path d="M-24.233 51.8845 A7.9 0.100069 2.47779e-05 0 1 -24.243 51.8895" />
<path d="M-30.9551 51.8602 A2.25216 0.028528 2.47779e-05 0 1 -30.105 51.8721" />
<path d=" M -30.8335 51.8295 L -32.9907 51.8282 " />
<path d="M-34.0526 51.8696 A2.25216 0.028528 2.47779e-05 0 1 -33.1124 51.8588" />
<path d=" M -36.4732 51.8681 L -36.5817 51.8954 " />
<path d="M-33.3109 51.9088 A2.25216 0.028528 2.47779e-05 0 1 -34.1611 51.8969" />
<path d=" M -33.4326 51.9395 L -31.2753 51.9409 " />
<path d="M-30.2134 51.8994 A2.25216 0.028528 2.47779e-05 0 1 -31.1536 51.9102" />
<path d=" M -27.7928 51.901 L -27.6843 51.8737 " />
</g>
<g   fill="none"
   stroke="#bcbec0"
   stroke-linecap="butt"
   stroke-linejoin="miter"
   stroke-width="0.4px"
   transform="scale(1,-1) translate(60.51536651372161, -58.24860929400392)"
  >
<path d=" M -25.5194 49.9997 L -25.5194 50.0443 " />
<path d=" M -9.71937 49.9997 L -9.71937 50.0443 " />
</g>
<g   fill="none"
   stroke="#bcbec0"
   stroke-linecap="round"
   stroke-linejoin="round"
   stroke-width="0.4px"
   transform="scale(1,-1) translate(60.51536651372161, -58.24860929400392)"
  >
<path d="M-9.85371 50.0627 A7.9 0.100069 2.47779e-05 0 1 -25.5194 50.0443" />
<path d="M-25.5194 50.0443 A7.9 0.100069 2.47779e-05 0 1 -25.385 50.0259" />
<path d=" M -16.1948 50.0222 L -15.7497 49.992 " />
<path d="M-16.1948,50.0222 L-16.1953,49.991 " /><path d="M-16.9195,49.9893 L-16.9207,50.0714 " /><path d=" M -17.3657 50.1016 L -16.9207 50.0714 " />
<path d=" M -17.3657 50.1016 L -17.3554 49.9882 " />
<path d=" M -17.873 49.987 L -18.3181 50.0172 " />
<path d=" M -19.0439 50.0664 L -19.489 50.0966 " />
<path d="M-19.7582,50.0253 L-19.7604,50.0532 " /><path d=" M -22.1429 50.0475 L -19.7604 50.0532 " />
<path d=" M -19.3638 50.0263 L -21.7462 50.0206 " />
<path d=" M -13.0959 50.0411 L -15.4783 50.0355 " />
<path d=" M -15.875 50.0624 L -13.4925 50.068 " />
<path d="M-15.875,50.0624 L-15.8798,50.0009 " /><path d=" M -13.4925 50.068 L -13.5062 50.0401 " />
<path d="M-25.385 50.0259 A7.9 0.100069 2.47779e-05 0 1 -9.71937 50.0443" />
<path d="M-9.71937 50.0443 A7.9 0.100069 2.47779e-05 0 1 -9.85371 50.0627" />
<path d="M-16.1948 50.0222 A2.25216 0.028528 2.47779e-05 0 1 -15.4783 50.0355" />
<path d=" M -15.7497 49.992 L -17.873 49.987 " />
<path d="M-19.3638 50.0263 A2.25216 0.028528 2.47779e-05 0 1 -18.3181 50.0172" />
<path d=" M -21.7462 50.0206 L -22.1429 50.0475 " />
<path d="M-19.0439 50.0664 A2.25216 0.028528 2.47779e-05 0 1 -19.7604 50.0532" />
<path d=" M -19.489 50.0966 L -17.3657 50.1016 " />
<path d="M-15.875 50.0624 A2.25216 0.028528 2.47779e-05 0 1 -16.9207 50.0714" />
<path d=" M -13.4925 50.068 L -13.0959 50.0411 " />
</g>

</svg>