<?xml version="1.0" encoding="UTF-8" standalone="no"?>
<svg
   width="196.97569"
   height="153.0849"
   version="1.1"
   id="svg572"
   sodipodi:docname="step-4.1.svg"
   inkscape:version="1.1.2 (0a00cf5339, 2022-02-04)"
   xmlns:inkscape="http://www.inkscape.org/namespaces/inkscape"
   xmlns:sodipodi="http://sodipodi.sourceforge.net/DTD/sodipodi-0.dtd"
   xmlns="http://www.w3.org/2000/svg"
   xmlns:svg="http://www.w3.org/2000/svg">
  <defs
     id="defs576" />
  <sodipodi:namedview
     id="namedview574"
     pagecolor="#ffffff"
     bordercolor="#666666"
     borderopacity="1.0"
     inkscape:pageshadow="2"
     inkscape:pageopacity="0.0"
     inkscape:pagecheckerboard="0"
     showgrid="false"
     inkscape:zoom="5.0859915"
     inkscape:cx="91.919147"
     inkscape:cy="75.599812"
     inkscape:window-width="1550"
     inkscape:window-height="1080"
     inkscape:window-x="640"
     inkscape:window-y="20"
     inkscape:window-maximized="0"
     inkscape:current-layer="svg572" />
  <g
     fill="none"
     stroke="#bcbec0"
     stroke-linecap="butt"
     stroke-linejoin="miter"
     stroke-width="0.4px"
     transform="matrix(1,0,0,-1,98.4879,96.1384)"
     id="g6">
    <path
       d="m 41.8411,81.0373 v 0.6124"
       id="path2" />
    <path
       d="m 26.0411,81.0373 v 0.6124"
       id="path4" />
  </g>
  <g
     fill="none"
     stroke="#bcbec0"
     stroke-linecap="round"
     stroke-linejoin="round"
     stroke-width="0.4px"
     transform="matrix(1,0,0,-1,98.4879,96.1384)"
     id="g72">
    <path
       d="m 39.7804,77.9652 a 7.9,4.56107 2.02881e-5 0 1 2.0607,3.0721"
       id="path8" />
    <path
       d="m 39.2449,78.2694 a 7.9,4.56107 2.02881e-5 0 1 2.5962,3.3803"
       id="path10" />
    <path
       d="M 41.8411,81.6497 A 7.9,4.56107 2.02881e-5 0 1 28.6373,85.03"
       id="path12" />
    <path
       d="M 33.2015,80.4215 31.4053,79.482"
       id="path14" />
    <path
       d="m 36.0813,81.2448 0.0496,0.7088"
       id="path16" />
    <path
       d="M 37.9271,82.8931 36.1309,81.9536"
       id="path18" />
    <path
       d="m 31.8743,79.7274 -0.123,1.6183"
       id="path20" />
    <path
       d="m 29.9551,80.4063 1.7962,0.9394"
       id="path22" />
    <path
       d="m 34.6807,82.8778 1.7963,0.9395"
       id="path24" />
    <path
       d="M 34.6807,82.8778 34.5028,80.3629"
       id="path26" />
    <path
       d="M 36.477,83.8173 35.0786,79.996"
       id="path28" />
    <path
       d="m 33.5773,80.3665 -0.1626,2.5474"
       id="path30" />
    <path
       d="m 31.7875,83.951 1.6272,-1.0371"
       id="path32" />
    <path
       d="m 31.7875,83.951 1.186,-3.6488"
       id="path34" />
    <path
       d="m 31.8139,82.0767 -1.6272,1.037"
       id="path36" />
    <path
       d="m 31.8139,82.0767 0.1468,-2.3041"
       id="path38" />
    <path
       d="m 36.0947,79.3483 -1.6272,1.0371"
       id="path40" />
    <path
       d="m 36.0684,81.2227 1.6272,-1.0371"
       id="path42" />
    <path
       d="M 36.0684,81.2227 35.9453,79.4436"
       id="path44" />
    <path
       d="M 28.6373,85.03 A 7.9,4.56107 2.02881e-5 0 1 26.0411,81.6497"
       id="path46" />
    <path
       d="M 26.0411,81.6497 A 7.9,4.56107 2.02881e-5 0 1 39.2449,78.2694"
       id="path48" />
    <path
       d="m 33.2015,80.4215 a 2.25216,1.30029 2.02881e-5 0 1 1.266,-0.0361"
       id="path50" />
    <path
       d="m 31.4053,79.482 -1.4502,0.9243"
       id="path52" />
    <path
       d="M 31.8139,82.0767 A 2.25216,1.30029 2.02881e-5 0 1 31.6917,81.5854"
       id="path54" />
    <path
       d="m 31.6917,81.5854 a 2.25216,1.30029 2.02881e-5 0 1 0.0596,-0.2397"
       id="path56" />
    <path
       d="m 30.1867,83.1137 1.6008,0.8373"
       id="path58" />
    <path
       d="m 34.6807,82.8778 a 2.25216,1.30029 2.02881e-5 0 1 -1.266,0.0361"
       id="path60" />
    <path
       d="m 36.477,83.8173 1.4501,-0.9242"
       id="path62" />
    <path
       d="m 36.0684,81.2227 a 2.25216,1.30029 2.02881e-5 0 1 0.1221,0.3627"
       id="path64" />
    <path
       d="m 36.1905,81.5854 a 2.25216,1.30029 2.02881e-5 0 1 -0.0596,0.3682"
       id="path66" />
    <path
       d="M 37.6956,80.1856 36.0947,79.3483"
       id="path68" />
    <path
       d="m 26.0411,81.0373 a 7.9,4.56107 2.02881e-5 0 1 2.0607,-3.0721"
       id="path70" />
  </g>
  <g
     fill="none"
     stroke="#bcbec0"
     stroke-linecap="butt"
     stroke-linejoin="miter"
     stroke-width="0.4px"
     transform="matrix(1,0,0,-1,98.4879,96.1384)"
     id="g78">
    <path
       d="m 77.1965,60.6249 v 0.6124"
       id="path74" />
    <path
       d="m 61.3965,60.6249 v 0.6124"
       id="path76" />
  </g>
  <g
     fill="none"
     stroke="#bcbec0"
     stroke-linecap="round"
     stroke-linejoin="round"
     stroke-width="0.4px"
     transform="matrix(1,0,0,-1,98.4879,96.1384)"
     id="g144">
    <path
       d="m 75.1357,57.5528 a 7.9,4.56107 2.02881e-5 0 1 2.0608,3.0721"
       id="path80" />
    <path
       d="m 74.3661,57.7392 a 7.9,4.56107 2.02881e-5 0 1 2.8304,3.4981"
       id="path82" />
    <path
       d="m 77.1965,61.2373 a 7.9,4.56107 2.02881e-5 0 1 -12.9697,3.498"
       id="path84" />
    <path
       d="M 68.4738,60.0268 66.615,59.1288"
       id="path86" />
    <path
       d="m 71.4608,60.8776 0.0444,0.6137"
       id="path88" />
    <path
       d="M 73.364,62.3892 71.5052,61.4913"
       id="path90" />
    <path
       d="m 67.2106,59.4166 -0.1229,1.5666"
       id="path92" />
    <path
       d="m 65.2289,60.0853 1.8588,0.8979"
       id="path94" />
    <path
       d="m 70.1191,62.4477 1.8588,0.898"
       id="path96" />
    <path
       d="m 70.1191,62.4477 -0.192,-2.6172"
       id="path98" />
    <path
       d="m 71.9779,63.3457 -1.4902,-3.902"
       id="path100" />
    <path
       d="m 69.0128,59.9473 -0.1563,2.5652"
       id="path102" />
    <path
       d="m 67.3011,63.5857 1.5554,-1.0732"
       id="path104" />
    <path
       d="m 67.3011,63.5857 1.1075,-3.5904"
       id="path106" />
    <path
       d="m 67.1999,61.7122 -1.5553,1.0732"
       id="path108" />
    <path
       d="m 67.1999,61.7122 0.1359,-2.2351"
       id="path110" />
    <path
       d="M 71.2918,58.8888 69.7364,59.962"
       id="path112" />
    <path
       d="m 71.393,60.7623 1.5553,-1.0732"
       id="path114" />
    <path
       d="M 71.393,60.7623 71.2698,58.904"
       id="path116" />
    <path
       d="m 64.2268,64.7353 a 7.9,4.56107 2.02881e-5 0 1 -2.8303,-3.498"
       id="path118" />
    <path
       d="M 61.3965,61.2373 A 7.9,4.56107 2.02881e-5 0 1 74.3661,57.7392"
       id="path120" />
    <path
       d="M 68.4738,60.0268 A 2.25216,1.30029 2.02881e-5 0 1 69.7364,59.962"
       id="path122" />
    <path
       d="m 66.615,59.1288 -1.3861,0.9565"
       id="path124" />
    <path
       d="M 67.1999,61.7122 A 2.25216,1.30029 2.02881e-5 0 1 67.047,61.173"
       id="path126" />
    <path
       d="m 67.047,61.173 a 2.25216,1.30029 2.02881e-5 0 1 0.0407,-0.1898"
       id="path128" />
    <path
       d="m 65.6446,62.7854 1.6565,0.8003"
       id="path130" />
    <path
       d="m 70.1191,62.4477 a 2.25216,1.30029 2.02881e-5 0 1 -1.2626,0.0648"
       id="path132" />
    <path
       d="M 71.9779,63.3457 73.364,62.3892"
       id="path134" />
    <path
       d="m 71.393,60.7623 a 2.25216,1.30029 2.02881e-5 0 1 0.1529,0.4107"
       id="path136" />
    <path
       d="m 71.5459,61.173 a 2.25216,1.30029 2.02881e-5 0 1 -0.0407,0.3183"
       id="path138" />
    <path
       d="M 72.9483,59.6891 71.2918,58.8888"
       id="path140" />
    <path
       d="m 61.3965,60.6249 a 7.9,4.56107 2.02881e-5 0 1 2.0607,-3.0721"
       id="path142" />
  </g>
  <g
     fill="none"
     stroke="#bcbec0"
     stroke-linecap="butt"
     stroke-linejoin="miter"
     stroke-width="0.4px"
     transform="matrix(1,0,0,-1,98.4879,96.1384)"
     id="g150">
    <path
       d="m -61.3965,21.433 v 0.6124"
       id="path146" />
    <path
       d="m -77.1965,21.433 v 0.6124"
       id="path148" />
  </g>
  <g
     fill="none"
     stroke="#bcbec0"
     stroke-linecap="round"
     stroke-linejoin="round"
     stroke-width="0.4px"
     transform="matrix(1,0,0,-1,98.4879,96.1384)"
     id="g218">
    <path
       d="m -63.2557,18.4937 a 7.9,4.56107 2.02881e-5 0 1 1.8592,2.9393"
       id="path152" />
    <path
       d="m -63.2557,19.1061 a 7.9,4.56107 2.02881e-5 0 1 1.8592,2.9393"
       id="path154" />
    <path
       d="m -61.3965,22.0454 a 7.9,4.56107 2.02881e-5 0 1 -13.9408,2.9393"
       id="path156" />
    <path
       d="m -69.7443,20.7711 -1.5619,-1.07"
       id="path158" />
    <path
       d="m -67.3339,20.275 0.1369,2.2411"
       id="path160" />
    <path
       d="M -65.6351,23.586 -67.197,22.5161"
       id="path162" />
    <path
       d="m -71.2728,19.724 -0.1231,1.8507"
       id="path164" />
    <path
       d="m -72.9578,20.5047 1.5619,1.07"
       id="path166" />
    <path
       d="m -68.8487,23.3197 1.5619,1.07"
       id="path168" />
    <path
       d="M -68.8487,23.3197 -69.0056,20.756"
       id="path170" />
    <path
       d="m -67.2868,24.3897 -1.1144,-3.5954"
       id="path172" />
    <path
       d="m -69.921,20.65 -0.1907,2.6075"
       id="path174" />
    <path
       d="m -71.965,24.1593 1.8533,-0.9018"
       id="path176" />
    <path
       d="m -71.965,24.1593 1.4818,-3.8945"
       id="path178" />
    <path
       d="m -71.5037,22.3039 -1.8533,0.9018"
       id="path180" />
    <path
       d="m -71.5037,22.3039 0.045,-0.6223"
       id="path182" />
    <path
       d="m -66.628,19.9315 -1.8533,0.9018"
       id="path184" />
    <path
       d="m -67.0893,21.7869 1.8533,-0.9018"
       id="path186" />
    <path
       d="m -67.0893,21.7869 -0.1229,-1.5711"
       id="path188" />
    <path
       d="m -75.3373,24.9847 a 7.9,4.56107 2.02881e-5 0 1 -1.8592,-2.9393"
       id="path190" />
    <path
       d="m -77.1965,22.0454 a 7.9,4.56107 2.02881e-5 0 1 13.9408,-2.9393"
       id="path192" />
    <path
       d="m -69.7443,20.7711 a 2.25216,1.30029 2.02881e-5 0 1 1.263,0.0622"
       id="path194" />
    <path
       d="m -71.3062,19.7011 -1.6516,0.8036"
       id="path196" />
    <path
       d="m -71.5037,22.3039 a 2.25216,1.30029 2.02881e-5 0 1 -0.0422,-0.3228"
       id="path198" />
    <path
       d="m -71.5459,21.9811 a 2.25216,1.30029 2.02881e-5 0 1 0.15,-0.4064"
       id="path200" />
    <path
       d="m -73.357,23.2057 1.392,0.9536"
       id="path202" />
    <path
       d="m -68.8487,23.3197 a 2.25216,1.30029 2.02881e-5 0 1 -1.263,-0.0622"
       id="path204" />
    <path
       d="m -67.2868,24.3897 1.6517,-0.8037"
       id="path206" />
    <path
       d="m -67.0893,21.7869 a 2.25216,1.30029 2.02881e-5 0 1 0.0422,0.1942"
       id="path208" />
    <path
       d="m -67.0471,21.9811 a 2.25216,1.30029 2.02881e-5 0 1 -0.1499,0.535"
       id="path210" />
    <path
       d="m -65.236,20.8851 -1.392,-0.9536"
       id="path212" />
    <path
       d="m -77.1965,21.433 a 7.9,4.56107 2.02881e-5 0 1 2.0607,-3.0721"
       id="path214" />
    <path
       d="m -63.4572,18.361 a 7.9,4.56107 2.02881e-5 0 1 0.2015,0.1327"
       id="path216" />
  </g>
  <g
     fill="none"
     stroke="#191919"
     stroke-linecap="round"
     stroke-linejoin="round"
     stroke-width="0.4px"
     transform="matrix(1,0,0,-1,98.4879,96.1384)"
     id="g262">
    <path
       d="m -25.7964,18.9911 a 6.5,3.75278 120 0 1 7.8462,-8.2828"
       id="path220" />
    <path
       d="m -17.9502,10.7083 a 6.5,3.75278 120 0 1 1.3462,2.9755"
       id="path222" />
    <path
       d="m 27.5902,12.3366 a 3.4,1.96299 -120 0 1 1.7,5.7206"
       id="path224" />
    <path
       d="m 29.2902,18.0572 a 3.4,1.96299 -120 0 1 -1.7,-0.1684"
       id="path226" />
    <path
       d="m 27.5902,-1.54381 a 3.4,1.96299 -120 0 1 1.7,5.72057"
       id="path228" />
    <path
       d="m 29.2902,4.17676 a 3.4,1.96299 -120 0 1 -1.7,-0.1684"
       id="path230" />
    <path
       d="M 9.91252,-14.6894 45.2679,5.72301"
       id="path232" />
    <path
       d="M -9.1924,-3.65918 9.91252,-14.6894"
       id="path234" />
    <path
       d="m 27.5902,17.8888 a 3.4,1.96299 -120 0 1 -1.7,-5.7206"
       id="path236" />
    <path
       d="m 25.8902,12.1682 a 3.4,1.96299 -120 0 1 1.7,0.1684"
       id="path238" />
    <path
       d="m 27.5902,4.00836 a 3.4,1.96299 -120 0 1 -1.7,-5.72057"
       id="path240" />
    <path
       d="m 25.8902,-1.71221 a 3.4,1.96299 -120 0 1 1.7,0.1684"
       id="path242" />
    <path
       d="M 45.2679,5.72301 V 31.8509"
       id="path244" />
    <path
       d="M 9.91251,11.4385 45.2679,31.8509"
       id="path246" />
    <path
       d="m 9.91252,-14.6894 -1e-5,26.1279"
       id="path248" />
    <path
       d="M 45.2679,31.8509 -21.9073,70.6345"
       id="path250" />
    <path
       d="m -57.2626,50.2221 35.3553,20.4124"
       id="path252" />
    <path
       d="M 9.91251,11.4385 -57.2626,50.2221"
       id="path254" />
    <path
       d="M -57.2626,50.2221 V 28.1616"
       id="path256" />
    <path
       d="m -16.604,13.6838 a 6.5,3.75278 120 0 1 -7.8462,8.2828"
       id="path258" />
    <path
       d="m -24.4502,21.9666 a 6.5,3.75278 120 0 1 -1.3462,-2.9755"
       id="path260" />
  </g>
  <g
     fill="none"
     stroke="#bcbec0"
     stroke-linecap="butt"
     stroke-linejoin="miter"
     stroke-width="0.4px"
     transform="matrix(1,0,0,-1,98.4879,96.1384)"
     id="g268">
    <path
       d="M -95.8026,-30.6186 V -41.2331"
       id="path264" />
    <path
       d="M 95.8026,51.8476 V 42.668"
       id="path266" />
  </g>
  <g
     fill="none"
     stroke="#bcbec0"
     stroke-linecap="round"
     stroke-linejoin="round"
     stroke-width="0.4px"
     transform="matrix(1,0,0,-1,98.4879,96.1384)"
     id="g390">
    <path
       d="M 98.2878,26.5362 -36.0625,-51.031"
       id="path270" />
    <path
       d="m -36.0625,-51.031 v -5.7155"
       id="path272" />
    <path
       d="M -36.0625,-56.7465 98.2878,20.8207"
       id="path274" />
    <path
       d="m 98.2878,20.8207 v 5.7155"
       id="path276" />
    <path
       d="m -98.2878,-15.1052 v -5.7155"
       id="path278" />
    <path
       d="m -94.0452,-12.6557 -4.2426,-2.4495"
       id="path280" />
    <path
       d="m 98.2878,41.2331 -4.2426,2.4495"
       id="path282" />
    <path
       d="m 98.2878,31.4351 v 9.798"
       id="path284" />
    <path
       d="m 94.0452,28.9857 4.2426,-2.4495"
       id="path286" />
    <path
       d="M 98.2878,41.2331 94.0452,38.7836"
       id="path288" />
    <path
       d="m 94.0452,38.7836 v -4.899"
       id="path290" />
    <path
       d="M 9.19239,56.7465 5.66988,54.7128"
       id="path292" />
    <path
       d="M 94.0452,33.8846 -31.8198,-38.7836"
       id="path294" />
    <path
       d="M -31.8198,-33.8846 -94.0452,2.04122"
       id="path296" />
    <path
       d="m -31.8198,-38.7836 v 4.899"
       id="path298" />
    <path
       d="m -94.0452,2.04122 -4.2427,-2.449491"
       id="path300" />
    <path
       d="M -36.0625,-36.3341 -98.2879,-0.408271"
       id="path302" />
    <path
       d="m -31.8198,-33.8846 -4.2427,-2.4495"
       id="path304" />
    <path
       d="m -36.0625,-56.7465 -13.435,7.7567"
       id="path306" />
    <path
       d="m -41.0122,-48.1733 4.9497,-2.8577"
       id="path308" />
    <path
       d="m -41.0122,-43.2743 v -4.899"
       id="path310" />
    <path
       d="m -36.0625,-46.1321 -4.9497,2.8578"
       id="path312" />
    <path
       d="m -36.0625,-36.3341 v -9.798"
       id="path314" />
    <path
       d="m -98.2879,-0.408271 10e-5,-9.797929"
       id="path316" />
    <path
       d="m -93.3381,-13.064 -4.9497,2.8578"
       id="path318" />
    <path
       d="m -93.3381,-17.9629 v 4.8989"
       id="path320" />
    <path
       d="m -98.2878,-15.1052 4.9497,-2.8577"
       id="path322" />
    <path
       d="m -89.8026,-25.7197 -8.4852,4.899"
       id="path324" />
    <path
       d="m -57.9828,-48.9898 a 6,3.4641 -180 0 0 8.4853,0"
       id="path326" />
    <path
       d="m -67.1751,-54.297 9.1923,5.3072"
       id="path328" />
    <path
       d="m -75.6604,-54.297 a 6,3.4641 2.02881e-5 0 1 8.4853,0"
       id="path330" />
    <path
       d="m -80.2566,-51.6434 4.5962,-2.6536"
       id="path332" />
    <path
       d="m -80.6102,-41.2331 a 6.5,3.75278 -180 0 0 0.3536,0.1895"
       id="path334" />
    <path
       d="m -89.449,-46.3362 8.8388,5.1031"
       id="path336" />
    <path
       d="m -94.0452,-43.6826 4.5962,-2.6536"
       id="path338" />
    <path
       d="m -95.8026,-41.2331 a 6,3.4641 2.02881e-5 0 1 1.7574,-2.4495"
       id="path340" />
    <path
       d="M 98.2878,31.4351 -36.0625,-46.1321"
       id="path342" />
    <path
       d="m -36.7696,-45.7238 -4.2426,-2.4495"
       id="path344" />
    <path
       d="m -94.0452,-28.1692 a 6,3.4641 2.02881e-5 0 1 -1.7574,-2.4494"
       id="path346" />
    <path
       d="m -95.8026,-30.6186 a 6,3.4641 2.02881e-5 0 1 1.7574,-2.4495"
       id="path348" />
    <path
       d="M -89.449,-35.7217 V -46.3362"
       id="path350" />
    <path
       d="m -94.0452,-33.0681 4.5962,-2.6536"
       id="path352" />
    <path
       d="m -89.449,-35.7217 8.8388,5.1031"
       id="path354" />
    <path
       d="m -80.6102,-30.6186 a 6.5,3.75278 -180 0 0 11.0962,-2.6537"
       id="path356" />
    <path
       d="m -69.514,-33.2723 a 6.5,3.75278 -180 0 0 -1.9038,-2.6536"
       id="path358" />
    <path
       d="M -80.2566,-41.029 V -51.6434"
       id="path360" />
    <path
       d="m -71.4178,-35.9259 -8.8388,-5.1031"
       id="path362" />
    <path
       d="m -80.2566,-41.029 4.5962,-2.6536"
       id="path364" />
    <path
       d="m -75.6604,-43.6826 a 6,3.4641 2.02881e-5 0 1 8.4852,0"
       id="path366" />
    <path
       d="m -67.1752,-43.6826 9.1924,5.3072"
       id="path368" />
    <path
       d="m -57.9828,-38.3754 a 6,3.4641 -180 0 0 5.433,0.9458"
       id="path370" />
    <path
       d="m -49.4975,-37.5589 c -0.402,0.0426 -0.8614,0.0515 -1.3692,0.0574 -0.5069,0.008 -1.079,0.0037 -1.6831,0.0719"
       id="path372" />
    <path
       d="m -83.2147,-19.7252 c -0.1217,0.3508 -0.3366,0.8095 -0.6136,1.2541 -0.2758,0.4458 -0.6229,0.9036 -1.0245,1.3247"
       id="path374" />
    <path
       d="m -83.2147,-19.7252 a 6,3.4641 -180 0 0 0.1192,-0.6872"
       id="path376" />
    <path
       d="m -83.0955,-20.4124 a 6,3.4641 -180 0 0 -1.7573,-2.4495"
       id="path378" />
    <path
       d="m -84.8528,-22.8619 -9.1924,-5.3073"
       id="path380" />
    <path
       d="m 94.0452,49.3981 a 6,3.4641 2.02881e-5 0 1 1.7574,2.4495"
       id="path382" />
    <path
       d="M 95.8026,51.8476 A 6,3.4641 2.02881e-5 0 1 94.0452,54.297"
       id="path384" />
    <path
       d="m 94.0452,54.297 v 1e-4"
       id="path386" />
    <path
       d="m 94.0452,49.3981 v 0"
       id="path388" />
  </g>
  <g
     fill="none"
     stroke="#bcbec0"
     stroke-linecap="round"
     stroke-linejoin="round"
     stroke-width="0.4px"
     transform="matrix(1,0,0,-1,98.4879,96.1384)"
     id="g444">
    <path
       d="M 63.18,57.7059"
       id="path392" />
    <path
       d="m 63.18,57.7059 a 8.65,4.99408 2.02881e-5 0 1 12.2329,0"
       id="path394" />
    <path
       d="m 75.4129,57.7059 a 8.65,4.99408 2.02881e-5 0 1 0,7.0627"
       id="path396" />
    <path
       d="m 63.18,57.7059 v 0"
       id="path398" />
    <path
       d="M 27.8246,78.1183"
       id="path400" />
    <path
       d="m 27.8246,78.1183 a 8.65,4.99408 2.02881e-5 0 1 12.233,0"
       id="path402" />
    <path
       d="m 40.0576,78.1183 a 8.65,4.99408 2.02881e-5 0 1 0,7.0627"
       id="path404" />
    <path
       d="m 27.8246,78.1183 v 0"
       id="path406" />
    <path
       d="M 71.4178,20.8207 94.0452,33.8846"
       id="path408" />
    <path
       d="M 71.4178,20.8207 9.19239,56.7465"
       id="path410" />
    <path
       d="M 94.0452,60.0125 31.8198,95.9384"
       id="path412" />
    <path
       d="M 94.0452,33.8846 V 60.0125"
       id="path414" />
    <path
       d="M 75.4129,64.7686 A 8.65,4.99408 2.02881e-5 0 1 63.18,57.7059"
       id="path416" />
    <path
       d="M 40.0576,85.181 A 8.6500213,4.9940923 2.02881e-5 0 1 27.8246,78.1183"
       id="path418" />
    <path
       d="M 31.8198,95.9384 9.19238,82.8744"
       id="path420" />
    <path
       d="M 71.4178,46.9486 9.19238,82.8744"
       id="path422" />
    <path
       d="M 94.0452,60.0125 71.4178,46.9486"
       id="path424" />
    <path
       d="M 9.19238,82.8744 V 75.1177"
       id="path426" />
    <path
       d="M 71.4178,39.1919 9.19238,75.1177"
       id="path428" />
    <path
       d="M 71.4178,46.9486 V 39.1919"
       id="path430" />
    <path
       d="M 71.4178,39.1919 76.014,36.5382"
       id="path432" />
    <path
       d="M 13.7886,72.4641 9.19238,64.5032"
       id="path434" />
    <path
       d="M 71.4178,28.5774 9.19238,64.5032"
       id="path436" />
    <path
       d="M 76.014,36.5382 71.4178,28.5774"
       id="path438" />
    <path
       d="m 9.19238,64.5032 10e-6,-7.7567"
       id="path440" />
    <path
       d="M 71.4178,28.5774 V 20.8207"
       id="path442" />
  </g>
  <g
     fill="none"
     stroke="#bcbec0"
     stroke-linecap="butt"
     stroke-linejoin="miter"
     stroke-width="0.4px"
     transform="matrix(1,0,0,-1,98.4879,96.1384)"
     id="g450">
    <path
       d="m -40.0576,-1.89837 v 0"
       id="path446" />
    <path
       d="m -75.413,18.514 v 0"
       id="path448" />
  </g>
  <g
     fill="none"
     stroke="#bcbec0"
     stroke-linecap="round"
     stroke-linejoin="round"
     stroke-width="0.4px"
     transform="matrix(1,0,0,-1,98.4879,96.1384)"
     id="g496">
    <path
       d="m -66.5388,-5.67467 a 5.1,2.94449 120 0 1 6.1563,-6.49883"
       id="path452" />
    <path
       d="m -60.3825,-12.1735 a 5.1,2.94449 120 0 1 1.0562,2.3347"
       id="path454" />
    <path
       d="m -75.413,18.514 v 0"
       id="path456" />
    <path
       d="M -63.18,25.5767 A 8.6500213,4.9940923 2.02881e-5 0 1 -75.413,18.514"
       id="path458" />
    <path
       d="m -40.0576,-1.89837 v 0"
       id="path460" />
    <path
       d="m -27.8247,5.16433 a 8.65,4.99408 2.02881e-5 0 1 -12.2329,-7.0627"
       id="path462" />
    <path
       d="m -9.1924,-25.7196 -22.6274,-13.064"
       id="path464" />
    <path
       d="m -59.3263,-9.8388 a 5.1,2.94449 120 0 1 -6.1562,6.49879"
       id="path466" />
    <path
       d="m -65.4825,-3.34001 a 5.1,2.94449 120 0 1 -1.0563,-2.33466"
       id="path468" />
    <path
       d="m -31.8198,-38.7836 v 26.1279"
       id="path470" />
    <path
       d="m -94.0452,23.2701 62.2254,-35.9258"
       id="path472" />
    <path
       d="M -94.0452,2.04122 V 23.2701"
       id="path474" />
    <path
       d="M -75.413,18.514"
       id="path476" />
    <path
       d="m -75.413,18.514 a 8.65,4.99408 2.02881e-5 0 1 12.233,0"
       id="path478" />
    <path
       d="m -63.18,18.514 a 8.65,4.99408 2.02881e-5 0 1 0,7.0627"
       id="path480" />
    <path
       d="M -40.0576,-1.89837"
       id="path482" />
    <path
       d="m -40.0576,-1.89837 a 8.65,4.99408 2.02881e-5 0 1 12.2329,10e-6"
       id="path484" />
    <path
       d="m -27.8247,-1.89836 a 8.65,4.99408 2.02881e-5 0 1 0,7.06269"
       id="path486" />
    <path
       d="M -31.8198,-12.6557 -9.19241,0.408242"
       id="path488" />
    <path
       d="M -71.4178,36.3341 -9.19241,0.408242"
       id="path490" />
    <path
       d="m -94.0452,23.2701 22.6274,13.064"
       id="path492" />
    <path
       d="m -9.19241,0.408242 1e-5,-26.127842"
       id="path494" />
  </g>
  <g
     fill="none"
     stroke="#bcbec0"
     stroke-linecap="butt"
     stroke-linejoin="miter"
     stroke-width="0.4px"
     transform="matrix(1,0,0,-1,98.4879,96.1384)"
     id="g502">
    <path
       d="M -26.0411,1.02061 V 1.63298"
       id="path498" />
    <path
       d="M -41.8411,1.02061 V 1.63298"
       id="path500" />
  </g>
  <g
     fill="none"
     stroke="#bcbec0"
     stroke-linecap="round"
     stroke-linejoin="round"
     stroke-width="0.4px"
     transform="matrix(1,0,0,-1,98.4879,96.1384)"
     id="g570">
    <path
       d="m -27.9431,-1.94776 a 7.9,4.56107 2.02881e-5 0 1 1.902,2.96837"
       id="path504" />
    <path
       d="m -27.9431,-1.33539 a 7.9,4.56107 2.02881e-5 0 1 1.902,2.96837"
       id="path506" />
    <path
       d="M -26.0411,1.63298 A 7.9,4.56107 2.02881e-5 0 1 -39.9392,4.60135"
       id="path508" />
    <path
       d="m -34.4074,0.360859 -1.5773,-1.06242"
       id="path510" />
    <path
       d="M -31.9741,-0.161743 -31.835,2.0935"
       id="path512" />
    <path
       d="M -30.2576,3.15592 -31.835,2.0935"
       id="path514" />
    <path
       d="M -35.9242,-0.660791 -36.0473,1.17246"
       id="path516" />
    <path
       d="m -37.6247,0.110043 1.5774,1.062417"
       id="path518" />
    <path
       d="m -33.4749,2.9051 1.5773,1.06242"
       id="path520" />
    <path
       d="M -33.4749,2.9051 -33.6332,0.344905"
       id="path522" />
    <path
       d="M -31.8976,3.96752 -33.0285,0.360058"
       id="path524" />
    <path
       d="M -34.5512,0.264007 -34.7388,2.84899"
       id="path526" />
    <path
       d="m -36.5789,3.75967 1.8401,-0.91068"
       id="path528" />
    <path
       d="m -36.5789,3.75967 1.4619,-3.876797"
       id="path530" />
    <path
       d="m -36.1445,1.90215 -1.8402,0.91068"
       id="path532" />
    <path
       d="m -36.1445,1.90215 0.0461,-0.64259"
       id="path534" />
    <path
       d="m -31.3033,-0.493705 -1.8402,0.910681"
       id="path536" />
    <path
       d="m -31.7378,1.36381 1.8402,-0.910678"
       id="path538" />
    <path
       d="m -31.7378,1.36381 -0.1229,-1.581689"
       id="path540" />
    <path
       d="M -39.9392,4.60135 A 7.9,4.56107 2.02881e-5 0 1 -41.8411,1.63298"
       id="path542" />
    <path
       d="m -41.8411,1.63298 a 7.9,4.56107 2.02881e-5 0 1 13.898,-2.96837"
       id="path544" />
    <path
       d="m -34.4074,0.360859 a 2.25216,1.30029 2.02881e-5 0 1 1.2639,0.056117"
       id="path546" />
    <path
       d="m -35.9847,-0.701561 -1.64,0.811604"
       id="path548" />
    <path
       d="M -36.1445,1.90215 A 2.25216,1.30029 2.02881e-5 0 1 -36.1906,1.56869"
       id="path550" />
    <path
       d="m -36.1906,1.56869 a 2.25216,1.30029 2.02881e-5 0 1 0.1433,-0.39623"
       id="path552" />
    <path
       d="m -37.9847,2.81283 1.4058,0.94684"
       id="path554" />
    <path
       d="M -33.4749,2.9051 A 2.25216,1.30029 2.02881e-5 0 1 -34.7388,2.84899"
       id="path556" />
    <path
       d="m -31.8976,3.96752 1.64,-0.8116"
       id="path558" />
    <path
       d="m -31.7378,1.36381 a 2.25216,1.30029 2.02881e-5 0 1 0.0461,0.20488"
       id="path560" />
    <path
       d="M -31.6917,1.56869 A 2.25216,1.30029 2.02881e-5 0 1 -31.835,2.0935"
       id="path562" />
    <path
       d="m -29.8976,0.453132 -1.4057,-0.946837"
       id="path564" />
    <path
       d="m -41.8411,1.02061 a 7.9,4.56107 2.02881e-5 0 1 2.0607,-3.07207"
       id="path566" />
    <path
       d="m -28.1019,-2.05146 a 7.9,4.56107 2.02881e-5 0 1 0.1588,0.1037"
       id="path568" />
  </g>
</svg>
