<svg
       width="83.79708640685749"
       height="64.88172335896185"
	xmlns="http://www.w3.org/2000/svg" version="1.1"
	xmlns:freecad="http://www.freecadweb.org/wiki/index.php?title=Svg_Namespace">
<g   fill="none"
   stroke="#ed2124"
   stroke-linecap="round"
   stroke-linejoin="round"
   stroke-width="0.4px"
   transform="scale(1,-1) translate(-11.891137024085891, -59.46292537697143)"
  >
<path d=" M 86.6239 25.6582 L 70.284 25.6868 " />
<path d=" M 62.4139 25.7006 L 43.5238 25.7338 " />
</g>
<g   fill="none"
   stroke="#191919"
   stroke-linecap="butt"
   stroke-linejoin="miter"
   stroke-width="0.4px"
   transform="scale(1,-1) translate(-11.891137024085891, -59.46292537697143)"
  >
<path d=" M 87.2799 29.657 L 87.5063 29.6566 " />
<path d=" M 87.988 28.9738 L 87.5207 29.6463 " />
<path d=" M 87.9764 22.3377 L 87.5067 21.6669 " />
<path d=" M 88.4721 29.6549 L 88.6986 29.6545 " />
<path d=" M 89.1803 28.9717 L 88.713 29.6442 " />
<path d=" M 89.1686 22.3356 L 88.699 21.6648 " />
<path d=" M 89.6643 29.6528 L 89.8908 29.6524 " />
<path d=" M 90.3725 28.9696 L 89.9052 29.6421 " />
<path d=" M 90.3609 22.3335 L 89.8912 21.6627 " />
<path d=" M 90.8566 29.6507 L 91.0831 29.6503 " />
<path d=" M 91.5648 28.9675 L 91.0974 29.64 " />
<path d=" M 91.5531 22.3315 L 91.0835 21.6606 " />
<path d=" M 92.0488 29.6486 L 92.2753 29.6482 " />
<path d=" M 92.757 28.9655 L 92.2897 29.6379 " />
<path d=" M 92.7454 22.3294 L 92.2757 21.6585 " />
<path d=" M 93.2411 29.6466 L 93.4676 29.6462 " />
<path d=" M 93.9492 28.9634 L 93.4819 29.6358 " />
<path d=" M 93.9376 22.3273 L 93.4679 21.6565 " />
<path d=" M 94.4333 29.6445 L 94.6598 29.6441 " />
<path d=" M 95.1415 28.9613 L 94.6742 29.6337 " />
<path d=" M 95.1298 22.3252 L 94.6602 21.6544 " />
<path d=" M 95.6256 29.6424 L 95.852 29.642 " />
<path d=" M 96.3337 28.9592 L 95.8664 29.6316 " />
<path d=" M 96.3221 22.3231 L 95.8524 21.6523 " />
<path d=" M 96.8178 29.6403 L 97.0443 29.6399 " />
<path d=" M 97.526 28.9571 L 97.0587 29.6295 " />
<path d=" M 97.5143 22.321 L 97.0447 21.6502 " />
<path d=" M 98.0101 29.6382 L 98.2365 29.6378 " />
<path d=" M 98.7182 28.955 L 98.2509 29.6275 " />
<path d=" M 98.7066 22.3189 L 98.2369 21.6481 " />
<path d=" M 99.2023 29.6361 L 99.4288 29.6357 " />
<path d=" M 99.9105 28.9529 L 99.4432 29.6254 " />
<path d=" M 99.8988 22.3168 L 99.4292 21.646 " />
<path d=" M 100.395 29.634 L 100.621 29.6336 " />
<path d=" M 101.103 28.9508 L 100.635 29.6233 " />
<path d=" M 101.091 22.3147 L 100.621 21.6439 " />
<path d=" M 101.587 29.6319 L 101.813 29.6315 " />
<path d=" M 102.295 28.9487 L 101.828 29.6212 " />
<path d=" M 102.283 22.3126 L 101.814 21.6418 " />
<path d=" M 102.779 29.6298 L 103.006 29.6294 " />
<path d=" M 103.487 28.9466 L 103.02 29.6191 " />
<path d=" M 103.476 22.3105 L 103.006 21.6397 " />
<path d=" M 103.971 29.6277 L 104.198 29.6273 " />
<path d=" M 104.679 28.9445 L 104.212 29.617 " />
<path d=" M 104.668 22.3084 L 104.198 21.6376 " />
<path d=" M 105.164 29.6256 L 105.39 29.6252 " />
<path d=" M 105.872 28.9425 L 105.404 29.6149 " />
<path d=" M 105.86 22.3064 L 105.39 21.6355 " />
<path d="M106.341,21.6226 C106.782,21.6097 107.217,21.4414 107.549,21.1616  C107.594,21.1233 107.638,21.0831 107.68,21.0412 " /><path d=" M 107.696 30.2012 L 111.003 33.5054 " />
<path d=" M 111.023 33.5154 L 111.772 33.5141 " />
<path d=" M 110.996 17.7154 L 111.745 17.7141 " />
<path d=" M 107.68 21.0412 L 110.976 17.7254 " />
<path d="M106.355,29.6245 C106.796,29.6359 107.232,29.8026 107.564,30.0812  C107.61,30.1195 107.654,30.1594 107.696,30.2012 " /><path d=" M 105.848 22.3235 L 106.323 21.6402 " />
<path d=" M 105.86 28.9254 L 106.337 29.607 " />
<path d=" M 105.149 21.6257 L 105.376 21.6253 " />
<path d=" M 104.656 22.3256 L 105.135 21.636 " />
<path d=" M 104.667 28.9275 L 105.149 29.6154 " />
<path d=" M 103.957 21.6277 L 104.184 21.6273 " />
<path d=" M 103.464 22.3276 L 103.943 21.6381 " />
<path d=" M 103.475 28.9296 L 103.957 29.6174 " />
<path d=" M 102.765 21.6298 L 102.991 21.6294 " />
<path d=" M 102.271 22.3297 L 102.751 21.6402 " />
<path d=" M 102.283 28.9317 L 102.765 29.6195 " />
<path d=" M 101.573 21.6319 L 101.799 21.6315 " />
<path d=" M 101.079 22.3318 L 101.558 21.6423 " />
<path d=" M 101.091 28.9338 L 101.572 29.6216 " />
<path d=" M 100.381 21.634 L 100.607 21.6336 " />
<path d=" M 99.8869 22.3339 L 100.366 21.6444 " />
<path d=" M 99.8985 28.9358 L 100.38 29.6237 " />
<path d=" M 99.1883 21.6361 L 99.4147 21.6357 " />
<path d=" M 98.6947 22.336 L 99.1739 21.6464 " />
<path d=" M 98.7063 28.9379 L 99.1879 29.6258 " />
<path d=" M 97.996 21.6382 L 98.2225 21.6378 " />
<path d=" M 97.5024 22.3381 L 97.9816 21.6485 " />
<path d=" M 97.514 28.94 L 97.9956 29.6279 " />
<path d=" M 96.8038 21.6403 L 97.0303 21.6399 " />
<path d=" M 96.3102 22.3402 L 96.7894 21.6506 " />
<path d=" M 96.3218 28.9421 L 96.8034 29.63 " />
<path d=" M 95.6115 21.6424 L 95.838 21.642 " />
<path d=" M 95.118 22.3423 L 95.5971 21.6527 " />
<path d=" M 95.1295 28.9442 L 95.6111 29.6321 " />
<path d=" M 94.4193 21.6445 L 94.6458 21.6441 " />
<path d=" M 93.9257 22.3444 L 94.4049 21.6548 " />
<path d=" M 93.9373 28.9463 L 94.4189 29.6342 " />
<path d=" M 93.227 21.6466 L 93.4535 21.6462 " />
<path d=" M 92.7335 22.3465 L 93.2127 21.6569 " />
<path d=" M 92.745 28.9484 L 93.2267 29.6363 " />
<path d=" M 92.0348 21.6487 L 92.2613 21.6483 " />
<path d=" M 91.5412 22.3486 L 92.0204 21.659 " />
<path d=" M 91.5528 28.9505 L 92.0344 29.6384 " />
<path d=" M 90.8426 21.6507 L 91.069 21.6504 " />
<path d=" M 90.349 22.3506 L 90.8282 21.6611 " />
<path d=" M 90.3606 28.9526 L 90.8422 29.6405 " />
<path d=" M 89.6503 21.6528 L 89.8768 21.6524 " />
<path d=" M 89.1567 22.3527 L 89.6359 21.6632 " />
<path d=" M 89.1683 28.9547 L 89.6499 29.6425 " />
<path d=" M 88.4581 21.6549 L 88.6845 21.6545 " />
<path d=" M 87.9645 22.3548 L 88.4437 21.6653 " />
<path d=" M 87.9761 28.9568 L 88.4577 29.6446 " />
<path d=" M 87.2658 21.657 L 87.4923 21.6566 " />
<path d=" M 86.7722 22.3569 L 87.2514 21.6674 " />
<path d=" M 86.7838 28.9588 L 87.2654 29.6467 " />
</g>
<g   fill="none"
   stroke="#191919"
   stroke-linecap="round"
   stroke-linejoin="round"
   stroke-width="0.4px"
   transform="scale(1,-1) translate(-11.891137024085891, -59.46292537697143)"
  >
<path d="M87.2633 21.6574 A4 0.200711 -90.1005 0 1 87.2658 21.657" />
<path d="M87.2824 29.6567 A4 0.200711 -90.1005 0 1 87.2799 29.657" />
<path d="M87.2799 29.657 A4 0.200711 -90.1005 0 1 87.2654 29.6467" />
<path d="M87.2654 29.6467 A4 0.200711 -90.1005 0 1 87.0722 25.7083" />
<path d="M87.5089 29.6563 A4 0.200711 -90.1005 0 1 87.5063 29.6566" />
<path d="M87.5063 29.6566 A4 0.200711 -90.1005 0 1 87.2987 25.7079" />
<path d="M87.5324 29.6225 A4 0.200711 -90.1005 0 1 87.5207 29.6463" />
<path d="M87.5207 29.6463 A4 0.200711 -90.1005 0 1 87.5089 29.6563" />
<path d="M88.4555 21.6553 A4 0.200711 -90.1005 0 1 88.4581 21.6549" />
<path d="M87.4897 21.657 A4 0.200711 -90.1005 0 1 87.4923 21.6566" />
<path d="M87.4923 21.6566 A4 0.200711 -90.1005 0 1 87.5067 21.6669" />
<path d="M88.4747 29.6546 A4 0.200711 -90.1005 0 1 88.4721 29.6549" />
<path d="M88.4721 29.6549 A4 0.200711 -90.1005 0 1 88.4577 29.6446" />
<path d="M88.4577 29.6446 A4 0.200711 -90.1005 0 1 88.2645 25.7062" />
<path d="M88.7011 29.6542 A4 0.200711 -90.1005 0 1 88.6986 29.6545" />
<path d="M88.6986 29.6545 A4 0.200711 -90.1005 0 1 88.491 25.7058" />
<path d="M88.7247 29.6204 A4 0.200711 -90.1005 0 1 88.713 29.6442" />
<path d="M88.713 29.6442 A4 0.200711 -90.1005 0 1 88.7011 29.6542" />
<path d="M89.6478 21.6532 A4 0.200711 -90.1005 0 1 89.6503 21.6528" />
<path d="M88.682 21.6549 A4 0.200711 -90.1005 0 1 88.6845 21.6545" />
<path d="M88.6845 21.6545 A4 0.200711 -90.1005 0 1 88.699 21.6648" />
<path d="M89.6669 29.6525 A4 0.200711 -90.1005 0 1 89.6643 29.6528" />
<path d="M89.6643 29.6528 A4 0.200711 -90.1005 0 1 89.6499 29.6425" />
<path d="M89.6499 29.6425 A4 0.200711 -90.1005 0 1 89.4567 25.7041" />
<path d="M89.8934 29.6521 A4 0.200711 -90.1005 0 1 89.8908 29.6524" />
<path d="M89.8908 29.6524 A4 0.200711 -90.1005 0 1 89.6832 25.7037" />
<path d="M89.9169 29.6183 A4 0.200711 -90.1005 0 1 89.9052 29.6421" />
<path d="M89.9052 29.6421 A4 0.200711 -90.1005 0 1 89.8934 29.6521" />
<path d="M90.84 21.6511 A4 0.200711 -90.1005 0 1 90.8426 21.6507" />
<path d="M89.8742 21.6528 A4 0.200711 -90.1005 0 1 89.8768 21.6524" />
<path d="M89.8768 21.6524 A4 0.200711 -90.1005 0 1 89.8912 21.6627" />
<path d="M90.8591 29.6504 A4 0.200711 -90.1005 0 1 90.8566 29.6507" />
<path d="M90.8566 29.6507 A4 0.200711 -90.1005 0 1 90.8422 29.6405" />
<path d="M90.8422 29.6405 A4 0.200711 -90.1005 0 1 90.649 25.702" />
<path d="M91.0856 29.65 A4 0.200711 -90.1005 0 1 91.0831 29.6503" />
<path d="M91.0831 29.6503 A4 0.200711 -90.1005 0 1 90.8754 25.7016" />
<path d="M91.1091 29.6162 A4 0.200711 -90.1005 0 1 91.0974 29.64" />
<path d="M91.0974 29.64 A4 0.200711 -90.1005 0 1 91.0856 29.65" />
<path d="M92.0322 21.649 A4 0.200711 -90.1005 0 1 92.0348 21.6487" />
<path d="M91.0665 21.6507 A4 0.200711 -90.1005 0 1 91.069 21.6504" />
<path d="M91.069 21.6504 A4 0.200711 -90.1005 0 1 91.0835 21.6606" />
<path d="M92.0514 29.6483 A4 0.200711 -90.1005 0 1 92.0488 29.6486" />
<path d="M92.0488 29.6486 A4 0.200711 -90.1005 0 1 92.0344 29.6384" />
<path d="M92.0344 29.6384 A4 0.200711 -90.1005 0 1 91.8412 25.7" />
<path d="M92.2779 29.6479 A4 0.200711 -90.1005 0 1 92.2753 29.6482" />
<path d="M92.2753 29.6482 A4 0.200711 -90.1005 0 1 92.0677 25.6996" />
<path d="M92.3014 29.6141 A4 0.200711 -90.1005 0 1 92.2897 29.6379" />
<path d="M92.2897 29.6379 A4 0.200711 -90.1005 0 1 92.2779 29.6479" />
<path d="M93.2245 21.6469 A4 0.200711 -90.1005 0 1 93.227 21.6466" />
<path d="M92.2587 21.6486 A4 0.200711 -90.1005 0 1 92.2613 21.6483" />
<path d="M92.2613 21.6483 A4 0.200711 -90.1005 0 1 92.2757 21.6585" />
<path d="M93.2436 29.6462 A4 0.200711 -90.1005 0 1 93.2411 29.6466" />
<path d="M93.2411 29.6466 A4 0.200711 -90.1005 0 1 93.2267 29.6363" />
<path d="M93.2267 29.6363 A4 0.200711 -90.1005 0 1 93.0335 25.6979" />
<path d="M93.4701 29.6458 A4 0.200711 -90.1005 0 1 93.4676 29.6462" />
<path d="M93.4676 29.6462 A4 0.200711 -90.1005 0 1 93.2599 25.6975" />
<path d="M93.4936 29.612 A4 0.200711 -90.1005 0 1 93.4819 29.6358" />
<path d="M93.4819 29.6358 A4 0.200711 -90.1005 0 1 93.4701 29.6458" />
<path d="M94.4167 21.6448 A4 0.200711 -90.1005 0 1 94.4193 21.6445" />
<path d="M93.451 21.6465 A4 0.200711 -90.1005 0 1 93.4535 21.6462" />
<path d="M93.4535 21.6462 A4 0.200711 -90.1005 0 1 93.4679 21.6565" />
<path d="M94.4359 29.6441 A4 0.200711 -90.1005 0 1 94.4333 29.6445" />
<path d="M94.4333 29.6445 A4 0.200711 -90.1005 0 1 94.4189 29.6342" />
<path d="M94.4189 29.6342 A4 0.200711 -90.1005 0 1 94.2257 25.6958" />
<path d="M94.6624 29.6437 A4 0.200711 -90.1005 0 1 94.6598 29.6441" />
<path d="M94.6598 29.6441 A4 0.200711 -90.1005 0 1 94.4522 25.6954" />
<path d="M94.6859 29.6099 A4 0.200711 -90.1005 0 1 94.6742 29.6337" />
<path d="M94.6742 29.6337 A4 0.200711 -90.1005 0 1 94.6624 29.6437" />
<path d="M95.609 21.6427 A4 0.200711 -90.1005 0 1 95.6115 21.6424" />
<path d="M94.6432 21.6444 A4 0.200711 -90.1005 0 1 94.6458 21.6441" />
<path d="M94.6458 21.6441 A4 0.200711 -90.1005 0 1 94.6602 21.6544" />
<path d="M95.6281 29.642 A4 0.200711 -90.1005 0 1 95.6256 29.6424" />
<path d="M95.6256 29.6424 A4 0.200711 -90.1005 0 1 95.6111 29.6321" />
<path d="M95.6111 29.6321 A4 0.200711 -90.1005 0 1 95.4179 25.6937" />
<path d="M95.8546 29.6416 A4 0.200711 -90.1005 0 1 95.852 29.642" />
<path d="M95.852 29.642 A4 0.200711 -90.1005 0 1 95.6444 25.6933" />
<path d="M95.8781 29.6078 A4 0.200711 -90.1005 0 1 95.8664 29.6316" />
<path d="M95.8664 29.6316 A4 0.200711 -90.1005 0 1 95.8546 29.6416" />
<path d="M96.8012 21.6406 A4 0.200711 -90.1005 0 1 96.8038 21.6403" />
<path d="M95.8355 21.6423 A4 0.200711 -90.1005 0 1 95.838 21.642" />
<path d="M95.838 21.642 A4 0.200711 -90.1005 0 1 95.8524 21.6523" />
<path d="M96.8204 29.64 A4 0.200711 -90.1005 0 1 96.8178 29.6403" />
<path d="M96.8178 29.6403 A4 0.200711 -90.1005 0 1 96.8034 29.63" />
<path d="M96.8034 29.63 A4 0.200711 -90.1005 0 1 96.6102 25.6916" />
<path d="M97.0468 29.6396 A4 0.200711 -90.1005 0 1 97.0443 29.6399" />
<path d="M97.0443 29.6399 A4 0.200711 -90.1005 0 1 96.8367 25.6912" />
<path d="M97.0704 29.6058 A4 0.200711 -90.1005 0 1 97.0587 29.6295" />
<path d="M97.0587 29.6295 A4 0.200711 -90.1005 0 1 97.0468 29.6396" />
<path d="M97.9935 21.6385 A4 0.200711 -90.1005 0 1 97.996 21.6382" />
<path d="M97.0277 21.6402 A4 0.200711 -90.1005 0 1 97.0303 21.6399" />
<path d="M97.0303 21.6399 A4 0.200711 -90.1005 0 1 97.0447 21.6502" />
<path d="M98.0126 29.6379 A4 0.200711 -90.1005 0 1 98.0101 29.6382" />
<path d="M98.0101 29.6382 A4 0.200711 -90.1005 0 1 97.9956 29.6279" />
<path d="M97.9956 29.6279 A4 0.200711 -90.1005 0 1 97.8024 25.6895" />
<path d="M98.2391 29.6375 A4 0.200711 -90.1005 0 1 98.2365 29.6378" />
<path d="M98.2365 29.6378 A4 0.200711 -90.1005 0 1 98.0289 25.6891" />
<path d="M98.2626 29.6037 A4 0.200711 -90.1005 0 1 98.2509 29.6275" />
<path d="M98.2509 29.6275 A4 0.200711 -90.1005 0 1 98.2391 29.6375" />
<path d="M99.1857 21.6364 A4 0.200711 -90.1005 0 1 99.1883 21.6361" />
<path d="M98.2199 21.6381 A4 0.200711 -90.1005 0 1 98.2225 21.6378" />
<path d="M98.2225 21.6378 A4 0.200711 -90.1005 0 1 98.2369 21.6481" />
<path d="M99.2049 29.6358 A4 0.200711 -90.1005 0 1 99.2023 29.6361" />
<path d="M99.2023 29.6361 A4 0.200711 -90.1005 0 1 99.1879 29.6258" />
<path d="M99.1879 29.6258 A4 0.200711 -90.1005 0 1 98.9947 25.6874" />
<path d="M99.4313 29.6354 A4 0.200711 -90.1005 0 1 99.4288 29.6357" />
<path d="M99.4288 29.6357 A4 0.200711 -90.1005 0 1 99.2212 25.687" />
<path d="M99.4549 29.6016 A4 0.200711 -90.1005 0 1 99.4432 29.6254" />
<path d="M99.4432 29.6254 A4 0.200711 -90.1005 0 1 99.4313 29.6354" />
<path d="M100.378 21.6343 A4 0.200711 -90.1005 0 1 100.381 21.634" />
<path d="M99.4122 21.636 A4 0.200711 -90.1005 0 1 99.4147 21.6357" />
<path d="M99.4147 21.6357 A4 0.200711 -90.1005 0 1 99.4292 21.646" />
<path d="M100.397 29.6337 A4 0.200711 -90.1005 0 1 100.395 29.634" />
<path d="M100.395 29.634 A4 0.200711 -90.1005 0 1 100.38 29.6237" />
<path d="M100.38 29.6237 A4 0.200711 -90.1005 0 1 100.187 25.6853" />
<path d="M100.624 29.6333 A4 0.200711 -90.1005 0 1 100.621 29.6336" />
<path d="M100.621 29.6336 A4 0.200711 -90.1005 0 1 100.413 25.6849" />
<path d="M100.647 29.5995 A4 0.200711 -90.1005 0 1 100.635 29.6233" />
<path d="M100.635 29.6233 A4 0.200711 -90.1005 0 1 100.624 29.6333" />
<path d="M101.57 21.6323 A4 0.200711 -90.1005 0 1 101.573 21.6319" />
<path d="M100.604 21.634 A4 0.200711 -90.1005 0 1 100.607 21.6336" />
<path d="M100.607 21.6336 A4 0.200711 -90.1005 0 1 100.621 21.6439" />
<path d="M101.589 29.6316 A4 0.200711 -90.1005 0 1 101.587 29.6319" />
<path d="M101.587 29.6319 A4 0.200711 -90.1005 0 1 101.572 29.6216" />
<path d="M101.572 29.6216 A4 0.200711 -90.1005 0 1 101.379 25.6832" />
<path d="M101.816 29.6312 A4 0.200711 -90.1005 0 1 101.813 29.6315" />
<path d="M101.813 29.6315 A4 0.200711 -90.1005 0 1 101.606 25.6828" />
<path d="M101.839 29.5974 A4 0.200711 -90.1005 0 1 101.828 29.6212" />
<path d="M101.828 29.6212 A4 0.200711 -90.1005 0 1 101.816 29.6312" />
<path d="M102.762 21.6302 A4 0.200711 -90.1005 0 1 102.765 21.6298" />
<path d="M101.797 21.6319 A4 0.200711 -90.1005 0 1 101.799 21.6315" />
<path d="M101.799 21.6315 A4 0.200711 -90.1005 0 1 101.814 21.6418" />
<path d="M102.782 29.6295 A4 0.200711 -90.1005 0 1 102.779 29.6298" />
<path d="M102.779 29.6298 A4 0.200711 -90.1005 0 1 102.765 29.6195" />
<path d="M102.765 29.6195 A4 0.200711 -90.1005 0 1 102.571 25.6811" />
<path d="M103.008 29.6291 A4 0.200711 -90.1005 0 1 103.006 29.6294" />
<path d="M103.006 29.6294 A4 0.200711 -90.1005 0 1 102.798 25.6807" />
<path d="M103.032 29.5953 A4 0.200711 -90.1005 0 1 103.02 29.6191" />
<path d="M103.02 29.6191 A4 0.200711 -90.1005 0 1 103.008 29.6291" />
<path d="M103.955 21.6281 A4 0.200711 -90.1005 0 1 103.957 21.6277" />
<path d="M102.989 21.6298 A4 0.200711 -90.1005 0 1 102.991 21.6294" />
<path d="M102.991 21.6294 A4 0.200711 -90.1005 0 1 103.006 21.6397" />
<path d="M103.974 29.6274 A4 0.200711 -90.1005 0 1 103.971 29.6277" />
<path d="M103.971 29.6277 A4 0.200711 -90.1005 0 1 103.957 29.6174" />
<path d="M103.957 29.6174 A4 0.200711 -90.1005 0 1 103.764 25.679" />
<path d="M104.2 29.627 A4 0.200711 -90.1005 0 1 104.198 29.6273" />
<path d="M104.198 29.6273 A4 0.200711 -90.1005 0 1 103.99 25.6786" />
<path d="M104.224 29.5932 A4 0.200711 -90.1005 0 1 104.212 29.617" />
<path d="M104.212 29.617 A4 0.200711 -90.1005 0 1 104.2 29.627" />
<path d="M105.147 21.626 A4 0.200711 -90.1005 0 1 105.149 21.6257" />
<path d="M104.181 21.6277 A4 0.200711 -90.1005 0 1 104.184 21.6273" />
<path d="M104.184 21.6273 A4 0.200711 -90.1005 0 1 104.198 21.6376" />
<path d="M105.166 29.6253 A4 0.200711 -90.1005 0 1 105.164 29.6256" />
<path d="M105.164 29.6256 A4 0.200711 -90.1005 0 1 105.149 29.6154" />
<path d="M105.149 29.6154 A4 0.200711 -90.1005 0 1 104.956 25.677" />
<path d="M105.393 29.6249 A4 0.200711 -90.1005 0 1 105.39 29.6252" />
<path d="M105.39 29.6252 A4 0.200711 -90.1005 0 1 105.182 25.6766" />
<path d="M105.416 29.5911 A4 0.200711 -90.1005 0 1 105.404 29.6149" />
<path d="M105.404 29.6149 A4 0.200711 -90.1005 0 1 105.393 29.6249" />
<path d="M105.373 21.6256 A4 0.200711 -90.1005 0 1 105.376 21.6253" />
<path d="M105.376 21.6253 A4 0.200711 -90.1005 0 1 105.39 21.6355" />
<path d="M106.148 25.6749 A4.00096 0.200759 -90.1005 0 1 106.341 21.6226" />
<path d="M111.023 33.5154 A7.9 0.396405 -90.1005 0 1 111.003 33.5054" />
<path d="M111.003 33.5054 A7.9 0.396405 -90.1005 0 1 110.613 25.7167" />
<path d="M112.155 25.5127 A7.9 0.396405 -90.1005 0 1 111.772 33.5141" />
<path d="M111.772 33.5141 A7.9 0.396405 -90.1005 0 1 111.362 25.7154" />
<path d=" M 111.808 23.6241 L 111.802 21.2006 " />
<path d="M111.808,23.6241 L111.699,23.6329 " /><path d=" M 111.802 21.2006 L 111.694 21.2549 " />
<path d="M111.706,27.5677 L111.817,27.5764 " /><path d=" M 111.823 29.9998 L 111.817 27.5764 " />
<path d=" M 111.823 29.9998 L 111.715 29.9459 " />
<path d=" M 111.694 21.2283 L 111.7 23.6518 " />
<path d=" M 111.709 27.6041 L 111.715 30.0276 " />
<path d="M111.54,26.7194 L111.662,26.7193 " /><path d=" M 111.54 26.7504 L 111.662 26.7193 " />
<path d=" M 111.657 24.5595 L 111.535 24.5906 " />
<path d="M111.658,24.5094 L111.855,24.5088 " /><path d=" M 111.977 24.4777 L 111.855 24.5088 " />
<path d=" M 111.86 26.6686 L 111.982 26.6375 " />
<path d="M111.86,26.6686 L111.54,26.6695 " /><path d=" M 111.982 26.6375 L 111.54 26.6411 " />
<path d="M111.362 25.7154 A7.9 0.396405 -90.1005 0 1 111.745 17.7141" />
<path d="M111.745 17.7141 A7.9 0.396405 -90.1005 0 1 112.155 25.5127" />
<path d="M111.808 23.6241 A2.25216 0.113009 -90.1005 0 1 111.855 24.5088" />
<path d=" M 111.802 21.2006 L 111.694 21.2283 " />
<path d="M111.657 24.5595 A2.25216 0.113009 -90.1005 0 1 111.7 23.6518" />
<path d=" M 111.535 24.5906 L 111.54 26.7504 " />
<path d="M111.709 27.6041 A2.25216 0.113009 -90.1005 0 1 111.662 26.7193" />
<path d=" M 111.715 30.0276 L 111.823 29.9998 " />
<path d="M111.86 26.6686 A2.25216 0.113009 -90.1005 0 1 111.817 27.5764" />
<path d=" M 111.982 26.6375 L 111.977 24.4777 " />
<path d="M110.613 25.7167 A7.9 0.396405 -90.1005 0 1 110.976 17.7254" />
<path d="M110.976 17.7254 A7.9 0.396405 -90.1005 0 1 110.996 17.7154" />
<path d="M106.355 29.6245 A4.00096 0.200759 -90.1005 0 1 106.148 25.6749" />
<path d="M106.341 29.6133 A4 0.200711 -90.1005 0 1 106.327 21.6339" />
<path d="M105.874 28.9336 A3.3095 0.166064 -90.1005 0 1 105.86 28.9254" />
<path d="M105.86 28.9254 A3.3095 0.166064 -90.1005 0 1 105.848 22.3235" />
<path d="M105.848 22.3235 A3.3095 0.166064 -90.1005 0 1 105.858 22.3152" />
<path d="M105.182 25.6766 A4 0.200711 -90.1005 0 1 105.373 21.6256" />
<path d="M104.956 25.677 A4 0.200711 -90.1005 0 1 105.135 21.636" />
<path d="M105.135 21.636 A4 0.200711 -90.1005 0 1 105.147 21.626" />
<path d="M104.682 28.9357 A3.3095 0.166064 -90.1005 0 1 104.667 28.9275" />
<path d="M104.667 28.9275 A3.3095 0.166064 -90.1005 0 1 104.656 22.3256" />
<path d="M104.656 22.3256 A3.3095 0.166064 -90.1005 0 1 104.666 22.3173" />
<path d="M103.99 25.6786 A4 0.200711 -90.1005 0 1 104.181 21.6277" />
<path d="M103.764 25.679 A4 0.200711 -90.1005 0 1 103.943 21.6381" />
<path d="M103.943 21.6381 A4 0.200711 -90.1005 0 1 103.955 21.6281" />
<path d="M103.489 28.9378 A3.3095 0.166064 -90.1005 0 1 103.475 28.9296" />
<path d="M103.475 28.9296 A3.3095 0.166064 -90.1005 0 1 103.464 22.3276" />
<path d="M103.464 22.3276 A3.3095 0.166064 -90.1005 0 1 103.473 22.3194" />
<path d="M102.798 25.6807 A4 0.200711 -90.1005 0 1 102.989 21.6298" />
<path d="M102.571 25.6811 A4 0.200711 -90.1005 0 1 102.751 21.6402" />
<path d="M102.751 21.6402 A4 0.200711 -90.1005 0 1 102.762 21.6302" />
<path d="M102.297 28.9399 A3.3095 0.166064 -90.1005 0 1 102.283 28.9317" />
<path d="M102.283 28.9317 A3.3095 0.166064 -90.1005 0 1 102.271 22.3297" />
<path d="M102.271 22.3297 A3.3095 0.166064 -90.1005 0 1 102.281 22.3215" />
<path d="M101.606 25.6828 A4 0.200711 -90.1005 0 1 101.797 21.6319" />
<path d="M101.379 25.6832 A4 0.200711 -90.1005 0 1 101.558 21.6423" />
<path d="M101.558 21.6423 A4 0.200711 -90.1005 0 1 101.57 21.6323" />
<path d="M101.105 28.942 A3.3095 0.166064 -90.1005 0 1 101.091 28.9338" />
<path d="M101.091 28.9338 A3.3095 0.166064 -90.1005 0 1 101.079 22.3318" />
<path d="M101.079 22.3318 A3.3095 0.166064 -90.1005 0 1 101.089 22.3235" />
<path d="M100.413 25.6849 A4 0.200711 -90.1005 0 1 100.604 21.634" />
<path d="M100.187 25.6853 A4 0.200711 -90.1005 0 1 100.366 21.6444" />
<path d="M100.366 21.6444 A4 0.200711 -90.1005 0 1 100.378 21.6343" />
<path d="M99.9126 28.9441 A3.3095 0.166064 -90.1005 0 1 99.8985 28.9358" />
<path d="M99.8985 28.9358 A3.3095 0.166064 -90.1005 0 1 99.8869 22.3339" />
<path d="M99.8869 22.3339 A3.3095 0.166064 -90.1005 0 1 99.8967 22.3256" />
<path d="M99.2212 25.687 A4 0.200711 -90.1005 0 1 99.4122 21.636" />
<path d="M98.9947 25.6874 A4 0.200711 -90.1005 0 1 99.1739 21.6464" />
<path d="M99.1739 21.6464 A4 0.200711 -90.1005 0 1 99.1857 21.6364" />
<path d="M98.7203 28.9462 A3.3095 0.166064 -90.1005 0 1 98.7063 28.9379" />
<path d="M98.7063 28.9379 A3.3095 0.166064 -90.1005 0 1 98.6947 22.336" />
<path d="M98.6947 22.336 A3.3095 0.166064 -90.1005 0 1 98.7045 22.3277" />
<path d="M98.0289 25.6891 A4 0.200711 -90.1005 0 1 98.2199 21.6381" />
<path d="M97.8024 25.6895 A4 0.200711 -90.1005 0 1 97.9816 21.6485" />
<path d="M97.9816 21.6485 A4 0.200711 -90.1005 0 1 97.9935 21.6385" />
<path d="M97.5281 28.9483 A3.3095 0.166064 -90.1005 0 1 97.514 28.94" />
<path d="M97.514 28.94 A3.3095 0.166064 -90.1005 0 1 97.5024 22.3381" />
<path d="M97.5024 22.3381 A3.3095 0.166064 -90.1005 0 1 97.5122 22.3298" />
<path d="M96.8367 25.6912 A4 0.200711 -90.1005 0 1 97.0277 21.6402" />
<path d="M96.6102 25.6916 A4 0.200711 -90.1005 0 1 96.7894 21.6506" />
<path d="M96.7894 21.6506 A4 0.200711 -90.1005 0 1 96.8012 21.6406" />
<path d="M96.3358 28.9504 A3.3095 0.166064 -90.1005 0 1 96.3218 28.9421" />
<path d="M96.3218 28.9421 A3.3095 0.166064 -90.1005 0 1 96.3102 22.3402" />
<path d="M96.3102 22.3402 A3.3095 0.166064 -90.1005 0 1 96.32 22.3319" />
<path d="M95.6444 25.6933 A4 0.200711 -90.1005 0 1 95.8355 21.6423" />
<path d="M95.4179 25.6937 A4 0.200711 -90.1005 0 1 95.5971 21.6527" />
<path d="M95.5971 21.6527 A4 0.200711 -90.1005 0 1 95.609 21.6427" />
<path d="M95.1436 28.9524 A3.3095 0.166064 -90.1005 0 1 95.1295 28.9442" />
<path d="M95.1295 28.9442 A3.3095 0.166064 -90.1005 0 1 95.118 22.3423" />
<path d="M95.118 22.3423 A3.3095 0.166064 -90.1005 0 1 95.1277 22.334" />
<path d="M94.4522 25.6954 A4 0.200711 -90.1005 0 1 94.6432 21.6444" />
<path d="M94.2257 25.6958 A4 0.200711 -90.1005 0 1 94.4049 21.6548" />
<path d="M94.4049 21.6548 A4 0.200711 -90.1005 0 1 94.4167 21.6448" />
<path d="M93.9513 28.9545 A3.3095 0.166064 -90.1005 0 1 93.9373 28.9463" />
<path d="M93.9373 28.9463 A3.3095 0.166064 -90.1005 0 1 93.9257 22.3444" />
<path d="M93.9257 22.3444 A3.3095 0.166064 -90.1005 0 1 93.9355 22.3361" />
<path d="M93.2599 25.6975 A4 0.200711 -90.1005 0 1 93.451 21.6465" />
<path d="M93.0335 25.6979 A4 0.200711 -90.1005 0 1 93.2127 21.6569" />
<path d="M93.2127 21.6569 A4 0.200711 -90.1005 0 1 93.2245 21.6469" />
<path d="M92.7591 28.9566 A3.3095 0.166064 -90.1005 0 1 92.745 28.9484" />
<path d="M92.745 28.9484 A3.3095 0.166064 -90.1005 0 1 92.7335 22.3465" />
<path d="M92.7335 22.3465 A3.3095 0.166064 -90.1005 0 1 92.7433 22.3382" />
<path d="M92.0677 25.6996 A4 0.200711 -90.1005 0 1 92.2587 21.6486" />
<path d="M91.8412 25.7 A4 0.200711 -90.1005 0 1 92.0204 21.659" />
<path d="M92.0204 21.659 A4 0.200711 -90.1005 0 1 92.0322 21.649" />
<path d="M91.5669 28.9587 A3.3095 0.166064 -90.1005 0 1 91.5528 28.9505" />
<path d="M91.5528 28.9505 A3.3095 0.166064 -90.1005 0 1 91.5412 22.3486" />
<path d="M91.5412 22.3486 A3.3095 0.166064 -90.1005 0 1 91.551 22.3403" />
<path d="M90.8754 25.7016 A4 0.200711 -90.1005 0 1 91.0665 21.6507" />
<path d="M90.649 25.702 A4 0.200711 -90.1005 0 1 90.8282 21.6611" />
<path d="M90.8282 21.6611 A4 0.200711 -90.1005 0 1 90.84 21.6511" />
<path d="M90.3746 28.9608 A3.3095 0.166064 -90.1005 0 1 90.3606 28.9526" />
<path d="M90.3606 28.9526 A3.3095 0.166064 -90.1005 0 1 90.349 22.3506" />
<path d="M90.349 22.3506 A3.3095 0.166064 -90.1005 0 1 90.3588 22.3424" />
<path d="M89.6832 25.7037 A4 0.200711 -90.1005 0 1 89.8742 21.6528" />
<path d="M89.4567 25.7041 A4 0.200711 -90.1005 0 1 89.6359 21.6632" />
<path d="M89.6359 21.6632 A4 0.200711 -90.1005 0 1 89.6478 21.6532" />
<path d="M89.1824 28.9629 A3.3095 0.166064 -90.1005 0 1 89.1683 28.9547" />
<path d="M89.1683 28.9547 A3.3095 0.166064 -90.1005 0 1 89.1567 22.3527" />
<path d="M89.1567 22.3527 A3.3095 0.166064 -90.1005 0 1 89.1665 22.3445" />
<path d="M88.491 25.7058 A4 0.200711 -90.1005 0 1 88.682 21.6549" />
<path d="M88.2645 25.7062 A4 0.200711 -90.1005 0 1 88.4437 21.6653" />
<path d="M88.4437 21.6653 A4 0.200711 -90.1005 0 1 88.4555 21.6553" />
<path d="M87.9901 28.965 A3.3095 0.166064 -90.1005 0 1 87.9761 28.9568" />
<path d="M87.9761 28.9568 A3.3095 0.166064 -90.1005 0 1 87.9645 22.3548" />
<path d="M87.9645 22.3548 A3.3095 0.166064 -90.1005 0 1 87.9743 22.3465" />
<path d="M87.2987 25.7079 A4 0.200711 -90.1005 0 1 87.4897 21.657" />
<path d="M87.0722 25.7083 A4 0.200711 -90.1005 0 1 87.2514 21.6674" />
<path d="M87.2514 21.6674 A4 0.200711 -90.1005 0 1 87.2633 21.6574" />
<path d="M86.7979 28.9671 A3.3095 0.166064 -90.1005 0 1 86.7838 28.9588" />
<path d="M86.7838 28.9588 A3.3095 0.166064 -90.1005 0 1 86.7722 22.3569" />
<path d="M86.7722 22.3569 A3.3095 0.166064 -90.1005 0 1 86.782 22.3486" />
</g>
<g   fill="none"
   stroke="#ed2124"
   stroke-linecap="round"
   stroke-linejoin="round"
   stroke-width="0.4px"
   transform="scale(1,-1) translate(-11.891137024085891, -59.46292537697143)"
  >
<path d=" M 86.6239 42.6478 L 70.284 42.6765 " />
<path d=" M 62.4139 42.6903 L 43.5238 42.7234 " />
</g>
<g   fill="none"
   stroke="#bcbec0"
   stroke-linecap="butt"
   stroke-linejoin="miter"
   stroke-width="0.4px"
   transform="scale(1,-1) translate(-11.891137024085891, -59.46292537697143)"
  >
<path d=" M 36.5337 53.3466 L 36.5337 53.4696 " />
<path d=" M 20.7337 53.3466 L 20.7337 53.4696 " />
</g>
<g   fill="none"
   stroke="#bcbec0"
   stroke-linecap="round"
   stroke-linejoin="round"
   stroke-width="0.4px"
   transform="scale(1,-1) translate(-11.891137024085891, -59.46292537697143)"
  >
<path d="M36.4576 53.4314 A7.9 0.275704 2.74314e-05 0 1 36.5337 53.4696" />
<path d="M36.5337 53.4696 A7.9 0.275704 2.74314e-05 0 1 20.8097 53.5077" />
<path d=" M 29.4297 53.396 L 29.0941 53.3123 " />
<path d="M29.9755,53.4064 L29.9769,53.5327 " /><path d=" M 30.3124 53.6164 L 29.9769 53.5327 " />
<path d="M27.2914,53.3211 L27.2905,53.4065 " /><path d=" M 26.9549 53.3227 L 27.2905 53.4065 " />
<path d=" M 27.8376 53.5431 L 28.1732 53.6269 " />
<path d="M27.8376,53.5431 L27.8352,53.3184 " /><path d=" M 28.1732 53.6269 L 28.1521 53.3169 " />
<path d="M26.8333,53.4223 L26.8259,53.5164 " /><path d=" M 24.4255 53.5282 L 26.8259 53.5164 " />
<path d=" M 24.4255 53.5282 L 24.4631 53.4519 " />
<path d=" M 26.5269 53.4418 L 24.1265 53.4535 " />
<path d=" M 32.8418 53.411 L 30.4414 53.4227 " />
<path d=" M 30.7405 53.4974 L 33.1408 53.4856 " />
<path d="M30.7405,53.4974 L30.7344,53.4213 " /><path d="M20.8097 53.5077 A7.9 0.275704 2.74314e-05 0 1 20.7337 53.4696" />
<path d="M20.7337 53.4696 A7.9 0.275704 2.74314e-05 0 1 36.4576 53.4314" />
<path d="M29.4297 53.396 A2.25216 0.0785987 2.74314e-05 0 1 30.4414 53.4227" />
<path d=" M 29.0941 53.3123 L 26.9549 53.3227 " />
<path d="M26.5269 53.4418 A2.25216 0.0785987 2.74314e-05 0 1 27.2905 53.4065" />
<path d=" M 24.1265 53.4535 L 24.4255 53.5282 " />
<path d="M27.8376 53.5431 A2.25216 0.0785987 2.74314e-05 0 1 26.8259 53.5164" />
<path d=" M 28.1732 53.6269 L 30.3124 53.6164 " />
<path d="M30.7405 53.4974 A2.25216 0.0785987 2.74314e-05 0 1 29.9769 53.5327" />
<path d=" M 33.1408 53.4856 L 32.8418 53.411 " />
</g>
<g   fill="none"
   stroke="#bcbec0"
   stroke-linecap="round"
   stroke-linejoin="round"
   stroke-width="0.4px"
   transform="scale(1,-1) translate(-11.891137024085891, -59.46292537697143)"
  >
<path d="M-9.56213 31.8855 A5.1 5.09046 124.769 0 1 -1.56021 27.6871" />
<path d="M-1.56021 27.6871 A5.1 5.09046 124.769 0 1 0.625003 31.8676" />
<path d="M-7.95546 33.0009 A5.1 5.09046 124.769 0 1 -0.811046 28.3228" />
<path d="M-28.1994 48.7698 A8.65 0.301878 2.74314e-05 0 1 -37.2784 48.4578" />
<path d="M-37.2784 48.4578 A8.65 0.301878 2.74314e-05 0 1 -29.068 48.1668" />
<path d="M21.7375 48.6822 A8.65 0.301878 2.74314e-05 0 1 12.6585 48.3702" />
<path d="M12.6585 48.3702 A8.65 0.301878 2.74314e-05 0 1 20.8689 48.0792" />
<path d=" M 41.0826 16.9246 L 39.4759 15.8092 " />
<path d="M0.625003 31.8676 A5.1 5.09046 124.769 0 1 -7.37692 36.066" />
<path d="M-7.37692 36.066 A5.1 5.09046 124.769 0 1 -9.56213 31.8855" />
<path d=" M 39.4759 15.8092 L 39.4759 47.7897 " />
<path d=" M -48.4131 47.9439 L 39.4759 47.7897 " />
<path d=" M -48.4131 21.9597 L -48.4131 47.9439 " />
<path d="M-29.068 48.1668 A8.65 0.301878 2.74314e-05 0 1 -19.989 48.4578" />
<path d="M-19.989 48.4578 A8.65 0.301878 2.74314e-05 0 1 -28.1994 48.7698" />
<path d="M20.8689 48.0792 A8.65 0.301878 2.74314e-05 0 1 29.948 48.3702" />
<path d="M29.948 48.3702 A8.65 0.301878 2.74314e-05 0 1 21.7375 48.6822" />
<path d=" M 39.4759 47.7897 L 41.0826 48.9051 " />
<path d=" M -46.8064 49.0593 L 41.0826 48.9051 " />
<path d=" M -48.4131 47.9439 L -46.8064 49.0593 " />
<path d="M-6.51941 36.5457 A5.1 5.09046 124.769 0 1 -7.95546 33.0009" />
<path d=" M 41.0826 48.9051 L 41.0826 16.9246 " />
</g>
<g   fill="none"
   stroke="#bcbec0"
   stroke-linecap="butt"
   stroke-linejoin="miter"
   stroke-width="0.4px"
   transform="scale(1,-1) translate(-11.891137024085891, -59.46292537697143)"
  >
<path d=" M -24.7074 9.04136 L -24.7074 -3.95072 " />
</g>
<g   fill="none"
   stroke="#bcbec0"
   stroke-linecap="round"
   stroke-linejoin="round"
   stroke-width="0.4px"
   transform="scale(1,-1) translate(-11.891137024085891, -59.46292537697143)"
  >
<path d=" M 48.7143 10.2299 L 39.1747 3.60741 " />
<path d=" M 39.1747 3.60741 L 39.1747 -3.38832 " />
<path d=" M 39.1747 -3.38832 L 48.7143 3.23417 " />
<path d=" M 48.7143 3.23417 L 48.7143 10.2299 " />
<path d=" M -48.7143 3.76157 L -48.7143 -3.23417 " />
<path d=" M -45.4498 6.0278 L -48.7143 3.76157 " />
<path d=" M 48.7143 28.2189 L 48.413 28.2195 " />
<path d=" M 48.7143 16.2262 L 48.7143 28.2189 " />
<path d=" M 41.7231 11.3729 L 41.7231 10.2422 " />
<path d=" M 41.7231 10.2422 L 48.7143 10.2299 " />
<path d=" M 48.7143 28.2189 L 48.413 28.0098 " />
<path d=" M 48.413 28.0098 L 48.413 22.0135 " />
<path d=" M 48.413 22.0135 L 39.4759 15.8092 " />
<path d=" M 39.4759 21.8056 L -48.4131 21.9597 " />
<path d=" M 39.4759 15.8092 L 39.4759 21.8056 " />
<path d=" M -48.4131 21.9597 L -48.7143 21.7506 " />
<path d=" M 39.1747 21.5964 L -48.7143 21.7506 " />
<path d=" M 39.4759 21.8056 L 39.1747 21.5964 " />
<path d=" M 39.1747 -3.38832 L 20.1987 -3.35504 " />
<path d=" M 32.1835 3.61968 L 39.1747 3.60741 " />
<path d=" M 32.1835 9.61602 L 32.1835 3.61968 " />
<path d=" M 39.1747 9.60376 L 32.1835 9.61602 " />
<path d=" M 39.1747 21.5964 L 39.1747 9.60376 " />
<path d=" M -48.7143 21.7506 L -48.7143 9.75791 " />
<path d=" M -41.7231 9.74565 L -48.7143 9.75791 " />
<path d=" M -41.7231 3.74931 L -41.7231 9.74565 " />
<path d=" M -48.7143 3.76157 L -41.7231 3.74931 " />
<path d=" M -29.7383 -3.26745 L -48.7143 -3.23417 " />
<path d="M13.905 -3.55366 A6 0.209395 -180 0 0 20.1987 -3.35504" />
<path d=" M 13.2523 -4.00678 L 13.905 -3.55366 " />
<path d="M6.9586 -4.2054 A6 0.209395 2.74314e-05 0 1 13.2523 -4.00678" />
<path d=" M 0.466794 -4.19401 L 6.9586 -4.2054 " />
<path d="M-11.8892 -3.73555 A6.5 0.226845 -180 0 0 0.466793 -3.64908" />
<path d=" M -12.5168 -4.17124 L -11.8892 -3.73555 " />
<path d=" M -19.0086 -4.15985 L -12.5168 -4.17124 " />
<path d="M-24.6998 -3.94021 A6 0.209395 2.74314e-05 0 1 -24.7074 -3.95072" />
<path d="M-24.7074 -3.95072 A6 0.209395 2.74314e-05 0 1 -19.0086 -4.15985" />
<path d="M-29.7383 -3.26745 A6 0.209395 -180 0 0 -24.7074 -3.38057" />
<path d=" M 48.7143 16.2262 L 39.1747 9.60376 " />
<path d=" M 41.7231 10.2422 L 32.1835 3.61968 " />
<path d="M-24.6998 9.05187 A6 0.209395 2.74314e-05 0 1 -24.7074 9.04136" />
<path d="M-24.7074 9.04136 A6 0.209395 2.74314e-05 0 1 -19.0086 8.83223" />
<path d=" M -12.5168 8.82084 L -12.5168 -4.17124 " />
<path d=" M -19.0086 8.83223 L -12.5168 8.82084 " />
<path d=" M -12.5168 8.82084 L -11.8892 9.25653 " />
<path d="M-11.8892 9.25653 A6.5 0.226845 -180 0 0 1.10259 9.24515" />
<path d="M1.10259 9.24515 A6.5 0.226845 -180 0 0 1.09439 9.23376" />
<path d=" M 0.466787 8.79807 L 0.466794 -4.19401 " />
<path d=" M 1.09439 9.23376 L 0.466787 8.79807 " />
<path d=" M 0.466787 8.79807 L 6.95859 8.78668 " />
<path d="M6.95859 8.78668 A6 0.209395 2.74314e-05 0 1 13.2523 8.9853" />
<path d=" M 13.2523 8.9853 L 13.905 9.43842 " />
<path d="M13.905 9.43842 A6 0.209395 -180 0 0 16.836 9.608" />
<path d="M20.1987,10.6364 C19.6309,10.4055 19.0584,10.1703 18.4959,9.97708  C17.9342,9.78645 17.3657,9.62148 16.836,9.608 " /><path d="M-26.476,9.68396 C-26.9715,9.69924 -27.5146,9.86617 -28.06,10.0587  C-28.6041,10.2534 -29.171,10.4915 -29.7383,10.724 " /><path d="M-26.476 9.68396 A6 0.209395 -180 0 0 -24.0395 9.5155" />
<path d="M-24.0395 9.5155 A6 0.209395 -180 0 0 -24.0471 9.50499" />
<path d=" M -24.0471 9.50499 L -24.6998 9.05187 " />
</g>
<g   fill="none"
   stroke="#bcbec0"
   stroke-linecap="butt"
   stroke-linejoin="miter"
   stroke-width="0.4px"
   transform="scale(1,-1) translate(-11.891137024085891, -59.46292537697143)"
  >
<path d=" M 13.4032 48.2578 L 13.4032 48.3807 " />
<path d=" M 29.2032 48.2578 L 29.2032 48.3807 " />
</g>
<g   fill="none"
   stroke="#bcbec0"
   stroke-linecap="round"
   stroke-linejoin="round"
   stroke-width="0.4px"
   transform="scale(1,-1) translate(-11.891137024085891, -59.46292537697143)"
  >
<path d="M29.2005 48.388 A7.9 0.275704 2.74314e-05 0 1 13.4032 48.3807" />
<path d="M13.4032 48.3807 A7.9 0.275704 2.74314e-05 0 1 13.406 48.3734" />
<path d=" M 22.4353 48.3128 L 22.4995 48.2282 " />
<path d="M22.4353,48.3128 L22.4351,48.2281 " /><path d="M22.3309,48.2281 L22.3304,48.4507 " /><path d=" M 22.2662 48.5352 L 22.3304 48.4507 " />
<path d=" M 22.2662 48.5352 L 22.2702 48.228 " />
<path d=" M 20.3403 48.2262 L 20.276 48.3108 " />
<path d=" M 20.1712 48.4487 L 20.1069 48.5332 " />
<path d="M19.305,48.3412 L19.299,48.4166 " /><path d=" M 16.8761 48.4143 L 19.299 48.4166 " />
<path d=" M 19.3562 48.3412 L 16.9334 48.339 " />
<path d=" M 25.7303 48.3471 L 23.3075 48.3449 " />
<path d=" M 23.2502 48.4202 L 25.673 48.4225 " />
<path d=" M 25.673 48.4225 L 25.6354 48.347 " />
<path d="M13.406 48.3734 A7.9 0.275704 2.74314e-05 0 1 29.2032 48.3807" />
<path d="M29.2032 48.3807 A7.9 0.275704 2.74314e-05 0 1 29.2005 48.388" />
<path d="M22.4353 48.3128 A2.25216 0.0785987 2.74314e-05 0 1 23.3075 48.3449" />
<path d=" M 22.4995 48.2282 L 20.3403 48.2262 " />
<path d="M19.3562 48.3412 A2.25216 0.0785987 2.74314e-05 0 1 20.276 48.3108" />
<path d=" M 16.9334 48.339 L 16.8761 48.4143 " />
<path d="M20.1712 48.4487 A2.25216 0.0785987 2.74314e-05 0 1 19.299 48.4166" />
<path d=" M 20.1069 48.5332 L 22.2662 48.5352 " />
<path d="M23.2502 48.4202 A2.25216 0.0785987 2.74314e-05 0 1 22.3304 48.4507" />
<path d=" M 25.673 48.4225 L 25.7303 48.3471 " />
</g>
<g   fill="none"
   stroke="#191919"
   stroke-linecap="butt"
   stroke-linejoin="miter"
   stroke-width="0.4px"
   transform="scale(1,-1) translate(-11.891137024085891, -59.46292537697143)"
  >
<path d=" M 87.2798 46.6467 L 87.5063 46.6463 " />
<path d=" M 87.988 45.9635 L 87.5207 46.6359 " />
<path d=" M 87.9764 39.3274 L 87.5067 38.6566 " />
<path d=" M 88.4721 46.6446 L 88.6986 46.6442 " />
<path d=" M 89.1803 45.9614 L 88.7129 46.6338 " />
<path d=" M 89.1686 39.3253 L 88.699 38.6545 " />
<path d=" M 89.6643 46.6425 L 89.8908 46.6421 " />
<path d=" M 90.3725 45.9593 L 89.9052 46.6317 " />
<path d=" M 90.3609 39.3232 L 89.8912 38.6524 " />
<path d=" M 90.8566 46.6404 L 91.0831 46.64 " />
<path d=" M 91.5647 45.9572 L 91.0974 46.6296 " />
<path d=" M 91.5531 39.3211 L 91.0834 38.6503 " />
<path d=" M 92.0488 46.6383 L 92.2753 46.6379 " />
<path d=" M 92.757 45.9551 L 92.2897 46.6276 " />
<path d=" M 92.7453 39.319 L 92.2757 38.6482 " />
<path d=" M 93.2411 46.6362 L 93.4675 46.6358 " />
<path d=" M 93.9492 45.953 L 93.4819 46.6255 " />
<path d=" M 93.9376 39.3169 L 93.4679 38.6461 " />
<path d=" M 94.4333 46.6341 L 94.6598 46.6337 " />
<path d=" M 95.1415 45.9509 L 94.6742 46.6234 " />
<path d=" M 95.1298 39.3148 L 94.6602 38.644 " />
<path d=" M 95.6256 46.632 L 95.852 46.6316 " />
<path d=" M 96.3337 45.9488 L 95.8664 46.6213 " />
<path d=" M 96.3221 39.3127 L 95.8524 38.6419 " />
<path d=" M 96.8178 46.6299 L 97.0443 46.6295 " />
<path d=" M 97.526 45.9467 L 97.0587 46.6192 " />
<path d=" M 97.5143 39.3106 L 97.0447 38.6398 " />
<path d=" M 98.01 46.6278 L 98.2365 46.6274 " />
<path d=" M 98.7182 45.9446 L 98.2509 46.6171 " />
<path d=" M 98.7066 39.3085 L 98.2369 38.6377 " />
<path d=" M 99.2023 46.6257 L 99.4288 46.6253 " />
<path d=" M 99.9105 45.9426 L 99.4431 46.615 " />
<path d=" M 99.8988 39.3065 L 99.4292 38.6356 " />
<path d=" M 100.395 46.6237 L 100.621 46.6233 " />
<path d=" M 101.103 45.9405 L 100.635 46.6129 " />
<path d=" M 101.091 39.3044 L 100.621 38.6336 " />
<path d=" M 101.587 46.6216 L 101.813 46.6212 " />
<path d=" M 102.295 45.9384 L 101.828 46.6108 " />
<path d=" M 102.283 39.3023 L 101.814 38.6315 " />
<path d=" M 102.779 46.6195 L 103.005 46.6191 " />
<path d=" M 103.487 45.9363 L 103.02 46.6087 " />
<path d=" M 103.476 39.3002 L 103.006 38.6294 " />
<path d=" M 103.971 46.6174 L 104.198 46.617 " />
<path d=" M 104.679 45.9342 L 104.212 46.6066 " />
<path d=" M 104.668 39.2981 L 104.198 38.6273 " />
<path d=" M 105.164 46.6153 L 105.39 46.6149 " />
<path d=" M 105.872 45.9321 L 105.404 46.6046 " />
<path d=" M 105.86 39.296 L 105.39 38.6252 " />
<path d="M106.341,38.6123 C106.782,38.5993 107.217,38.4311 107.549,38.1513  C107.594,38.1129 107.638,38.0728 107.68,38.0309 " /><path d=" M 107.696 47.1908 L 111.003 50.4951 " />
<path d=" M 111.023 50.505 L 111.772 50.5037 " />
<path d=" M 110.996 34.705 L 111.745 34.7037 " />
<path d=" M 107.68 38.0309 L 110.976 34.7151 " />
<path d="M106.355,46.6141 C106.796,46.6255 107.232,46.7923 107.564,47.0709  C107.61,47.1091 107.654,47.1491 107.696,47.1908 " /><path d=" M 105.848 39.3131 L 106.323 38.6298 " />
<path d=" M 105.86 45.915 L 106.337 46.5966 " />
<path d=" M 105.149 38.6153 L 105.376 38.6149 " />
<path d=" M 104.656 39.3152 L 105.135 38.6256 " />
<path d=" M 104.667 45.9171 L 105.149 46.605 " />
<path d=" M 103.957 38.6174 L 104.184 38.617 " />
<path d=" M 103.464 39.3173 L 103.943 38.6277 " />
<path d=" M 103.475 45.9192 L 103.957 46.6071 " />
<path d=" M 102.765 38.6195 L 102.991 38.6191 " />
<path d=" M 102.271 39.3194 L 102.751 38.6298 " />
<path d=" M 102.283 45.9213 L 102.765 46.6092 " />
<path d=" M 101.573 38.6216 L 101.799 38.6212 " />
<path d=" M 101.079 39.3215 L 101.558 38.6319 " />
<path d=" M 101.091 45.9234 L 101.572 46.6113 " />
<path d=" M 100.381 38.6237 L 100.607 38.6233 " />
<path d=" M 99.8869 39.3236 L 100.366 38.634 " />
<path d=" M 99.8985 45.9255 L 100.38 46.6134 " />
<path d=" M 99.1883 38.6258 L 99.4147 38.6254 " />
<path d=" M 98.6947 39.3257 L 99.1739 38.6361 " />
<path d=" M 98.7063 45.9276 L 99.1879 46.6155 " />
<path d=" M 97.996 38.6278 L 98.2225 38.6274 " />
<path d=" M 97.5024 39.3277 L 97.9816 38.6382 " />
<path d=" M 97.514 45.9297 L 97.9956 46.6175 " />
<path d=" M 96.8038 38.6299 L 97.0302 38.6295 " />
<path d=" M 96.3102 39.3298 L 96.7894 38.6403 " />
<path d=" M 96.3218 45.9318 L 96.8034 46.6196 " />
<path d=" M 95.6115 38.632 L 95.838 38.6316 " />
<path d=" M 95.118 39.3319 L 95.5971 38.6424 " />
<path d=" M 95.1295 45.9339 L 95.6111 46.6217 " />
<path d=" M 94.4193 38.6341 L 94.6458 38.6337 " />
<path d=" M 93.9257 39.334 L 94.4049 38.6445 " />
<path d=" M 93.9373 45.9359 L 94.4189 46.6238 " />
<path d=" M 93.227 38.6362 L 93.4535 38.6358 " />
<path d=" M 92.7335 39.3361 L 93.2127 38.6465 " />
<path d=" M 92.745 45.938 L 93.2266 46.6259 " />
<path d=" M 92.0348 38.6383 L 92.2613 38.6379 " />
<path d=" M 91.5412 39.3382 L 92.0204 38.6486 " />
<path d=" M 91.5528 45.9401 L 92.0344 46.628 " />
<path d=" M 90.8425 38.6404 L 91.069 38.64 " />
<path d=" M 90.349 39.3403 L 90.8282 38.6507 " />
<path d=" M 90.3606 45.9422 L 90.8422 46.6301 " />
<path d=" M 89.6503 38.6425 L 89.8768 38.6421 " />
<path d=" M 89.1567 39.3424 L 89.6359 38.6528 " />
<path d=" M 89.1683 45.9443 L 89.6499 46.6322 " />
<path d=" M 88.4581 38.6446 L 88.6845 38.6442 " />
<path d=" M 87.9645 39.3445 L 88.4437 38.6549 " />
<path d=" M 87.9761 45.9464 L 88.4577 46.6343 " />
<path d=" M 87.2658 38.6467 L 87.4923 38.6463 " />
<path d=" M 86.7722 39.3466 L 87.2514 38.657 " />
<path d=" M 86.7838 45.9485 L 87.2654 46.6364 " />
</g>
<g   fill="none"
   stroke="#191919"
   stroke-linecap="round"
   stroke-linejoin="round"
   stroke-width="0.4px"
   transform="scale(1,-1) translate(-11.891137024085891, -59.46292537697143)"
  >
<path d="M87.2798 46.6467 A4 0.200711 -90.1005 0 1 87.274 46.645" />
<path d="M87.274 46.645 A4 0.200711 -90.1005 0 1 87.2654 46.6364" />
<path d="M87.2654 46.6364 A4 0.200711 -90.1005 0 1 87.072 42.5312" />
<path d="M87.5005 46.6446 A4 0.200711 -90.1005 0 1 87.2985 42.5308" />
<path d="M87.5207 46.6359 A4 0.200711 -90.1005 0 1 87.5063 46.6463" />
<path d="M87.5063 46.6463 A4 0.200711 -90.1005 0 1 87.5005 46.6446" />
<path d="M88.4721 46.6446 A4 0.200711 -90.1005 0 1 88.4663 46.6429" />
<path d="M87.4981 38.6479 A4 0.200711 -90.1005 0 1 87.5067 38.6566" />
<path d="M87.5067 38.6566 A4 0.200711 -90.1005 0 1 87.5153 38.6724" />
<path d="M88.4663 46.6429 A4 0.200711 -90.1005 0 1 88.4577 46.6343" />
<path d="M88.4577 46.6343 A4 0.200711 -90.1005 0 1 88.2642 42.5291" />
<path d="M88.6928 46.6425 A4 0.200711 -90.1005 0 1 88.4907 42.5287" />
<path d="M88.7129 46.6338 A4 0.200711 -90.1005 0 1 88.6986 46.6442" />
<path d="M88.6986 46.6442 A4 0.200711 -90.1005 0 1 88.6928 46.6425" />
<path d="M89.6643 46.6425 A4 0.200711 -90.1005 0 1 89.6585 46.6408" />
<path d="M88.6903 38.6458 A4 0.200711 -90.1005 0 1 88.699 38.6545" />
<path d="M88.699 38.6545 A4 0.200711 -90.1005 0 1 88.7075 38.6703" />
<path d="M89.6585 46.6408 A4 0.200711 -90.1005 0 1 89.6499 46.6322" />
<path d="M89.6499 46.6322 A4 0.200711 -90.1005 0 1 89.4565 42.527" />
<path d="M89.885 46.6404 A4 0.200711 -90.1005 0 1 89.683 42.5266" />
<path d="M89.9052 46.6317 A4 0.200711 -90.1005 0 1 89.8908 46.6421" />
<path d="M89.8908 46.6421 A4 0.200711 -90.1005 0 1 89.885 46.6404" />
<path d="M90.8566 46.6404 A4 0.200711 -90.1005 0 1 90.8508 46.6387" />
<path d="M89.8826 38.6438 A4 0.200711 -90.1005 0 1 89.8912 38.6524" />
<path d="M89.8912 38.6524 A4 0.200711 -90.1005 0 1 89.8998 38.6683" />
<path d="M90.8508 46.6387 A4 0.200711 -90.1005 0 1 90.8422 46.6301" />
<path d="M90.8422 46.6301 A4 0.200711 -90.1005 0 1 90.6487 42.5249" />
<path d="M91.0772 46.6383 A4 0.200711 -90.1005 0 1 90.8752 42.5245" />
<path d="M91.0974 46.6296 A4 0.200711 -90.1005 0 1 91.0831 46.64" />
<path d="M91.0831 46.64 A4 0.200711 -90.1005 0 1 91.0772 46.6383" />
<path d="M92.0488 46.6383 A4 0.200711 -90.1005 0 1 92.043 46.6366" />
<path d="M91.0748 38.6417 A4 0.200711 -90.1005 0 1 91.0834 38.6503" />
<path d="M91.0834 38.6503 A4 0.200711 -90.1005 0 1 91.092 38.6662" />
<path d="M92.043 46.6366 A4 0.200711 -90.1005 0 1 92.0344 46.628" />
<path d="M92.0344 46.628 A4 0.200711 -90.1005 0 1 91.841 42.5228" />
<path d="M92.2695 46.6362 A4 0.200711 -90.1005 0 1 92.0675 42.5224" />
<path d="M92.2897 46.6276 A4 0.200711 -90.1005 0 1 92.2753 46.6379" />
<path d="M92.2753 46.6379 A4 0.200711 -90.1005 0 1 92.2695 46.6362" />
<path d="M93.2411 46.6362 A4 0.200711 -90.1005 0 1 93.2353 46.6345" />
<path d="M92.2671 38.6396 A4 0.200711 -90.1005 0 1 92.2757 38.6482" />
<path d="M92.2757 38.6482 A4 0.200711 -90.1005 0 1 92.2843 38.6641" />
<path d="M93.2353 46.6345 A4 0.200711 -90.1005 0 1 93.2266 46.6259" />
<path d="M93.2266 46.6259 A4 0.200711 -90.1005 0 1 93.0332 42.5207" />
<path d="M93.4617 46.6341 A4 0.200711 -90.1005 0 1 93.2597 42.5203" />
<path d="M93.4819 46.6255 A4 0.200711 -90.1005 0 1 93.4675 46.6358" />
<path d="M93.4675 46.6358 A4 0.200711 -90.1005 0 1 93.4617 46.6341" />
<path d="M94.4333 46.6341 A4 0.200711 -90.1005 0 1 94.4275 46.6324" />
<path d="M93.4593 38.6375 A4 0.200711 -90.1005 0 1 93.4679 38.6461" />
<path d="M93.4679 38.6461 A4 0.200711 -90.1005 0 1 93.4765 38.662" />
<path d="M94.4275 46.6324 A4 0.200711 -90.1005 0 1 94.4189 46.6238" />
<path d="M94.4189 46.6238 A4 0.200711 -90.1005 0 1 94.2255 42.5186" />
<path d="M94.654 46.632 A4 0.200711 -90.1005 0 1 94.4519 42.5183" />
<path d="M94.6742 46.6234 A4 0.200711 -90.1005 0 1 94.6598 46.6337" />
<path d="M94.6598 46.6337 A4 0.200711 -90.1005 0 1 94.654 46.632" />
<path d="M95.6256 46.632 A4 0.200711 -90.1005 0 1 95.6197 46.6303" />
<path d="M94.6516 38.6354 A4 0.200711 -90.1005 0 1 94.6602 38.644" />
<path d="M94.6602 38.644 A4 0.200711 -90.1005 0 1 94.6687 38.6599" />
<path d="M95.6197 46.6303 A4 0.200711 -90.1005 0 1 95.6111 46.6217" />
<path d="M95.6111 46.6217 A4 0.200711 -90.1005 0 1 95.4177 42.5166" />
<path d="M95.8462 46.63 A4 0.200711 -90.1005 0 1 95.6442 42.5162" />
<path d="M95.8664 46.6213 A4 0.200711 -90.1005 0 1 95.852 46.6316" />
<path d="M95.852 46.6316 A4 0.200711 -90.1005 0 1 95.8462 46.63" />
<path d="M96.8178 46.6299 A4 0.200711 -90.1005 0 1 96.812 46.6283" />
<path d="M95.8438 38.6333 A4 0.200711 -90.1005 0 1 95.8524 38.6419" />
<path d="M95.8524 38.6419 A4 0.200711 -90.1005 0 1 95.861 38.6578" />
<path d="M96.812 46.6283 A4 0.200711 -90.1005 0 1 96.8034 46.6196" />
<path d="M96.8034 46.6196 A4 0.200711 -90.1005 0 1 96.61 42.5145" />
<path d="M97.0385 46.6279 A4 0.200711 -90.1005 0 1 96.8364 42.5141" />
<path d="M97.0587 46.6192 A4 0.200711 -90.1005 0 1 97.0443 46.6295" />
<path d="M97.0443 46.6295 A4 0.200711 -90.1005 0 1 97.0385 46.6279" />
<path d="M98.01 46.6278 A4 0.200711 -90.1005 0 1 98.0042 46.6262" />
<path d="M97.0361 38.6312 A4 0.200711 -90.1005 0 1 97.0447 38.6398" />
<path d="M97.0447 38.6398 A4 0.200711 -90.1005 0 1 97.0532 38.6557" />
<path d="M98.0042 46.6262 A4 0.200711 -90.1005 0 1 97.9956 46.6175" />
<path d="M97.9956 46.6175 A4 0.200711 -90.1005 0 1 97.8022 42.5124" />
<path d="M98.2307 46.6258 A4 0.200711 -90.1005 0 1 98.0287 42.512" />
<path d="M98.2509 46.6171 A4 0.200711 -90.1005 0 1 98.2365 46.6274" />
<path d="M98.2365 46.6274 A4 0.200711 -90.1005 0 1 98.2307 46.6258" />
<path d="M99.2023 46.6257 A4 0.200711 -90.1005 0 1 99.1965 46.6241" />
<path d="M98.2283 38.6291 A4 0.200711 -90.1005 0 1 98.2369 38.6377" />
<path d="M98.2369 38.6377 A4 0.200711 -90.1005 0 1 98.2455 38.6536" />
<path d="M99.1965 46.6241 A4 0.200711 -90.1005 0 1 99.1879 46.6155" />
<path d="M99.1879 46.6155 A4 0.200711 -90.1005 0 1 98.9944 42.5103" />
<path d="M99.423 46.6237 A4 0.200711 -90.1005 0 1 99.2209 42.5099" />
<path d="M99.4431 46.615 A4 0.200711 -90.1005 0 1 99.4288 46.6253" />
<path d="M99.4288 46.6253 A4 0.200711 -90.1005 0 1 99.423 46.6237" />
<path d="M100.395 46.6237 A4 0.200711 -90.1005 0 1 100.389 46.622" />
<path d="M99.4205 38.627 A4 0.200711 -90.1005 0 1 99.4292 38.6356" />
<path d="M99.4292 38.6356 A4 0.200711 -90.1005 0 1 99.4377 38.6515" />
<path d="M100.389 46.622 A4 0.200711 -90.1005 0 1 100.38 46.6134" />
<path d="M100.38 46.6134 A4 0.200711 -90.1005 0 1 100.187 42.5082" />
<path d="M100.615 46.6216 A4 0.200711 -90.1005 0 1 100.413 42.5078" />
<path d="M100.635 46.6129 A4 0.200711 -90.1005 0 1 100.621 46.6233" />
<path d="M100.621 46.6233 A4 0.200711 -90.1005 0 1 100.615 46.6216" />
<path d="M101.587 46.6216 A4 0.200711 -90.1005 0 1 101.581 46.6199" />
<path d="M100.613 38.6249 A4 0.200711 -90.1005 0 1 100.621 38.6336" />
<path d="M100.621 38.6336 A4 0.200711 -90.1005 0 1 100.63 38.6494" />
<path d="M101.581 46.6199 A4 0.200711 -90.1005 0 1 101.572 46.6113" />
<path d="M101.572 46.6113 A4 0.200711 -90.1005 0 1 101.379 42.5061" />
<path d="M101.807 46.6195 A4 0.200711 -90.1005 0 1 101.605 42.5057" />
<path d="M101.828 46.6108 A4 0.200711 -90.1005 0 1 101.813 46.6212" />
<path d="M101.813 46.6212 A4 0.200711 -90.1005 0 1 101.807 46.6195" />
<path d="M102.779 46.6195 A4 0.200711 -90.1005 0 1 102.773 46.6178" />
<path d="M101.805 38.6228 A4 0.200711 -90.1005 0 1 101.814 38.6315" />
<path d="M101.814 38.6315 A4 0.200711 -90.1005 0 1 101.822 38.6473" />
<path d="M102.773 46.6178 A4 0.200711 -90.1005 0 1 102.765 46.6092" />
<path d="M102.765 46.6092 A4 0.200711 -90.1005 0 1 102.571 42.504" />
<path d="M103 46.6174 A4 0.200711 -90.1005 0 1 102.798 42.5036" />
<path d="M103.02 46.6087 A4 0.200711 -90.1005 0 1 103.005 46.6191" />
<path d="M103.005 46.6191 A4 0.200711 -90.1005 0 1 103 46.6174" />
<path d="M103.971 46.6174 A4 0.200711 -90.1005 0 1 103.965 46.6157" />
<path d="M102.997 38.6208 A4 0.200711 -90.1005 0 1 103.006 38.6294" />
<path d="M103.006 38.6294 A4 0.200711 -90.1005 0 1 103.014 38.6453" />
<path d="M103.965 46.6157 A4 0.200711 -90.1005 0 1 103.957 46.6071" />
<path d="M103.957 46.6071 A4 0.200711 -90.1005 0 1 103.763 42.5019" />
<path d="M104.192 46.6153 A4 0.200711 -90.1005 0 1 103.99 42.5015" />
<path d="M104.212 46.6066 A4 0.200711 -90.1005 0 1 104.198 46.617" />
<path d="M104.198 46.617 A4 0.200711 -90.1005 0 1 104.192 46.6153" />
<path d="M105.164 46.6153 A4 0.200711 -90.1005 0 1 105.158 46.6136" />
<path d="M104.19 38.6187 A4 0.200711 -90.1005 0 1 104.198 38.6273" />
<path d="M104.198 38.6273 A4 0.200711 -90.1005 0 1 104.207 38.6432" />
<path d="M105.158 46.6136 A4 0.200711 -90.1005 0 1 105.149 46.605" />
<path d="M105.149 46.605 A4 0.200711 -90.1005 0 1 104.956 42.4998" />
<path d="M105.384 46.6132 A4 0.200711 -90.1005 0 1 105.182 42.4994" />
<path d="M105.404 46.6046 A4 0.200711 -90.1005 0 1 105.39 46.6149" />
<path d="M105.39 46.6149 A4 0.200711 -90.1005 0 1 105.384 46.6132" />
<path d="M105.382 38.6166 A4 0.200711 -90.1005 0 1 105.39 38.6252" />
<path d="M105.39 38.6252 A4 0.200711 -90.1005 0 1 105.399 38.6411" />
<path d="M106.148 42.4977 A4.00096 0.200759 -90.1005 0 1 106.341 38.6123" />
<path d="M111.023 50.505 A7.9 0.396405 -90.1005 0 1 111.003 50.4951" />
<path d="M111.003 50.4951 A7.9 0.396405 -90.1005 0 1 110.613 42.377" />
<path d="M112.155 42.8318 A7.9 0.396405 -90.1005 0 1 111.772 50.5037" />
<path d="M111.772 50.5037 A7.9 0.396405 -90.1005 0 1 111.362 42.3757" />
<path d=" M 111.812 40.6594 L 111.811 38.2367 " />
<path d="M111.812,40.6594 L111.697,40.6688 " /><path d=" M 111.811 38.2367 L 111.703 38.291 " />
<path d="M111.705,44.6019 L111.813,44.6104 " /><path d=" M 111.814 47.033 L 111.813 44.6104 " />
<path d=" M 111.703 38.1744 L 111.704 40.597 " />
<path d=" M 111.705 44.548 L 111.706 46.9707 " />
<path d=" M 111.538 43.5563 L 111.66 43.6262 " />
<path d=" M 111.659 41.4671 L 111.537 41.3972 " />
<path d="M111.659,41.4671 L111.537,41.4676 " /><path d="M111.537,41.581 L111.857,41.5812 " /><path d=" M 111.979 41.6512 L 111.857 41.5812 " />
<path d=" M 111.979 41.6512 L 111.537 41.6457 " />
<path d=" M 111.858 43.7403 L 111.98 43.8103 " />
<path d="M111.362 42.3757 A7.9 0.396405 -90.1005 0 1 111.745 34.7037" />
<path d="M111.745 34.7037 A7.9 0.396405 -90.1005 0 1 112.155 42.8318" />
<path d="M111.812 40.6594 A2.25216 0.113009 -90.1005 0 1 111.857 41.5812" />
<path d=" M 111.811 38.2367 L 111.703 38.1744 " />
<path d="M111.659 41.4671 A2.25216 0.113009 -90.1005 0 1 111.704 40.597" />
<path d=" M 111.537 41.3972 L 111.538 43.5563 " />
<path d="M111.705 44.548 A2.25216 0.113009 -90.1005 0 1 111.66 43.6262" />
<path d=" M 111.706 46.9707 L 111.814 47.033 " />
<path d="M111.858 43.7403 A2.25216 0.113009 -90.1005 0 1 111.813 44.6104" />
<path d=" M 111.98 43.8103 L 111.979 41.6512 " />
<path d="M110.613 42.377 A7.9 0.396405 -90.1005 0 1 110.976 34.7151" />
<path d="M110.976 34.7151 A7.9 0.396405 -90.1005 0 1 110.996 34.705" />
<path d="M106.355 46.6141 A4.00096 0.200759 -90.1005 0 1 106.148 42.4977" />
<path d="M106.341 46.6029 A4 0.200711 -90.1005 0 1 106.327 38.6235" />
<path d="M105.867 45.9222 A3.3095 0.166064 -90.1005 0 1 105.86 45.915" />
<path d="M105.86 45.915 A3.3095 0.166064 -90.1005 0 1 105.848 39.3131" />
<path d="M105.182 42.4994 A4 0.200711 -90.1005 0 1 105.376 38.6149" />
<path d="M105.376 38.6149 A4 0.200711 -90.1005 0 1 105.382 38.6166" />
<path d="M104.956 42.4998 A4 0.200711 -90.1005 0 1 105.135 38.6256" />
<path d="M105.135 38.6256 A4 0.200711 -90.1005 0 1 105.149 38.6153" />
<path d="M105.149 38.6153 A4 0.200711 -90.1005 0 1 105.155 38.617" />
<path d="M104.675 45.9243 A3.3095 0.166064 -90.1005 0 1 104.667 45.9171" />
<path d="M104.667 45.9171 A3.3095 0.166064 -90.1005 0 1 104.656 39.3152" />
<path d="M103.99 42.5015 A4 0.200711 -90.1005 0 1 104.184 38.617" />
<path d="M104.184 38.617 A4 0.200711 -90.1005 0 1 104.19 38.6187" />
<path d="M103.763 42.5019 A4 0.200711 -90.1005 0 1 103.943 38.6277" />
<path d="M103.943 38.6277 A4 0.200711 -90.1005 0 1 103.957 38.6174" />
<path d="M103.957 38.6174 A4 0.200711 -90.1005 0 1 103.963 38.6191" />
<path d="M103.482 45.9263 A3.3095 0.166064 -90.1005 0 1 103.475 45.9192" />
<path d="M103.475 45.9192 A3.3095 0.166064 -90.1005 0 1 103.464 39.3173" />
<path d="M102.798 42.5036 A4 0.200711 -90.1005 0 1 102.991 38.6191" />
<path d="M102.991 38.6191 A4 0.200711 -90.1005 0 1 102.997 38.6208" />
<path d="M102.571 42.504 A4 0.200711 -90.1005 0 1 102.751 38.6298" />
<path d="M102.751 38.6298 A4 0.200711 -90.1005 0 1 102.765 38.6195" />
<path d="M102.765 38.6195 A4 0.200711 -90.1005 0 1 102.771 38.6211" />
<path d="M102.29 45.9284 A3.3095 0.166064 -90.1005 0 1 102.283 45.9213" />
<path d="M102.283 45.9213 A3.3095 0.166064 -90.1005 0 1 102.271 39.3194" />
<path d="M101.605 42.5057 A4 0.200711 -90.1005 0 1 101.799 38.6212" />
<path d="M101.799 38.6212 A4 0.200711 -90.1005 0 1 101.805 38.6228" />
<path d="M101.379 42.5061 A4 0.200711 -90.1005 0 1 101.558 38.6319" />
<path d="M101.558 38.6319 A4 0.200711 -90.1005 0 1 101.573 38.6216" />
<path d="M101.573 38.6216 A4 0.200711 -90.1005 0 1 101.579 38.6232" />
<path d="M101.098 45.9305 A3.3095 0.166064 -90.1005 0 1 101.091 45.9234" />
<path d="M101.091 45.9234 A3.3095 0.166064 -90.1005 0 1 101.079 39.3215" />
<path d="M100.413 42.5078 A4 0.200711 -90.1005 0 1 100.607 38.6233" />
<path d="M100.607 38.6233 A4 0.200711 -90.1005 0 1 100.613 38.6249" />
<path d="M100.187 42.5082 A4 0.200711 -90.1005 0 1 100.366 38.634" />
<path d="M100.366 38.634 A4 0.200711 -90.1005 0 1 100.381 38.6237" />
<path d="M100.381 38.6237 A4 0.200711 -90.1005 0 1 100.386 38.6253" />
<path d="M99.9056 45.9326 A3.3095 0.166064 -90.1005 0 1 99.8985 45.9255" />
<path d="M99.8985 45.9255 A3.3095 0.166064 -90.1005 0 1 99.8869 39.3236" />
<path d="M99.2209 42.5099 A4 0.200711 -90.1005 0 1 99.4147 38.6254" />
<path d="M99.4147 38.6254 A4 0.200711 -90.1005 0 1 99.4205 38.627" />
<path d="M98.9944 42.5103 A4 0.200711 -90.1005 0 1 99.1739 38.6361" />
<path d="M99.1739 38.6361 A4 0.200711 -90.1005 0 1 99.1883 38.6258" />
<path d="M99.1883 38.6258 A4 0.200711 -90.1005 0 1 99.1941 38.6274" />
<path d="M98.7134 45.9347 A3.3095 0.166064 -90.1005 0 1 98.7063 45.9276" />
<path d="M98.7063 45.9276 A3.3095 0.166064 -90.1005 0 1 98.6947 39.3257" />
<path d="M98.0287 42.512 A4 0.200711 -90.1005 0 1 98.2225 38.6274" />
<path d="M98.2225 38.6274 A4 0.200711 -90.1005 0 1 98.2283 38.6291" />
<path d="M97.8022 42.5124 A4 0.200711 -90.1005 0 1 97.9816 38.6382" />
<path d="M97.9816 38.6382 A4 0.200711 -90.1005 0 1 97.996 38.6278" />
<path d="M97.996 38.6278 A4 0.200711 -90.1005 0 1 98.0018 38.6295" />
<path d="M97.5211 45.9368 A3.3095 0.166064 -90.1005 0 1 97.514 45.9297" />
<path d="M97.514 45.9297 A3.3095 0.166064 -90.1005 0 1 97.5024 39.3277" />
<path d="M96.8364 42.5141 A4 0.200711 -90.1005 0 1 97.0302 38.6295" />
<path d="M97.0302 38.6295 A4 0.200711 -90.1005 0 1 97.0361 38.6312" />
<path d="M96.61 42.5145 A4 0.200711 -90.1005 0 1 96.7894 38.6403" />
<path d="M96.7894 38.6403 A4 0.200711 -90.1005 0 1 96.8038 38.6299" />
<path d="M96.8038 38.6299 A4 0.200711 -90.1005 0 1 96.8096 38.6316" />
<path d="M96.3289 45.9389 A3.3095 0.166064 -90.1005 0 1 96.3218 45.9318" />
<path d="M96.3218 45.9318 A3.3095 0.166064 -90.1005 0 1 96.3102 39.3298" />
<path d="M95.6442 42.5162 A4 0.200711 -90.1005 0 1 95.838 38.6316" />
<path d="M95.838 38.6316 A4 0.200711 -90.1005 0 1 95.8438 38.6333" />
<path d="M95.4177 42.5166 A4 0.200711 -90.1005 0 1 95.5971 38.6424" />
<path d="M95.5971 38.6424 A4 0.200711 -90.1005 0 1 95.6115 38.632" />
<path d="M95.6115 38.632 A4 0.200711 -90.1005 0 1 95.6173 38.6337" />
<path d="M95.1367 45.941 A3.3095 0.166064 -90.1005 0 1 95.1295 45.9339" />
<path d="M95.1295 45.9339 A3.3095 0.166064 -90.1005 0 1 95.118 39.3319" />
<path d="M94.4519 42.5183 A4 0.200711 -90.1005 0 1 94.6458 38.6337" />
<path d="M94.6458 38.6337 A4 0.200711 -90.1005 0 1 94.6516 38.6354" />
<path d="M94.2255 42.5186 A4 0.200711 -90.1005 0 1 94.4049 38.6445" />
<path d="M94.4049 38.6445 A4 0.200711 -90.1005 0 1 94.4193 38.6341" />
<path d="M94.4193 38.6341 A4 0.200711 -90.1005 0 1 94.4251 38.6358" />
<path d="M93.9444 45.9431 A3.3095 0.166064 -90.1005 0 1 93.9373 45.9359" />
<path d="M93.9373 45.9359 A3.3095 0.166064 -90.1005 0 1 93.9257 39.334" />
<path d="M93.2597 42.5203 A4 0.200711 -90.1005 0 1 93.4535 38.6358" />
<path d="M93.4535 38.6358 A4 0.200711 -90.1005 0 1 93.4593 38.6375" />
<path d="M93.0332 42.5207 A4 0.200711 -90.1005 0 1 93.2127 38.6465" />
<path d="M93.2127 38.6465 A4 0.200711 -90.1005 0 1 93.227 38.6362" />
<path d="M93.227 38.6362 A4 0.200711 -90.1005 0 1 93.2328 38.6379" />
<path d="M92.7522 45.9452 A3.3095 0.166064 -90.1005 0 1 92.745 45.938" />
<path d="M92.745 45.938 A3.3095 0.166064 -90.1005 0 1 92.7335 39.3361" />
<path d="M92.0675 42.5224 A4 0.200711 -90.1005 0 1 92.2613 38.6379" />
<path d="M92.2613 38.6379 A4 0.200711 -90.1005 0 1 92.2671 38.6396" />
<path d="M91.841 42.5228 A4 0.200711 -90.1005 0 1 92.0204 38.6486" />
<path d="M92.0204 38.6486 A4 0.200711 -90.1005 0 1 92.0348 38.6383" />
<path d="M92.0348 38.6383 A4 0.200711 -90.1005 0 1 92.0406 38.64" />
<path d="M91.5599 45.9473 A3.3095 0.166064 -90.1005 0 1 91.5528 45.9401" />
<path d="M91.5528 45.9401 A3.3095 0.166064 -90.1005 0 1 91.5412 39.3382" />
<path d="M90.8752 42.5245 A4 0.200711 -90.1005 0 1 91.069 38.64" />
<path d="M91.069 38.64 A4 0.200711 -90.1005 0 1 91.0748 38.6417" />
<path d="M90.6487 42.5249 A4 0.200711 -90.1005 0 1 90.8282 38.6507" />
<path d="M90.8282 38.6507 A4 0.200711 -90.1005 0 1 90.8425 38.6404" />
<path d="M90.8425 38.6404 A4 0.200711 -90.1005 0 1 90.8484 38.6421" />
<path d="M90.3677 45.9493 A3.3095 0.166064 -90.1005 0 1 90.3606 45.9422" />
<path d="M90.3606 45.9422 A3.3095 0.166064 -90.1005 0 1 90.349 39.3403" />
<path d="M89.683 42.5266 A4 0.200711 -90.1005 0 1 89.8768 38.6421" />
<path d="M89.8768 38.6421 A4 0.200711 -90.1005 0 1 89.8826 38.6438" />
<path d="M89.4565 42.527 A4 0.200711 -90.1005 0 1 89.6359 38.6528" />
<path d="M89.6359 38.6528 A4 0.200711 -90.1005 0 1 89.6503 38.6425" />
<path d="M89.6503 38.6425 A4 0.200711 -90.1005 0 1 89.6561 38.6442" />
<path d="M89.1754 45.9514 A3.3095 0.166064 -90.1005 0 1 89.1683 45.9443" />
<path d="M89.1683 45.9443 A3.3095 0.166064 -90.1005 0 1 89.1567 39.3424" />
<path d="M88.4907 42.5287 A4 0.200711 -90.1005 0 1 88.6845 38.6442" />
<path d="M88.6845 38.6442 A4 0.200711 -90.1005 0 1 88.6903 38.6458" />
<path d="M88.2642 42.5291 A4 0.200711 -90.1005 0 1 88.4437 38.6549" />
<path d="M88.4437 38.6549 A4 0.200711 -90.1005 0 1 88.4581 38.6446" />
<path d="M88.4581 38.6446 A4 0.200711 -90.1005 0 1 88.4639 38.6462" />
<path d="M87.9832 45.9535 A3.3095 0.166064 -90.1005 0 1 87.9761 45.9464" />
<path d="M87.9761 45.9464 A3.3095 0.166064 -90.1005 0 1 87.9645 39.3445" />
<path d="M87.2985 42.5308 A4 0.200711 -90.1005 0 1 87.4923 38.6463" />
<path d="M87.4923 38.6463 A4 0.200711 -90.1005 0 1 87.4981 38.6479" />
<path d="M87.072 42.5312 A4 0.200711 -90.1005 0 1 87.2514 38.657" />
<path d="M87.2514 38.657 A4 0.200711 -90.1005 0 1 87.2658 38.6467" />
<path d="M87.2658 38.6467 A4 0.200711 -90.1005 0 1 87.2716 38.6483" />
<path d="M86.7909 45.9556 A3.3095 0.166064 -90.1005 0 1 86.7838 45.9485" />
<path d="M86.7838 45.9485 A3.3095 0.166064 -90.1005 0 1 86.7722 39.3466" />
</g>
<g   fill="none"
   stroke="#191919"
   stroke-linecap="round"
   stroke-linejoin="round"
   stroke-width="0.4px"
   transform="scale(1,-1) translate(-11.891137024085891, -59.46292537697143)"
  >
<path d="M70.2838 25.4247 A7.5 0.376334 -90.1005 0 1 70.6283 18.1957" />
<path d="M70.6283 18.1957 A7.5 0.376334 -90.1005 0 1 71.0369 25.9476" />
<path d="M70.2838 42.4144 A7.5 0.376334 -90.1005 0 1 70.6283 35.1853" />
<path d="M70.6283 35.1853 A7.5 0.376334 -90.1005 0 1 71.0369 42.9372" />
<path d=" M 56.4215 5.84912 L 56.4215 11.8455 " />
<path d=" M 58.9319 13.5882 L 56.4215 11.8455 " />
<path d=" M 56.4215 11.8455 L 62.4139 11.835 " />
<path d=" M 58.9319 13.5882 L 62.4139 13.5821 " />
<path d=" M 62.4139 11.835 L 62.4139 49.8118 " />
<path d=" M 64.9244 51.5546 L 62.4139 49.8118 " />
<path d=" M 62.4139 49.8118 L 69.4051 49.7995 " />
<path d=" M 71.9155 51.5423 L 69.4051 49.7995 " />
<path d=" M 64.9244 51.5546 L 71.9155 51.5423 " />
<path d="M71.0369 25.9476 A7.5 0.376334 -90.1005 0 1 70.6546 33.1767" />
<path d="M70.6546 33.1767 A7.5 0.376334 -90.1005 0 1 70.2838 25.4247" />
<path d="M71.0369 42.9372 A7.5 0.376334 -90.1005 0 1 70.6545 50.1663" />
<path d="M70.6545 50.1663 A7.5 0.376334 -90.1005 0 1 70.2838 42.4144" />
<path d=" M 69.4051 49.7995 L 69.4051 5.82635 " />
<path d=" M 71.9155 7.56911 L 69.4051 5.82635 " />
<path d=" M 71.9155 51.5423 L 71.9155 7.56911 " />
<path d=" M 69.4051 5.82635 L 56.4215 5.84912 " />
</g>
<g   fill="none"
   stroke="#bcbec0"
   stroke-linecap="round"
   stroke-linejoin="round"
   stroke-width="0.4px"
   transform="scale(1,-1) translate(-11.891137024085891, -59.46292537697143)"
  >
<path d="M28.1994 53.1681 A8.65 0.301878 2.74314e-05 0 1 37.2784 53.459" />
<path d="M37.2784 53.459 A8.65 0.301878 2.74314e-05 0 1 29.068 53.7711" />
<path d="M-21.7376 53.2557 A8.65 0.301878 2.74314e-05 0 1 -12.6586 53.5466" />
<path d="M-12.6586 53.5466 A8.65 0.301878 2.74314e-05 0 1 -20.869 53.8587" />
<path d=" M 46.8064 20.8981 L 48.413 22.0135 " />
<path d=" M 46.8064 20.8981 L 44.9496 20.9014 " />
<path d=" M 48.413 53.994 L -39.476 54.1481 " />
<path d=" M 48.413 22.0135 L 48.413 53.994 " />
<path d="M29.068 53.7711 A8.65 0.301878 2.74314e-05 0 1 19.9889 53.459" />
<path d="M19.9889 53.459 A8.65 0.301878 2.74314e-05 0 1 28.1994 53.1681" />
<path d="M-20.869 53.8587 A8.65 0.301878 2.74314e-05 0 1 -29.948 53.5466" />
<path d="M-29.948 53.5466 A8.65 0.301878 2.74314e-05 0 1 -21.7376 53.2557" />
<path d=" M -39.476 54.1481 L -41.0827 53.0328 " />
<path d=" M 46.8064 52.8786 L -41.0827 53.0328 " />
<path d=" M 48.413 53.994 L 46.8064 52.8786 " />
<path d=" M -41.0827 53.0328 L -41.0827 51.7405 " />
<path d=" M 46.8064 43.3844 L 44.9496 43.3876 " />
<path d=" M 46.8064 52.8786 L 46.8064 43.3844 " />
<path d=" M 47.1327 37.1149 L 44.9496 37.1187 " />
<path d=" M 46.8064 43.3844 L 47.1327 37.1149 " />
<path d=" M 46.8064 30.3923 L 44.9496 30.3956 " />
<path d=" M 47.1327 37.1149 L 46.8064 30.3923 " />
<path d=" M 46.8064 30.3923 L 46.8064 20.8981 " />
</g>
<g   fill="none"
   stroke="#bcbec0"
   stroke-linecap="round"
   stroke-linejoin="round"
   stroke-width="0.4px"
   transform="scale(1,-1) translate(-11.891137024085891, -59.46292537697143)"
  >
<path d="M-7.95224 33.1822 A6.5 6.48785 124.769 0 1 -4.46316 28.1563" />
<path d="M-6.74194 34.8164 A6.5 6.48785 124.769 0 1 -0.800841 28.3334" />
<path d="M43.6944 39.3252 A3.4 0.170605 -90.1005 0 1 43.7003 46.1231" />
<path d="M43.7003 46.1231 A3.4 0.170605 -90.1005 0 1 43.6944 46.121" />
<path d="M43.6944 22.3355 A3.4 0.170605 -90.1005 0 1 43.7003 29.1334" />
<path d="M43.7003 29.1334 A3.4 0.170605 -90.1005 0 1 43.6944 29.1314" />
<path d=" M 42.4392 17.8663 L 44.9496 19.6091 " />
<path d=" M 41.0826 17.8687 L 42.4392 17.8663 " />
<path d="M43.6944 46.121 A3.4 0.170605 -90.1005 0 1 43.6884 39.3231" />
<path d="M43.6884 39.3231 A3.4 0.170605 -90.1005 0 1 43.6944 39.3252" />
<path d="M43.6944 29.1314 A3.4 0.170605 -90.1005 0 1 43.6884 22.3335" />
<path d="M43.6884 22.3335 A3.4 0.170605 -90.1005 0 1 43.6944 22.3355" />
<path d=" M 44.9496 19.6091 L 44.9496 51.5896 " />
<path d=" M 42.4392 49.8468 L 44.9496 51.5896 " />
<path d=" M 42.4392 17.8663 L 42.4392 49.8468 " />
<path d=" M 44.9496 51.5896 L -49.9306 51.756 " />
<path d=" M -52.441 50.0133 L -49.9306 51.756 " />
<path d=" M 42.4392 49.8468 L -52.441 50.0133 " />
<path d=" M -52.441 50.0133 L -52.441 6.04006 " />
<path d=" M -52.441 6.04006 L -41.7231 6.02126 " />
<path d="M-6.50596 36.5515 A6.5 6.48785 124.769 0 1 -6.74194 34.8164" />
</g>

</svg>