<svg
       width="186.97675876813742"
       height="145.24898912371248"
	xmlns="http://www.w3.org/2000/svg" version="1.1"
	xmlns:freecad="http://www.freecadweb.org/wiki/index.php?title=Svg_Namespace">
<g   fill="none"
   stroke="#191919"
   stroke-linecap="round"
   stroke-linejoin="round"
   stroke-width="1px"
   transform="scale(1,-1) translate(45.542473059582235, -802.3821498217932)"
  >
<path d="M58.9476,725.465 C59.2798,725.24 59.6385,724.929 59.9862,724.54  C60.3337,724.152 60.6675,723.686 60.9427,723.192  C61.2188,722.699 61.4342,722.181 61.571,721.702  C61.709,721.221 61.7695,720.781 61.7691,720.412  C61.7694,720.075 61.7193,719.747 61.6056,719.47  C61.4927,719.192 61.3152,718.966 61.0829,718.825 " /><path d="M61.0829,718.825 C60.8066,718.655 60.453,718.609 60.0777,718.682  C59.7022,718.754 59.3089,718.94 58.9477,719.186  C58.6155,719.411 58.2568,719.721 57.9091,720.111  C57.5616,720.499 57.2278,720.965 56.9526,721.458  C56.6765,721.952 56.4611,722.469 56.3243,722.949  C56.1863,723.429 56.1258,723.869 56.1262,724.239  C56.1259,724.576 56.176,724.903 56.2897,725.181  C56.4026,725.459 56.5801,725.684 56.8124,725.825 " /><path d="M56.8124,725.825 C57.0887,725.996 57.4423,726.041 57.8176,725.968  C58.1931,725.897 58.5864,725.71 58.9476,725.465 " /><path d="M58.3122,725.815 C58.3059,725.733 58.3028,725.65 58.3029,725.567  C58.3025,725.197 58.363,724.757 58.501,724.277  C58.6378,723.797 58.8531,723.28 59.1293,722.786  C59.4045,722.292 59.7383,721.826 60.0858,721.439  C60.4334,721.049 60.7922,720.739 61.1243,720.514  C61.3305,720.373 61.5423,720.256 61.7598,720.164 " /><path d="M41.983,725.753 C42.3749,725.993 42.8027,726.169 43.2088,726.222  C43.6148,726.278 43.9941,726.206 44.2842,726.007 " /><path d="M44.2842,726.007 C44.5132,725.853 44.687,725.622 44.7976,725.347  C44.909,725.072 44.9581,724.754 44.9578,724.429  C44.9582,724.059 44.8944,723.621 44.749,723.146  C44.6047,722.671 44.3777,722.161 44.0865,721.677  C43.7964,721.193 43.4444,720.739 43.078,720.363  C42.7115,719.986 42.3332,719.688 41.983,719.475  C41.5911,719.235 41.1633,719.059 40.7572,719.006  C40.3512,718.95 39.9719,719.022 39.6818,719.221 " /><path d="M39.6818,719.221 C39.4528,719.375 39.2791,719.606 39.1684,719.881  C39.0571,720.156 39.008,720.474 39.0082,720.799  C39.0078,721.169 39.0716,721.607 39.2171,722.082  C39.3613,722.557 39.5884,723.067 39.8795,723.551  C40.1697,724.035 40.5217,724.489 40.888,724.865  C41.2546,725.242 41.6329,725.54 41.983,725.753 " /><path d="M39.0252,720.475 C39.3275,720.558 39.6322,720.7 39.9185,720.875  C40.2687,721.088 40.647,721.386 41.0136,721.763  C41.3799,722.139 41.7319,722.593 42.022,723.077  C42.3132,723.561 42.5402,724.071 42.6845,724.546  C42.83,725.021 42.8938,725.46 42.8933,725.829  C42.8935,725.939 42.8878,726.047 42.8764,726.153 " /><path d="M50.6897,726.195 L50.6898,718.737 " /><path d="M50.6898,718.737 L67.2056,707.537 " /><path d="M67.2056,707.537 L67.2055,725.914 " /><path d="M50.6898,718.737 L33.2763,708.114 " /><path d="M33.2763,708.114 L67.2056,707.537 " /><path d="M29.0352,705.889 L29.0351,728.86 " /><path d="M29.0351,728.86 L50.8019,742.139 " /><path d="M50.8019,742.139 L71.4467,728.139 " /><path d="M71.4467,728.139 L71.4467,705.168 " /><path d="M33.2763,726.491 L33.2763,708.114 " /><path d="M71.4467,705.168 L29.0352,705.889 " /><path d="M71.4467,728.139 L29.0351,728.86 " /><path d="M33.2763,726.491 L67.2055,725.914 " /></g>
<g   fill="none"
   stroke="#ed2124"
   stroke-linecap="round"
   stroke-linejoin="round"
   stroke-width="1px"
   transform="scale(1,-1) translate(45.542473059582235, -802.3821498217932)"
  >
<path d=" M 73.957 701.361 L 40.1879 724.022 " />
<path d=" M 31.1009 730.12 L 16.8053 739.714 " />
</g>
<g   fill="none"
   stroke="#191919"
   stroke-linecap="round"
   stroke-linejoin="round"
   stroke-width="1px"
   transform="scale(1,-1) translate(45.542473059582235, -802.3821498217932)"
  >
<path d="M87.982,732.865 L87.8369,732.776 " /><path d="M87.8369,732.776 L84.052,735.343 " /><path d="M82.6757,740.285 Q82.7712,740.316 82.8787,740.326 " /><path d="M76.1382,744.897 L76.1382,744.719 " /><path d="M76.1382,744.719 L82.6757,740.285 " /><path d="M85.4284,734.994 C85.2456,734.936 85.0261,734.934 84.7887,734.995  C84.5515,735.054 84.2975,735.176 84.052,735.343 " /><path d="M87.8369,732.776 L87.8369,733.361 " /><path d="M87.8369,733.361 L85.4284,734.994 " /><path d="M86.8421,736.683 C86.8427,736.419 86.756,736.146 86.5789,735.89  C86.4029,735.635 86.137,735.397 85.8105,735.199 " /><path d="M85.8105,735.199 Q85.6297,735.088 85.4284,734.994 " /><path d="M82.6757,736.861 C82.6871,737.346 82.6968,737.85 82.7033,738.307  C82.7099,738.765 82.7132,739.171 82.7131,739.483  C82.7132,739.908 82.707,740.207 82.6953,740.291 " /><path d="M85.2254,738.734 Q85.3328,738.579 85.4283,738.419 " /><path d="M86.2567,737.857 C86.6441,737.497 86.8451,737.076 86.8421,736.683 " /><path d="M84.052,735.343 C83.5598,735.671 83.0393,736.245 82.6757,736.861 " /><path d="M88.6467,731.524 L88.6405,731.517 " /><path d="M82.6757,736.861 L76.1382,741.295 " /><path d="M76.1382,741.295 C76.3593,741.637 76.5481,742.02 76.6741,742.396  C76.8012,742.772 76.8644,743.137 76.8638,743.449  C76.8653,743.844 76.7622,744.198 76.5633,744.431 " /><path d="M91.1276,734.732 C90.3719,733.596 89.5308,732.51 88.6467,731.524 " /><path d="M88.1271,731.865 L88.1271,732.8 " /><path d="M76.4284,740.513 L76.4284,739.798 " /><path d="M84.052,735.343 L76.1382,740.71 " /><path d="M76.1382,741.295 L76.1382,740.71 " /><path d="M85.4283,738.419 L87.8369,736.785 " /><path d="M87.8369,736.785 Q87.9611,736.744 88.0696,736.671 " /><path d="M88.0696,736.671 C88.3872,736.462 88.5667,736.027 88.5625,735.516  C88.5631,735.204 88.4999,734.838 88.3728,734.462  C88.2468,734.087 88.058,733.704 87.8369,733.361 " /><path d="M87.8369,736.785 L87.8369,736.963 " /><path d="M87.982,732.865 C88.0201,732.889 88.066,732.897 88.0943,732.877 " /><path d="M88.0943,732.877 Q88.1279,732.851 88.1271,732.8 " /></g>
<g   fill="none"
   stroke="#191919"
   stroke-linecap="butt"
   stroke-linejoin="miter"
   stroke-width="1px"
   transform="scale(1,-1) translate(45.542473059582235, -802.3821498217932)"
  >
<path d=" M -541.752 401.452 L -536.168 404.859 " />
<path d=" M -529.026 393.485 L 51.4218 747.583 " />
<path d=" M -549.085 414.506 L -543.406 417.971 " />
<path d=" M -535.942 398.778 L -533.515 400.258 " />
<path d=" M -529.817 401.439 L 50.6312 755.537 " />
<path d=" M -528.608 407.163 L 51.8402 761.261 " />
<path d=" M -535.942 420.218 L 44.5066 774.315 " />
<path d=" M -541.752 422.892 L 38.6963 776.989 " />
<path d=" M -548.667 428.184 L 31.7812 782.282 " />
<path d=" M -547.877 420.23 L -545.483 421.691 " />
</g>
<g   fill="none"
   stroke="#191919"
   stroke-linecap="round"
   stroke-linejoin="round"
   stroke-width="1px"
   transform="scale(1,-1) translate(45.542473059582235, -802.3821498217932)"
  >
<path d="M-535.686,397.206 L-530.578,393.742 " /><path d="M-547.116,404.957 L-542.008,401.493 " /><path d="M-541.668,401.646 C-541.667,401.563 -541.695,401.486 -541.752,401.452 " /><path d="M-541.752,401.452 C-541.818,401.41 -541.921,401.434 -542.008,401.493 " /><path d="M31.7812,782.282 C31.9833,782.407 32.2421,782.44 32.5167,782.387  C32.7915,782.334 33.0792,782.198 33.3436,782.018 " /><path d="M33.3436,782.018 L38.4359,778.565 " /><path d="M38.4359,778.565 C38.5166,778.511 38.612,778.409 38.6792,778.288  C38.7477,778.166 38.7811,778.038 38.78,777.948 " /><path d="M38.78,777.948 L38.78,777.183 " /><path d="M38.78,777.183 C38.7808,777.1 38.7537,777.023 38.6963,776.989 " /><path d="M38.6963,776.989 C38.6415,776.955 38.5611,776.964 38.486,777.003 " /><path d="M36.2699,775.509 L38.6084,771.321 " /><path d="M38.6084,771.321 C38.6919,771.171 38.8034,771.023 38.9223,770.909 " /><path d="M44.4229,774.122 C44.4222,774.204 44.4492,774.281 44.5066,774.315 " /><path d="M44.5066,774.315 C44.574,774.358 44.6792,774.333 44.767,774.271 " /><path d="M44.767,774.271 L49.8594,770.818 " /><path d="M49.8594,770.818 C50.1024,770.653 50.3649,770.426 50.6193,770.141  C50.8735,769.857 51.1178,769.516 51.3192,769.155  C51.5212,768.794 51.6788,768.415 51.7789,768.065  C51.8799,767.713 51.9241,767.391 51.9239,767.121 " /><path d="M51.9239,767.121 L51.9239,761.455 " /><path d="M51.9239,761.455 C51.9246,761.372 51.8976,761.295 51.8402,761.261 " /><path d="M51.8402,761.261 C51.7853,761.226 51.705,761.236 51.6298,761.275 " /><path d="M46.1607,757.796 L48.2377,754.077 " /><path d="M50.5476,755.343 C50.5468,755.426 50.5738,755.503 50.6312,755.537 " /><path d="M50.6312,755.537 C50.6986,755.58 50.8039,755.554 50.8916,755.493 " /><path d="M50.8916,755.493 L51.5798,755.026 " /><path d="M51.5798,755.026 C51.6605,754.973 51.7558,754.871 51.8231,754.749  C51.8915,754.628 51.925,754.499 51.9239,754.41 " /><path d="M51.9239,754.41 L51.9239,748.744 " /><path d="M51.9239,748.744 C51.9283,748.249 51.7661,747.787 51.4218,747.583 " /><path d="M-528.524,394.646 C-528.52,394.152 -528.682,393.69 -529.026,393.485 " /><path d="M-529.026,393.485 C-529.227,393.362 -529.484,393.328 -529.757,393.38  C-530.029,393.431 -530.315,393.565 -530.578,393.742 " /><path d="M-538.847,413.438 C-538.571,413.252 -538.274,412.994 -537.986,412.671  C-537.697,412.35 -537.421,411.963 -537.192,411.554  C-536.963,411.145 -536.785,410.715 -536.671,410.318  C-536.557,409.919 -536.507,409.554 -536.507,409.248  C-536.507,408.968 -536.548,408.697 -536.643,408.467  C-536.736,408.236 -536.883,408.049 -537.076,407.932 " /><path d="M-537.076,407.932 C-537.305,407.791 -537.598,407.753 -537.91,407.814  C-538.221,407.873 -538.547,408.028 -538.847,408.231  C-539.122,408.418 -539.42,408.675 -539.708,408.998  C-539.996,409.32 -540.273,409.706 -540.501,410.116  C-540.73,410.525 -540.909,410.954 -541.022,411.352  C-541.137,411.75 -541.187,412.115 -541.187,412.422  C-541.187,412.701 -541.145,412.973 -541.051,413.203  C-540.957,413.433 -540.81,413.62 -540.617,413.737 " /><path d="M-540.617,413.737 C-540.388,413.878 -540.095,413.916 -539.784,413.856  C-539.472,413.797 -539.146,413.642 -538.847,413.438 " /><path d="M-547.793,423.331 L-547.793,420.424 " /><path d="M-547.793,423.331 C-547.795,423.563 -547.716,423.766 -547.567,423.854 " /><path d="M-547.567,423.854 C-547.47,423.914 -547.346,423.926 -547.219,423.898  C-547.061,423.864 -546.867,423.759 -546.683,423.592  C-546.498,423.427 -546.328,423.205 -546.207,422.987 " /><path d="M-542.764,416.822 L-546.207,422.987 " /><path d="M-542.764,416.822 C-542.638,416.6 -542.561,416.338 -542.563,416.144 " /><path d="M-542.563,410.566 L-542.563,416.144 " /><path d="M-542.563,410.566 C-542.561,410.388 -542.624,410.242 -542.73,410.179 " /><path d="M-542.73,410.179 L-542.764,410.161 " /><path d="M-546.207,408.665 L-542.764,410.161 " /><path d="M-546.207,408.665 C-546.328,408.611 -546.498,408.62 -546.683,408.705  C-546.867,408.788 -547.061,408.946 -547.219,409.128  C-547.378,409.308 -547.532,409.546 -547.636,409.791  C-547.742,410.037 -547.794,410.281 -547.793,410.472 " /><path d="M-547.793,413.379 L-547.793,410.472 " /><path d="M-548.137,413.996 C-548.056,413.942 -547.961,413.84 -547.894,413.718  C-547.825,413.597 -547.792,413.468 -547.793,413.379 " /><path d="M-548.825,414.462 L-548.137,413.996 " /><path d="M-549.169,414.313 C-549.17,414.395 -549.143,414.472 -549.085,414.506 " /><path d="M-549.085,414.506 C-549.018,414.549 -548.913,414.524 -548.825,414.462 " /><path d="M-549.169,408.647 L-549.169,414.313 " /><path d="M-547.116,404.957 C-547.358,405.122 -547.619,405.35 -547.873,405.635  C-548.126,405.919 -548.368,406.259 -548.568,406.619  C-548.769,406.979 -548.926,407.356 -549.025,407.706  C-549.125,408.056 -549.169,408.377 -549.169,408.647 " /><path d="M-541.668,402.411 L-541.668,401.646 " /><path d="M-542.012,403.027 C-541.932,402.974 -541.836,402.872 -541.769,402.75  C-541.701,402.629 -541.667,402.5 -541.668,402.411 " /><path d="M-544.625,404.8 L-542.012,403.027 " /><path d="M-544.625,404.8 C-544.797,404.915 -544.985,405.101 -545.142,405.324  C-545.299,405.546 -545.419,405.799 -545.484,406.02  C-545.546,406.227 -545.571,406.443 -545.543,406.617  C-545.516,406.792 -545.436,406.921 -545.328,406.986 " /><path d="M-545.328,406.986 L-545.282,407.01 " /><path d="M-541.84,408.506 L-545.282,407.01 " /><path d="M-541.84,408.506 C-541.717,408.562 -541.529,408.522 -541.353,408.4 " /><path d="M-536.34,405 L-541.353,408.4 " /><path d="M-536.34,405 C-536.164,404.883 -535.977,404.67 -535.854,404.446 " /><path d="M-532.411,398.281 L-535.854,404.446 " /><path d="M-532.411,398.281 C-532.289,398.064 -532.193,397.81 -532.157,397.579  C-532.119,397.348 -532.143,397.149 -532.21,397.018  C-532.246,396.943 -532.298,396.885 -532.365,396.843 " /><path d="M-532.365,396.843 C-532.538,396.731 -532.819,396.788 -533.068,396.962 " /><path d="M-535.681,398.734 L-533.068,396.962 " /><path d="M-536.025,398.585 C-536.026,398.667 -535.999,398.744 -535.942,398.778 " /><path d="M-535.942,398.778 C-535.874,398.821 -535.769,398.795 -535.681,398.734 " /><path d="M-536.025,397.819 L-536.025,398.585 " /><path d="M-535.686,397.206 C-535.766,397.26 -535.86,397.362 -535.926,397.483  C-535.993,397.603 -536.026,397.73 -536.025,397.819 " /><path d="M-528.524,400.312 L-528.524,394.646 " /><path d="M-528.868,400.929 C-528.788,400.875 -528.692,400.773 -528.625,400.652  C-528.557,400.53 -528.523,400.401 -528.524,400.312 " /><path d="M-529.557,401.395 L-528.868,400.929 " /><path d="M-529.901,401.246 C-529.901,401.328 -529.874,401.405 -529.817,401.439 " /><path d="M-529.817,401.439 C-529.75,401.483 -529.644,401.457 -529.557,401.395 " /><path d="M-529.901,398.338 L-529.901,401.246 " /><path d="M-529.901,398.338 C-529.899,398.107 -529.977,397.904 -530.127,397.816 " /><path d="M-530.127,397.816 C-530.224,397.756 -530.348,397.744 -530.474,397.772  C-530.633,397.805 -530.826,397.91 -531.011,398.077  C-531.196,398.243 -531.366,398.465 -531.487,398.683 " /><path d="M-534.929,404.848 L-531.487,398.683 " /><path d="M-534.929,404.848 C-535.055,405.07 -535.133,405.331 -535.131,405.526 " /><path d="M-535.131,411.104 L-535.131,405.526 " /><path d="M-535.131,411.104 C-535.132,411.282 -535.07,411.428 -534.963,411.491 " /><path d="M-534.963,411.491 L-534.929,411.508 " /><path d="M-531.487,413.004 L-534.929,411.508 " /><path d="M-531.487,413.004 C-531.366,413.058 -531.196,413.05 -531.011,412.965  C-530.826,412.881 -530.633,412.723 -530.474,412.542  C-530.315,412.362 -530.161,412.124 -530.057,411.878  C-529.952,411.633 -529.9,411.388 -529.901,411.198 " /><path d="M-529.901,408.29 L-529.901,411.198 " /><path d="M-529.557,407.674 C-529.637,407.728 -529.733,407.829 -529.8,407.951  C-529.868,408.072 -529.902,408.201 -529.901,408.29 " /><path d="M-528.868,407.207 L-529.557,407.674 " /><path d="M-528.524,407.357 C-528.524,407.275 -528.551,407.197 -528.608,407.163 " /><path d="M-528.608,407.163 C-528.675,407.12 -528.781,407.146 -528.868,407.207 " /><path d="M-528.524,413.023 L-528.524,407.357 " /><path d="M-530.589,416.72 C-530.346,416.556 -530.083,416.328 -529.829,416.044  C-529.575,415.76 -529.33,415.419 -529.129,415.057  C-528.927,414.696 -528.769,414.318 -528.669,413.967  C-528.568,413.615 -528.524,413.293 -528.524,413.023 " /><path d="M-535.681,420.174 L-530.589,416.72 " /><path d="M-536.025,420.024 C-536.026,420.107 -535.999,420.184 -535.942,420.218 " /><path d="M-535.942,420.218 C-535.874,420.261 -535.769,420.235 -535.681,420.174 " /><path d="M-536.025,419.258 L-536.025,420.024 " /><path d="M-535.681,418.642 C-535.762,418.696 -535.857,418.798 -535.925,418.919  C-535.993,419.041 -536.026,419.169 -536.025,419.258 " /><path d="M-533.068,416.87 L-535.681,418.642 " /><path d="M-533.068,416.87 C-532.896,416.755 -532.708,416.569 -532.552,416.346  C-532.395,416.124 -532.275,415.871 -532.21,415.65  C-532.148,415.443 -532.122,415.227 -532.151,415.053  C-532.177,414.877 -532.257,414.748 -532.365,414.684 " /><path d="M-532.365,414.684 L-532.411,414.66 " /><path d="M-535.854,413.164 L-532.411,414.66 " /><path d="M-535.854,413.164 C-535.977,413.107 -536.164,413.148 -536.34,413.27 " /><path d="M-541.353,416.669 L-536.34,413.27 " /><path d="M-541.353,416.669 C-541.529,416.786 -541.717,417 -541.84,417.224 " /><path d="M-545.282,423.389 L-541.84,417.224 " /><path d="M-545.282,423.389 C-545.405,423.606 -545.501,423.86 -545.537,424.09  C-545.574,424.321 -545.55,424.521 -545.484,424.652  C-545.447,424.726 -545.396,424.785 -545.329,424.827 " /><path d="M-545.329,424.827 C-545.156,424.939 -544.874,424.882 -544.625,424.708 " /><path d="M-542.012,422.936 L-544.625,424.708 " /><path d="M-541.668,423.085 C-541.667,423.003 -541.695,422.926 -541.752,422.892 " /><path d="M-541.752,422.892 C-541.819,422.848 -541.925,422.874 -542.012,422.936 " /><path d="M-541.668,423.851 L-541.668,423.085 " /><path d="M-542.012,424.467 C-541.932,424.414 -541.836,424.312 -541.769,424.19  C-541.701,424.069 -541.667,423.94 -541.668,423.851 " /><path d="M-547.105,427.92 L-542.012,424.467 " /><path d="M-549.169,427.023 C-549.174,427.518 -549.012,427.98 -548.667,428.184 " /><path d="M-548.667,428.184 C-548.465,428.309 -548.206,428.342 -547.932,428.289  C-547.657,428.237 -547.369,428.1 -547.105,427.92 " /><path d="M-549.169,421.357 L-549.169,427.023 " /><path d="M-548.825,420.741 C-548.906,420.795 -549.001,420.896 -549.068,421.018  C-549.137,421.139 -549.17,421.268 -549.169,421.357 " /><path d="M-548.137,420.274 L-548.825,420.741 " /><path d="M-547.793,420.424 C-547.792,420.341 -547.819,420.264 -547.877,420.23 " /><path d="M-547.877,420.23 C-547.944,420.187 -548.049,420.213 -548.137,420.274 " /></g>
<g   fill="none"
   stroke="#191919"
   stroke-linecap="butt"
   stroke-linejoin="miter"
   stroke-width="1px"
   transform="scale(1,-1) translate(45.542473059582235, -802.3821498217932)"
  >
<path d=" M 20.0336 694.69 L 25.9953 698.326 " />
<path d=" M 16.9089 699.812 L 22.8706 703.449 " />
<path d="M11.0592,696.536 C11.0576,695.313 11.4266,694.109 12.0884,693.106  C12.5371,692.424 13.1216,691.828 13.8052,691.366  C14.5812,690.839 15.4921,690.486 16.4354,690.358 " /><path d="M11.4112,698.594 C11.1775,697.932 11.0588,697.231 11.0592,696.536 " /><path d=" M 18.3969 689.24 L 19.2675 689.771 " />
<path d=" M 11.3142 700.85 L 12.1849 701.381 " />
</g>
<g   fill="none"
   stroke="#191919"
   stroke-linecap="round"
   stroke-linejoin="round"
   stroke-width="1px"
   transform="scale(1,-1) translate(45.542473059582235, -802.3821498217932)"
  >
<path d="M24.4329,703.185 C24.1686,703.364 23.8808,703.501 23.606,703.553  C23.3314,703.607 23.0727,703.573 22.8706,703.449 " /><path d="M25.9953,698.326 C26.3397,698.531 26.5018,698.993 26.4974,699.487  C26.4977,699.758 26.4534,700.08 26.3524,700.431  C26.2523,700.782 26.0948,701.161 25.8927,701.522  C25.6913,701.883 25.4471,702.224 25.1928,702.508  C24.9384,702.793 24.6759,703.02 24.4329,703.185 " /><path d="M11.2427,697.495 C11.2425,697.884 11.2942,698.263 11.4112,698.594 " /><path d="M11.4112,698.594 C11.5238,698.915 11.698,699.189 11.9294,699.387  C12.1601,699.586 12.4476,699.707 12.7692,699.742  C13.4132,699.816 14.1814,699.527 14.8555,699.065  C15.2808,698.777 15.7402,698.379 16.1854,697.881  C16.6303,697.384 17.0578,696.787 17.4102,696.155  C17.7638,695.523 18.0395,694.86 18.2147,694.247  C18.3914,693.631 18.4689,693.068 18.4684,692.595  C18.4708,691.929 18.3117,691.293 17.9536,690.876  C17.6008,690.453 17.0505,690.27 16.4354,690.358 " /><path d="M11.2674,695.515 C11.2671,695.245 11.3114,694.923 11.4123,694.572  C11.5124,694.221 11.67,693.842 11.872,693.481  C12.0734,693.12 12.3177,692.779 12.5719,692.495  C12.8263,692.21 13.0888,691.983 13.3318,691.818  C13.5749,691.653 13.8374,691.524 14.0918,691.464  C14.346,691.403 14.5903,691.413 14.7917,691.501  C14.9937,691.588 15.1513,691.753 15.2514,691.968  C15.3523,692.183 15.3966,692.445 15.3963,692.715  C15.3966,692.986 15.3523,693.308 15.2514,693.659  C15.1513,694.01 14.9937,694.389 14.7916,694.75  C14.5903,695.111 14.346,695.452 14.0918,695.736  C13.8374,696.021 13.5748,696.248 13.3318,696.412  C13.0888,696.578 12.8263,696.706 12.5719,696.767  C12.3177,696.828 12.0734,696.818 11.872,696.73  C11.67,696.643 11.5124,696.478 11.4123,696.263  C11.3114,696.048 11.2671,695.786 11.2674,695.515 " /><path d="M10.176,698.218 C10.1756,698.778 10.2586,699.321 10.4472,699.781  C10.6345,700.242 10.9288,700.616 11.3142,700.85 " /><path d="M11.3142,700.85 C11.7723,701.132 12.3587,701.208 12.9813,701.087  C13.6041,700.968 14.2563,700.659 14.8555,700.252  C15.4063,699.879 16.0014,699.364 16.578,698.718  C17.1543,698.075 17.708,697.302 18.1644,696.483  C18.6224,695.664 18.9795,694.806 19.2064,694.011  C19.4353,693.214 19.5357,692.484 19.535,691.871  C19.5354,691.312 19.4525,690.769 19.2639,690.309  C19.0767,689.848 18.7825,689.474 18.3972,689.24 " /><path d="M18.3972,689.24 C17.9391,688.958 17.3526,688.882 16.73,689.003  C16.1071,689.121 15.4548,689.431 14.8555,689.838  C14.3047,690.211 13.7097,690.726 13.133,691.372  C12.5568,692.015 12.0031,692.788 11.5466,693.607  C11.0887,694.426 10.7315,695.284 10.5046,696.079  C10.2758,696.876 10.1754,697.606 10.176,698.218 " /><path d="M11.2656,697.027 Q11.3451,696.694 11.4551,696.345 " /><path d="M18.7961,689.564 Q19.0489,689.638 19.2679,689.771 " /><path d="M19.2679,689.771 C19.6532,690.005 19.9474,690.379 20.1346,690.84  C20.3232,691.3 20.4061,691.843 20.4057,692.403  C20.4063,693.015 20.306,693.745 20.0771,694.542  C19.8502,695.337 19.4931,696.195 19.0351,697.014  C18.5786,697.833 18.0249,698.606 17.4487,699.249  C16.8721,699.895 16.277,700.41 15.7262,700.783  C15.127,701.19 14.4747,701.499 13.8519,701.618  C13.2294,701.739 12.643,701.663 12.1848,701.381 " /><path d="M12.1848,701.381 Q11.9651,701.247 11.7856,701.056 " /><path d="M13.3318,692.347 L14.7082,693.187 " /><path d="M14.7082,692.298 L13.3318,692.347 " /><path d="M13.4647,695.085 L14.7082,693.443 " /><path d="M11.9555,694.165 L13.4647,695.085 " /><path d="M13.3318,692.347 L11.9555,694.165 " /><path d="M13.4647,695.708 L13.4647,695.085 " /><path d="M11.9555,694.165 L11.9555,695.933 " /><path d="M11.9555,695.933 L13.3318,695.884 " /><path d="M14.7082,694.066 L14.7082,692.298 " /><path d="M13.3318,695.884 L14.7082,694.066 " /></g>
<g   fill="none"
   stroke="#191919"
   stroke-linecap="butt"
   stroke-linejoin="miter"
   stroke-width="1px"
   transform="scale(1,-1) translate(45.542473059582235, -802.3821498217932)"
  >
<path d=" M 590.149 399.546 L 595.746 395.75 " />
<path d=" M 52.4169 747.589 L 582.299 388.247 " />
<path d=" M 597.666 412.49 L 603.491 408.54 " />
<path d=" M 587.141 394.961 L 589.633 393.271 " />
<path d=" M 53.293 755.488 L 583.175 396.146 " />
<path d=" M 52.0062 761.262 L 581.888 401.92 " />
<path d=" M 59.7504 774.052 L 589.633 414.71 " />
<path d=" M 65.8643 776.531 L 595.746 417.189 " />
<path d=" M 73.1979 781.554 L 603.08 422.213 " />
<path d=" M 599.758 415.973 L 602.204 414.314 " />
</g>
<g   fill="none"
   stroke="#191919"
   stroke-linecap="round"
   stroke-linejoin="round"
   stroke-width="1px"
   transform="scale(1,-1) translate(45.542473059582235, -802.3821498217932)"
  >
<path d="M596.022,395.778 C595.928,395.72 595.816,395.7 595.746,395.75 " /><path d="M595.746,395.75 C595.69,395.787 595.664,395.863 595.664,395.942 " /><path d="M583.971,388.426 C583.686,388.253 583.375,388.127 583.08,388.089  C582.785,388.05 582.51,388.103 582.299,388.247 " /><path d="M582.299,388.247 C581.96,388.472 581.802,388.925 581.806,389.402 " /><path d="M51.924,748.744 C51.9201,748.267 52.0779,747.814 52.4169,747.589 " /><path d="M583.971,388.426 L589.357,391.711 " /><path d="M596.022,395.778 L601.408,399.063 " /><path d="M603.573,402.681 C603.573,402.412 603.527,402.092 603.421,401.745  C603.316,401.399 603.151,401.028 602.94,400.675  C602.729,400.321 602.473,399.99 602.206,399.715  C601.939,399.439 601.663,399.22 601.408,399.063 " /><path d="M603.573,402.681 L603.573,408.347 " /><path d="M603.573,408.347 C603.574,408.427 603.547,408.502 603.491,408.54 " /><path d="M603.491,408.54 C603.42,408.59 603.305,408.569 603.21,408.509 " /><path d="M603.21,408.509 L602.485,408.066 " /><path d="M602.485,408.066 C602.4,408.015 602.299,407.917 602.228,407.797  C602.156,407.679 602.121,407.551 602.122,407.462 " /><path d="M602.122,407.462 L602.122,404.554 " /><path d="M602.122,404.554 C602.123,404.364 602.068,404.121 601.957,403.879  C601.847,403.638 601.685,403.405 601.517,403.23  C601.35,403.054 601.146,402.903 600.951,402.826  C600.756,402.747 600.577,402.745 600.45,402.803 " /><path d="M600.45,402.803 L596.82,404.42 " /><path d="M596.82,404.42 Q596.795,404.431 596.772,404.446 " /><path d="M596.772,404.446 C596.666,404.515 596.606,404.66 596.608,404.831 " /><path d="M596.608,404.831 L596.608,410.409 " /><path d="M596.608,410.409 C596.605,410.604 596.687,410.862 596.82,411.08 " /><path d="M596.82,411.08 L600.45,417.125 " /><path d="M600.45,417.125 C600.577,417.338 600.756,417.555 600.951,417.714  C601.146,417.874 601.35,417.972 601.517,418  C601.658,418.025 601.795,418.006 601.9,417.934 " /><path d="M601.9,417.934 C602.047,417.837 602.124,417.637 602.122,417.414 " /><path d="M602.122,417.414 L602.122,414.506 " /><path d="M602.122,414.506 C602.121,414.427 602.147,414.351 602.204,414.314 " /><path d="M602.204,414.314 C602.275,414.263 602.389,414.285 602.485,414.345 " /><path d="M602.485,414.345 L603.21,414.787 " /><path d="M603.21,414.787 C603.295,414.838 603.396,414.937 603.467,415.056  C603.539,415.175 603.574,415.303 603.573,415.392 " /><path d="M603.573,415.392 L603.573,421.058 " /><path d="M603.573,421.058 C603.577,421.535 603.419,421.988 603.08,422.213 " /><path d="M603.08,422.213 C602.868,422.358 602.59,422.411 602.293,422.37  C601.996,422.331 601.683,422.203 601.396,422.027 " /><path d="M601.396,422.027 L596.027,418.752 " /><path d="M596.027,418.752 C595.942,418.701 595.841,418.602 595.771,418.483  C595.698,418.364 595.663,418.237 595.664,418.147 " /><path d="M595.664,418.147 L595.664,417.382 " /><path d="M595.664,417.382 C595.664,417.302 595.69,417.227 595.746,417.189 " /><path d="M595.746,417.189 C595.817,417.139 595.932,417.16 596.027,417.22 " /><path d="M596.027,417.22 L598.782,418.901 " /><path d="M598.782,418.901 C598.917,418.984 599.062,419.041 599.195,419.057  C599.331,419.072 599.446,419.048 599.54,418.985 " /><path d="M599.54,418.985 C599.603,418.941 599.652,418.885 599.687,418.815  C599.757,418.682 599.783,418.481 599.743,418.252  C599.705,418.023 599.604,417.772 599.475,417.559 " /><path d="M599.475,417.559 L595.845,411.514 " /><path d="M595.845,411.514 C595.716,411.295 595.518,411.088 595.332,410.977 " /><path d="M595.332,410.977 L590.047,407.753 " /><path d="M590.047,407.753 C589.861,407.637 589.663,407.603 589.534,407.664 " /><path d="M589.534,407.664 L585.904,409.28 " /><path d="M585.904,409.28 Q585.87,409.295 585.839,409.316 " /><path d="M585.839,409.316 C585.731,409.389 585.652,409.521 585.627,409.695  C585.601,409.868 585.628,410.077 585.692,410.277  C585.76,410.496 585.887,410.744 586.053,410.961  C586.217,411.179 586.416,411.358 586.597,411.467 " /><path d="M586.597,411.467 L589.352,413.148 " /><path d="M589.352,413.148 C589.437,413.199 589.538,413.297 589.608,413.417  C589.681,413.536 589.716,413.663 589.715,413.752 " /><path d="M589.715,413.752 L589.715,414.518 " /><path d="M589.715,414.518 C589.715,414.597 589.689,414.673 589.633,414.71 " /><path d="M589.633,414.71 C589.562,414.761 589.447,414.74 589.352,414.68 " /><path d="M589.352,414.68 L583.983,411.404 " /><path d="M583.983,411.404 C583.727,411.248 583.45,411.03 583.182,410.754  C582.913,410.479 582.656,410.147 582.444,409.792  C582.231,409.438 582.064,409.065 581.959,408.718  C581.852,408.37 581.806,408.049 581.806,407.779 " /><path d="M581.806,407.779 L581.806,402.113 " /><path d="M581.806,402.113 C581.805,402.033 581.832,401.958 581.888,401.92 " /><path d="M581.888,401.92 C581.959,401.87 582.074,401.891 582.169,401.951 " /><path d="M582.169,401.951 L582.894,402.394 " /><path d="M582.894,402.394 C582.98,402.445 583.08,402.543 583.151,402.663  C583.223,402.782 583.258,402.909 583.257,402.998 " /><path d="M583.257,402.998 L583.257,405.906 " /><path d="M583.257,405.906 C583.256,406.096 583.311,406.339 583.422,406.581  C583.532,406.823 583.694,407.055 583.862,407.23  C584.029,407.406 584.233,407.557 584.428,407.634  C584.623,407.713 584.802,407.715 584.929,407.657 " /><path d="M584.929,407.657 L588.559,406.041 " /><path d="M588.559,406.041 Q588.584,406.029 588.607,406.014 " /><path d="M588.607,406.014 C588.713,405.945 588.773,405.8 588.771,405.629 " /><path d="M588.771,405.629 L588.771,400.051 " /><path d="M588.771,400.051 C588.774,399.856 588.692,399.598 588.559,399.38 " /><path d="M588.559,399.38 L584.929,393.335 " /><path d="M584.929,393.335 C584.802,393.122 584.623,392.905 584.428,392.746  C584.233,392.586 584.029,392.488 583.862,392.46  C583.721,392.435 583.584,392.454 583.479,392.526 " /><path d="M583.479,392.526 C583.332,392.624 583.255,392.823 583.257,393.046 " /><path d="M583.257,393.046 L583.257,395.954 " /><path d="M583.257,395.954 C583.258,396.033 583.232,396.109 583.175,396.146 " /><path d="M583.175,396.146 C583.104,396.197 582.99,396.175 582.894,396.115 " /><path d="M582.894,396.115 L582.169,395.673 " /><path d="M582.169,395.673 C582.084,395.622 581.983,395.523 581.912,395.404  C581.84,395.285 581.805,395.158 581.806,395.069 " /><path d="M581.806,395.069 L581.806,389.402 " /><path d="M589.357,391.711 C589.441,391.763 589.54,391.861 589.61,391.98  C589.681,392.098 589.716,392.224 589.715,392.313 " /><path d="M589.715,392.313 L589.715,393.078 " /><path d="M589.715,393.078 C589.715,393.158 589.689,393.233 589.633,393.271 " /><path d="M589.633,393.271 C589.562,393.321 589.447,393.3 589.352,393.24 " /><path d="M589.352,393.24 L586.597,391.559 " /><path d="M586.597,391.559 C586.462,391.476 586.317,391.419 586.184,391.404  C586.048,391.388 585.933,391.412 585.839,391.476 " /><path d="M585.839,391.476 C585.776,391.519 585.727,391.576 585.692,391.645  C585.622,391.779 585.596,391.979 585.636,392.208  C585.674,392.437 585.775,392.688 585.904,392.901 " /><path d="M585.904,392.901 L589.534,398.946 " /><path d="M589.534,398.946 C589.663,399.165 589.861,399.372 590.047,399.483 " /><path d="M590.047,399.483 L595.332,402.707 " /><path d="M595.332,402.707 C595.518,402.823 595.716,402.857 595.845,402.796 " /><path d="M595.845,402.796 L599.475,401.18 " /><path d="M599.475,401.18 Q599.509,401.165 599.54,401.144 " /><path d="M599.54,401.144 C599.648,401.072 599.727,400.939 599.752,400.765  C599.778,400.592 599.751,400.383 599.687,400.183  C599.619,399.964 599.492,399.716 599.326,399.499  C599.162,399.281 598.963,399.102 598.782,398.993 " /><path d="M598.782,398.993 L596.027,397.312 " /><path d="M596.027,397.312 C595.942,397.261 595.842,397.163 595.771,397.043  C595.698,396.925 595.663,396.797 595.664,396.708 " /><path d="M595.664,396.708 L595.664,395.942 " /><path d="M592.69,407.833 C593.014,408.032 593.369,408.178 593.706,408.222  C594.043,408.268 594.357,408.209 594.598,408.044 " /><path d="M594.598,408.044 C594.982,407.789 595.161,407.276 595.156,406.735  C595.157,406.429 595.104,406.065 594.983,405.671  C594.864,405.277 594.675,404.855 594.434,404.453  C594.193,404.052 593.901,403.675 593.598,403.363  C593.294,403.051 592.98,402.803 592.69,402.627  C592.365,402.428 592.01,402.282 591.673,402.238  C591.336,402.192 591.022,402.251 590.781,402.416 " /><path d="M590.781,402.416 C590.397,402.671 590.218,403.185 590.223,403.725  C590.222,404.031 590.275,404.395 590.396,404.789  C590.515,405.183 590.704,405.606 590.945,406.007  C591.186,406.408 591.478,406.785 591.781,407.097  C592.085,407.409 592.399,407.657 592.69,407.833 " /><path d="M51.924,754.41 L51.924,748.744 " /><path d="M52.2868,755.014 C52.2017,754.964 52.1012,754.865 52.0303,754.746  C51.9581,754.627 51.9229,754.499 51.924,754.41 " /><path d="M53.0124,755.457 L52.2868,755.014 " /><path d="M53.3751,755.295 C53.3758,755.375 53.3495,755.45 53.293,755.488 " /><path d="M53.293,755.488 C53.2223,755.538 53.1076,755.517 53.0124,755.457 " /><path d="M57.8306,757.312 L55.7391,753.829 " /><path d="M51.924,761.455 C51.9233,761.375 51.9496,761.3 52.0062,761.262 " /><path d="M52.0062,761.262 C52.0597,761.225 52.1389,761.226 52.2154,761.257 " /><path d="M51.924,767.121 L51.924,761.455 " /><path d="M54.1007,770.746 C53.8444,770.59 53.5677,770.372 53.2994,770.096  C53.0314,769.821 52.7738,769.488 52.5615,769.134  C52.3485,768.78 52.1824,768.407 52.0768,768.06  C51.9704,767.712 51.9237,767.391 51.924,767.121 " /><path d="M59.4698,774.021 L54.1007,770.746 " /><path d="M59.8326,773.86 C59.8333,773.939 59.807,774.015 59.7504,774.052 " /><path d="M59.7504,774.052 C59.6797,774.102 59.565,774.081 59.4698,774.021 " /><path d="M65.4501,770.319 L65.3478,770.256 " /><path d="M65.4501,770.319 C65.6358,770.429 65.8335,770.636 65.9632,770.856 " /><path d="M68.3561,774.841 L65.9632,770.856 " /><path d="M65.7822,776.723 C65.7815,776.644 65.8078,776.568 65.8643,776.531 " /><path d="M65.8643,776.531 C65.9179,776.494 65.9971,776.495 66.0736,776.526 " /><path d="M65.7822,777.489 L65.7822,776.723 " /><path d="M66.145,778.093 C66.0599,778.043 65.9593,777.944 65.8884,777.825  C65.8163,777.706 65.781,777.578 65.7822,777.489 " /><path d="M71.5141,781.369 L66.145,778.093 " /><path d="M73.1979,781.554 C72.9856,781.7 72.7081,781.752 72.411,781.712  C72.1139,781.673 71.8009,781.544 71.5141,781.369 " /></g>
<g   fill="none"
   stroke="#191919"
   stroke-linecap="butt"
   stroke-linejoin="miter"
   stroke-width="1px"
   transform="scale(1,-1) translate(45.542473059582235, -802.3821498217932)"
  >
<path d=" M 82.477 699.218 L 77.0251 702.915 " />
<path d=" M 79.1095 694.252 L 73.6575 697.949 " />
<path d="M88.1186,697.508 C88.5038,696.144 88.3946,694.665 87.8422,693.387  C87.3316,692.194 86.4466,691.173 85.3294,690.5  C84.5645,690.038 83.6866,689.739 82.7852,689.644 " /><path d=" M 88.2416 699.9 L 87.4158 700.46 " />
<path d=" M 80.6084 688.644 L 79.7826 689.204 " />
</g>
<g   fill="none"
   stroke="#191919"
   stroke-linecap="round"
   stroke-linejoin="round"
   stroke-width="1px"
   transform="scale(1,-1) translate(45.542473059582235, -802.3821498217932)"
  >
<path d="M75.3413,702.729 C75.0851,702.574 74.8083,702.355 74.5401,702.079  C74.272,701.805 74.0145,701.472 73.8021,701.118  C73.5891,700.764 73.423,700.391 73.3174,700.043  C73.211,699.695 73.1643,699.375 73.1646,699.105  C73.1606,698.628 73.3183,698.175 73.6575,697.95 " /><path d="M77.0251,702.915 C76.8128,703.061 76.5353,703.113 76.2382,703.073  C75.9411,703.034 75.628,702.905 75.3413,702.729 " /><path d="M80.6158,691.948 C80.6152,692.421 80.697,692.982 80.8832,693.591  C81.0679,694.199 81.3587,694.852 81.7315,695.472  C82.103,696.092 82.5537,696.673 83.0228,697.155  C83.4922,697.637 83.9766,698.019 84.425,698.292  C85.1699,698.752 86.0248,699.017 86.7221,698.88  C87.0703,698.816 87.3756,698.656 87.6126,698.418  C87.8504,698.18 88.0195,697.864 88.1186,697.508 " /><path d="M82.7852,689.644 C82.1308,689.569 81.5431,689.768 81.1661,690.203  C80.7833,690.633 80.6132,691.279 80.6158,691.948 " /><path d="M83.6934,691.964 C83.6931,691.694 83.7398,691.43 83.8463,691.212  C83.9518,690.994 84.1179,690.823 84.331,690.729  C84.5433,690.634 84.8008,690.615 85.0689,690.668  C85.3371,690.719 85.6139,690.838 85.8701,690.995  C86.1263,691.151 86.4031,691.369 86.6713,691.645  C86.9394,691.92 87.1969,692.253 87.4093,692.607  C87.6223,692.961 87.7884,693.334 87.894,693.681  C88.0004,694.029 88.0471,694.35 88.0468,694.62  C88.0471,694.891 88.0004,695.154 87.894,695.372  C87.7884,695.591 87.6223,695.761 87.4093,695.855  C87.1969,695.951 86.9394,695.969 86.6713,695.917  C86.4031,695.866 86.1263,695.746 85.8701,695.589  C85.6139,695.433 85.3371,695.215 85.0689,694.939  C84.8008,694.664 84.5433,694.332 84.331,693.978  C84.1179,693.624 83.9518,693.25 83.8463,692.903  C83.7398,692.555 83.6931,692.235 83.6934,691.964 " /><path d="M79.4912,691.262 C79.4905,691.875 79.5963,692.602 79.8376,693.39  C80.0768,694.177 80.4534,695.023 80.9362,695.826  C81.4175,696.629 82.0013,697.382 82.6089,698.006  C83.2168,698.631 83.8442,699.125 84.425,699.479  C85.075,699.877 85.7846,700.168 86.4582,700.257  C87.1316,700.348 87.7608,700.229 88.2419,699.9 " /><path d="M88.2419,699.9 C88.6217,699.643 88.9097,699.262 89.0932,698.805  C89.2778,698.349 89.3592,697.822 89.3588,697.282  C89.3595,696.67 89.2537,695.943 89.0124,695.154  C88.7731,694.367 88.3966,693.521 87.9137,692.719  C87.4325,691.916 86.8487,691.162 86.2411,690.539  C85.6331,689.913 85.0057,689.419 84.425,689.065  C83.775,688.668 83.0655,688.376 82.392,688.288  C81.7187,688.196 81.0895,688.315 80.6084,688.644 " /><path d="M80.6084,688.644 C80.2285,688.901 79.9404,689.283 79.7569,689.739  C79.5722,690.195 79.4908,690.722 79.4912,691.262 " /><path d="M78.6654,691.822 C78.665,691.282 78.7464,690.755 78.9311,690.299  C79.1146,689.843 79.4027,689.461 79.7826,689.204 " /><path d="M79.7826,689.204 C80.2637,688.875 80.8929,688.756 81.5662,688.848  C82.2397,688.936 82.9492,689.228 83.5992,689.625  C84.0332,689.89 84.4922,690.231 84.9508,690.649 " /><path d="M88.3334,696.254 C88.4718,696.836 88.5332,697.372 88.533,697.842  C88.5334,698.382 88.452,698.909 88.2674,699.365  C88.0839,699.822 87.7959,700.203 87.4161,700.46 " /><path d="M87.4161,700.46 C86.935,700.789 86.3058,700.908 85.6324,700.817  C84.9589,700.728 84.2492,700.437 83.5992,700.039  C83.0184,699.685 82.391,699.191 81.7831,698.566  C81.1755,697.942 80.5917,697.189 80.1105,696.386  C79.6276,695.583 79.251,694.737 79.0118,693.95  C78.7705,693.162 78.6647,692.435 78.6654,691.822 " /><path d="M85.8899,694.264 L87.3212,693.293 " /><path d="M84.4387,692.495 L85.8899,694.264 " /><path d="M85.8701,691.524 L84.4387,692.495 " /><path d="M87.3212,693.293 L85.8701,691.524 " /><path d="M84.419,692.495 L84.4387,692.495 " /><path d="M85.8701,691.524 L84.419,691.523 " /><path d="M84.419,691.523 L84.419,693.291 " /><path d="M84.419,693.291 L85.8701,695.061 " /><path d="M85.8899,694.264 L85.8899,695.061 " /><path d="M87.3212,695.062 L87.3212,693.293 " /><path d="M85.8701,695.061 L87.3212,695.062 " /></g>
<g   fill="none"
   stroke="#ed2124"
   stroke-linecap="round"
   stroke-linejoin="round"
   stroke-width="1px"
   transform="scale(1,-1) translate(45.542473059582235, -802.3821498217932)"
  >
<path d=" M 25.7785 701.717 L 60.8652 723.328 " />
<path d=" M 70.1278 729.033 L 85.4116 738.447 " />
</g>
<g   fill="none"
   stroke="#191919"
   stroke-linecap="round"
   stroke-linejoin="round"
   stroke-width="1px"
   transform="scale(1,-1) translate(45.542473059582235, -802.3821498217932)"
  >
<path d="M22.1633,738.898 L18.1727,736.464 " /><path d="M16.7216,739.588 Q16.868,739.816 17.0399,740.031 " /><path d="M9.82879,735.632 L9.82879,735.383 " /><path d="M9.82879,735.383 L16.7216,739.588 " /><path d="M19.6239,737.934 C19.2406,737.331 18.6917,736.775 18.1727,736.464 " /><path d="M22.1633,738.898 L22.1633,739.483 " /><path d="M22.1633,739.483 L19.6239,737.934 " /><path d="M19.6613,740.556 C19.6613,740.244 19.658,739.838 19.6515,739.38  C19.645,738.923 19.6353,738.419 19.6239,737.934 " /><path d="M16.7216,736.164 Q16.4797,736.285 16.2683,736.428 " /><path d="M16.2683,736.428 C15.9623,736.635 15.7152,736.875 15.5519,737.128  C15.3876,737.381 15.3074,737.646 15.3079,737.9  C15.3035,738.332 15.5489,738.788 16.0103,739.154 " /><path d="M19.3055,741.414 Q19.4775,741.407 19.6239,741.358 " /><path d="M19.6427,741.37 C19.6549,741.292 19.6614,740.991 19.6613,740.556 " /><path d="M18.1727,736.464 C17.9139,736.306 17.6461,736.193 17.396,736.141  C17.1457,736.089 16.9143,736.099 16.7216,736.164 " /><path d="M16.7216,736.164 L9.82879,731.959 " /><path d="M9.82879,731.959 C9.61909,732.309 9.44005,732.698 9.32051,733.078  C9.2,733.458 9.14006,733.825 9.14063,734.137  C9.14035,734.402 9.18253,734.647 9.26873,734.847  C9.35678,735.05 9.48146,735.2 9.64275,735.299 " /><path d="M9.64275,735.299 Q9.73076,735.352 9.82879,735.383 " /><path d="M9.04477,730.167 C8.16136,731.239 7.32371,732.42 6.57856,733.65 " /><path d="M21.8881,738.002 L21.8881,738.73 " /><path d="M9.55353,731.407 L9.55353,730.478 " /><path d="M18.1727,736.464 L9.82879,731.374 " /><path d="M9.82879,731.374 L9.69116,731.467 " /><path d="M9.82879,731.959 L9.82879,731.374 " /><path d="M19.6239,741.358 L22.1633,742.908 " /><path d="M21.8171,742.696 C21.5925,742.474 21.473,742.096 21.4752,741.662  C21.4746,741.35 21.5345,740.982 21.655,740.602  C21.7746,740.222 21.9536,739.833 22.1633,739.483 " /><path d="M22.1633,742.908 L22.1633,743.157 " /><path d="M9.69116,731.467 C9.65605,731.492 9.61397,731.502 9.58701,731.485 " /><path d="M9.58701,731.485 Q9.55282,731.46 9.55353,731.407 " /></g>

</svg>