<?xml version="1.0" encoding="UTF-8" standalone="no"?>
<svg
   width="152.06"
   height="152.19092"
   version="1.1"
   id="svg6817"
   sodipodi:docname="template-1.svg"
   inkscape:version="1.2 (dc2aedaf03, 2022-05-15)"
   xmlns:inkscape="http://www.inkscape.org/namespaces/inkscape"
   xmlns:sodipodi="http://sodipodi.sourceforge.net/DTD/sodipodi-0.dtd"
   xmlns="http://www.w3.org/2000/svg"
   xmlns:svg="http://www.w3.org/2000/svg">
  <defs
     id="defs6821" />
  <sodipodi:namedview
     id="namedview6819"
     pagecolor="#ffffff"
     bordercolor="#666666"
     borderopacity="1.0"
     inkscape:showpageshadow="2"
     inkscape:pageopacity="0.0"
     inkscape:pagecheckerboard="0"
     inkscape:deskcolor="#d1d1d1"
     showgrid="false"
     inkscape:zoom="5.7057547"
     inkscape:cx="74.836726"
     inkscape:cy="77.115128"
     inkscape:window-width="1920"
     inkscape:window-height="1031"
     inkscape:window-x="0"
     inkscape:window-y="0"
     inkscape:window-maximized="1"
     inkscape:current-layer="svg6817" />
  <g
     fill="none"
     stroke="#1e7fc1"
     stroke-linecap="butt"
     stroke-linejoin="miter"
     stroke-width="1px"
     transform="matrix(1,0,0,-1,-657.319,629.99591)"
     id="g6667">
    <path
       d="m 658.269,519.877 v 3.355"
       id="path6661" />
    <path
       d="m 760.034,615.465 v 3.354"
       id="path6663" />
    <path
       d="m 808.429,495.064 v 3.354"
       id="path6665" />
  </g>
  <g
     fill="none"
     stroke="#1e7fc1"
     stroke-linecap="round"
     stroke-linejoin="round"
     stroke-width="1px"
     transform="matrix(1,0,0,-1,-657.319,629.99591)"
     id="g6815"
     style="stroke-width:1.9;stroke-dasharray:none">
    <path
       d="m 674.919,515.19 c 0,0 -0.947,0.383 -0.947,0.383"
       id="path6669"
       style="stroke-width:1.9;stroke-dasharray:none" />
    <path
       d="m 675.911,514.79 c 0,0 -0.992,0.4 -0.992,0.4"
       id="path6671"
       style="stroke-width:1.9;stroke-dasharray:none" />
    <path
       d="m 679.257,519.35 c 0,0 -3.346,-4.56 -3.346,-4.56"
       id="path6673"
       style="stroke-width:1.9;stroke-dasharray:none" />
    <path
       d="m 682.771,517.932 c 0,0 -3.514,1.418 -3.514,1.418"
       id="path6675"
       style="stroke-width:1.9;stroke-dasharray:none" />
    <path
       d="m 686.595,523.142 c 0,0 -3.824,-5.21 -3.824,-5.21"
       id="path6677"
       style="stroke-width:1.9;stroke-dasharray:none" />
    <path
       d="m 697.135,518.888 c 0,0 -10.54,4.254 -10.54,4.254"
       id="path6679"
       style="stroke-width:1.9;stroke-dasharray:none" />
    <path
       d="m 693.311,513.678 c 0,0 3.824,5.21 3.824,5.21"
       id="path6681"
       style="stroke-width:1.9;stroke-dasharray:none" />
    <path
       d="m 696.824,512.26 c 0,0 -3.513,1.418 -3.513,1.418"
       id="path6683"
       style="stroke-width:1.9;stroke-dasharray:none" />
    <path
       d="m 693.478,507.7 c 0,0 3.346,4.56 3.346,4.56"
       id="path6685"
       style="stroke-width:1.9;stroke-dasharray:none" />
    <path
       d="m 712.424,500.054 c 0,0 -18.946,7.646 -18.946,7.646"
       id="path6687"
       style="stroke-width:1.9;stroke-dasharray:none" />
    <path
       d="m 717.396,506.828 c 0,0 -4.972,-6.774 -4.972,-6.774"
       id="path6689"
       style="stroke-width:1.9;stroke-dasharray:none" />
    <path
       d="m 725.301,503.638 c 0,0 -7.905,3.19 -7.905,3.19"
       id="path6691"
       style="stroke-width:1.9;stroke-dasharray:none" />
    <path
       d="m 729.125,508.848 c 0,0 -3.824,-5.21 -3.824,-5.21"
       id="path6693"
       style="stroke-width:1.9;stroke-dasharray:none" />
    <path
       d="m 739.665,504.595 c 0,0 -10.54,4.253 -10.54,4.253"
       id="path6695"
       style="stroke-width:1.9;stroke-dasharray:none" />
    <path
       d="m 735.841,499.384 c 0,0 3.824,5.211 3.824,5.211"
       id="path6697"
       style="stroke-width:1.9;stroke-dasharray:none" />
    <path
       d="m 743.746,496.194 c 0,0 -7.905,3.19 -7.905,3.19"
       id="path6699"
       style="stroke-width:1.9;stroke-dasharray:none" />
    <path
       d="m 738.774,489.42 c 0,0 4.972,6.774 4.972,6.774"
       id="path6701"
       style="stroke-width:1.9;stroke-dasharray:none" />
    <path
       d="m 756.888,482.11 c 0,0 -18.114,7.31 -18.114,7.31"
       id="path6703"
       style="stroke-width:1.9;stroke-dasharray:none" />
    <path
       d="m 767.152,496.094 c 0,0 -10.264,-13.984 -10.264,-13.984"
       id="path6705"
       style="stroke-width:1.9;stroke-dasharray:none" />
    <path
       d="m 796.137,484.397 c 0,0 -28.985,11.697 -28.985,11.697"
       id="path6707"
       style="stroke-width:1.9;stroke-dasharray:none" />
    <path
       d="m 798.85,484.99 c -0.528,-0.719 -1.742,-0.985 -2.713,-0.593"
       id="path6709"
       style="stroke-width:1.9;stroke-dasharray:none" />
    <path
       d="m 808.185,497.71 c 0,0 -9.335,-12.72 -9.335,-12.72"
       id="path6711"
       style="stroke-width:1.9;stroke-dasharray:none" />
    <path
       d="m 807.385,499.722 c 0.666,-0.269 1.044,-0.778 1.044,-1.304"
       id="path6713"
       style="stroke-width:1.9;stroke-dasharray:none" />
    <path
       d="m 808.429,498.418 c 0,-0.239 -0.078,-0.482 -0.244,-0.708"
       id="path6715"
       style="stroke-width:1.9;stroke-dasharray:none" />
    <path
       d="m 703.74,541.55 c 0,0 103.645,-41.828 103.645,-41.828"
       id="path6717"
       style="stroke-width:1.9;stroke-dasharray:none" />
    <path
       d="m 759.669,617.758 c 0,0 -55.929,-76.208 -55.929,-76.208"
       id="path6719"
       style="stroke-width:1.9;stroke-dasharray:none" />
    <path
       d="m 758.468,620.775 c 0.999,-0.403 1.566,-1.167 1.566,-1.956"
       id="path6721"
       style="stroke-width:1.9;stroke-dasharray:none" />
    <path
       d="m 760.034,618.819 c 0,-0.359 -0.118,-0.724 -0.365,-1.061"
       id="path6723"
       style="stroke-width:1.9;stroke-dasharray:none" />
    <path
       d="m 738.699,628.753 c 0,0 19.769,-7.978 19.769,-7.978"
       id="path6725"
       style="stroke-width:1.9;stroke-dasharray:none" />
    <path
       d="m 734.635,627.86 c 0.792,1.079 2.609,1.481 4.064,0.893"
       id="path6727"
       style="stroke-width:1.9;stroke-dasharray:none" />
    <path
       d="m 674.883,546.443 c 0,0 59.752,81.417 59.752,81.417"
       id="path6729"
       style="stroke-width:1.9;stroke-dasharray:none" />
    <path
       d="m 669.37,538.931 c 0,0 4.985,6.792 5.513,7.512"
       id="path6731"
       style="stroke-width:1.9;stroke-dasharray:none" />
    <path
       d="m 658.634,524.291 c 0,0 10.736,14.64 10.736,14.64"
       id="path6733"
       style="stroke-width:1.9;stroke-dasharray:none" />
    <path
       d="m 659.838,521.277 c -1,0.404 -1.569,1.167 -1.569,1.955"
       id="path6735"
       style="stroke-width:1.9;stroke-dasharray:none" />
    <path
       d="m 658.269,523.232 c 0,0.358 0.118,0.721 0.365,1.059"
       id="path6737"
       style="stroke-width:1.9;stroke-dasharray:none" />
    <path
       d="m 673.972,515.573 c 0,0 -14.134,5.704 -14.134,5.704"
       id="path6739"
       style="stroke-width:1.9;stroke-dasharray:none" />
    <path
       d="m 673.972,512.219 c 0,0 -14.134,5.704 -14.134,5.704"
       id="path6741"
       style="stroke-width:1.9;stroke-dasharray:none" />
    <path
       d="m 659.838,517.923 c -1,0.403 -1.569,1.166 -1.569,1.954"
       id="path6743"
       style="stroke-width:1.9;stroke-dasharray:none" />
    <path
       d="m 760.034,615.465 c 0,-0.36 -0.118,-0.724 -0.365,-1.062"
       id="path6745"
       style="stroke-width:1.9;stroke-dasharray:none" />
    <path
       d="m 759.669,614.403 c 0,0 -44.247,-60.289 -54.03,-73.619"
       id="path6747"
       style="stroke-width:1.9;stroke-dasharray:none" />
    <path
       d="m 808.429,495.064 c 0,-0.24 -0.078,-0.483 -0.244,-0.708"
       id="path6749"
       style="stroke-width:1.9;stroke-dasharray:none" />
    <path
       d="m 808.185,494.356 c 0,0 -9.335,-12.72 -9.335,-12.72"
       id="path6751"
       style="stroke-width:1.9;stroke-dasharray:none" />
    <path
       d="m 798.85,481.636 c -0.528,-0.72 -1.742,-0.986 -2.713,-0.594"
       id="path6753"
       style="stroke-width:1.9;stroke-dasharray:none" />
    <path
       d="m 767.152,492.74 v 3.354"
       id="path6755"
       style="stroke-width:1.9;stroke-dasharray:none" />
    <path
       d="m 796.137,481.042 c 0,0 -28.985,11.698 -28.985,11.698"
       id="path6757"
       style="stroke-width:1.9;stroke-dasharray:none" />
    <path
       d="m 756.888,478.755 v 3.355"
       id="path6759"
       style="stroke-width:1.9;stroke-dasharray:none" />
    <path
       d="m 767.152,492.74 c 0,0 -10.264,-13.985 -10.264,-13.985"
       id="path6761"
       style="stroke-width:1.9;stroke-dasharray:none" />
    <path
       d="m 738.774,486.065 v 3.355"
       id="path6763"
       style="stroke-width:1.9;stroke-dasharray:none" />
    <path
       d="m 756.888,478.755 c 0,0 -18.114,7.31 -18.114,7.31"
       id="path6765"
       style="stroke-width:1.9;stroke-dasharray:none" />
    <path
       d="m 735.841,496.03 v 3.354"
       id="path6767"
       style="stroke-width:1.9;stroke-dasharray:none" />
    <path
       d="m 741.846,493.606 c -2.338,0.944 -6.005,2.424 -6.005,2.424"
       id="path6769"
       style="stroke-width:1.9;stroke-dasharray:none" />
    <path
       d="m 729.125,505.494 v 3.354"
       id="path6771"
       style="stroke-width:1.9;stroke-dasharray:none" />
    <path
       d="m 737.766,502.007 c -3.036,1.225 -8.641,3.487 -8.641,3.487"
       id="path6773"
       style="stroke-width:1.9;stroke-dasharray:none" />
    <path
       d="m 725.301,500.283 v 3.355"
       id="path6775"
       style="stroke-width:1.9;stroke-dasharray:none" />
    <path
       d="m 729.125,505.494 c 0,0 -3.824,-5.211 -3.824,-5.211"
       id="path6777"
       style="stroke-width:1.9;stroke-dasharray:none" />
    <path
       d="m 717.396,503.474 v 3.354"
       id="path6779"
       style="stroke-width:1.9;stroke-dasharray:none" />
    <path
       d="m 725.301,500.283 c 0,0 -7.905,3.191 -7.905,3.191"
       id="path6781"
       style="stroke-width:1.9;stroke-dasharray:none" />
    <path
       d="m 712.424,496.7 v 3.354"
       id="path6783"
       style="stroke-width:1.9;stroke-dasharray:none" />
    <path
       d="m 717.396,503.474 c 0,0 -4.972,-6.774 -4.972,-6.774"
       id="path6785"
       style="stroke-width:1.9;stroke-dasharray:none" />
    <path
       d="M 693.478,504.346 V 507.7"
       id="path6787"
       style="stroke-width:1.9;stroke-dasharray:none" />
    <path
       d="m 712.424,496.7 c 0,0 -18.946,7.646 -18.946,7.646"
       id="path6789"
       style="stroke-width:1.9;stroke-dasharray:none" />
    <path
       d="m 693.311,510.324 v 3.354"
       id="path6791"
       style="stroke-width:1.9;stroke-dasharray:none" />
    <path
       d="m 694.925,509.672 c -0.828,0.334 -1.614,0.652 -1.614,0.652"
       id="path6793"
       style="stroke-width:1.9;stroke-dasharray:none" />
    <path
       d="m 686.595,519.788 v 3.354"
       id="path6795"
       style="stroke-width:1.9;stroke-dasharray:none" />
    <path
       d="m 695.235,516.301 c -3.035,1.224 -8.64,3.487 -8.64,3.487"
       id="path6797"
       style="stroke-width:1.9;stroke-dasharray:none" />
    <path
       d="m 682.771,514.577 v 3.355"
       id="path6799"
       style="stroke-width:1.9;stroke-dasharray:none" />
    <path
       d="m 686.595,519.788 c 0,0 -3.824,-5.211 -3.824,-5.211"
       id="path6801"
       style="stroke-width:1.9;stroke-dasharray:none" />
    <path
       d="m 679.257,515.995 v 3.355"
       id="path6803"
       style="stroke-width:1.9;stroke-dasharray:none" />
    <path
       d="m 682.771,514.577 c 0,0 -3.514,1.418 -3.514,1.418"
       id="path6805"
       style="stroke-width:1.9;stroke-dasharray:none" />
    <path
       d="m 675.911,511.436 v 3.354"
       id="path6807"
       style="stroke-width:1.9;stroke-dasharray:none" />
    <path
       d="m 679.257,515.995 c 0,0 -3.346,-4.559 -3.346,-4.559"
       id="path6809"
       style="stroke-width:1.9;stroke-dasharray:none" />
    <path
       d="m 675.911,511.436 c 0,0 -0.992,0.4 -0.992,0.4"
       id="path6811"
       style="stroke-width:1.9;stroke-dasharray:none" />
    <path
       d="m 674.919,511.836 c 0,0 -0.947,0.383 -0.947,0.383"
       id="path6813"
       style="stroke-width:1.9;stroke-dasharray:none" />
  </g>
</svg>
