<?xml version="1.0" encoding="UTF-8" standalone="no"?>
<!-- Created with Inkscape (http://www.inkscape.org/) -->

<svg
   version="1.1"
   id="svg2"
   xml:space="preserve"
   width="17.406666"
   height="17.405333"
   viewBox="0 0 17.406665 17.405332"
   sodipodi:docname="duration.svg"
   inkscape:version="1.1.2 (0a00cf5339, 2022-02-04, custom)"
   xmlns:inkscape="http://www.inkscape.org/namespaces/inkscape"
   xmlns:sodipodi="http://sodipodi.sourceforge.net/DTD/sodipodi-0.dtd"
   xmlns="http://www.w3.org/2000/svg"
   xmlns:svg="http://www.w3.org/2000/svg"><defs
     id="defs6"><clipPath
       clipPathUnits="userSpaceOnUse"
       id="clipPath18"><path
         d="M 0,595.276 H 841.89 V 0 H 0 Z"
         id="path16" /></clipPath><clipPath
       clipPathUnits="userSpaceOnUse"
       id="clipPath54"><path
         d="m 47.501,359.411 h 33.286 v 34.208 H 47.501 Z"
         id="path52" /></clipPath><clipPath
       clipPathUnits="userSpaceOnUse"
       id="clipPath98"><path
         d="m 47.501,359.411 h 33.286 v 34.208 H 47.501 Z"
         id="path96" /></clipPath><clipPath
       clipPathUnits="userSpaceOnUse"
       id="clipPath124"><path
         d="M 52.458,406.615 H 77.83 v 35.803 H 52.458 Z"
         id="path122" /></clipPath><clipPath
       clipPathUnits="userSpaceOnUse"
       id="clipPath170"><path
         d="m 42.884,452.169 h 42.52 v 40.693 h -42.52 z"
         id="path168" /></clipPath><clipPath
       clipPathUnits="userSpaceOnUse"
       id="clipPath194"><path
         d="m 42.884,452.169 h 42.52 v 40.693 h -42.52 z"
         id="path192" /></clipPath><clipPath
       clipPathUnits="userSpaceOnUse"
       id="clipPath224"><path
         d="M 204.158,97.276 H 774.847 V 478.95 H 204.158 Z"
         id="path222" /></clipPath><clipPath
       clipPathUnits="userSpaceOnUse"
       id="clipPath256"><path
         d="M 204.158,97.276 H 774.847 V 478.95 H 204.158 Z"
         id="path254" /></clipPath><clipPath
       clipPathUnits="userSpaceOnUse"
       id="clipPath316"><path
         d="M 204.158,97.276 H 774.847 V 478.95 H 204.158 Z"
         id="path314" /></clipPath><clipPath
       clipPathUnits="userSpaceOnUse"
       id="clipPath336"><path
         d="M 204.158,97.276 H 774.847 V 478.95 H 204.158 Z"
         id="path334" /></clipPath><clipPath
       clipPathUnits="userSpaceOnUse"
       id="clipPath360"><path
         d="M 204.158,97.276 H 774.847 V 478.95 H 204.158 Z"
         id="path358" /></clipPath><clipPath
       clipPathUnits="userSpaceOnUse"
       id="clipPath380"><path
         d="M 204.158,97.276 H 774.847 V 478.95 H 204.158 Z"
         id="path378" /></clipPath><clipPath
       clipPathUnits="userSpaceOnUse"
       id="clipPath416"><path
         d="M 204.158,97.276 H 774.847 V 478.95 H 204.158 Z"
         id="path414" /></clipPath><clipPath
       clipPathUnits="userSpaceOnUse"
       id="clipPath436"><path
         d="M 204.158,97.276 H 774.847 V 478.95 H 204.158 Z"
         id="path434" /></clipPath><clipPath
       clipPathUnits="userSpaceOnUse"
       id="clipPath460"><path
         d="M 204.158,97.276 H 774.847 V 478.95 H 204.158 Z"
         id="path458" /></clipPath><clipPath
       clipPathUnits="userSpaceOnUse"
       id="clipPath496"><path
         d="M 204.158,97.276 H 774.847 V 478.95 H 204.158 Z"
         id="path494" /></clipPath><clipPath
       clipPathUnits="userSpaceOnUse"
       id="clipPath512"><path
         d="M 204.158,97.276 H 774.847 V 478.95 H 204.158 Z"
         id="path510" /></clipPath><clipPath
       clipPathUnits="userSpaceOnUse"
       id="clipPath536"><path
         d="M 204.158,97.276 H 774.847 V 478.95 H 204.158 Z"
         id="path534" /></clipPath><clipPath
       clipPathUnits="userSpaceOnUse"
       id="clipPath568"><path
         d="M 204.158,97.276 H 774.847 V 478.95 H 204.158 Z"
         id="path566" /></clipPath><clipPath
       clipPathUnits="userSpaceOnUse"
       id="clipPath592"><path
         d="M 204.158,97.276 H 774.847 V 478.95 H 204.158 Z"
         id="path590" /></clipPath><clipPath
       clipPathUnits="userSpaceOnUse"
       id="clipPath616"><path
         d="M 204.158,97.276 H 774.847 V 478.95 H 204.158 Z"
         id="path614" /></clipPath><clipPath
       clipPathUnits="userSpaceOnUse"
       id="clipPath632"><path
         d="M 204.158,97.276 H 774.847 V 478.95 H 204.158 Z"
         id="path630" /></clipPath><clipPath
       clipPathUnits="userSpaceOnUse"
       id="clipPath652"><path
         d="M 204.158,97.276 H 774.847 V 478.95 H 204.158 Z"
         id="path650" /></clipPath><clipPath
       clipPathUnits="userSpaceOnUse"
       id="clipPath668"><path
         d="M 204.158,97.276 H 774.847 V 478.95 H 204.158 Z"
         id="path666" /></clipPath><clipPath
       clipPathUnits="userSpaceOnUse"
       id="clipPath688"><path
         d="M 204.158,97.276 H 774.847 V 478.95 H 204.158 Z"
         id="path686" /></clipPath><clipPath
       clipPathUnits="userSpaceOnUse"
       id="clipPath708"><path
         d="M 204.158,97.276 H 774.847 V 478.95 H 204.158 Z"
         id="path706" /></clipPath><clipPath
       clipPathUnits="userSpaceOnUse"
       id="clipPath728"><path
         d="M 204.158,97.276 H 774.847 V 478.95 H 204.158 Z"
         id="path726" /></clipPath><clipPath
       clipPathUnits="userSpaceOnUse"
       id="clipPath744"><path
         d="M 204.158,97.276 H 774.847 V 478.95 H 204.158 Z"
         id="path742" /></clipPath><clipPath
       clipPathUnits="userSpaceOnUse"
       id="clipPath760"><path
         d="M 204.158,97.276 H 774.847 V 478.95 H 204.158 Z"
         id="path758" /></clipPath><clipPath
       clipPathUnits="userSpaceOnUse"
       id="clipPath804"><path
         d="M 204.158,97.276 H 774.847 V 478.95 H 204.158 Z"
         id="path802" /></clipPath><clipPath
       clipPathUnits="userSpaceOnUse"
       id="clipPath820"><path
         d="M 204.158,97.276 H 774.847 V 478.95 H 204.158 Z"
         id="path818" /></clipPath><clipPath
       clipPathUnits="userSpaceOnUse"
       id="clipPath840"><path
         d="M 204.158,97.276 H 774.847 V 478.95 H 204.158 Z"
         id="path838" /></clipPath><clipPath
       clipPathUnits="userSpaceOnUse"
       id="clipPath868"><path
         d="M 204.158,97.276 H 774.847 V 478.95 H 204.158 Z"
         id="path866" /></clipPath><clipPath
       clipPathUnits="userSpaceOnUse"
       id="clipPath892"><path
         d="M 204.158,97.276 H 774.847 V 478.95 H 204.158 Z"
         id="path890" /></clipPath><clipPath
       clipPathUnits="userSpaceOnUse"
       id="clipPath916"><path
         d="M 204.158,97.276 H 774.847 V 478.95 H 204.158 Z"
         id="path914" /></clipPath><clipPath
       clipPathUnits="userSpaceOnUse"
       id="clipPath936"><path
         d="M 204.158,97.276 H 774.847 V 478.95 H 204.158 Z"
         id="path934" /></clipPath><clipPath
       clipPathUnits="userSpaceOnUse"
       id="clipPath952"><path
         d="M 204.158,97.276 H 774.847 V 478.95 H 204.158 Z"
         id="path950" /></clipPath><clipPath
       clipPathUnits="userSpaceOnUse"
       id="clipPath972"><path
         d="M 204.158,97.276 H 774.847 V 478.95 H 204.158 Z"
         id="path970" /></clipPath><clipPath
       clipPathUnits="userSpaceOnUse"
       id="clipPath1012"><path
         d="M 204.158,97.276 H 774.847 V 478.95 H 204.158 Z"
         id="path1010" /></clipPath><clipPath
       clipPathUnits="userSpaceOnUse"
       id="clipPath1044"><path
         d="M 204.158,97.276 H 774.847 V 478.95 H 204.158 Z"
         id="path1042" /></clipPath><clipPath
       clipPathUnits="userSpaceOnUse"
       id="clipPath1064"><path
         d="M 204.158,97.276 H 774.847 V 478.95 H 204.158 Z"
         id="path1062" /></clipPath><clipPath
       clipPathUnits="userSpaceOnUse"
       id="clipPath1088"><path
         d="M 204.158,97.276 H 774.847 V 478.95 H 204.158 Z"
         id="path1086" /></clipPath><clipPath
       clipPathUnits="userSpaceOnUse"
       id="clipPath1124"><path
         d="M 204.158,97.276 H 774.847 V 478.95 H 204.158 Z"
         id="path1122" /></clipPath><clipPath
       clipPathUnits="userSpaceOnUse"
       id="clipPath1140"><path
         d="M 204.158,97.276 H 774.847 V 478.95 H 204.158 Z"
         id="path1138" /></clipPath><clipPath
       clipPathUnits="userSpaceOnUse"
       id="clipPath1160"><path
         d="M 204.158,97.276 H 774.847 V 478.95 H 204.158 Z"
         id="path1158" /></clipPath><clipPath
       clipPathUnits="userSpaceOnUse"
       id="clipPath1180"><path
         d="M 204.158,97.276 H 774.847 V 478.95 H 204.158 Z"
         id="path1178" /></clipPath><clipPath
       clipPathUnits="userSpaceOnUse"
       id="clipPath1204"><path
         d="M 204.158,97.276 H 774.847 V 478.95 H 204.158 Z"
         id="path1202" /></clipPath><clipPath
       clipPathUnits="userSpaceOnUse"
       id="clipPath1228"><path
         d="M 204.158,97.276 H 774.847 V 478.95 H 204.158 Z"
         id="path1226" /></clipPath><clipPath
       clipPathUnits="userSpaceOnUse"
       id="clipPath1244"><path
         d="M 204.158,97.276 H 774.847 V 478.95 H 204.158 Z"
         id="path1242" /></clipPath><clipPath
       clipPathUnits="userSpaceOnUse"
       id="clipPath1260"><path
         d="M 204.158,97.276 H 774.847 V 478.95 H 204.158 Z"
         id="path1258" /></clipPath><clipPath
       clipPathUnits="userSpaceOnUse"
       id="clipPath1280"><path
         d="M 204.158,97.276 H 774.847 V 478.95 H 204.158 Z"
         id="path1278" /></clipPath><clipPath
       clipPathUnits="userSpaceOnUse"
       id="clipPath1300"><path
         d="M 204.158,97.276 H 774.847 V 478.95 H 204.158 Z"
         id="path1298" /></clipPath><clipPath
       clipPathUnits="userSpaceOnUse"
       id="clipPath1324"><path
         d="M 204.158,97.276 H 774.847 V 478.95 H 204.158 Z"
         id="path1322" /></clipPath><clipPath
       clipPathUnits="userSpaceOnUse"
       id="clipPath1344"><path
         d="M 204.158,97.276 H 774.847 V 478.95 H 204.158 Z"
         id="path1342" /></clipPath><clipPath
       clipPathUnits="userSpaceOnUse"
       id="clipPath1364"><path
         d="M 204.158,97.276 H 774.847 V 478.95 H 204.158 Z"
         id="path1362" /></clipPath><clipPath
       clipPathUnits="userSpaceOnUse"
       id="clipPath1384"><path
         d="M 204.158,97.276 H 774.847 V 478.95 H 204.158 Z"
         id="path1382" /></clipPath><clipPath
       clipPathUnits="userSpaceOnUse"
       id="clipPath1408"><path
         d="M 204.158,97.276 H 774.847 V 478.95 H 204.158 Z"
         id="path1406" /></clipPath><clipPath
       clipPathUnits="userSpaceOnUse"
       id="clipPath1436"><path
         d="M 204.158,97.276 H 774.847 V 478.95 H 204.158 Z"
         id="path1434" /></clipPath><clipPath
       clipPathUnits="userSpaceOnUse"
       id="clipPath1452"><path
         d="M 204.158,97.276 H 774.847 V 478.95 H 204.158 Z"
         id="path1450" /></clipPath><clipPath
       clipPathUnits="userSpaceOnUse"
       id="clipPath1484"><path
         d="M 204.158,97.276 H 774.847 V 478.95 H 204.158 Z"
         id="path1482" /></clipPath><clipPath
       clipPathUnits="userSpaceOnUse"
       id="clipPath1512"><path
         d="M 204.158,97.276 H 774.847 V 478.95 H 204.158 Z"
         id="path1510" /></clipPath><clipPath
       clipPathUnits="userSpaceOnUse"
       id="clipPath1528"><path
         d="M 204.158,97.276 H 774.847 V 478.95 H 204.158 Z"
         id="path1526" /></clipPath><clipPath
       clipPathUnits="userSpaceOnUse"
       id="clipPath1548"><path
         d="M 204.158,97.276 H 774.847 V 478.95 H 204.158 Z"
         id="path1546" /></clipPath><clipPath
       clipPathUnits="userSpaceOnUse"
       id="clipPath1600"><path
         d="M 204.158,97.276 H 774.847 V 478.95 H 204.158 Z"
         id="path1598" /></clipPath><clipPath
       clipPathUnits="userSpaceOnUse"
       id="clipPath1616"><path
         d="M 204.158,97.276 H 774.847 V 478.95 H 204.158 Z"
         id="path1614" /></clipPath><clipPath
       clipPathUnits="userSpaceOnUse"
       id="clipPath1632"><path
         d="M 204.158,97.276 H 774.847 V 478.95 H 204.158 Z"
         id="path1630" /></clipPath><clipPath
       clipPathUnits="userSpaceOnUse"
       id="clipPath1672"><path
         d="M 204.158,97.276 H 774.847 V 478.95 H 204.158 Z"
         id="path1670" /></clipPath><clipPath
       clipPathUnits="userSpaceOnUse"
       id="clipPath1688"><path
         d="M 204.158,97.276 H 774.847 V 478.95 H 204.158 Z"
         id="path1686" /></clipPath><clipPath
       clipPathUnits="userSpaceOnUse"
       id="clipPath1708"><path
         d="M 204.158,97.276 H 774.847 V 478.95 H 204.158 Z"
         id="path1706" /></clipPath><clipPath
       clipPathUnits="userSpaceOnUse"
       id="clipPath1736"><path
         d="M 204.158,97.276 H 774.847 V 478.95 H 204.158 Z"
         id="path1734" /></clipPath><clipPath
       clipPathUnits="userSpaceOnUse"
       id="clipPath1756"><path
         d="M 204.158,97.276 H 774.847 V 478.95 H 204.158 Z"
         id="path1754" /></clipPath><clipPath
       clipPathUnits="userSpaceOnUse"
       id="clipPath1772"><path
         d="M 204.158,97.276 H 774.847 V 478.95 H 204.158 Z"
         id="path1770" /></clipPath><clipPath
       clipPathUnits="userSpaceOnUse"
       id="clipPath1788"><path
         d="M 204.158,97.276 H 774.847 V 478.95 H 204.158 Z"
         id="path1786" /></clipPath><clipPath
       clipPathUnits="userSpaceOnUse"
       id="clipPath1820"><path
         d="M 204.158,97.276 H 774.847 V 478.95 H 204.158 Z"
         id="path1818" /></clipPath><clipPath
       clipPathUnits="userSpaceOnUse"
       id="clipPath1860"><path
         d="M 204.158,97.276 H 774.847 V 478.95 H 204.158 Z"
         id="path1858" /></clipPath><clipPath
       clipPathUnits="userSpaceOnUse"
       id="clipPath1876"><path
         d="M 204.158,97.276 H 774.847 V 478.95 H 204.158 Z"
         id="path1874" /></clipPath><clipPath
       clipPathUnits="userSpaceOnUse"
       id="clipPath1912"><path
         d="M 204.158,97.276 H 774.847 V 478.95 H 204.158 Z"
         id="path1910" /></clipPath><clipPath
       clipPathUnits="userSpaceOnUse"
       id="clipPath1932"><path
         d="M 204.158,97.276 H 774.847 V 478.95 H 204.158 Z"
         id="path1930" /></clipPath><clipPath
       clipPathUnits="userSpaceOnUse"
       id="clipPath1952"><path
         d="M 204.158,97.276 H 774.847 V 478.95 H 204.158 Z"
         id="path1950" /></clipPath><clipPath
       clipPathUnits="userSpaceOnUse"
       id="clipPath1972"><path
         d="M 204.158,97.276 H 774.847 V 478.95 H 204.158 Z"
         id="path1970" /></clipPath><clipPath
       clipPathUnits="userSpaceOnUse"
       id="clipPath2004"><path
         d="M 204.158,97.276 H 774.847 V 478.95 H 204.158 Z"
         id="path2002" /></clipPath><clipPath
       clipPathUnits="userSpaceOnUse"
       id="clipPath2048"><path
         d="M 204.158,97.276 H 774.847 V 478.95 H 204.158 Z"
         id="path2046" /></clipPath><clipPath
       clipPathUnits="userSpaceOnUse"
       id="clipPath2076"><path
         d="M 204.158,97.276 H 774.847 V 478.95 H 204.158 Z"
         id="path2074" /></clipPath><clipPath
       clipPathUnits="userSpaceOnUse"
       id="clipPath2092"><path
         d="M 204.158,97.276 H 774.847 V 478.95 H 204.158 Z"
         id="path2090" /></clipPath><clipPath
       clipPathUnits="userSpaceOnUse"
       id="clipPath2108"><path
         d="M 204.158,97.276 H 774.847 V 478.95 H 204.158 Z"
         id="path2106" /></clipPath><clipPath
       clipPathUnits="userSpaceOnUse"
       id="clipPath2132"><path
         d="M 204.158,97.276 H 774.847 V 478.95 H 204.158 Z"
         id="path2130" /></clipPath><clipPath
       clipPathUnits="userSpaceOnUse"
       id="clipPath2148"><path
         d="M 204.158,97.276 H 774.847 V 478.95 H 204.158 Z"
         id="path2146" /></clipPath><clipPath
       clipPathUnits="userSpaceOnUse"
       id="clipPath2164"><path
         d="M 204.158,97.276 H 774.847 V 478.95 H 204.158 Z"
         id="path2162" /></clipPath><clipPath
       clipPathUnits="userSpaceOnUse"
       id="clipPath2180"><path
         d="M 204.158,97.276 H 774.847 V 478.95 H 204.158 Z"
         id="path2178" /></clipPath><clipPath
       clipPathUnits="userSpaceOnUse"
       id="clipPath2220"><path
         d="M 204.158,97.276 H 774.847 V 478.95 H 204.158 Z"
         id="path2218" /></clipPath><clipPath
       clipPathUnits="userSpaceOnUse"
       id="clipPath2244"><path
         d="M 204.158,97.276 H 774.847 V 478.95 H 204.158 Z"
         id="path2242" /></clipPath><clipPath
       clipPathUnits="userSpaceOnUse"
       id="clipPath2268"><path
         d="M 204.158,97.276 H 774.847 V 478.95 H 204.158 Z"
         id="path2266" /></clipPath><clipPath
       clipPathUnits="userSpaceOnUse"
       id="clipPath2652"><path
         d="m 269.349,399.535 c 0,-33.522 27.176,-60.698 60.698,-60.698 v 0 c 33.522,0 60.698,27.176 60.698,60.698 v 0 c 0,33.522 -27.176,60.698 -60.698,60.698 v 0 c -33.522,0 -60.698,-27.176 -60.698,-60.698"
         id="path2650" /></clipPath><clipPath
       clipPathUnits="userSpaceOnUse"
       id="clipPath3524"><path
         d="M 0,0 H 841.89 V 595.276 H 0 Z"
         id="path3522" /></clipPath><clipPath
       clipPathUnits="userSpaceOnUse"
       id="clipPath3548"><path
         d="M 0,0 H 841.89 V 595.276 H 0 Z"
         id="path3546" /></clipPath><clipPath
       clipPathUnits="userSpaceOnUse"
       id="clipPath3604"><path
         d="M 44.295,48.102 H 83.992 V 78.456 H 44.295 Z"
         id="path3602" /></clipPath></defs><sodipodi:namedview
     id="namedview4"
     pagecolor="#ffffff"
     bordercolor="#666666"
     borderopacity="1.0"
     inkscape:pageshadow="2"
     inkscape:pageopacity="0.0"
     inkscape:pagecheckerboard="0"
     showgrid="false"
     inkscape:zoom="3.6638466"
     inkscape:cx="-8.7339902"
     inkscape:cy="-9.5528017"
     inkscape:window-width="1920"
     inkscape:window-height="1031"
     inkscape:window-x="0"
     inkscape:window-y="0"
     inkscape:window-maximized="1"
     inkscape:current-layer="g8" /><g
     id="g8"
     inkscape:groupmode="layer"
     inkscape:label="fabulaser-manual-L2M2"
     transform="matrix(1.3333333,0,0,-1.3333333,-151.52693,697.67078)"><g
       id="g10"><g
         id="g12"><g
           id="g14"
           clip-path="url(#clipPath18)"><g
             id="g20"
             transform="translate(126.2002,516.7251)"><path
               d="m 0,0 c 0,-3.329 -2.698,-6.026 -6.027,-6.026 -3.329,0 -6.028,2.697 -6.028,6.026 0,3.329 2.699,6.028 6.028,6.028 C -2.698,6.028 0,3.329 0,0 Z M -6.027,3.434 V 0 l 2.21,-1.822"
               style="fill:none;stroke:#000000;stroke-width:1;stroke-linecap:round;stroke-linejoin:round;stroke-miterlimit:10;stroke-dasharray:none;stroke-opacity:1"
               id="path22" /></g></g></g></g></g></svg>
