<?xml version="1.0" encoding="UTF-8" standalone="no"?>
<svg
   width="26.402mm"
   height="51.192398mm"
   version="1.2"
   viewBox="0 0 264.02 511.92398"
   id="svg94"
   sodipodi:docname="bracket-30.svg"
   inkscape:version="1.1.2 (0a00cf5339, 2022-02-04, custom)"
   xmlns:inkscape="http://www.inkscape.org/namespaces/inkscape"
   xmlns:sodipodi="http://sodipodi.sourceforge.net/DTD/sodipodi-0.dtd"
   xmlns="http://www.w3.org/2000/svg"
   xmlns:svg="http://www.w3.org/2000/svg"
   xmlns:rdf="http://www.w3.org/1999/02/22-rdf-syntax-ns#"
   xmlns:cc="http://creativecommons.org/ns#"
   xmlns:dc="http://purl.org/dc/elements/1.1/">
  <sodipodi:namedview
     id="namedview96"
     pagecolor="#ffffff"
     bordercolor="#666666"
     borderopacity="1.0"
     inkscape:pageshadow="2"
     inkscape:pageopacity="0.0"
     inkscape:pagecheckerboard="0"
     inkscape:document-units="mm"
     showgrid="false"
     inkscape:zoom="0.22871829"
     inkscape:cx="45.908003"
     inkscape:cy="98.374293"
     inkscape:window-width="1761"
     inkscape:window-height="932"
     inkscape:window-x="0"
     inkscape:window-y="0"
     inkscape:window-maximized="0"
     inkscape:current-layer="svg94"
     inkscape:showpageshadow="2"
     inkscape:deskcolor="#d1d1d1" />
  <title
     id="title2">FreeCAD SVG Export</title>
  <desc
     id="desc4">Drawing page: Page exported from FreeCAD document: fabulaser_first_steps_details</desc>
  <defs
     id="defs6" />
  <g
     id="Page"
     inkscape:groupmode="layer"
     inkscape:label="TechDraw"
     transform="translate(-5812.99,-3949.038)">
    <g
       id="DrawingContent"
       stroke="#000000"
       fill-rule="evenodd"
       stroke-width="1"
       stroke-linejoin="bevel"
       fill="none"
       stroke-linecap="square">
      <g
         stroke="none"
         font-weight="400"
         font-family="'Sans Serif'"
         font-style="normal"
         transform="translate(5945,4205)"
         fill="#ffffff"
         font-size="31.75px"
         fill-opacity="1"
         id="g10">
        <path
           fill-rule="evenodd"
           vector-effect="non-scaling-stroke"
           d="M -129.51,-33.5386 V 124.951 L 129.51,253.462 V 94.9721 L 21.8468,-253.462 -129.51,-33.5386"
           id="path8" />
      </g>
      <g
         stroke-opacity="1"
         stroke="#000000"
         font-weight="400"
         font-family="'Sans Serif'"
         font-style="normal"
         transform="translate(5945,4205)"
         stroke-width="1"
         stroke-linejoin="bevel"
         fill="none"
         font-size="31.75px"
         stroke-linecap="square"
         id="g14">
        <rect
           x="0"
           width="0"
           height="0"
           y="0"
           id="rect12" />
      </g>
      <g
         stroke="none"
         font-weight="400"
         font-family="'Sans Serif'"
         font-style="normal"
         transform="translate(5945,4205)"
         fill="#ffffff"
         font-size="31.75px"
         fill-opacity="1"
         id="g18">
        <path
           fill-rule="evenodd"
           vector-effect="non-scaling-stroke"
           d="M 129.51,253.462 V 94.9721 L -129.51,-33.5386 V 124.951 l 259.02,128.511"
           id="path16" />
      </g>
      <g
         stroke-opacity="1"
         stroke="#000000"
         font-weight="400"
         font-family="'Sans Serif'"
         font-style="normal"
         transform="translate(5945,4205)"
         stroke-width="1"
         stroke-linejoin="bevel"
         fill="none"
         font-size="31.75px"
         stroke-linecap="square"
         id="g22">
        <rect
           x="0"
           width="0"
           height="0"
           y="0"
           id="rect20" />
      </g>
      <g
         stroke="none"
         font-weight="400"
         font-family="'Sans Serif'"
         font-style="normal"
         transform="translate(5945,4205)"
         fill="#ffffff"
         font-size="31.75px"
         fill-opacity="1"
         id="g26">
        <path
           fill-rule="evenodd"
           vector-effect="non-scaling-stroke"
           d="M 21.8468,-253.462 129.51,94.9721 -129.51,-33.5386 21.8468,-253.462"
           id="path24" />
      </g>
      <g
         stroke-opacity="1"
         stroke="#000000"
         font-weight="400"
         font-family="'Sans Serif'"
         font-style="normal"
         transform="translate(5945,4205)"
         stroke-width="1"
         stroke-linejoin="bevel"
         fill="none"
         font-size="31.75px"
         stroke-linecap="square"
         id="g30">
        <rect
           x="0"
           width="0"
           height="0"
           y="0"
           id="rect28" />
      </g>
      <g
         stroke="none"
         font-weight="400"
         font-family="'Sans Serif'"
         font-style="normal"
         transform="translate(5945,4205)"
         fill="#ffffff"
         font-size="31.75px"
         fill-opacity="1"
         id="g34">
        <path
           fill-rule="evenodd"
           vector-effect="non-scaling-stroke"
           d="m 31.2223,115.245 c 2.9108,4.762 4.1926,9.019 4.177,12.28 0.0021,2.081 -0.4975,4.047 -1.6269,5.684 -1.1035,1.624 -2.7914,2.847 -5.0637,3.668 -2.259,0.8 -5.0775,1.111 -8.2312,0.913 C 14.1601,137.42 6.61769,134.93 -3.68208e-6,131.622 -4.16683,129.557 -8.66833,126.859 -13.0303,123.636 c -4.3593,-3.213 -8.5478,-6.944 -12.0008,-10.777 -3.4645,-3.832 -6.1663,-7.736 -7.8828,-11.255 -1.7311,-3.5274 -2.4905,-6.6586 -2.4854,-9.2057 -0.0021,-2.0807 0.4969,-4.0453 1.625,-5.6812 l 0.0018,-0.0025 -0.0018,0.0025 0.0018,-0.0025 v -1e-4 c 1.3378,-1.9573 3.5967,-3.4245 6.6591,-4.131 3.05,-0.7176 6.8867,-0.6651 11.0267,0.1022 5.2607,0.961 10.93903,3.0535 16.08670368209,5.6155 v 0 C 5.65194,91.0931 11.956,95.1065 17.6248,99.9212 c 5.6778,4.7898 10.5609,10.2998 13.5975,15.3238 2.9108,4.762 4.1926,9.019 4.177,12.28 0.0021,2.081 -0.4975,4.047 -1.6269,5.684 -1.1035,1.624 -2.7914,2.847 -5.0637,3.668 -2.259,0.8 -5.0775,1.111 -8.2312,0.913 C 14.1601,137.42 6.61769,134.93 -3.68208e-6,131.622 -4.16683,129.557 -8.66833,126.859 -13.0303,123.636 c -4.3593,-3.213 -8.5478,-6.944 -12.0008,-10.777 -3.4645,-3.832 -6.1663,-7.736 -7.8828,-11.255 -1.7311,-3.5274 -2.4905,-6.6586 -2.4854,-9.2057 -0.0021,-2.0807 0.4969,-4.0453 1.625,-5.6812 l 0.0018,-0.0025 v -1e-4 c 1.3378,-1.9573 3.5967,-3.4245 6.6591,-4.131 3.05,-0.7176 6.8867,-0.6651 11.0267,0.1022 3.0366,5.0234 7.91979,10.5334 13.59757,15.3237 5.66877,4.8146 11.97286,8.8286 17.62483,11.6196 5.1476,2.562 10.8259,4.655 16.0866,5.616"
           id="path32" />
      </g>
      <g
         stroke-opacity="1"
         stroke="#000000"
         font-weight="400"
         font-family="'Sans Serif'"
         font-style="normal"
         transform="translate(5945,4205)"
         stroke-width="1"
         stroke-linejoin="bevel"
         fill="none"
         font-size="31.75px"
         stroke-linecap="square"
         id="g38">
        <rect
           x="0"
           width="0"
           height="0"
           y="0"
           id="rect36" />
      </g>
      <g
         stroke="none"
         font-weight="400"
         font-family="'Sans Serif'"
         font-style="normal"
         transform="translate(5945,4205)"
         fill="#ffffff"
         font-size="31.75px"
         fill-opacity="1"
         id="g42">
        <path
           fill-rule="evenodd"
           vector-effect="non-scaling-stroke"
           d="m -16.0867,82.6857 c 5.2607,0.961 10.93903,3.0535 16.08670368209,5.6155 v 0 C 5.65194,91.0931 11.956,95.1065 17.6248,99.9212 23.3026,104.711 28.1857,110.221 31.2223,115.245 25.9616,114.284 20.2833,112.191 15.1357,109.629 9.48373,106.838 3.17964,102.824 -2.48913,98.0094 -8.16691,93.2191 -13.0501,87.7091 -16.0867,82.6857"
           id="path40" />
      </g>
      <g
         stroke-opacity="1"
         stroke="#000000"
         font-weight="400"
         font-family="'Sans Serif'"
         font-style="normal"
         transform="translate(5945,4205)"
         stroke-width="1"
         stroke-linejoin="bevel"
         fill="none"
         font-size="31.75px"
         stroke-linecap="square"
         id="g46">
        <rect
           x="0"
           width="0"
           height="0"
           y="0"
           id="rect44" />
      </g>
      <g
         stroke-opacity="1"
         stroke="#000000"
         font-weight="400"
         font-family="'Sans Serif'"
         font-style="normal"
         transform="translate(5945,4205)"
         stroke-width="5"
         stroke-linejoin="bevel"
         fill="none"
         font-size="31.75px"
         stroke-linecap="round"
         id="g50">
        <path
           fill-rule="evenodd"
           vector-effect="none"
           d="m -16.0867,82.6857 c 3.0366,5.0234 7.91979,10.5334 13.59757,15.3237 5.66877,4.8146 11.97286,8.8286 17.62483,11.6196 5.1476,2.562 10.8259,4.655 16.0866,5.616"
           id="path48" />
      </g>
      <g
         stroke-opacity="1"
         stroke="#000000"
         font-weight="400"
         font-family="'Sans Serif'"
         font-style="normal"
         transform="translate(5945,4205)"
         stroke-width="5"
         stroke-linejoin="bevel"
         fill="none"
         font-size="31.75px"
         stroke-linecap="round"
         id="g54">
        <path
           fill-rule="evenodd"
           vector-effect="none"
           d="M 3.68209e-6,88.3012 C 4.16683,90.3655 8.66833,93.0635 13.0303,96.2869 c 4.3593,3.2131 8.5478,6.9441 12.0008,10.7771 3.4645,3.832 6.1663,7.735 7.8828,11.254 1.7311,3.528 2.4905,6.659 2.4854,9.207 0.0021,2.081 -0.4975,4.047 -1.6269,5.684"
           id="path52" />
      </g>
      <g
         stroke-opacity="1"
         stroke="#000000"
         font-weight="400"
         font-family="'Sans Serif'"
         font-style="normal"
         transform="translate(5945,4205)"
         stroke-width="5"
         stroke-linejoin="bevel"
         fill="none"
         font-size="31.75px"
         stroke-linecap="round"
         id="g58">
        <path
           fill-rule="evenodd"
           vector-effect="none"
           d="m 33.7724,133.209 c -1.1035,1.624 -2.7914,2.847 -5.0637,3.668 -2.259,0.8 -5.0775,1.111 -8.2312,0.913 C 14.1601,137.42 6.61769,134.93 -3.68208e-6,131.622 -4.16683,129.557 -8.66833,126.859 -13.0303,123.636 c -4.3593,-3.213 -8.5478,-6.944 -12.0008,-10.777 -3.4645,-3.832 -6.1663,-7.736 -7.8828,-11.255 -1.7311,-3.5274 -2.4905,-6.6586 -2.4854,-9.2057 -0.0021,-2.0818 0.4975,-4.0474 1.6268,-5.6838"
           id="path56" />
      </g>
      <g
         stroke-opacity="1"
         stroke="#000000"
         font-weight="400"
         font-family="'Sans Serif'"
         font-style="normal"
         transform="translate(5945,4205)"
         stroke-width="5"
         stroke-linejoin="bevel"
         fill="none"
         font-size="31.75px"
         stroke-linecap="round"
         id="g62">
        <path
           fill-rule="evenodd"
           vector-effect="none"
           d="m -33.7725,86.7145 c 1.1035,-1.6249 2.7914,-2.8479 5.0637,-3.669 2.259,-0.7991 5.0774,-1.1111 8.2312,-0.9121 6.3174,0.3696 13.85986,2.8592 20.47760368209,6.1678"
           id="path60" />
      </g>
      <g
         stroke-opacity="1"
         stroke="#000000"
         font-weight="400"
         font-family="'Sans Serif'"
         font-style="normal"
         transform="translate(5945,4205)"
         stroke-width="5"
         stroke-linejoin="bevel"
         fill="none"
         font-size="31.75px"
         stroke-linecap="round"
         id="g66">
        <path
           fill-rule="evenodd"
           vector-effect="none"
           d="M -129.51,124.951 129.51,253.462"
           id="path64" />
      </g>
      <g
         stroke-opacity="1"
         stroke="#000000"
         font-weight="400"
         font-family="'Sans Serif'"
         font-style="normal"
         transform="translate(5945,4205)"
         stroke-width="5"
         stroke-linejoin="bevel"
         fill="none"
         font-size="31.75px"
         stroke-linecap="round"
         id="g70">
        <path
           fill-rule="evenodd"
           vector-effect="none"
           d="M 129.51,253.462 V 94.9721"
           id="path68" />
      </g>
      <g
         stroke-opacity="1"
         stroke="#000000"
         font-weight="400"
         font-family="'Sans Serif'"
         font-style="normal"
         transform="translate(5945,4205)"
         stroke-width="5"
         stroke-linejoin="bevel"
         fill="none"
         font-size="31.75px"
         stroke-linecap="round"
         id="g74">
        <path
           fill-rule="evenodd"
           vector-effect="none"
           d="M 129.51,94.9721 -129.51,-33.5386"
           id="path72" />
      </g>
      <g
         stroke-opacity="1"
         stroke="#000000"
         font-weight="400"
         font-family="'Sans Serif'"
         font-style="normal"
         transform="translate(5945,4205)"
         stroke-width="5"
         stroke-linejoin="bevel"
         fill="none"
         font-size="31.75px"
         stroke-linecap="round"
         id="g78">
        <path
           fill-rule="evenodd"
           vector-effect="none"
           d="M -129.51,-33.5386 V 124.951"
           id="path76" />
      </g>
      <g
         stroke-opacity="1"
         stroke="#000000"
         font-weight="400"
         font-family="'Sans Serif'"
         font-style="normal"
         transform="translate(5945,4205)"
         stroke-width="5"
         stroke-linejoin="bevel"
         fill="none"
         font-size="31.75px"
         stroke-linecap="round"
         id="g82">
        <path
           fill-rule="evenodd"
           vector-effect="none"
           d="M -129.51,-33.5386 21.8468,-253.462"
           id="path80" />
      </g>
      <g
         stroke-opacity="1"
         stroke="#000000"
         font-weight="400"
         font-family="'Sans Serif'"
         font-style="normal"
         transform="translate(5945,4205)"
         stroke-width="5"
         stroke-linejoin="bevel"
         fill="none"
         font-size="31.75px"
         stroke-linecap="round"
         id="g86">
        <path
           fill-rule="evenodd"
           vector-effect="none"
           d="M 21.8468,-253.462 129.51,94.9721"
           id="path84" />
      </g>
      <g
         stroke-opacity="1"
         stroke="#000000"
         font-weight="400"
         font-family="'Sans Serif'"
         font-style="normal"
         transform="translate(5945,4205)"
         stroke-width="5"
         stroke-linejoin="bevel"
         fill="none"
         font-size="31.75px"
         stroke-linecap="round"
         id="g90">
        <path
           fill-rule="evenodd"
           vector-effect="none"
           d="m -33.7743,86.7171 0.0018,-0.0025"
           id="path88" />
      </g>
    </g>
  </g>
  <metadata
     id="metadata913">
    <rdf:RDF>
      <cc:Work
         rdf:about="">
        <dc:title>FreeCAD SVG Export</dc:title>
      </cc:Work>
    </rdf:RDF>
  </metadata>
</svg>
