<?xml version="1.0" encoding="UTF-8" standalone="no"?>
<svg
   viewBox="0 0 93.424377 149.37739"
   height="14.937739mm"
   width="9.3424377mm"
   version="1.2"
   id="svg238"
   sodipodi:docname="t-nut-m6.svg"
   xmlns:inkscape="http://www.inkscape.org/namespaces/inkscape"
   xmlns:sodipodi="http://sodipodi.sourceforge.net/DTD/sodipodi-0.dtd"
   xmlns="http://www.w3.org/2000/svg"
   xmlns:svg="http://www.w3.org/2000/svg">
  <sodipodi:namedview
     id="namedview240"
     pagecolor="#ffffff"
     bordercolor="#666666"
     borderopacity="1.0"
     inkscape:showpageshadow="2"
     inkscape:pageopacity="0.0"
     inkscape:pagecheckerboard="0"
     inkscape:deskcolor="#d1d1d1"
     inkscape:document-units="mm"
     showgrid="false" />
  <title
     id="title2">FreeCAD SVG Export</title>
  <desc
     id="desc4">Drawing page: Page exported from FreeCAD document: fabulaser_first_steps_details</desc>
  <defs
     id="defs6" />
  <g
     inkscape:groupmode="layer"
     id="Page"
     inkscape:label="TechDraw"
     transform="translate(-5898.4177,-4130.3486)">
    <g
       fill="none"
       stroke-linejoin="bevel"
       fill-rule="evenodd"
       stroke-width="1"
       stroke-linecap="square"
       id="DrawingContent"
       stroke="#000000">
      <g
         fill="#ffffff"
         transform="translate(5945,4205)"
         font-family="'Sans Serif'"
         font-weight="400"
         font-size="31.75px"
         stroke="none"
         font-style="normal"
         fill-opacity="1"
         id="g10">
        <path
           d="m 40.2148,39.47 v 9.2735 0 c 0.0328,3.8721 -1.3911,8.1561 -4.1815,11.502 -2.7517,3.3787 -6.7127,5.6702 -10.5286,6.6255 -21.02751,5.4596 -43.7223,6.7786 -65.3053,3.7953 -1.6138,-0.1796 -3.2314,-1.3318 -3.8515,-2.7436 -0.2805,-0.5875 -0.4238,-1.2231 -0.4302,-1.9069 v 0 l 3e-4,-58.07186 v 0 c -0.0049,-0.94372 0.3197,-1.88738 0.848,-2.6183 v 0 l 6.8748,-9.6295 v -6.74724 l 4.2565,-5.962 c 4.0428,-0.5227 8.1511,-1.8885 11.7683,-4.0249 3.6253,-2.1242 6.7276,-5.0004 8.9945,-8.1896 1.85244,-2.5888 3.29989,-5.5732 4.15495,-8.7318 l 5e-5,-13.956 4.25647,-5.9621 1.66079,1.0473 c 0.385862,0.2507 0.954466,0.3892 1.500739,0.2834 0.548155,-0.0967 1.018431,-0.4275 1.274401,-0.7969 l 9.082,-12.7212 c 0.8697,-1.2903 2.6743,-2.1633 4.297,-2.0789 1.6251,0.0041 3.3728,0.974 4.1614,2.3095 11.1195,17.6396 18.4245,37.877 21.0205,58.2342 0.0967,0.739 0.1456,1.4962 0.1466,2.27172 0.0328,3.87209 -1.3911,8.15611 -4.1814,11.50197 -2.7518,3.37866 -6.7128,5.67019 -10.5287,6.62545 -21.02748,5.45966 -43.7222,6.77866 -65.3052,3.79536 -1.6139,-0.1796 -3.2314,-1.3318 -3.8516,-2.74362 -0.2804,-0.58745 -0.4238,-1.22306 -0.4301,-1.90684 v 0 l -3e-4,58.07186 v 0 c 0.0064,0.6838 0.1497,1.3194 0.4302,1.9069 0.6201,1.4118 2.2377,2.564 3.8515,2.7436 21.583,2.9833 44.27779,1.6643 65.3053,-3.7953 3.8159,-0.9553 7.7769,-3.2468 10.5286,-6.6255 2.7904,-3.3459 4.2143,-7.6299 4.1815,-11.502 v 0 -9.2735"
           vector-effect="non-scaling-stroke"
           fill-rule="evenodd"
           id="path8" />
      </g>
      <g
         fill="none"
         stroke-linejoin="bevel"
         transform="translate(5945,4205)"
         stroke-opacity="1"
         stroke-width="1"
         stroke-linecap="square"
         font-family="'Sans Serif'"
         font-weight="400"
         font-size="31.75px"
         stroke="#000000"
         font-style="normal"
         id="g14">
        <rect
           y="0"
           height="0"
           width="0"
           x="0"
           id="rect12" />
      </g>
      <g
         fill="#ffffff"
         transform="translate(5945,4205)"
         font-family="'Sans Serif'"
         font-weight="400"
         font-size="31.75px"
         stroke="none"
         font-style="normal"
         fill-opacity="1"
         id="g18">
        <path
           d="m -44.082,7.94394 c -0.0049,-0.94372 0.3197,-1.88738 0.848,-2.6183 v 0 l 6.8748,-9.6295 2.2072,-3.09167 c 0.2147,-0.29129 0.3278,-0.6404 0.3392,-1.04732 0.0124,-0.6462 -0.3952,-1.26962 -0.8856,-1.56085 l -1.6608,-1.0474 4.2565,-5.962 c 4.0428,-0.5227 8.1511,-1.8885 11.7683,-4.0249 3.6253,-2.1242 6.7276,-5.0004 8.9945,-8.1896 1.85244,-2.5888 3.29989,-5.5732 4.15495,-8.7318 0.62168,-2.296 0.93279,-4.622 0.9333,-6.978 -0.00721,-2.4061 -0.31829,-4.7321 -0.93325,-6.978 l 4.25647,-5.9621 1.66079,1.0473 c 0.385862,0.2507 0.954466,0.3892 1.500739,0.2834 0.548155,-0.0967 1.018431,-0.4275 1.274401,-0.7969 l 9.082,-12.7212 c 0.8697,-1.2903 2.6743,-2.1633 4.297,-2.0789 1.6251,0.0041 3.3728,0.974 4.1614,2.3095 11.1195,17.6396 18.4245,37.877 21.0205,58.2342 0.0967,0.739 0.1456,1.4962 0.1466,2.27172 v 0 V 3.171 c 4.9576,5.20913 5.5208,13.2038 1.3423,19.0565 v 0 c 0.1665,-0.2369 0.2491,-0.5238 0.2479,-0.8607 0.0012,0.3369 -0.0814,0.6238 -0.2479,0.8607 v 0 C 37.7416,27.572 30.8931,29.8132 24.656,27.7587 30.8931,29.8132 37.7416,27.572 41.5573,22.2275 45.7358,16.3748 45.1726,8.38013 40.215,3.171 V 4.90948 3.171 -9.32838 v 0 c 0.0328,3.87209 -1.3911,8.15611 -4.1814,11.50197 -2.7518,3.37866 -6.7128,5.67019 -10.5287,6.62545 -21.02748,5.45966 -43.7222,6.77866 -65.3052,3.79536 -1.6139,-0.1796 -3.2314,-1.3318 -3.8516,-2.74362 -0.2804,-0.58745 -0.4238,-1.22306 -0.4301,-1.90684"
           vector-effect="non-scaling-stroke"
           fill-rule="evenodd"
           id="path16" />
      </g>
      <g
         fill="none"
         stroke-linejoin="bevel"
         transform="translate(5945,4205)"
         stroke-opacity="1"
         stroke-width="1"
         stroke-linecap="square"
         font-family="'Sans Serif'"
         font-weight="400"
         font-size="31.75px"
         stroke="#000000"
         font-style="normal"
         id="g22">
        <rect
           y="0"
           height="0"
           width="0"
           x="0"
           id="rect20" />
      </g>
      <g
         fill="#ffffff"
         transform="translate(5945,4205)"
         font-family="'Sans Serif'"
         font-weight="400"
         font-size="31.75px"
         stroke="none"
         font-style="normal"
         fill-opacity="1"
         id="g26">
        <path
           d="m 40.0682,36.9083 c 0.0964,0.8414 0.1447,1.6953 0.1448,2.5617 0.0337,4.0638 -1.219,8.1955 -3.3903,11.2067 -1.4494,2.0301 -3.4108,3.7456 -5.6378,4.8937 -1.818,0.9155 -3.7114,1.4946 -5.6802,1.737 -0.4173,0.0495 -0.8347,0.0989 -1.2521,0.1483 -3.4258,0.3728 -7.0203,0.474 -10.2543,0.2351 C 10.7643,57.4519 7.89301,56.8785 5.81076,56.0706 5.10897,55.8003 4.47282,55.4878 3.90231,55.1332 2.63394,54.353 1.95442,53.364 1.96216,52.3992 c 5e-4,-0.7122 0.34353,-1.473 1.02908,-2.2825 0.68506,-0.7957 1.70378,-1.6004 2.81955,-2.3329 3.4862,-2.2926 9.25651,-4.7781 15.12201,-7.1276 1.527,-0.6098 3.051,-1.209 4.572,-1.7977 1.9688,-0.7624 3.8622,-1.7904 5.6801,-3.0839 2.227,-1.5979 4.1885,-3.5637 5.6379,-5.5938 0.7395,-1.0369 1.3693,-2.1185 1.8891,-3.2448 0.3846,-0.8339 0.6973,-1.674 0.9381,-2.5203 -0.2408,0.8463 -0.5535,1.6864 -0.9381,2.5203 0.5086,3.2429 0.9607,6.567 1.3563,9.9723"
           vector-effect="non-scaling-stroke"
           fill-rule="evenodd"
           id="path24" />
      </g>
      <g
         fill="none"
         stroke-linejoin="bevel"
         transform="translate(5945,4205)"
         stroke-opacity="1"
         stroke-width="1"
         stroke-linecap="square"
         font-family="'Sans Serif'"
         font-weight="400"
         font-size="31.75px"
         stroke="#000000"
         font-style="normal"
         id="g30">
        <rect
           y="0"
           height="0"
           width="0"
           x="0"
           id="rect28" />
      </g>
      <g
         fill="#ffffff"
         transform="translate(5945,4205)"
         font-family="'Sans Serif'"
         font-weight="400"
         font-size="31.75px"
         stroke="none"
         font-style="normal"
         fill-opacity="1"
         id="g34">
        <path
           d="m 36.8227,50.6767 c -1.4494,2.0301 -3.4108,3.7456 -5.6378,4.8937 -1.818,0.9155 -3.7114,1.4946 -5.6802,1.737 -0.4173,0.0495 -0.8347,0.0989 -1.2521,0.1483 -3.4258,0.3728 -7.0203,0.474 -10.2543,0.2351 C 10.7643,57.4519 7.89301,56.8785 5.81076,56.0706 5.10897,55.8003 4.47282,55.4878 3.90231,55.1332 2.63394,54.353 1.95442,53.364 1.96216,52.3992 1.96266,51.687 2.30569,50.9262 2.99124,50.1167 3.6763,49.321 4.69502,48.5163 5.81079,47.7838 9.29699,45.4912 15.0673,43.0057 20.9328,40.6562 l 15.8899,10.0205"
           vector-effect="non-scaling-stroke"
           fill-rule="evenodd"
           id="path32" />
      </g>
      <g
         fill="none"
         stroke-linejoin="bevel"
         transform="translate(5945,4205)"
         stroke-opacity="1"
         stroke-width="1"
         stroke-linecap="square"
         font-family="'Sans Serif'"
         font-weight="400"
         font-size="31.75px"
         stroke="#000000"
         font-style="normal"
         id="g38">
        <rect
           y="0"
           height="0"
           width="0"
           x="0"
           id="rect36" />
      </g>
      <g
         fill="#ffffff"
         transform="translate(5945,4205)"
         font-family="'Sans Serif'"
         font-weight="400"
         font-size="31.75px"
         stroke="none"
         font-style="normal"
         fill-opacity="1"
         id="g42">
        <path
           d="m 40.0682,36.9083 c 0.0964,0.8414 0.1447,1.6953 0.1448,2.5617 0.0337,4.0638 -1.219,8.1955 -3.3903,11.2067 L 20.9328,40.6562 c 1.527,-0.6098 3.051,-1.209 4.572,-1.7977 1.9688,-0.7624 3.8622,-1.7904 5.6801,-3.0839 2.227,-1.5979 4.1885,-3.5637 5.6379,-5.5938 0.7395,-1.0369 1.3693,-2.1185 1.8891,-3.2448 0.5086,3.2429 0.9607,6.567 1.3563,9.9723"
           vector-effect="non-scaling-stroke"
           fill-rule="evenodd"
           id="path40" />
      </g>
      <g
         fill="none"
         stroke-linejoin="bevel"
         transform="translate(5945,4205)"
         stroke-opacity="1"
         stroke-width="1"
         stroke-linecap="square"
         font-family="'Sans Serif'"
         font-weight="400"
         font-size="31.75px"
         stroke="#000000"
         font-style="normal"
         id="g46">
        <rect
           y="0"
           height="0"
           width="0"
           x="0"
           id="rect44" />
      </g>
      <g
         fill="#ffffff"
         transform="translate(5945,4205)"
         font-family="'Sans Serif'"
         font-weight="400"
         font-size="31.75px"
         stroke="none"
         font-style="normal"
         fill-opacity="1"
         id="g50">
        <path
           d="m -33.8128,-8.44285 c -0.0114,0.40692 -0.1245,0.75603 -0.3392,1.04732 l -2.2072,3.09167 v -6.74724 l 1.6608,1.0474 c 0.4904,0.29123 0.898,0.91465 0.8856,1.56085"
           vector-effect="non-scaling-stroke"
           fill-rule="evenodd"
           id="path48" />
      </g>
      <g
         fill="none"
         stroke-linejoin="bevel"
         transform="translate(5945,4205)"
         stroke-opacity="1"
         stroke-width="1"
         stroke-linecap="square"
         font-family="'Sans Serif'"
         font-weight="400"
         font-size="31.75px"
         stroke="#000000"
         font-style="normal"
         id="g54">
        <rect
           y="0"
           height="0"
           width="0"
           x="0"
           id="rect52" />
      </g>
      <g
         fill="#ffffff"
         transform="translate(5945,4205)"
         font-family="'Sans Serif'"
         font-weight="400"
         font-size="31.75px"
         stroke="none"
         font-style="normal"
         fill-opacity="1"
         id="g58">
        <path
           d="m -7.1849,-51.9154 c 0.61496,2.2459 0.92604,4.5719 0.93325,6.978 -5.1e-4,2.356 -0.31162,4.682 -0.9333,6.978 l 5e-5,-13.956"
           vector-effect="non-scaling-stroke"
           fill-rule="evenodd"
           id="path56" />
      </g>
      <g
         fill="none"
         stroke-linejoin="bevel"
         transform="translate(5945,4205)"
         stroke-opacity="1"
         stroke-width="1"
         stroke-linecap="square"
         font-family="'Sans Serif'"
         font-weight="400"
         font-size="31.75px"
         stroke="#000000"
         font-style="normal"
         id="g62">
        <rect
           y="0"
           height="0"
           width="0"
           x="0"
           id="rect60" />
      </g>
      <g
         fill="#ffffff"
         transform="translate(5945,4205)"
         font-family="'Sans Serif'"
         font-weight="400"
         font-size="31.75px"
         stroke="none"
         font-style="normal"
         fill-opacity="1"
         id="g66">
        <path
           d="m 40.2099,4.90948 c -0.0019,0.69912 -0.0791,1.45403 -0.2317,2.26474 -0.1956,1.02523 -0.5618,2.15532 -1.0986,3.39028 -0.5583,1.2354 -1.2439,2.4225 -2.0568,3.5611 -1.5682,2.2459 -4.0368,4.6129 -6.2762,6.2594 -1.2274,0.921 -2.6914,1.8803 -3.8029,2.6003 -0.4285,0.2759 -0.8414,0.5472 -1.2388,0.814 -1.3615,0.9032 -2.2033,1.9071 -2.1756,2.6251 -0.0062,0.557 0.4537,1.0553 1.327,1.3333 -0.8733,-0.278 -1.3332,-0.7763 -1.327,-1.3333 -0.0277,-0.718 0.8141,-1.7219 2.1756,-2.6251 0.3974,-0.2668 0.8103,-0.5381 1.2388,-0.814 1.1115,-0.72 2.5755,-1.6793 3.8029,-2.6003 2.2394,-1.6465 4.708,-4.0135 6.2762,-6.2594 0.8129,-1.1386 1.4985,-2.3257 2.0568,-3.5611 0.5368,-1.23496 0.903,-2.36505 1.0986,-3.39028 0.1526,-0.81071 0.2298,-1.56562 0.2317,-2.26474"
           vector-effect="non-scaling-stroke"
           fill-rule="evenodd"
           id="path64" />
      </g>
      <g
         fill="none"
         stroke-linejoin="bevel"
         transform="translate(5945,4205)"
         stroke-opacity="1"
         stroke-width="1"
         stroke-linecap="square"
         font-family="'Sans Serif'"
         font-weight="400"
         font-size="31.75px"
         stroke="#000000"
         font-style="normal"
         id="g70">
        <rect
           y="0"
           height="0"
           width="0"
           x="0"
           id="rect68" />
      </g>
      <g
         fill="none"
         stroke-linejoin="bevel"
         transform="translate(5945,4205)"
         stroke-opacity="1"
         stroke-width="5"
         stroke-linecap="round"
         font-family="'Sans Serif'"
         font-weight="400"
         font-size="31.75px"
         stroke="#000000"
         font-style="normal"
         id="g74">
        <path
           d="m -1.26764,-56.8302 -1.66079,-1.0473"
           vector-effect="none"
           fill-rule="evenodd"
           id="path72" />
      </g>
      <g
         fill="none"
         stroke-linejoin="bevel"
         transform="translate(5945,4205)"
         stroke-opacity="1"
         stroke-width="5"
         stroke-linecap="round"
         font-family="'Sans Serif'"
         font-weight="400"
         font-size="31.75px"
         stroke="#000000"
         font-style="normal"
         id="g78">
        <path
           d="m -7.1849,-51.9154 -5e-5,13.956"
           vector-effect="none"
           fill-rule="evenodd"
           id="path76" />
      </g>
      <g
         fill="none"
         stroke-linejoin="bevel"
         transform="translate(5945,4205)"
         stroke-opacity="1"
         stroke-width="5"
         stroke-linecap="round"
         font-family="'Sans Serif'"
         font-weight="400"
         font-size="31.75px"
         stroke="#000000"
         font-style="normal"
         id="g82">
        <path
           d="m -2.92843,-57.8775 -4.25647,5.9621"
           vector-effect="none"
           fill-rule="evenodd"
           id="path80" />
      </g>
      <g
         fill="none"
         stroke-linejoin="bevel"
         transform="translate(5945,4205)"
         stroke-opacity="1"
         stroke-width="5"
         stroke-linecap="round"
         font-family="'Sans Serif'"
         font-weight="400"
         font-size="31.75px"
         stroke="#000000"
         font-style="normal"
         id="g86">
        <path
           d="m 36.8228,14.1256 c -1.5682,2.2459 -4.0368,4.6129 -6.2762,6.2594 -1.2274,0.921 -2.6914,1.8803 -3.8029,2.6003 -0.4285,0.2759 -0.8414,0.5472 -1.2388,0.814"
           vector-effect="none"
           fill-rule="evenodd"
           id="path84" />
      </g>
      <g
         fill="none"
         stroke-linejoin="bevel"
         transform="translate(5945,4205)"
         stroke-opacity="1"
         stroke-width="5"
         stroke-linecap="round"
         font-family="'Sans Serif'"
         font-weight="400"
         font-size="31.75px"
         stroke="#000000"
         font-style="normal"
         id="g90">
        <path
           d="m 25.5049,23.7993 c -1.3615,0.9032 -2.2033,1.9071 -2.1756,2.6251 -0.0062,0.557 0.4537,1.0553 1.327,1.3333"
           vector-effect="none"
           fill-rule="evenodd"
           id="path88" />
      </g>
      <g
         fill="none"
         stroke-linejoin="bevel"
         transform="translate(5945,4205)"
         stroke-opacity="1"
         stroke-width="5"
         stroke-linecap="round"
         font-family="'Sans Serif'"
         font-weight="400"
         font-size="31.75px"
         stroke="#000000"
         font-style="normal"
         id="g94">
        <path
           d="M 40.2099,4.90948 C 40.208,5.6086 40.1308,6.36351 39.9782,7.17422 39.7826,8.19945 39.4164,9.32954 38.8796,10.5645 38.3213,11.7999 37.6357,12.987 36.8228,14.1256"
           vector-effect="none"
           fill-rule="evenodd"
           id="path92" />
      </g>
      <g
         fill="none"
         stroke-linejoin="bevel"
         transform="translate(5945,4205)"
         stroke-opacity="1"
         stroke-width="5"
         stroke-linecap="round"
         font-family="'Sans Serif'"
         font-weight="400"
         font-size="31.75px"
         stroke="#000000"
         font-style="normal"
         id="g98">
        <path
           d="m 10.5895,-70.0649 c 0.8697,-1.2903 2.6743,-2.1633 4.297,-2.0789 1.6251,0.0041 3.3728,0.974 4.1614,2.3095"
           vector-effect="none"
           fill-rule="evenodd"
           id="path96" />
      </g>
      <g
         fill="none"
         stroke-linejoin="bevel"
         transform="translate(5945,4205)"
         stroke-opacity="1"
         stroke-width="5"
         stroke-linecap="round"
         font-family="'Sans Serif'"
         font-weight="400"
         font-size="31.75px"
         stroke="#000000"
         font-style="normal"
         id="g102">
        <path
           d="m 36.8227,50.6767 c -1.4494,2.0301 -3.4108,3.7456 -5.6378,4.8937 -1.818,0.9155 -3.7114,1.4946 -5.6802,1.737"
           vector-effect="none"
           fill-rule="evenodd"
           id="path100" />
      </g>
      <g
         fill="none"
         stroke-linejoin="bevel"
         transform="translate(5945,4205)"
         stroke-opacity="1"
         stroke-width="5"
         stroke-linecap="round"
         font-family="'Sans Serif'"
         font-weight="400"
         font-size="31.75px"
         stroke="#000000"
         font-style="normal"
         id="g106">
        <path
           d="m 25.5047,57.3074 c -0.4173,0.0495 -0.8347,0.0989 -1.2521,0.1483 -3.4258,0.3728 -7.0203,0.474 -10.2543,0.2351 C 10.7643,57.4519 7.89301,56.8785 5.81076,56.0706 5.10897,55.8003 4.47282,55.4878 3.90231,55.1332"
           vector-effect="none"
           fill-rule="evenodd"
           id="path104" />
      </g>
      <g
         fill="none"
         stroke-linejoin="bevel"
         transform="translate(5945,4205)"
         stroke-opacity="1"
         stroke-width="5"
         stroke-linecap="round"
         font-family="'Sans Serif'"
         font-weight="400"
         font-size="31.75px"
         stroke="#000000"
         font-style="normal"
         id="g110">
        <path
           d="M 3.90231,55.1332 C 2.63394,54.353 1.95442,53.364 1.96216,52.3992"
           vector-effect="none"
           fill-rule="evenodd"
           id="path108" />
      </g>
      <g
         fill="none"
         stroke-linejoin="bevel"
         transform="translate(5945,4205)"
         stroke-opacity="1"
         stroke-width="5"
         stroke-linecap="round"
         font-family="'Sans Serif'"
         font-weight="400"
         font-size="31.75px"
         stroke="#000000"
         font-style="normal"
         id="g114">
        <path
           d="m 1.96216,52.3992 c 5e-4,-0.7122 0.34353,-1.473 1.02908,-2.2825 0.68506,-0.7957 1.70378,-1.6004 2.81955,-2.3329 2.08226,-1.3669 4.95351,-2.7958 8.18751,-4.2277 3.234,-1.4319 6.8286,-2.8733 10.2544,-4.2106 0.4174,-0.1623 0.8347,-0.3247 1.2521,-0.487"
           vector-effect="none"
           fill-rule="evenodd"
           id="path112" />
      </g>
      <g
         fill="none"
         stroke-linejoin="bevel"
         transform="translate(5945,4205)"
         stroke-opacity="1"
         stroke-width="5"
         stroke-linecap="round"
         font-family="'Sans Serif'"
         font-weight="400"
         font-size="31.75px"
         stroke="#000000"
         font-style="normal"
         id="g118">
        <path
           d="m 25.5048,38.8585 c 1.9688,-0.7624 3.8622,-1.7904 5.6801,-3.0839 2.227,-1.5979 4.1885,-3.5637 5.6379,-5.5938 1.2817,-1.7954 2.2657,-3.7849 2.8272,-5.7651"
           vector-effect="none"
           fill-rule="evenodd"
           id="path116" />
      </g>
      <g
         fill="none"
         stroke-linejoin="bevel"
         transform="translate(5945,4205)"
         stroke-opacity="1"
         stroke-width="5"
         stroke-linecap="round"
         font-family="'Sans Serif'"
         font-weight="400"
         font-size="31.75px"
         stroke="#000000"
         font-style="normal"
         id="g122">
        <path
           d="m 38.7119,26.936 c 0.5086,3.2429 0.9607,6.567 1.3563,9.9723"
           vector-effect="none"
           fill-rule="evenodd"
           id="path120" />
      </g>
      <g
         fill="none"
         stroke-linejoin="bevel"
         transform="translate(5945,4205)"
         stroke-opacity="1"
         stroke-width="5"
         stroke-linecap="round"
         font-family="'Sans Serif'"
         font-weight="400"
         font-size="31.75px"
         stroke="#000000"
         font-style="normal"
         id="g126">
        <path
           d="m 40.0682,36.9083 c 0.0964,0.8414 0.1447,1.6953 0.1448,2.5617"
           vector-effect="none"
           fill-rule="evenodd"
           id="path124" />
      </g>
      <g
         fill="none"
         stroke-linejoin="bevel"
         transform="translate(5945,4205)"
         stroke-opacity="1"
         stroke-width="5"
         stroke-linecap="round"
         font-family="'Sans Serif'"
         font-weight="400"
         font-size="31.75px"
         stroke="#000000"
         font-style="normal"
         id="g130">
        <path
           d="m 40.213,39.47 c 0.0337,4.0638 -1.219,8.1955 -3.3903,11.2067"
           vector-effect="none"
           fill-rule="evenodd"
           id="path128" />
      </g>
      <g
         fill="none"
         stroke-linejoin="bevel"
         transform="translate(5945,4205)"
         stroke-opacity="1"
         stroke-width="5"
         stroke-linecap="round"
         font-family="'Sans Serif'"
         font-weight="400"
         font-size="31.75px"
         stroke="#000000"
         font-style="normal"
         id="g134">
        <path
           d="m -39.8003,12.5944 c -1.6139,-0.1796 -3.2314,-1.3318 -3.8516,-2.74362 -0.2804,-0.58745 -0.4238,-1.22306 -0.4301,-1.90684"
           vector-effect="none"
           fill-rule="evenodd"
           id="path132" />
      </g>
      <g
         fill="none"
         stroke-linejoin="bevel"
         transform="translate(5945,4205)"
         stroke-opacity="1"
         stroke-width="5"
         stroke-linecap="round"
         font-family="'Sans Serif'"
         font-weight="400"
         font-size="31.75px"
         stroke="#000000"
         font-style="normal"
         id="g138">
        <path
           d="m -44.082,7.94394 c -0.0049,-0.94371 0.3197,-1.88738 0.848,-2.6183"
           vector-effect="none"
           fill-rule="evenodd"
           id="path136" />
      </g>
      <g
         fill="none"
         stroke-linejoin="bevel"
         transform="translate(5945,4205)"
         stroke-opacity="1"
         stroke-width="5"
         stroke-linecap="round"
         font-family="'Sans Serif'"
         font-weight="400"
         font-size="31.75px"
         stroke="#000000"
         font-style="normal"
         id="g142">
        <path
           d="m -44.0823,66.0158 c 0.0064,0.6838 0.1497,1.3194 0.4302,1.9069 0.6201,1.4118 2.2377,2.564 3.8515,2.7436"
           vector-effect="none"
           fill-rule="evenodd"
           id="path140" />
      </g>
      <g
         fill="none"
         stroke-linejoin="bevel"
         transform="translate(5945,4205)"
         stroke-opacity="1"
         stroke-width="5"
         stroke-linecap="round"
         font-family="'Sans Serif'"
         font-weight="400"
         font-size="31.75px"
         stroke="#000000"
         font-style="normal"
         id="g146">
        <path
           d="m 40.0684,-11.6001 c 0.0967,0.739 0.1456,1.4962 0.1466,2.27172"
           vector-effect="none"
           fill-rule="evenodd"
           id="path144" />
      </g>
      <g
         fill="none"
         stroke-linejoin="bevel"
         transform="translate(5945,4205)"
         stroke-opacity="1"
         stroke-width="5"
         stroke-linecap="round"
         font-family="'Sans Serif'"
         font-weight="400"
         font-size="31.75px"
         stroke="#000000"
         font-style="normal"
         id="g150">
        <path
           d="m 40.215,-9.32838 c 0.0328,3.87209 -1.3911,8.15611 -4.1814,11.50197 -2.7518,3.37866 -6.7128,5.67019 -10.5287,6.62545"
           vector-effect="none"
           fill-rule="evenodd"
           id="path148" />
      </g>
      <g
         fill="none"
         stroke-linejoin="bevel"
         transform="translate(5945,4205)"
         stroke-opacity="1"
         stroke-width="5"
         stroke-linecap="round"
         font-family="'Sans Serif'"
         font-weight="400"
         font-size="31.75px"
         stroke="#000000"
         font-style="normal"
         id="g154">
        <path
           d="m 25.5047,66.871 c 3.8159,-0.9553 7.7769,-3.2468 10.5286,-6.6255 2.7904,-3.3459 4.2143,-7.6299 4.1815,-11.502"
           vector-effect="none"
           fill-rule="evenodd"
           id="path152" />
      </g>
      <g
         fill="none"
         stroke-linejoin="bevel"
         transform="translate(5945,4205)"
         stroke-opacity="1"
         stroke-width="5"
         stroke-linecap="round"
         font-family="'Sans Serif'"
         font-weight="400"
         font-size="31.75px"
         stroke="#000000"
         font-style="normal"
         id="g158">
        <path
           d="m -7.1849,-51.9154 c 0.61496,2.2459 0.92604,4.5719 0.93325,6.978"
           vector-effect="none"
           fill-rule="evenodd"
           id="path156" />
      </g>
      <g
         fill="none"
         stroke-linejoin="bevel"
         transform="translate(5945,4205)"
         stroke-opacity="1"
         stroke-width="5"
         stroke-linecap="round"
         font-family="'Sans Serif'"
         font-weight="400"
         font-size="31.75px"
         stroke="#000000"
         font-style="normal"
         id="g162">
        <path
           d="m -6.25165,-44.9374 c 0.03053,5.5879 -1.87637,11.2654 -5.08825,15.7098 -2.2669,3.1892 -5.3692,6.0654 -8.9945,8.1896 -3.6172,2.1364 -7.7255,3.5022 -11.7683,4.0249"
           vector-effect="none"
           fill-rule="evenodd"
           id="path160" />
      </g>
      <g
         fill="none"
         stroke-linejoin="bevel"
         transform="translate(5945,4205)"
         stroke-opacity="1"
         stroke-width="5"
         stroke-linecap="round"
         font-family="'Sans Serif'"
         font-weight="400"
         font-size="31.75px"
         stroke="#000000"
         font-style="normal"
         id="g166">
        <path
           d="m 10.5895,-70.0649 -9.082,12.7212"
           vector-effect="none"
           fill-rule="evenodd"
           id="path164" />
      </g>
      <g
         fill="none"
         stroke-linejoin="bevel"
         transform="translate(5945,4205)"
         stroke-opacity="1"
         stroke-width="5"
         stroke-linecap="round"
         font-family="'Sans Serif'"
         font-weight="400"
         font-size="31.75px"
         stroke="#000000"
         font-style="normal"
         id="g170">
        <path
           d="m 19.0479,-69.8343 c 11.1195,17.6396 18.4245,37.877 21.0205,58.2342"
           vector-effect="none"
           fill-rule="evenodd"
           id="path168" />
      </g>
      <g
         fill="none"
         stroke-linejoin="bevel"
         transform="translate(5945,4205)"
         stroke-opacity="1"
         stroke-width="5"
         stroke-linecap="round"
         font-family="'Sans Serif'"
         font-weight="400"
         font-size="31.75px"
         stroke="#000000"
         font-style="normal"
         id="g174">
        <path
           d="M 25.5049,8.79904 C 4.47742,14.2587 -18.2173,15.5777 -39.8003,12.5944"
           vector-effect="none"
           fill-rule="evenodd"
           id="path172" />
      </g>
      <g
         fill="none"
         stroke-linejoin="bevel"
         transform="translate(5945,4205)"
         stroke-opacity="1"
         stroke-width="5"
         stroke-linecap="round"
         font-family="'Sans Serif'"
         font-weight="400"
         font-size="31.75px"
         stroke="#000000"
         font-style="normal"
         id="g178">
        <path
           d="m -39.8006,70.6663 c 21.583,2.9833 44.27779,1.6643 65.3053,-3.7953"
           vector-effect="none"
           fill-rule="evenodd"
           id="path176" />
      </g>
      <g
         fill="none"
         stroke-linejoin="bevel"
         transform="translate(5945,4205)"
         stroke-opacity="1"
         stroke-width="5"
         stroke-linecap="round"
         font-family="'Sans Serif'"
         font-weight="400"
         font-size="31.75px"
         stroke="#000000"
         font-style="normal"
         id="g182">
        <path
           d="M -34.152,-7.39553 -43.234,5.32564"
           vector-effect="none"
           fill-rule="evenodd"
           id="path180" />
      </g>
      <g
         fill="none"
         stroke-linejoin="bevel"
         transform="translate(5945,4205)"
         stroke-opacity="1"
         stroke-width="5"
         stroke-linecap="round"
         font-family="'Sans Serif'"
         font-weight="400"
         font-size="31.75px"
         stroke="#000000"
         font-style="normal"
         id="g186">
        <path
           d="m -36.3592,-11.0511 1.6608,1.0474"
           vector-effect="none"
           fill-rule="evenodd"
           id="path184" />
      </g>
      <g
         fill="none"
         stroke-linejoin="bevel"
         transform="translate(5945,4205)"
         stroke-opacity="1"
         stroke-width="5"
         stroke-linecap="round"
         font-family="'Sans Serif'"
         font-weight="400"
         font-size="31.75px"
         stroke="#000000"
         font-style="normal"
         id="g190">
        <path
           d="M -36.3592,-4.30386 V -11.0511"
           vector-effect="none"
           fill-rule="evenodd"
           id="path188" />
      </g>
      <g
         fill="none"
         stroke-linejoin="bevel"
         transform="translate(5945,4205)"
         stroke-opacity="1"
         stroke-width="5"
         stroke-linecap="round"
         font-family="'Sans Serif'"
         font-weight="400"
         font-size="31.75px"
         stroke="#000000"
         font-style="normal"
         id="g194">
        <path
           d="m -32.1027,-17.0131 -4.2565,5.962"
           vector-effect="none"
           fill-rule="evenodd"
           id="path192" />
      </g>
      <g
         fill="none"
         stroke-linejoin="bevel"
         transform="translate(5945,4205)"
         stroke-opacity="1"
         stroke-width="5"
         stroke-linecap="round"
         font-family="'Sans Serif'"
         font-weight="400"
         font-size="31.75px"
         stroke="#000000"
         font-style="normal"
         id="g198">
        <path
           d="m -34.6984,-10.0037 c 0.4904,0.29123 0.898,0.91465 0.8856,1.56085"
           vector-effect="none"
           fill-rule="evenodd"
           id="path196" />
      </g>
      <g
         fill="none"
         stroke-linejoin="bevel"
         transform="translate(5945,4205)"
         stroke-opacity="1"
         stroke-width="5"
         stroke-linecap="round"
         font-family="'Sans Serif'"
         font-weight="400"
         font-size="31.75px"
         stroke="#000000"
         font-style="normal"
         id="g202">
        <path
           d="m -33.8128,-8.44285 c -0.0114,0.40692 -0.1245,0.75603 -0.3392,1.04732"
           vector-effect="none"
           fill-rule="evenodd"
           id="path200" />
      </g>
      <g
         fill="none"
         stroke-linejoin="bevel"
         transform="translate(5945,4205)"
         stroke-opacity="1"
         stroke-width="5"
         stroke-linecap="round"
         font-family="'Sans Serif'"
         font-weight="400"
         font-size="31.75px"
         stroke="#000000"
         font-style="normal"
         id="g206">
        <path
           d="m 1.5075,-57.3437 c -0.25597,0.3694 -0.726246,0.7002 -1.274401,0.7969 -0.546273,0.1058 -1.114877,-0.0327 -1.500739,-0.2834"
           vector-effect="none"
           fill-rule="evenodd"
           id="path204" />
      </g>
      <g
         fill="none"
         stroke-linejoin="bevel"
         transform="translate(5945,4205)"
         stroke-opacity="1"
         stroke-width="5"
         stroke-linecap="round"
         font-family="'Sans Serif'"
         font-weight="400"
         font-size="31.75px"
         stroke="#000000"
         font-style="normal"
         id="g210">
        <path
           d="M 41.5573,22.2275 C 37.7416,27.572 30.8931,29.8132 24.656,27.7587"
           vector-effect="none"
           fill-rule="evenodd"
           id="path208" />
      </g>
      <g
         fill="none"
         stroke-linejoin="bevel"
         transform="translate(5945,4205)"
         stroke-opacity="1"
         stroke-width="5"
         stroke-linecap="round"
         font-family="'Sans Serif'"
         font-weight="400"
         font-size="31.75px"
         stroke="#000000"
         font-style="normal"
         id="g214">
        <path
           d="m 40.215,3.171 c 4.9576,5.20913 5.5208,13.2038 1.3423,19.0565"
           vector-effect="none"
           fill-rule="evenodd"
           id="path212" />
      </g>
      <g
         fill="none"
         stroke-linejoin="bevel"
         transform="translate(5945,4205)"
         stroke-opacity="1"
         stroke-width="5"
         stroke-linecap="round"
         font-family="'Sans Serif'"
         font-weight="400"
         font-size="31.75px"
         stroke="#000000"
         font-style="normal"
         id="g218">
        <path
           d="m -44.082,7.94394 -3e-4,58.07186"
           vector-effect="none"
           fill-rule="evenodd"
           id="path216" />
      </g>
      <g
         fill="none"
         stroke-linejoin="bevel"
         transform="translate(5945,4205)"
         stroke-opacity="1"
         stroke-width="5"
         stroke-linecap="round"
         font-family="'Sans Serif'"
         font-weight="400"
         font-size="31.75px"
         stroke="#000000"
         font-style="normal"
         id="g222">
        <path
           d="M 40.215,-9.32838 V 4.90948"
           vector-effect="none"
           fill-rule="evenodd"
           id="path220" />
      </g>
      <g
         fill="none"
         stroke-linejoin="bevel"
         transform="translate(5945,4205)"
         stroke-opacity="1"
         stroke-width="5"
         stroke-linecap="round"
         font-family="'Sans Serif'"
         font-weight="400"
         font-size="31.75px"
         stroke="#000000"
         font-style="normal"
         id="g226">
        <path
           d="m 40.2148,39.47 v 9.2735"
           vector-effect="none"
           fill-rule="evenodd"
           id="path224" />
      </g>
      <g
         fill="none"
         stroke-linejoin="bevel"
         transform="translate(5945,4205)"
         stroke-opacity="1"
         stroke-width="5"
         stroke-linecap="round"
         font-family="'Sans Serif'"
         font-weight="400"
         font-size="31.75px"
         stroke="#000000"
         font-style="normal"
         id="g230">
        <path
           d="m 41.5573,22.2275 c 0.1665,-0.2369 0.2491,-0.5238 0.2479,-0.8607"
           vector-effect="none"
           fill-rule="evenodd"
           id="path228" />
      </g>
      <g
         fill="none"
         stroke-linejoin="bevel"
         transform="translate(5945,4205)"
         stroke-opacity="1"
         stroke-width="5"
         stroke-linecap="round"
         font-family="'Sans Serif'"
         font-weight="400"
         font-size="31.75px"
         stroke="#000000"
         font-style="normal"
         id="g234">
        <path
           d="M 36.8227,50.6767 20.9328,40.6562"
           vector-effect="none"
           fill-rule="evenodd"
           id="path232" />
      </g>
    </g>
  </g>
</svg>
